<?xml version="1.0" encoding="utf-8"?>
<!-- Generator: Adobe Illustrator 24.0.1, SVG Export Plug-In . SVG Version: 6.00 Build 0)  -->
<svg version="1.1" id="Layer_1" xmlns="http://www.w3.org/2000/svg" xmlns:xlink="http://www.w3.org/1999/xlink" x="0px" y="0px"
	 viewBox="0 0 700 525" style="enable-background:new 0 0 700 525;" xml:space="preserve">
<style type="text/css">
	.st0{fill:none;stroke:#000000;stroke-width:2.5;stroke-linejoin:round;stroke-miterlimit:10;}
	.st1{fill:#FFFFFF;}
	.st2{fill:#BFBFBF;}
	.st3{fill:none;stroke:#000000;stroke-width:3.3333;stroke-linecap:square;stroke-linejoin:round;stroke-miterlimit:10;}
</style>
<g>
	<line class="st0" x1="162" y1="334.6" x2="563" y2="334.6"/>
	<path class="st1" d="M218.8,290.1c3.5,0,6.3,2.8,6.3,6.3l0,0c0,3.5-2.8,6.3-6.3,6.3s-6.3-2.8-6.3-6.3S215.4,290.1,218.8,290.1z
		 M218.8,287.6c-4.8,0-8.8,3.9-8.8,8.8s3.9,8.8,8.8,8.8s8.8-3.9,8.8-8.8l0,0C227.6,291.5,223.6,287.6,218.8,287.6z"/>
	<path class="st1" d="M228.8,315.4c3.5,0,6.3,2.8,6.3,6.3l0,0c0,3.5-2.8,6.3-6.3,6.3s-6.3-2.8-6.3-6.3S225.4,315.4,228.8,315.4z
		 M228.8,312.9c-4.8,0-8.8,3.9-8.8,8.8s3.9,8.8,8.8,8.8s8.8-3.9,8.8-8.8l0,0C237.6,316.8,233.7,312.9,228.8,312.9z"/>
	<path class="st1" d="M238.9,312.1c3.5,0,6.3,2.8,6.3,6.3l0,0c0,3.5-2.8,6.3-6.3,6.3s-6.3-2.8-6.3-6.3S235.4,312.1,238.9,312.1z
		 M238.9,309.6c-4.8,0-8.8,3.9-8.8,8.8s3.9,8.8,8.8,8.8s8.8-3.9,8.8-8.8l0,0C247.6,313.5,243.7,309.6,238.9,309.6z"/>
</g>
<g transform="translate(218.8083,296.3796)">
	<circle class="st2" cx="0" cy="0" r="6.3"/>
	<circle class="st2" cx="10" cy="25.2" r="6.3"/>
	<circle class="st2" cx="20" cy="22" r="6.3"/>
</g>
<g transform="translate(285.6417,383.2829)">
	<path class="st1" d="M0-6.3c3.5,0,6.3,2.8,6.3,6.3l0,0c0,3.5-2.8,6.3-6.3,6.3S-6.3,3.5-6.3,0S-3.5-6.3,0-6.3z M0-8.8
		c-4.8,0-8.8,3.9-8.8,8.8S-4.8,8.8,0,8.8S8.8,4.8,8.8,0l0,0C8.8-4.8,4.8-8.8,0-8.8z"/>
	<path class="st1" d="M10,19.5c3.5,0,6.3,2.8,6.3,6.3l0,0c0,3.5-2.8,6.3-6.3,6.3s-6.3-2.8-6.3-6.3S6.6,19.5,10,19.5z M10,17
		c-4.8,0-8.8,3.9-8.8,8.8s3.9,8.7,8.8,8.7s8.8-3.9,8.8-8.7l0,0C18.8,20.9,14.9,17,10,17z"/>
	<path class="st1" d="M20-51.3c3.5,0,6.3,2.8,6.3,6.3l0,0c0,3.5-2.8,6.3-6.3,6.3s-6.3-2.8-6.3-6.3S16.6-51.3,20-51.3z M20-53.8
		c-4.8,0-8.8,3.9-8.8,8.8s3.9,8.8,8.8,8.8s8.8-3.9,8.8-8.8l0,0C28.8-49.9,24.9-53.8,20-53.8z"/>
</g>
<g transform="translate(285.6417,383.2829)">
	<circle class="st2" cx="0" cy="0" r="6.3"/>
	<circle class="st2" cx="10" cy="25.7" r="6.3"/>
	<circle class="st2" cx="20" cy="-45" r="6.3"/>
</g>
<g transform="translate(352.475,47.0547)">
	<path class="st1" d="M0-6.3c3.5,0,6.3,2.8,6.3,6.3l0,0c0,3.5-2.8,6.3-6.3,6.3S-6.3,3.5-6.3,0S-3.5-6.3,0-6.3z M0-8.8
		c-4.8,0-8.8,3.9-8.8,8.8S-4.8,8.8,0,8.8S8.8,4.8,8.8,0l0,0C8.8-4.8,4.8-8.8,0-8.8z"/>
	<path class="st1" d="M10-5.5c3.5,0,6.3,2.8,6.3,6.3l0,0C16.3,4.2,13.5,7,10,7S3.8,4.2,3.8,0.7S6.6-5.5,10-5.5z M10-8
		C5.2-8,1.3-4.1,1.3,0.7S5.2,9.5,10,9.5s8.8-3.9,8.8-8.8l0,0C18.8-4.1,14.9-8,10-8z"/>
	<path class="st1" d="M20,24c3.5,0,6.3,2.8,6.3,6.3l0,0c0,3.5-2.8,6.2-6.3,6.2s-6.3-2.8-6.3-6.2S16.6,24,20,24z M20,21.5
		c-4.8,0-8.8,3.9-8.8,8.8S15.2,39,20,39s8.8-3.9,8.8-8.7l0,0C28.8,25.4,24.9,21.5,20,21.5z"/>
</g>
<g transform="translate(352.475,47.0547)">
	<circle class="st2" cx="0" cy="0" r="6.3"/>
	<circle class="st2" cx="10" cy="0.7" r="6.3"/>
	<circle class="st2" cx="20" cy="30.2" r="6.3"/>
</g>
<g transform="translate(419.3083,328.0915)">
	<path class="st1" d="M0-6.3c3.5,0,6.3,2.8,6.3,6.3l0,0c0,3.5-2.8,6.3-6.3,6.3S-6.3,3.5-6.3,0S-3.5-6.3,0-6.3z M0-8.8
		c-4.8,0-8.8,3.9-8.8,8.8S-4.8,8.8,0,8.8S8.8,4.8,8.8,0l0,0C8.8-4.8,4.8-8.8,0-8.8z"/>
	<path class="st1" d="M10,3.6c3.5,0,6.3,2.8,6.3,6.3l0,0c0,3.5-2.8,6.3-6.3,6.3s-6.3-2.8-6.3-6.3S6.6,3.6,10,3.6z M10,1.1
		C5.2,1.1,1.3,5,1.3,9.9s3.9,8.8,8.8,8.8s8.8-3.9,8.8-8.8l0,0C18.8,5,14.9,1.1,10,1.1z"/>
	<path class="st1" d="M20,6.5c3.5,0,6.3,2.8,6.3,6.3l0,0c0,3.5-2.8,6.2-6.3,6.2s-6.3-2.8-6.3-6.2S16.6,6.5,20,6.5z M20,4
		c-4.8,0-8.8,3.9-8.8,8.8s3.9,8.7,8.8,8.7s8.8-3.9,8.8-8.7l0,0C28.8,7.9,24.9,4,20,4z"/>
</g>
<g transform="translate(419.3083,328.0915)">
	<circle class="st2" cx="0" cy="0" r="6.3"/>
	<circle class="st2" cx="10" cy="9.9" r="6.3"/>
	<circle class="st2" cx="20" cy="12.7" r="6.3"/>
</g>
<g transform="translate(486.1417,272.12)">
	<path class="st1" d="M0-6.3c3.5,0,6.3,2.8,6.3,6.3l0,0c0,3.5-2.8,6.3-6.3,6.3S-6.3,3.5-6.3,0S-3.5-6.3,0-6.3z M0-8.8
		c-4.8,0-8.8,3.9-8.8,8.8S-4.8,8.8,0,8.8S8.8,4.8,8.8,0l0,0C8.8-4.8,4.8-8.8,0-8.8z"/>
	<path class="st1" d="M10-13.3c3.5,0,6.3,2.8,6.3,6.2l0,0c0,3.5-2.8,6.3-6.3,6.3S3.8-3.6,3.8-7.1S6.6-13.3,10-13.3z M10-15.8
		c-4.8,0-8.8,3.9-8.8,8.8S5.2,1.7,10,1.7s8.8-3.9,8.8-8.8l0,0C18.8-11.9,14.9-15.8,10-15.8z"/>
	<path class="st1" d="M20-23.6c3.5,0,6.3,2.8,6.3,6.3l0,0c0,3.5-2.8,6.3-6.3,6.3s-6.3-2.8-6.3-6.3S16.6-23.6,20-23.6z M20-26.1
		c-4.8,0-8.8,3.9-8.8,8.8s3.9,8.8,8.8,8.8s8.8-3.9,8.8-8.8l0,0C28.8-22.2,24.9-26.1,20-26.1z"/>
</g>
<g transform="translate(486.1417,272.12)">
	<circle class="st2" cx="0" cy="0" r="6.3"/>
	<circle class="st2" cx="10" cy="-7.1" r="6.3"/>
	<circle class="st2" cx="20" cy="-17.4" r="6.3"/>
	<circle cx="-257.3" cy="37.6" r="10"/>
</g>
<g transform="translate(228.8333,309.7465)">
	<path class="st1" d="M0-8.7c4.8,0,8.8,3.9,8.8,8.8l0,0c0,4.8-3.9,8.8-8.8,8.8S-8.8,4.8-8.8,0S-4.8-8.7,0-8.7z M0-11.2
		c-6.2,0-11.3,5-11.3,11.3s5,11.3,11.3,11.3S11.3,6.2,11.3,0l0,0C11.3-6.2,6.2-11.2,0-11.2z"/>
</g>
<g transform="translate(295.6667,383.3333)">
	<circle cx="0" cy="0" r="10"/>
</g>
<g transform="translate(295.6667,383.3333)">
	<path class="st1" d="M0-8.8c4.8,0,8.8,3.9,8.8,8.8l0,0c0,4.8-3.9,8.8-8.8,8.8S-8.8,4.8-8.8,0S-4.8-8.8,0-8.8z M0-11.3
		c-6.2,0-11.3,5-11.3,11.3s5,11.3,11.3,11.3S11.3,6.2,11.3,0l0,0C11.3-6.2,6.2-11.3,0-11.3z"/>
</g>
<g transform="translate(362.5,63.9252)">
	<circle cx="0" cy="0" r="10"/>
</g>
<g transform="translate(362.5,63.9252)">
	<path class="st1" d="M0-8.8c4.8,0,8.8,3.9,8.8,8.8l0,0c0,4.8-3.9,8.8-8.8,8.8S-8.8,4.8-8.8,0S-4.8-8.8,0-8.8z M0-11.3
		c-6.2,0-11.3,5-11.3,11.3s5,11.3,11.3,11.3S11.3,6.2,11.3,0l0,0C11.3-6.2,6.2-11.3,0-11.3z"/>
</g>
<g transform="translate(429.3333,334.2626)">
	<circle cx="0" cy="0" r="10"/>
</g>
<g transform="translate(429.3333,334.2626)">
	<path class="st1" d="M0-8.8c4.8,0,8.8,3.9,8.8,8.8l0,0c0,4.8-3.9,8.8-8.8,8.8S-8.8,4.8-8.8,0S-4.8-8.8,0-8.8z M0-11.3
		c-6.2,0-11.3,5-11.3,11.3s5,11.3,11.3,11.3S11.3,6.2,11.3,0l0,0C11.3-6.2,6.2-11.3,0-11.3z"/>
</g>
<g transform="translate(496.1667,261.6862)">
	<circle cx="0" cy="0" r="10"/>
</g>
<g transform="translate(496.1667,261.6862)">
	<path class="st1" d="M0-8.8c4.8,0,8.8,3.9,8.8,8.8l0,0c0,4.8-3.9,8.8-8.8,8.8S-8.8,4.8-8.8,0S-4.8-8.8,0-8.8z M0-11.3
		c-6.2,0-11.3,5-11.3,11.3s5,11.3,11.3,11.3S11.3,6.2,11.3,0l0,0C11.3-6.2,6.2-11.3,0-11.3z"/>
	<line class="st0" x1="-267.3" y1="73" x2="-267.3" y2="48.1"/>
	<line class="st0" x1="-200.5" y1="73" x2="-200.5" y2="121.6"/>
	<line class="st0" x1="-133.7" y1="73" x2="-133.7" y2="-197.8"/>
	<line class="st0" x1="-66.8" y1="73" x2="-66.8" y2="72.6"/>
	<line class="st0" x1="0" y1="73" x2="0" y2="0"/>
</g>
<g>
	<line class="st3" x1="162" y1="444" x2="563" y2="444"/>
	<line class="st3" x1="228.8" y1="444" x2="228.8" y2="454"/>
	<line class="st3" x1="295.7" y1="444" x2="295.7" y2="454"/>
	<line class="st3" x1="362.5" y1="444" x2="362.5" y2="454"/>
	<line class="st3" x1="429.3" y1="444" x2="429.3" y2="454"/>
	<line class="st3" x1="496.2" y1="444" x2="496.2" y2="454"/>
</g>
<g transform="translate(228.8333,461.3333)">
	<path d="M-37.1,21V6.7h1.9V21H-37.1z M-32.1,21V10.6h1.6v1.5c0.8-1.1,1.9-1.7,3.3-1.7c0.6,0,1.2,0.1,1.7,0.3
		c0.5,0.2,0.9,0.5,1.2,0.9c0.3,0.4,0.4,0.8,0.5,1.3c0.1,0.3,0.1,0.9,0.1,1.7V21h-1.8v-6.3c0-0.7-0.1-1.3-0.2-1.6
		c-0.1-0.4-0.4-0.6-0.7-0.8c-0.3-0.2-0.8-0.3-1.2-0.3c-0.7,0-1.4,0.2-1.9,0.7c-0.5,0.5-0.8,1.4-0.8,2.7V21H-32.1z M-17.2,19.4
		l0.3,1.6c-0.5,0.1-0.9,0.2-1.3,0.2c-0.6,0-1.1-0.1-1.5-0.3c-0.3-0.2-0.6-0.5-0.7-0.8c-0.1-0.3-0.2-1-0.2-2.1v-6H-22v-1.4h1.3V8.1
		l1.8-1.1v3.6h1.8V12h-1.8v6.1c0,0.5,0,0.8,0.1,1c0.1,0.1,0.2,0.3,0.3,0.3c0.1,0.1,0.3,0.1,0.6,0.1C-17.7,19.5-17.5,19.5-17.2,19.4z
		 M-8.3,17.7l1.8,0.2c-0.3,1.1-0.8,1.9-1.6,2.5c-0.8,0.6-1.8,0.9-3,0.9c-1.5,0-2.7-0.5-3.6-1.4c-0.9-0.9-1.3-2.2-1.3-3.9
		c0-1.8,0.4-3.1,1.3-4.1c0.9-1,2.1-1.4,3.5-1.4c1.4,0,2.5,0.5,3.4,1.4c0.9,0.9,1.3,2.3,1.3,4c0,0.1,0,0.3,0,0.5h-7.7
		c0.1,1.1,0.4,2,1,2.6c0.6,0.6,1.3,0.9,2.2,0.9c0.6,0,1.2-0.2,1.6-0.5S-8.6,18.4-8.3,17.7z M-14.1,14.8h5.8c-0.1-0.9-0.3-1.5-0.7-2
		c-0.6-0.7-1.3-1-2.2-1c-0.8,0-1.5,0.3-2,0.8C-13.8,13.2-14.1,13.9-14.1,14.8z M-4.3,21V10.6h1.6v1.6c0.4-0.7,0.8-1.2,1.1-1.5
		s0.7-0.4,1.1-0.4c0.6,0,1.2,0.2,1.8,0.6l-0.6,1.6c-0.4-0.3-0.9-0.4-1.3-0.4c-0.4,0-0.7,0.1-1,0.4c-0.3,0.2-0.5,0.6-0.7,1
		c-0.2,0.6-0.3,1.3-0.3,2V21H-4.3z M9.1,17.2l1.7,0.2c-0.2,1.2-0.7,2.1-1.4,2.8c-0.8,0.7-1.7,1-2.9,1c-1.4,0-2.6-0.5-3.4-1.4
		c-0.9-0.9-1.3-2.3-1.3-4c0-1.1,0.2-2.1,0.6-2.9c0.4-0.8,0.9-1.5,1.7-1.9c0.8-0.4,1.6-0.6,2.5-0.6c1.1,0,2,0.3,2.8,0.9
		s1.2,1.4,1.4,2.4L9,13.9c-0.2-0.7-0.4-1.2-0.9-1.6c-0.4-0.3-0.9-0.5-1.5-0.5c-0.9,0-1.6,0.3-2.2,1c-0.6,0.6-0.8,1.6-0.8,3
		c0,1.4,0.3,2.4,0.8,3c0.5,0.6,1.2,0.9,2.1,0.9c0.7,0,1.3-0.2,1.7-0.6C8.7,18.7,9,18.1,9.1,17.2z M19.4,17.7l1.8,0.2
		c-0.3,1.1-0.8,1.9-1.6,2.5c-0.8,0.6-1.8,0.9-3,0.9c-1.5,0-2.7-0.5-3.6-1.4c-0.9-0.9-1.3-2.2-1.3-3.9c0-1.8,0.4-3.1,1.3-4.1
		c0.9-1,2.1-1.4,3.5-1.4c1.4,0,2.5,0.5,3.4,1.4c0.9,0.9,1.3,2.3,1.3,4c0,0.1,0,0.3,0,0.5h-7.7c0.1,1.1,0.4,2,1,2.6
		c0.6,0.6,1.3,0.9,2.2,0.9c0.6,0,1.2-0.2,1.6-0.5C18.8,18.9,19.2,18.4,19.4,17.7z M13.7,14.8h5.8c-0.1-0.9-0.3-1.5-0.7-2
		c-0.6-0.7-1.3-1-2.2-1c-0.8,0-1.5,0.3-2,0.8C14,13.2,13.7,13.9,13.7,14.8z M23.5,25V10.6h1.6V12c0.4-0.5,0.8-0.9,1.3-1.2
		c0.5-0.3,1-0.4,1.7-0.4c0.9,0,1.7,0.2,2.3,0.7s1.2,1.1,1.5,1.9c0.3,0.8,0.5,1.7,0.5,2.7c0,1.1-0.2,2-0.6,2.9
		c-0.4,0.8-0.9,1.5-1.7,2c-0.7,0.5-1.5,0.7-2.3,0.7c-0.6,0-1.1-0.1-1.6-0.4c-0.5-0.3-0.8-0.6-1.1-0.9v5H23.5z M25,15.9
		c0,1.3,0.3,2.3,0.8,3c0.5,0.6,1.2,1,2,1c0.8,0,1.5-0.3,2-1c0.6-0.7,0.8-1.7,0.8-3.1c0-1.3-0.3-2.3-0.8-3c-0.5-0.7-1.2-1-1.9-1
		c-0.8,0-1.4,0.4-2,1.1C25.3,13.5,25,14.5,25,15.9z M38.4,19.4l0.3,1.6c-0.5,0.1-0.9,0.2-1.3,0.2c-0.6,0-1.1-0.1-1.5-0.3
		c-0.3-0.2-0.6-0.5-0.7-0.8c-0.1-0.3-0.2-1-0.2-2.1v-6h-1.3v-1.4h1.3V8.1L36.7,7v3.6h1.8V12h-1.8v6.1c0,0.5,0,0.8,0.1,1
		c0.1,0.1,0.2,0.3,0.3,0.3c0.1,0.1,0.3,0.1,0.6,0.1C37.8,19.5,38.1,19.5,38.4,19.4z"/>
</g>
<g transform="translate(285,482)">
	<path d="M5.2,0v-12.6H0.5v-1.7h11.3v1.7H7.1V0H5.2z"/>
</g>
<g transform="translate(298,491)">
	<path d="M6,0H4.6v-9C4.2-8.6,3.8-8.3,3.2-8c-0.5,0.3-1,0.6-1.5,0.7v-1.4C2.5-9,3.2-9.5,3.8-10c0.6-0.5,1-1,1.3-1.5H6V0z"/>
</g>
<g transform="translate(352,482)">
	<path d="M5.2,0v-12.6H0.5v-1.7h11.3v1.7H7.1V0H5.2z"/>
</g>
<g transform="translate(365,491)">
	<path d="M8.1-1.4V0H0.5c0-0.3,0-0.7,0.2-1c0.2-0.5,0.5-1,0.9-1.5C2-3,2.6-3.6,3.4-4.2c1.2-1,2.1-1.8,2.5-2.4
		c0.4-0.6,0.7-1.2,0.7-1.7c0-0.6-0.2-1-0.6-1.4c-0.4-0.4-0.9-0.6-1.6-0.6c-0.7,0-1.2,0.2-1.6,0.6S2.2-8.8,2.2-8L0.8-8.2
		c0.1-1.1,0.5-1.9,1.1-2.5c0.6-0.6,1.5-0.8,2.6-0.8c1.1,0,2,0.3,2.6,0.9C7.7-10,8-9.2,8-8.3C8-7.9,8-7.4,7.8-7
		C7.6-6.5,7.3-6.1,6.8-5.6c-0.4,0.5-1.2,1.2-2.2,2C3.8-2.9,3.3-2.4,3-2.1C2.8-1.9,2.6-1.6,2.4-1.4H8.1z"/>
</g>
<g transform="translate(421,482)">
	<path d="M1.9,0v-14.3h1.9V0H1.9z"/>
</g>
<g transform="translate(427,491)">
	<path d="M6,0H4.6v-9C4.2-8.6,3.8-8.3,3.2-8c-0.5,0.3-1,0.6-1.5,0.7v-1.4C2.5-9,3.2-9.5,3.8-10c0.6-0.5,1-1,1.3-1.5H6V0z"/>
</g>
<g transform="translate(488,482)">
	<path d="M1.9,0v-14.3h1.9V0H1.9z"/>
</g>
<g transform="translate(494,491)">
	<path d="M8.1-1.4V0H0.5c0-0.3,0-0.7,0.2-1c0.2-0.5,0.5-1,0.9-1.5C2-3,2.6-3.6,3.4-4.2c1.2-1,2.1-1.8,2.5-2.4
		c0.4-0.6,0.7-1.2,0.7-1.7c0-0.6-0.2-1-0.6-1.4c-0.4-0.4-0.9-0.6-1.6-0.6c-0.7,0-1.2,0.2-1.6,0.6S2.2-8.8,2.2-8L0.8-8.2
		c0.1-1.1,0.5-1.9,1.1-2.5c0.6-0.6,1.5-0.8,2.6-0.8c1.1,0,2,0.3,2.6,0.9C7.7-10,8-9.2,8-8.3C8-7.9,8-7.4,7.8-7
		C7.6-6.5,7.3-6.1,6.8-5.6c-0.4,0.5-1.2,1.2-2.2,2C3.8-2.9,3.3-2.4,3-2.1C2.8-1.9,2.6-1.6,2.4-1.4H8.1z"/>
</g>
<g transform="translate(362.5002,496)">
	<path d="M-49.3,23V7.3h7c1.4,0,2.5,0.1,3.2,0.4c0.7,0.3,1.3,0.8,1.8,1.5c0.4,0.7,0.6,1.5,0.6,2.4c0,1.1-0.4,2.1-1.1,2.8
		c-0.7,0.8-1.8,1.3-3.3,1.5c0.5,0.3,1,0.5,1.3,0.8c0.6,0.6,1.2,1.3,1.7,2.1l2.7,4.3H-38l-2.1-3.3c-0.6-0.9-1.1-1.7-1.5-2.2
		c-0.4-0.5-0.7-0.9-1.1-1.1c-0.3-0.2-0.6-0.3-1-0.4c-0.2-0.1-0.6-0.1-1.2-0.1h-2.4v7H-49.3z M-47.2,14.2h4.5c0.9,0,1.7-0.1,2.2-0.3
		c0.5-0.2,0.9-0.5,1.2-0.9c0.3-0.4,0.4-0.9,0.4-1.4c0-0.7-0.3-1.4-0.8-1.8C-40.2,9.2-41,9-42.2,9h-5V14.2z M-25.8,19.3l2,0.3
		c-0.3,1.2-0.9,2.1-1.8,2.7c-0.8,0.6-1.9,1-3.3,1c-1.7,0-3-0.5-4-1.5c-1-1-1.5-2.5-1.5-4.3c0-1.9,0.5-3.4,1.5-4.5
		c1-1.1,2.3-1.6,3.9-1.6c1.5,0,2.8,0.5,3.7,1.6s1.5,2.5,1.5,4.4c0,0.1,0,0.3,0,0.5h-8.5c0.1,1.3,0.4,2.2,1.1,2.9
		c0.6,0.7,1.4,1,2.4,1c0.7,0,1.3-0.2,1.8-0.6C-26.5,20.7-26.1,20.1-25.8,19.3z M-32.2,16.2h6.4c-0.1-1-0.3-1.7-0.7-2.2
		c-0.6-0.7-1.4-1.1-2.4-1.1c-0.9,0-1.6,0.3-2.2,0.9C-31.8,14.4-32.1,15.2-32.2,16.2z M-21.8,24l1.9,0.3c0.1,0.6,0.3,1,0.7,1.3
		c0.5,0.4,1.1,0.5,2,0.5c0.9,0,1.6-0.2,2.1-0.5c0.5-0.4,0.8-0.9,1-1.5c0.1-0.4,0.2-1.2,0.1-2.5c-0.8,1-1.9,1.5-3.2,1.5
		c-1.6,0-2.8-0.6-3.6-1.7c-0.9-1.1-1.3-2.5-1.3-4.1c0-1.1,0.2-2.1,0.6-3c0.4-0.9,1-1.6,1.7-2.1c0.8-0.5,1.6-0.8,2.6-0.8
		c1.3,0,2.5,0.5,3.3,1.6v-1.4h1.8v9.9c0,1.8-0.2,3-0.5,3.8c-0.4,0.7-0.9,1.3-1.7,1.8c-0.8,0.4-1.7,0.6-2.9,0.6
		c-1.4,0-2.5-0.3-3.3-0.9C-21.4,26.1-21.8,25.2-21.8,24z M-20.2,17.1c0,1.5,0.3,2.6,0.9,3.3s1.3,1,2.2,1c0.9,0,1.6-0.3,2.2-1
		c0.6-0.7,0.9-1.8,0.9-3.2c0-1.4-0.3-2.4-0.9-3.2s-1.4-1.1-2.2-1.1c-0.9,0-1.6,0.3-2.2,1C-19.9,14.7-20.2,15.7-20.2,17.1z M-9.2,23
		V11.6h1.7v1.7c0.4-0.8,0.8-1.3,1.2-1.6c0.4-0.3,0.8-0.4,1.2-0.4c0.7,0,1.3,0.2,2,0.6l-0.7,1.8c-0.5-0.3-1-0.4-1.4-0.4
		c-0.4,0-0.8,0.1-1.1,0.4C-6.6,14-6.8,14.3-7,14.8c-0.2,0.7-0.3,1.4-0.3,2.3v6H-9.2z M6,19.3l2,0.3c-0.3,1.2-0.9,2.1-1.8,2.7
		c-0.8,0.6-1.9,1-3.3,1c-1.7,0-3-0.5-4-1.5c-1-1-1.5-2.5-1.5-4.3c0-1.9,0.5-3.4,1.5-4.5c1-1.1,2.3-1.6,3.9-1.6
		c1.5,0,2.8,0.5,3.7,1.6c1,1,1.5,2.5,1.5,4.4c0,0.1,0,0.3,0,0.5h-8.5c0.1,1.3,0.4,2.2,1.1,2.9c0.6,0.7,1.4,1,2.4,1
		c0.7,0,1.3-0.2,1.8-0.6S5.6,20.1,6,19.3z M-0.4,16.2H6c-0.1-1-0.3-1.7-0.7-2.2c-0.6-0.7-1.4-1.1-2.4-1.1c-0.9,0-1.6,0.3-2.2,0.9
		C0,14.4-0.3,15.2-0.4,16.2z M9.6,19.6l1.9-0.3c0.1,0.8,0.4,1.3,0.9,1.8c0.5,0.4,1.2,0.6,2.1,0.6c0.9,0,1.5-0.2,2-0.5
		c0.4-0.4,0.6-0.8,0.6-1.3c0-0.4-0.2-0.8-0.6-1c-0.3-0.2-0.9-0.4-2-0.7c-1.4-0.4-2.4-0.7-3-0.9c-0.5-0.3-1-0.6-1.2-1.1
		c-0.3-0.5-0.4-1-0.4-1.5c0-0.5,0.1-1,0.4-1.4c0.2-0.4,0.5-0.8,0.9-1.1c0.3-0.2,0.7-0.4,1.2-0.6c0.5-0.2,1.1-0.2,1.7-0.2
		c0.9,0,1.7,0.1,2.4,0.4c0.7,0.3,1.2,0.6,1.5,1c0.3,0.4,0.5,1,0.7,1.8l-1.9,0.3c-0.1-0.6-0.3-1.1-0.7-1.4c-0.4-0.3-1-0.5-1.7-0.5
		c-0.9,0-1.5,0.1-1.9,0.4c-0.4,0.3-0.6,0.6-0.6,1c0,0.2,0.1,0.5,0.2,0.7c0.2,0.2,0.4,0.4,0.7,0.5c0.2,0.1,0.8,0.2,1.7,0.5
		c1.4,0.4,2.3,0.7,2.9,0.9c0.5,0.2,1,0.6,1.3,1c0.3,0.4,0.5,1,0.5,1.6c0,0.6-0.2,1.3-0.6,1.8c-0.4,0.6-0.9,1-1.6,1.3
		c-0.7,0.3-1.5,0.5-2.4,0.5c-1.5,0-2.6-0.3-3.4-0.9C10.3,21.7,9.8,20.8,9.6,19.6z M20.6,19.6l1.9-0.3c0.1,0.8,0.4,1.3,0.9,1.8
		c0.5,0.4,1.2,0.6,2.1,0.6s1.5-0.2,2-0.5c0.4-0.4,0.6-0.8,0.6-1.3c0-0.4-0.2-0.8-0.6-1c-0.3-0.2-0.9-0.4-2-0.7
		c-1.4-0.4-2.4-0.7-3-0.9c-0.5-0.3-1-0.6-1.2-1.1c-0.3-0.5-0.4-1-0.4-1.5c0-0.5,0.1-1,0.4-1.4c0.2-0.4,0.5-0.8,0.9-1.1
		c0.3-0.2,0.7-0.4,1.2-0.6c0.5-0.2,1.1-0.2,1.7-0.2c0.9,0,1.7,0.1,2.4,0.4c0.7,0.3,1.2,0.6,1.5,1c0.3,0.4,0.5,1,0.7,1.8l-1.9,0.3
		c-0.1-0.6-0.3-1.1-0.7-1.4c-0.4-0.3-1-0.5-1.7-0.5c-0.9,0-1.5,0.1-1.9,0.4c-0.4,0.3-0.6,0.6-0.6,1c0,0.2,0.1,0.5,0.2,0.7
		c0.2,0.2,0.4,0.4,0.7,0.5c0.2,0.1,0.8,0.2,1.7,0.5c1.4,0.4,2.3,0.7,2.9,0.9c0.5,0.2,1,0.6,1.3,1c0.3,0.4,0.5,1,0.5,1.6
		c0,0.6-0.2,1.3-0.6,1.8c-0.4,0.6-0.9,1-1.6,1.3c-0.7,0.3-1.5,0.5-2.4,0.5c-1.5,0-2.6-0.3-3.4-0.9C21.3,21.7,20.8,20.8,20.6,19.6z
		 M31.7,17.3c0-2.1,0.6-3.7,1.8-4.7c1-0.8,2.2-1.3,3.6-1.3c1.6,0,2.9,0.5,3.9,1.5s1.5,2.5,1.5,4.3c0,1.5-0.2,2.6-0.7,3.5
		c-0.4,0.8-1.1,1.5-1.9,2C38.9,23,38,23.3,37,23.3c-1.6,0-2.9-0.5-3.9-1.5C32.1,20.7,31.7,19.2,31.7,17.3z M33.6,17.3
		c0,1.5,0.3,2.6,1,3.3c0.6,0.7,1.4,1.1,2.4,1.1c1,0,1.8-0.4,2.4-1.1c0.6-0.7,1-1.8,1-3.3c0-1.4-0.3-2.5-1-3.2
		c-0.6-0.7-1.4-1.1-2.4-1.1c-1,0-1.8,0.4-2.4,1.1C34,14.7,33.6,15.8,33.6,17.3z M44.6,23V11.6h1.8v1.7c0.4-0.8,0.8-1.3,1.2-1.6
		c0.4-0.3,0.8-0.4,1.2-0.4c0.7,0,1.3,0.2,2,0.6l-0.7,1.8c-0.5-0.3-1-0.4-1.4-0.4c-0.4,0-0.8,0.1-1.1,0.4c-0.3,0.3-0.6,0.6-0.7,1.1
		c-0.2,0.7-0.3,1.4-0.3,2.3v6H44.6z"/>
</g>
<g>
	<line class="st3" x1="162" y1="444" x2="162" y2="43"/>
	<line class="st3" x1="162" y1="425.8" x2="152" y2="425.8"/>
	<line class="st3" x1="162" y1="334.6" x2="152" y2="334.6"/>
	<line class="st3" x1="162" y1="243.5" x2="152" y2="243.5"/>
	<line class="st3" x1="162" y1="152.4" x2="152" y2="152.4"/>
	<line class="st3" x1="162" y1="61.2" x2="152" y2="61.2"/>
</g>
<g transform="translate(144.6667,425.7727)">
	<path d="M-34.4,3.7V1.9h5.4v1.8H-34.4z M-27.5,0.9c0-1.7,0.2-3,0.5-4.1c0.3-1,0.9-1.8,1.6-2.4c0.7-0.6,1.6-0.8,2.6-0.8
		c0.8,0,1.4,0.2,2,0.5c0.6,0.3,1.1,0.8,1.4,1.3s0.7,1.3,0.9,2.1c0.2,0.8,0.3,2,0.3,3.4c0,1.7-0.2,3-0.5,4.1s-0.9,1.8-1.5,2.4
		c-0.7,0.6-1.5,0.9-2.6,0.9c-1.4,0-2.5-0.5-3.3-1.5C-27,5.6-27.5,3.6-27.5,0.9z M-25.7,0.9c0,2.4,0.3,3.9,0.8,4.7
		c0.5,0.8,1.2,1.2,2,1.2c0.8,0,1.5-0.4,2-1.2S-20,3.3-20,0.9c0-2.4-0.3-3.9-0.8-4.7c-0.6-0.8-1.2-1.2-2-1.2c-0.8,0-1.5,0.3-1.9,1
		C-25.4-3-25.7-1.4-25.7,0.9z M-15.4,8V6h2v2H-15.4z M-10.8,4.3L-9,4.1c0.1,0.9,0.5,1.6,1,2c0.5,0.5,1.1,0.7,1.8,0.7
		c0.8,0,1.6-0.3,2.1-1c0.6-0.6,0.9-1.5,0.9-2.5c0-1-0.3-1.8-0.8-2.4c-0.6-0.6-1.3-0.9-2.2-0.9c-0.6,0-1.1,0.1-1.5,0.4
		c-0.5,0.3-0.8,0.6-1.1,1l-1.7-0.2l1.4-7.4H-2v1.7h-5.7l-0.8,3.8c0.9-0.6,1.8-0.9,2.7-0.9c1.3,0,2.3,0.4,3.2,1.3s1.3,2,1.3,3.3
		c0,1.3-0.4,2.4-1.1,3.4c-0.9,1.2-2.2,1.8-3.7,1.8c-1.3,0-2.4-0.4-3.2-1.1C-10.2,6.4-10.7,5.5-10.8,4.3z"/>
</g>
<g transform="translate(144.6667,334.6364)">
	<path d="M-11.2,0.9c0-1.7,0.2-3,0.5-4.1c0.3-1,0.9-1.8,1.6-2.4c0.7-0.6,1.6-0.8,2.6-0.8c0.8,0,1.4,0.2,2,0.5
		C-3.9-5.6-3.4-5.2-3-4.6s0.7,1.3,0.9,2.1c0.2,0.8,0.3,2,0.3,3.4C-1.8,2.6-2,4-2.4,5c-0.3,1-0.9,1.8-1.5,2.4C-4.6,8-5.4,8.3-6.5,8.3
		c-1.4,0-2.5-0.5-3.3-1.5C-10.7,5.6-11.2,3.6-11.2,0.9z M-9.4,0.9c0,2.4,0.3,3.9,0.8,4.7c0.5,0.8,1.2,1.2,2,1.2c0.8,0,1.5-0.4,2-1.2
		c0.6-0.8,0.8-2.3,0.8-4.7c0-2.4-0.3-3.9-0.8-4.7c-0.6-0.8-1.2-1.2-2-1.2c-0.8,0-1.5,0.3-1.9,1C-9.1-3-9.4-1.4-9.4,0.9z"/>
</g>
<g transform="translate(144.6667,243.5)">
	<path d="M-27.2,0.9c0-1.7,0.2-3,0.5-4.1c0.3-1,0.9-1.8,1.6-2.4c0.7-0.6,1.6-0.8,2.6-0.8c0.8,0,1.4,0.2,2,0.5
		c0.6,0.3,1.1,0.8,1.4,1.3s0.7,1.3,0.9,2.1c0.2,0.8,0.3,2,0.3,3.4c0,1.7-0.2,3-0.5,4.1c-0.3,1-0.9,1.8-1.5,2.4
		c-0.7,0.6-1.5,0.9-2.6,0.9c-1.4,0-2.5-0.5-3.3-1.5C-26.7,5.6-27.2,3.6-27.2,0.9z M-25.4,0.9c0,2.4,0.3,3.9,0.8,4.7
		c0.5,0.8,1.2,1.2,2,1.2c0.8,0,1.5-0.4,2-1.2c0.6-0.8,0.8-2.3,0.8-4.7c0-2.4-0.3-3.9-0.8-4.7c-0.6-0.8-1.2-1.2-2-1.2
		c-0.8,0-1.5,0.3-1.9,1C-25.1-3-25.4-1.4-25.4,0.9z M-15.1,8V6h2v2H-15.1z M-10.5,4.3l1.8-0.2c0.1,0.9,0.5,1.6,1,2
		c0.5,0.5,1.1,0.7,1.8,0.7c0.8,0,1.6-0.3,2.1-1c0.6-0.6,0.9-1.5,0.9-2.5c0-1-0.3-1.8-0.8-2.4C-4.3,0.4-5,0.1-5.9,0.1
		c-0.6,0-1.1,0.1-1.5,0.4s-0.8,0.6-1.1,1l-1.7-0.2l1.4-7.4h7.1v1.7h-5.7l-0.8,3.8c0.9-0.6,1.8-0.9,2.7-0.9c1.3,0,2.3,0.4,3.2,1.3
		C-1.4,0.7-1,1.8-1,3.1c0,1.3-0.4,2.4-1.1,3.4C-3,7.7-4.3,8.3-5.9,8.3c-1.3,0-2.4-0.4-3.2-1.1C-9.9,6.4-10.4,5.5-10.5,4.3z"/>
</g>
<g transform="translate(144.6667,152.3636)">
	<path d="M-4.5,8h-1.8V-3.2C-6.7-2.8-7.3-2.4-8-2c-0.7,0.4-1.3,0.7-1.9,0.9v-1.7c1-0.5,1.9-1,2.6-1.7C-6.5-5.1-6-5.8-5.7-6.4h1.1V8z
		"/>
</g>
<g transform="translate(144.6667,61.2273)">
	<path d="M-20.5,8h-1.8V-3.2c-0.4,0.4-1,0.8-1.7,1.2c-0.7,0.4-1.3,0.7-1.9,0.9v-1.7c1-0.5,1.9-1,2.6-1.7c0.7-0.7,1.3-1.3,1.6-1.9
		h1.1V8z M-15.1,8V6h2v2H-15.1z M-10.5,4.2l1.8-0.2c0.1,0.9,0.5,1.6,1,2c0.5,0.5,1.1,0.7,1.8,0.7c0.8,0,1.6-0.3,2.1-1
		c0.6-0.6,0.9-1.5,0.9-2.5c0-1-0.3-1.8-0.8-2.4C-4.3,0.4-5,0.1-5.9,0.1c-0.6,0-1.1,0.1-1.5,0.4s-0.8,0.6-1.1,1l-1.7-0.2l1.4-7.4h7.1
		v1.7h-5.7l-0.8,3.8c0.9-0.6,1.8-0.9,2.7-0.9c1.3,0,2.3,0.4,3.2,1.3C-1.4,0.7-1,1.8-1,3.1c0,1.3-0.4,2.4-1.1,3.4
		C-3,7.7-4.3,8.3-5.9,8.3c-1.3,0-2.4-0.4-3.2-1.1C-9.9,6.4-10.4,5.5-10.5,4.2z"/>
</g>
<g transform="translate(105.1667,243.4998) rotate(-90)">
	<path d="M-30-5l-4.2-15.8h2.1l2.4,10.3c0.3,1.1,0.5,2.2,0.7,3.2c0.4-1.7,0.6-2.7,0.7-2.9l3-10.6h2.5l2.3,8c0.6,2,1,3.8,1.2,5.6
		c0.2-1,0.5-2.1,0.8-3.4l2.5-10.1h2.1L-18.3-5h-2l-3.3-12c-0.3-1-0.4-1.6-0.5-1.8c-0.2,0.7-0.3,1.3-0.5,1.8l-3.3,12H-30z M-4.5-8.7
		l2,0.3c-0.3,1.2-0.9,2.1-1.8,2.7c-0.8,0.6-1.9,1-3.3,1c-1.7,0-3-0.5-4-1.5c-1-1-1.5-2.5-1.5-4.3c0-1.9,0.5-3.4,1.5-4.5
		c1-1.1,2.3-1.6,3.9-1.6c1.5,0,2.8,0.5,3.7,1.6c1,1,1.5,2.5,1.5,4.4c0,0.1,0,0.3,0,0.5h-8.5C-10.9-9-10.5-8-9.9-7.3
		c0.6,0.7,1.4,1,2.4,1c0.7,0,1.3-0.2,1.8-0.6S-4.8-7.9-4.5-8.7z M-10.8-11.8h6.4c-0.1-1-0.3-1.7-0.7-2.2c-0.6-0.7-1.4-1.1-2.4-1.1
		c-0.9,0-1.6,0.3-2.2,0.9C-10.4-13.6-10.8-12.8-10.8-11.8z M0-18.5v-2.2h1.9v2.2H0z M0-5v-11.4h1.9V-5H0z M4.5-4l1.9,0.3
		c0.1,0.6,0.3,1,0.7,1.3C7.5-2.1,8.1-2,9-2c0.9,0,1.6-0.2,2.1-0.5c0.5-0.4,0.8-0.9,1-1.5c0.1-0.4,0.2-1.2,0.1-2.5
		C11.3-5.5,10.3-5,9-5C7.5-5,6.2-5.6,5.4-6.7c-0.9-1.1-1.3-2.5-1.3-4.1c0-1.1,0.2-2.1,0.6-3c0.4-0.9,1-1.6,1.7-2.1
		C7.2-16.4,8-16.7,9-16.7c1.3,0,2.5,0.5,3.3,1.6v-1.4h1.8v9.9c0,1.8-0.2,3-0.5,3.8C13.2-2,12.7-1.4,11.9-1C11.1-0.6,10.1-0.4,9-0.4
		c-1.4,0-2.5-0.3-3.3-0.9C4.9-1.9,4.5-2.8,4.5-4z M6.1-10.9c0,1.5,0.3,2.6,0.9,3.3c0.6,0.7,1.3,1,2.2,1c0.9,0,1.6-0.3,2.2-1
		c0.6-0.7,0.9-1.8,0.9-3.2c0-1.4-0.3-2.4-0.9-3.2s-1.4-1.1-2.2-1.1c-0.9,0-1.6,0.3-2.2,1C6.4-13.3,6.1-12.3,6.1-10.9z M17.1-5v-15.8
		H19v5.7c0.9-1.1,2-1.6,3.4-1.6c0.8,0,1.6,0.2,2.2,0.5c0.6,0.3,1.1,0.8,1.3,1.4c0.3,0.6,0.4,1.4,0.4,2.6V-5h-1.9v-7.2
		c0-1-0.2-1.7-0.6-2.1c-0.4-0.4-1-0.7-1.8-0.7c-0.6,0-1.1,0.1-1.6,0.4c-0.5,0.3-0.9,0.7-1.1,1.2c-0.2,0.5-0.3,1.2-0.3,2.1V-5H17.1z
		 M33.5-6.7L33.8-5c-0.5,0.1-1,0.2-1.5,0.2c-0.7,0-1.2-0.1-1.6-0.3c-0.4-0.2-0.7-0.5-0.8-0.9c-0.2-0.4-0.2-1.1-0.2-2.3v-6.6h-1.4
		v-1.5h1.4v-2.8l1.9-1.2v4h1.9v1.5h-1.9v6.7c0,0.6,0,0.9,0.1,1.1C31.8-7,31.9-6.9,32-6.8c0.2,0.1,0.4,0.1,0.7,0.1
		C32.9-6.7,33.2-6.7,33.5-6.7z"/>
</g>
</svg>
