<?xml version="1.0" encoding="utf-8"?>
<!-- Generator: Adobe Illustrator 24.0.1, SVG Export Plug-In . SVG Version: 6.00 Build 0)  -->
<svg version="1.1" id="Layer_1" xmlns="http://www.w3.org/2000/svg" xmlns:xlink="http://www.w3.org/1999/xlink" x="0px" y="0px"
	 viewBox="0 0 1250 650" style="enable-background:new 0 0 1250 650;" xml:space="preserve">
<style type="text/css">
	.st0{fill:none;stroke:#000000;stroke-width:1.6667;stroke-miterlimit:10;}
	.st1{fill:none;stroke:#000000;stroke-width:1.6667;stroke-linejoin:round;stroke-miterlimit:10;}
	.st2{fill:none;stroke:#000000;stroke-width:0.8333;stroke-linejoin:bevel;stroke-miterlimit:1;stroke-dasharray:1,3;}
</style>
<g>
	<path class="st0" d="M163,208.1h1l0,0h1l0,0h1l0,0h1l0,0h1l0,0h1l0,0h1l0,0h1l0,0h1l0,0h1l0,0h1l0,0h1l0,0h1l0,0h1l0,0h1l0,0h1l0,0
		h1l0,0h1l0,0h1l0,0h1l0,0h1l0,0h1l0,0h1l0,0h1l0,0h1l0,0h1l0,0h1l0,0h1l0,0h1l0,0h1l0,0h1l0,0h1l0,0h1l0,0h1l0,0h1l0,0h1l0,0h1l0,0
		h1l0,0h1l0,0h1l0,0h1l0,0h1l0,0h1l0,0h1l0,0h1l0,0h1l0,0h1l0,0h1l0,0h1l0,0h1l0,0h1l0,0h1l0,0h1l0,0h1l0,0h1l0,0h1l0,0h1l0,0h1l0,0
		h1l0,0h1l0,0h1l0,0h1l0,0h1l0,0h1l0,0h1l0,0h1l0,0h1l0,0h1l0,0h1l0,0h1l0,0h1l0,0h1l0,0h1l0,0h1l0,0h1l0,0h1l0,0h1l0,0h1l0,0h1l0,0
		h1l0,0h1l0,0h1l0,0h1l0,0h1l0,0h1l0,0h1l0,0h1l0,0h1l0,0h1l0,0h1l0,0h1l0,0h1l0,0h1l0,0h1l0,0h1l0,0h1l0,0h1l0,0h1l0,0h1l0,0h1l0,0
		h1l0,0h1l0,0h1l0,0h1l0,0h1l0,0h1l0,0h1l0,0h1l0,0h1l0,0h1l0,0h1l0,0h1l0,0h1l0,0h1l0,0h1l0,0h1v-23.4h1l0,0h1l0,0h1l0,0h1l0,0h1
		l0,0h1l0,0h1l0,0h1l0,0h1l0,0h1l0,0h1l0,0h1l0,0h1l0,0h1l0,0h1l0,0h1l0,0h1l0,0h1l0,0h1l0,0h1l0,0h1l0,0h1l0,0h1l0,0h1l0,0h1l0,0h1
		l0,0h1l0,0h1l0,0h1l0,0h1l0,0h1l0,0h1l0,0h1l0,0h1l0,0h1l0,0h1l0,0h1l0,0h1l0,0h1l0,0h1l0,0h1l0,0h1l0,0h1l0,0h1l0,0h1l0,0h1l0,0h1
		l0,0h1l0,0h1l0,0h1l0,0h1l0,0h1l0,0h1l0,0h1l0,0h1l0,0h1l0,0h1l0,0h1l0,0h1l0,0h1l0,0h1l0,0h1l0,0h1l0,0h1l0,0h1l0,0h1l0,0h1l0,0h1
		l0,0h1l0,0h1l0,0h1l0,0h1l0,0h1l0,0h1l0,0h1l0,0h1l0,0h1l0,0h1l0,0h1l0,0h1l0,0h1l0,0h1l0,0h1l0,0h1l0,0h1l0,0h1l0,0h1l0,0h1l0,0h1
		l0,0h1l0,0h1l0,0h1l0,0h1l0,0h1l0,0h1l0,0h1l0,0h1l0,0h1l0,0h1l0,0h1l0,0h1l0,0h1l0,0h1l0,0h1l0,0h1l0,0h1l0,0h1l0,0h1l0,0h1l0,0h1
		l0,0h1l0,0h1l0,0h1l0,0h1l0,0h1l0,0h1l0,0h1l0,0h1l0,0h1l0,0h1l0,0h1l0,0h1l0,0h1l0,0h1l0,0h1l0,0h1l0,0h1l0,0h1l0,0h1l0,0h1l0,0h1
		l0,0h1l0,0h1l0,0h1l0,0h1l0,0h1l0,0h1l0,0h1l0,0h1l0,0h1l0,0h1l0,0h1l0,0h1l0,0h1l0,0h1l0,0h1l0,0h1l0,0h1l0,0h1l0,0h1l0,0h1l0,0h1
		l0,0h1l0,0h1l0,0h1l0,0h1l0,0h1l0,0h1l0,0h1l0,0h1l0,0h1l0,0h1l0,0h1l0,0h1l0,0h1l0,0h1l0,0h1l0,0h1l0,0h1l0,0h1l0,0h1l0,0h1l0,0h1
		l0,0h1l0,0h1l0,0h1l0,0h1l0,0h1l0,0h1l0,0h1l0,0h1l0,0h1l0,0h1l0,0h1l0,0h1l0,0h1l0,0h1l0,0h1l0,0h1l0,0h1l0,0h1l0,0h1l0,0h1l0,0h1
		l0,0h1l0,0h1l0,0h1l0,0h1l0,0h1l0,0h1l0,0h1l0,0h1l0,0h1l0,0h1l0,0h1l0,0h1l0,0h1l0,0h1l0,0h1l0,0h1l0,0h1l0,0h1l0,0h1l0,0h1l0,0h1
		l0,0h1l0,0h1l0,0h1l0,0h1l0,0h1l0,0h1l0,0h1l0,0h1l0,0h1l0,0h1l0,0h1l0,0h1l0,0h1l0,0h1l0,0h1l0,0h1l0,0h1l0,0h1l0,0h1l0,0h1l0,0h1
		l0,0h1l0,0h1l0,0h1l0,0h1l0,0h1l0,0h1l0,0h1l0,0h1l0,0h1l0,0h1l0,0h1l0,0h1l0,0h1l0,0h1l0,0h1l0,0h1l0,0h1l0,0h1l0,0h1l0,0h1l0,0h1
		l0,0h1l0,0h1l0,0h1l0,0h1l0,0h1l0,0h1l0,0h1l0,0h1l0,0h1l0,0h1l0,0h1l0,0h1l0,0h1l0,0h1l0,0h1l0,0h1l0,0h1l0,0h1l0,0h1l0,0h1l0,0h1
		l0,0h1l0,0h1l0,0h1l0,0h1l0,0h1l0,0h1l0,0h1l0,0h1l0,0h1l0,0h1l0,0h1l0,0h1l0,0h1l0,0h1l0,0h1l0,0h1l0,0h1l0,0h1l0,0h1l0,0h1l0,0h1
		l0,0h1l0,0h1l0,0h1l0,0h1l0,0h1l0,0h1l0,0h1l0,0h1l0,0h1l0,0h1l0,0h1l0,0h1l0,0h1l0,0h1l0,0h1l0,0h1l0,0h1l0,0h1l0,0h1l0,0h1l0,0h1
		l0,0h1l0,0h1l0,0h1l0,0h1l0,0h1l0,0h1l0,0h1l0,0h1l0,0h1l0,0h1l0,0h1l0,0h1l0,0h1l0,0h1l0,0h1l0,0h1l0,0h1l0,0h1l0,0h1l0,0h1l0,0h1
		l0,0h1l0,0h1l0,0h1l0,0h1l0,0h1l0,0h1l0,0h1l0,0h1l0,0h1l0,0h1l0,0h1l0,0h1l0,0h1l0,0h1l0,0h1l0,0h1l0,0h1l0,0h1l0,0h1l0,0h1l0,0h1
		l0,0h1l0,0h1l0,0h1l0,0h1l0,0h1l0,0h1l0,0h1l0,0h1l0,0h1l0,0h1l0,0h1l0,0h1l0,0h1l0,0h1l0,0h1l0,0h1l0,0h1l0,0h1l0,0h1l0,0h1l0,0h1
		l0,0h1l0,0h1l0,0h1l0,0h1l0,0h1l0,0h1l0,0h1l0,0h1l0,0h1l0,0h1l0,0h1l0,0h1l0,0h1l0,0h1l0,0h1l0,0h1l0,0h1l0,0h1l0,0h1l0,0h1l0,0h1
		l0,0h1l0,0h1l0,0h1l0,0h1l0,0h1l0,0h1l0,0h1l0,0h1l0,0h1l0,0h1l0,0h1l0,0h1l0,0h1l0,0h1l0,0h1l0,0h1l0,0h1l0,0h1l0,0h1l0,0h1l0,0h1
		l0,0h1l0,0h1l0,0h1l0,0h1l0,0h1l0,0h1l0,0h1l0,0h1l0,0h1l0,0h1l0,0h1l0,0h1l0,0h1l0,0h1l0,0h1l0,0h1l0,0h1l0,0h1l0,0h1l0,0h1l0,0h1
		l0,0h1l0,0h1l0,0h1l0,0h1l0,0h1l0,0h1l0,0h1l0,0h1l0,0h1l0,0h1l0,0h1l0,0h1l0,0h1l0,0h1l0,0h1l0,0h1l0,0h1l0,0h1l0,0h1l0,0h1l0,0h1
		l0,0h1l0,0h1l0,0h1l0,0h1l0,0h1l0,0h1l0,0h1l0,0h1l0,0h1l0,0h1l0,0h1l0,0h1l0,0h1l0,0h1l0,0h1l0,0h1l0,0h1l0,0h1l0,0h1l0,0h1l0,0h1
		l0,0h1l0,0h1l0,0h1l0,0h1l0,0h1l0,0h1l0,0h1l0,0h1l0,0h1l0,0h1l0,0h1l0,0h1l0,0h1l0,0h1l0,0h1l0,0h1l0,0h1l0,0h1l0,0h1l0,0h1l0,0h1
		l0,0h1l0,0h1l0,0h1l0,0h1l0,0h1l0,0h1l0,0h1l0,0h1l0,0h1l0,0h1l0,0h1l0,0h1l0,0h1l0,0h1l0,0h1l0,0h1l0,0h1l0,0h1l0,0h1l0,0h1l0,0h1
		l0,0h1l0,0h1l0,0h1l0,0h1l0,0h1l0,0h1l0,0h1l0,0h1l0,0h1l0,0h1l0,0h1l0,0h1l0,0h1l0,0h1l0,0h1l0,0h1l0,0h1l0,0h1l0,0h1l0,0h1l0,0h1
		l0,0h1l0,0h1l0,0h1l0,0h1l0,0h1l0,0h1l0,0h1l0,0h1l0,0h1l0,0h1l0,0h1l0,0h1l0,0h1l0,0h1l0,0h1l0,0h1l0,0h1l0,0h1l0,0h1l0,0h1l0,0h1
		l0,0h1l0,0h1l0,0h1l0,0h1l0,0h1l0,0h1l0,0h1l0,0h1l0,0h1l0,0h1l0,0h1l0,0h1l0,0h1l0,0h1l0,0h1l0,0h1l0,0h1l0,0h1l0,0h1l0,0h1l0,0h1
		l0,0h1l0,0h1l0,0h1l0,0h1l0,0h1l0,0h1l0,0h1l0,0h1l0,0h1l0,0h1l0,0h1l0,0h1l0,0h1l0,0h1l0,0h1l0,0h1l0,0h1l0,0h1l0,0h1l0,0h1l0,0h1
		l0,0h1l0,0h1l0,0h1l0,0h1l0,0h1l0,0h1l0,0h1l0,0h1l0,0h1l0,0h1l0,0h1l0,0h1l0,0h1l0,0h1l0,0h1l0,0h1l0,0h1l0,0h1l0,0h1l0,0h1l0,0h1
		l0,0h1l0,0h1l0,0h1l0,0h1l0,0h1l0,0h1l0,0h1l0,0h1l0,0h1l0,0h1l0,0h1l0,0h1l0,0h1l0,0h1l0,0h1l0,0h1l0,0h1l0,0h1l0,0h1l0,0h1l0,0h1
		l0,0h1l0,0h1l0,0h1l0,0h1l0,0h1l0,0h1l0,0h1l0,0h1l0,0h1l0,0h1l0,0h1l0,0h1l0,0h1l0,0h1l0,0h1l0,0h1l0,0h1l0,0h1l0,0h1l0,0h1l0,0h1
		l0,0h1l0,0h1l0,0h1l0,0h1l0,0h1l0,0h1l0,0h1l0,0h1l0,0h1l0,0h1l0,0h1l0,0h1l0,0h1l0,0h1l0,0h1l0,0h1l0,0h1l0,0h1l0,0h1l0,0h1l0,0h1
		l0,0h1l0,0h1l0,0h1l0,0h1l0,0h1l0,0h1l0,0h1l0,0h1l0,0h1l0,0h1l0,0h1l0,0h1l0,0h1l0,0h1l0,0h1l0,0h1l0,0h1l0,0h1l0,0h1l0,0h1l0,0h1
		l0,0h1l0,0h1l0,0h1l0,0h1l0,0h1l0,0h1l0,0h1l0,0h1l0,0h1l0,0h1l0,0h1l0,0h1l0,0h1l0,0h1l0,0h1l0,0h1l0,0h1l0,0h1l0,0h1l0,0h1l0,0h1
		l0,0h1l0,0h1l0,0h1l0,0h1l0,0h1l0,0h1l0,0h1l0,0h1l0,0h1l0,0h1l0,0h1v23.4h1l0,0h1l0,0h1l0,0h1l0,0h1l0,0h1l0,0h1l0,0h1l0,0h1l0,0
		h1l0,0h1l0,0h1l0,0h1l0,0h1l0,0h1l0,0h1l0,0h1l0,0h1l0,0h1l0,0h1l0,0h1l0,0h1l0,0h1l0,0h1l0,0h1l0,0h1l0,0h1l0,0h1l0,0h1l0,0h1l0,0
		h1l0,0h1l0,0h1l0,0h1l0,0h1l0,0h1l0,0h1l0,0h1l0,0h1l0,0h1l0,0h1l0,0h1l0,0h1l0,0h1l0,0h1l0,0h1l0,0h1l0,0h1l0,0h1l0,0h1l0,0h1l0,0
		h1l0,0h1l0,0h1l0,0h1l0,0h1l0,0h1l0,0h1l0,0h1l0,0h1l0,0h1l0,0h1l0,0h1l0,0h1l0,0h1l0,0h1l0,0h1l0,0h1l0,0h1l0,0h1l0,0h1l0,0h1l0,0
		h1l0,0h1l0,0h1l0,0h1l0,0h1l0,0h1l0,0h1l0,0h1l0,0h1l0,0h1l0,0h1l0,0h1l0,0h1l0,0h1l0,0h1l0,0h1l0,0h1l0,0h1l0,0h1l0,0h1l0,0h1l0,0
		h1l0,0h1l0,0h1l0,0h1l0,0h1l0,0h1l0,0h1l0,0h1l0,0h1l0,0h1l0,0h1l0,0h1l0,0h1l0,0h1l0,0h1l0,0h1l0,0h1l0,0h1l0,0h1l0,0h1l0,0h1l0,0
		h1l0,0h1l0,0h1l0,0h1l0,0h1l0,0h1l0,0h1l0,0h1l0,0h1l0,0h1l0,0h1l0,0h1l0,0h1l0,0h1l0,0h1l0,0h1l0,0h1l0,0h1l0,0"/>
</g>
<g transform="translate(163,204.6274)">
	<path d="M-28.1-5v-14.3h1.9V-5H-28.1z M-23.1-5v-10.4h1.6v1.5c0.8-1.1,1.9-1.7,3.3-1.7c0.6,0,1.2,0.1,1.7,0.3
		c0.5,0.2,0.9,0.5,1.2,0.9c0.3,0.4,0.4,0.8,0.5,1.3c0.1,0.3,0.1,0.9,0.1,1.7V-5h-1.8v-6.3c0-0.7-0.1-1.3-0.2-1.6
		c-0.1-0.4-0.4-0.6-0.7-0.8c-0.3-0.2-0.8-0.3-1.2-0.3c-0.8,0-1.4,0.2-1.9,0.7c-0.5,0.5-0.8,1.4-0.8,2.7V-5H-23.1z M-12-17.3v-2h1.8
		v2H-12z M-12-5v-10.4h1.8V-5H-12z M-3.7-6.6L-3.5-5C-4-4.9-4.4-4.9-4.8-4.9c-0.6,0-1.1-0.1-1.5-0.3C-6.6-5.4-6.9-5.6-7-6
		C-7.2-6.3-7.2-7-7.2-8v-6h-1.3v-1.4h1.3v-2.6l1.8-1.1v3.6h1.8v1.4h-1.8v6.1c0,0.5,0,0.8,0.1,1c0.1,0.1,0.2,0.3,0.3,0.3
		c0.1,0.1,0.3,0.1,0.6,0.1C-4.3-6.5-4-6.5-3.7-6.6z M-2-17.3v-2h1.8v2H-2z M-2-5v-10.4h1.8V-5H-2z M9.2-6.3C8.6-5.7,7.9-5.3,7.3-5.1
		C6.7-4.9,6.1-4.8,5.4-4.8c-1.1,0-2-0.3-2.6-0.8C2.1-6.2,1.8-6.9,1.8-7.7c0-0.5,0.1-1,0.4-1.4c0.2-0.4,0.5-0.8,0.9-1
		c0.4-0.3,0.8-0.5,1.3-0.6c0.3-0.1,0.9-0.2,1.6-0.3c1.4-0.2,2.5-0.4,3.1-0.6c0-0.2,0-0.4,0-0.5c0-0.7-0.2-1.2-0.5-1.5
		c-0.4-0.4-1.1-0.6-2-0.6c-0.8,0-1.4,0.1-1.8,0.4c-0.4,0.3-0.7,0.8-0.9,1.5l-1.7-0.2c0.2-0.7,0.4-1.3,0.8-1.8c0.4-0.5,0.9-0.8,1.5-1
		c0.7-0.2,1.5-0.4,2.4-0.4c0.9,0,1.6,0.1,2.2,0.3c0.6,0.2,1,0.5,1.2,0.8c0.3,0.3,0.4,0.7,0.5,1.2c0.1,0.3,0.1,0.8,0.1,1.6v2.3
		c0,1.6,0,2.7,0.1,3.1C11-5.8,11.2-5.4,11.4-5H9.6C9.4-5.4,9.3-5.8,9.2-6.3z M9.1-10.2C8.4-9.9,7.5-9.7,6.2-9.5
		C5.5-9.4,5-9.3,4.7-9.2C4.4-9.1,4.1-8.9,4-8.6C3.8-8.4,3.7-8.1,3.7-7.8c0,0.5,0.2,0.9,0.5,1.2c0.4,0.3,0.9,0.5,1.6,0.5
		c0.7,0,1.3-0.1,1.8-0.4c0.5-0.3,0.9-0.7,1.2-1.2c0.2-0.4,0.3-1,0.3-1.8V-10.2z M17.4-6.6L17.7-5c-0.5,0.1-0.9,0.2-1.3,0.2
		c-0.6,0-1.1-0.1-1.5-0.3c-0.3-0.2-0.6-0.5-0.7-0.8C14-6.3,13.9-7,13.9-8v-6h-1.3v-1.4h1.3v-2.6l1.8-1.1v3.6h1.8v1.4h-1.8v6.1
		c0,0.5,0,0.8,0.1,1c0.1,0.1,0.2,0.3,0.3,0.3c0.1,0.1,0.3,0.1,0.6,0.1C16.8-6.5,17.1-6.5,17.4-6.6z M19.1-17.3v-2h1.8v2H19.1z
		 M19.1-5v-10.4h1.8V-5H19.1z M22.9-10.2c0-1.9,0.5-3.3,1.6-4.3c0.9-0.8,2-1.2,3.3-1.2c1.4,0,2.6,0.5,3.5,1.4
		c0.9,0.9,1.4,2.2,1.4,3.9c0,1.3-0.2,2.4-0.6,3.1c-0.4,0.8-1,1.4-1.7,1.8c-0.8,0.4-1.6,0.6-2.5,0.6c-1.5,0-2.6-0.5-3.5-1.4
		C23.4-7.1,22.9-8.4,22.9-10.2z M24.7-10.2c0,1.3,0.3,2.3,0.9,3c0.6,0.7,1.3,1,2.2,1c0.9,0,1.6-0.3,2.2-1c0.6-0.7,0.9-1.7,0.9-3
		c0-1.3-0.3-2.3-0.9-2.9c-0.6-0.7-1.3-1-2.2-1c-0.9,0-1.6,0.3-2.2,1C25-12.5,24.7-11.5,24.7-10.2z M34.7-5v-10.4h1.6v1.5
		c0.8-1.1,1.9-1.7,3.3-1.7c0.6,0,1.2,0.1,1.7,0.3c0.5,0.2,0.9,0.5,1.2,0.9c0.3,0.4,0.4,0.8,0.5,1.3c0.1,0.3,0.1,0.9,0.1,1.7V-5h-1.8
		v-6.3c0-0.7-0.1-1.3-0.2-1.6c-0.1-0.4-0.4-0.6-0.7-0.8c-0.3-0.2-0.8-0.3-1.2-0.3c-0.8,0-1.4,0.2-1.9,0.7c-0.5,0.5-0.8,1.4-0.8,2.7
		V-5H34.7z M51.4-1v-14.3H53v1.3c0.4-0.5,0.8-0.9,1.3-1.2c0.5-0.3,1-0.4,1.7-0.4c0.9,0,1.7,0.2,2.3,0.7c0.7,0.5,1.2,1.1,1.5,1.9
		c0.3,0.8,0.5,1.7,0.5,2.7c0,1.1-0.2,2-0.6,2.9c-0.4,0.8-0.9,1.5-1.7,2c-0.7,0.5-1.5,0.7-2.3,0.7c-0.6,0-1.1-0.1-1.6-0.4
		s-0.8-0.6-1.1-0.9v5H51.4z M53-10.1c0,1.3,0.3,2.3,0.8,3c0.5,0.6,1.2,1,2,1c0.8,0,1.5-0.3,2-1c0.6-0.7,0.8-1.7,0.8-3.1
		c0-1.3-0.3-2.3-0.8-3c-0.5-0.7-1.2-1-1.9-1c-0.8,0-1.4,0.4-2,1.1C53.2-12.5,53-11.5,53-10.1z M61.8-10.2c0-1.9,0.5-3.3,1.6-4.3
		c0.9-0.8,2-1.2,3.3-1.2c1.4,0,2.6,0.5,3.5,1.4c0.9,0.9,1.4,2.2,1.4,3.9c0,1.3-0.2,2.4-0.6,3.1c-0.4,0.8-1,1.4-1.7,1.8
		c-0.8,0.4-1.6,0.6-2.5,0.6c-1.5,0-2.6-0.5-3.5-1.4C62.3-7.1,61.8-8.4,61.8-10.2z M63.6-10.2c0,1.3,0.3,2.3,0.9,3
		c0.6,0.7,1.3,1,2.2,1c0.9,0,1.6-0.3,2.2-1c0.6-0.7,0.9-1.7,0.9-3c0-1.3-0.3-2.3-0.9-2.9c-0.6-0.7-1.3-1-2.2-1c-0.9,0-1.6,0.3-2.2,1
		C63.9-12.5,63.6-11.5,63.6-10.2z M73.6-5v-10.4h1.6v1.6c0.4-0.7,0.8-1.2,1.1-1.5s0.7-0.4,1.1-0.4c0.6,0,1.2,0.2,1.8,0.6l-0.6,1.6
		c-0.4-0.3-0.9-0.4-1.3-0.4c-0.4,0-0.7,0.1-1,0.4c-0.3,0.2-0.5,0.6-0.7,1c-0.2,0.6-0.3,1.3-0.3,2V-5H73.6z M84.1-6.6L84.4-5
		c-0.5,0.1-0.9,0.2-1.3,0.2c-0.6,0-1.1-0.1-1.5-0.3C81.2-5.4,81-5.6,80.8-6c-0.1-0.3-0.2-1-0.2-2.1v-6h-1.3v-1.4h1.3v-2.6l1.8-1.1
		v3.6h1.8v1.4h-1.8v6.1c0,0.5,0,0.8,0.1,1c0.1,0.1,0.2,0.3,0.3,0.3c0.1,0.1,0.3,0.1,0.6,0.1C83.5-6.5,83.8-6.5,84.1-6.6z"/>
</g>
<g>
	<path class="st0" d="M163,278.4h1l0,0h1l0,0h1l0,0h1l0,0h1l0,0h1l0,0h1l0,0h1l0,0h1l0,0h1l0,0h1l0,0h1l0,0h1l0,0h1l0,0h1l0,0h1l0,0
		h1l0,0h1l0,0h1l0,0h1l0,0h1l0,0h1l0,0h1l0,0h1l0,0h1l0,0h1l0,0h1l0,0h1l0,0h1l0,0h1l0,0h1l0,0h1l0,0h1l0,0h1l0,0h1l0,0h1l0,0h1l0,0
		h1l0,0h1l0,0h1l0,0h1l0,0h1l0,0h1l0,0h1l0,0h1l0,0h1l0,0h1l0,0h1l0,0h1l0,0h1l0,0h1l0,0h1l0,0h1l0,0h1l0,0h1l0,0h1l0,0h1l0,0h1l0,0
		h1l0,0h1l0,0h1l0,0h1l0,0h1l0,0h1l0,0h1l0,0h1l0,0h1l0,0h1l0,0h1l0,0h1l0,0h1l0,0h1l0,0h1l0,0h1l0,0h1l0,0h1l0,0h1l0,0h1l0,0h1l0,0
		h1l0,0h1l0,0h1l0,0h1l0,0h1l0,0h1l0,0h1l0,0h1l0,0h1l0,0h1l0,0h1l0,0h1l0,0h1l0,0h1l0,0h1l0,0h1l0,0h1l0,0h1l0,0h1l0,0h1l0,0h1l0,0
		h1l0,0h1l0,0h1l0,0h1l0,0h1l0,0h1l0,0h1l0,0h1l0,0h1l0,0h1l0,0h1l0,0h1l0,0h1l0,0h1l0,0h1l0,0h1l0,0h1l0,0h1l0,0h1l0,0h1l0,0h1l0,0
		h1l0,0h1l0,0h1l0,0h1l0,0h1l0,0h1l0,0h1l0,0h1l0,0h1l0,0h1l0,0h1l0,0h1l0,0h1l0,0h1l0,0h1l0,0h1l0,0h1l0,0h1l0,0h1l0,0h1l0,0h1l0,0
		h1l0,0h1l0,0h1l0,0h1l0,0h1l0,0h1l0,0h1l0,0h1l0,0h1l0,0h1l0,0h1l0,0h1l0,0h1l0,0h1l0,0h1l0,0h1l0,0h1l0,0h1l0,0h1l0,0h1l0,0h1l0,0
		h1l0,0h1l0,0h1l0,0h1l0,0h1l0,0h1l0,0h1l0,0h1l0,0h1l0,0h1l0,0h1l0,0h1l0,0h1l0,0h1l0,0h1l0,0h1l0,0h1l0,0h1l0,0h1l0,0h1l0,0h1l0,0
		h1l0,0h1l0,0h1l0,0h1l0,0h1l0,0h1l0,0h1l0,0h1l0,0h1l0,0h1l0,0h1l0,0h1l0,0h1l0,0h1l0,0h1l0,0h1l0,0h1l0,0h1l0,0h1l0,0h1l0,0h1l0,0
		h1l0,0h1l0,0h1l0,0h1l0,0h1l0,0h1l0,0h1l0,0h1l0,0h1l0,0h1l0,0h1l0,0h1l0,0h1l0,0h1l0,0h1l0,0h1l0,0h1l0,0h1l0,0h1l0,0h1l0,0h1l0,0
		h1l0,0h1l0,0h1l0,0h1l0,0h1l0,0h1"/>
	<path class="st0" d="M442.1,278.4h1l0,0h1l0,0h1l0,0h1l0,0h1l0,0h1l0,0h1l0,0h1l0,0h1l0,0h1l0,0h1l0,0h1l0,0h1l0,0h1l0,0h1l0,0h1
		l0,0h1l0,0h1l0,0h1l0,0h1l0,0h1l0,0h1l0,0h1l0,0h1l0,0h1l0,0h1l0,0h1l0,0h1l0,0h1l0,0h1l0,0h1l0,0h1l0,0h1l0,0h1l0,0h1l0,0h1l0,0h1
		l0,0h1l0,0h1l0,0h1l0,0h1l0,0h1l0,0h1l0,0h1l0,0h1l0,0h1l0,0h1l0,0h1l0,0h1l0,0h1l0,0h1l0,0h1l0,0h1l0,0h1l0,0h1l0,0h1l0,0h1l0,0h1
		l0,0h1l0,0h1l0,0h1l0,0h1l0,0h1l0,0h1l0,0h1l0,0h1l0,0h1l0,0h1l0,0h1l0,0h1l0,0h1l0,0h1l0,0h1l0,0h1l0,0h1l0,0h1l0,0h1l0,0h1l0,0h1
		l0,0h1l0,0h1l0,0h1l0,0h1l0,0h1l0,0h1l0,0h1l0,0h1l0,0h1l0,0h1l0,0h1l0,0h1l0,0h1l0,0h1l0,0h1l0,0h1l0,0h1l0,0h1l0,0h1l0,0h1l0,0h1
		l0,0h1l0,0h1l0,0h1l0,0h1l0,0h1l0,0h1l0,0h1l0,0h1l0,0h1l0,0h1l0,0h1l0,0h1l0,0h1l0,0h1l0,0h1l0,0h1l0,0h1l0,0h1l0,0h1l0,0h1l0,0h1
		l0,0h1l0,0h1l0,0h1l0,0h1l0,0h1l0,0h1l0,0h1l0,0h1l0,0h1l0,0h1l0,0h1l0,0h1l0,0h1l0,0h1l0,0h1l0,0h1l0,0h1l0,0h1l0,0h1l0,0h1l0,0h1
		l0,0h1l0,0h1l0,0h1l0,0h1l0,0h1l0,0h1l0,0h1l0,0h1l0,0h1l0,0h1l0,0h1l0,0h1l0,0h1l0,0h1l0,0h1l0,0h1l0,0h1l0,0h1l0,0h1l0,0h1l0,0h1
		l0,0h1l0,0h1l0,0h1l0,0h1l0,0h1l0,0h1l0,0h1l0,0h1l0,0h1l0,0h1l0,0h1l0,0h1l0,0h1l0,0h1l0,0h1l0,0h1l0,0h1l0,0h1l0,0h1l0,0h1l0,0h1
		l0,0h1l0,0h1l0,0h1l0,0h1l0,0h1l0,0h1l0,0h1l0,0h1l0,0h1l0,0h1l0,0h1l0,0h1l0,0h1l0,0h1l0,0h1l0,0h1l0,0h1l0,0h1l0,0h1l0,0h1l0,0h1
		l0,0h1l0,0h1l0,0h1l0,0h1l0,0h1l0,0h1l0,0h1l0,0h1l0,0h1l0,0h1l0,0h1l0,0h1l0,0h1l0,0h1l0,0h1l0,0h1l0,0h1l0,0h1l0,0h1l0,0h1l0,0h1
		l0,0h1l0,0h1l0,0h1l0,0h1l0,0h1l0,0h1l0,0h1l0,0h1l0,0h1l0,0h1l0,0h1l0,0h1l0,0h1l0,0h1l0,0h1l0,0h1l0,0h1l0,0h1l0,0h1l0,0h1l0,0h1
		l0,0h1l0,0h1l0,0h1l0,0h1l0,0h1l0,0h1l0,0h1l0,0h1l0,0h1l0,0h1l0,0h1l0,0h1l0,0h1l0,0h1l0,0h1l0,0h1l0,0h1l0,0h1l0,0h1l0,0h1l0,0h1
		l0,0h1l0,0h1l0,0h1l0,0h1l0,0h1l0,0h1l0,0h1l0,0h1l0,0h1l0,0h1l0,0h1l0,0h1l0,0h1l0,0h1l0,0h1l0,0h1l0,0h1l0,0h1l0,0h1l0,0h1l0,0h1
		l0,0h1l0,0h1l0,0h1l0,0h1l0,0h1l0,0h1l0,0h1l0,0h1l0,0h1l0,0h1l0,0h1l0,0h1l0,0h1l0,0h1l0,0h1l0,0h1l0,0h1l0,0h1l0,0h1l0,0h1l0,0h1
		l0,0h1l0,0h1l0,0h1l0,0h1l0,0h1l0,0h1l0,0h1l0,0h1l0,0h1l0,0h1l0,0h1l0,0h1l0,0h1l0,0h1l0,0h1l0,0h1l0,0h1l0,0h1l0,0h1l0,0h1l0,0h1
		l0,0h1l0,0h1l0,0h1l0,0h1l0,0h1l0,0h1l0,0h1l0,0h1l0,0h1l0,0h1l0,0h1l0,0h1l0,0h1l0,0h1l0,0h1l0,0h1l0,0h1l0,0h1l0,0h1l0,0h1l0,0h1
		l0,0h1l0,0h1l0,0h1l0,0h1l0,0h1l0,0h1l0,0h1l0,0h1l0,0h1l0,0h1l0,0h1l0,0h1l0,0h1l0,0h1l0,0h1l0,0h1l0,0h1l0,0h1l0,0h1l0,0h1l0,0h1
		l0,0h1l0,0h1l0,0h1l0,0h1l0,0h1l0,0h1l0,0h1l0,0h1l0,0h1l0,0h1l0,0h1l0,0h1l0,0h1l0,0h1l0,0h1l0,0h1l0,0h1l0,0h1l0,0h1l0,0h1l0,0h1
		l0,0h1l0,0h1l0,0h1l0,0h1l0,0h1l0,0h1l0,0h1l0,0h1l0,0h1l0,0h1l0,0h1l0,0h1l0,0h1l0,0h1l0,0h1l0,0h1l0,0h1l0,0h1l0,0h1l0,0h1l0,0h1
		l0,0h1l0,0h1l0,0h1l0,0h1l0,0h1l0,0h1l0,0h1l0,0h1l0,0h1l0,0h1l0,0h1l0,0h1l0,0h1l0,0h1l0,0h1l0,0h1l0,0h1l0,0h1l0,0h1l0,0h1l0,0h1
		l0,0h1l0,0h1l0,0h1l0,0h1l0,0h1l0,0h1l0,0h1l0,0h1l0,0h1l0,0h1l0,0h1l0,0h1l0,0h1l0,0h1l0,0h1l0,0h1l0,0h1l0,0h1l0,0h1l0,0h1l0,0h1
		l0,0h1l0,0h1l0,0h1l0,0h1l0,0h1l0,0h1l0,0h1l0,0h1l0,0h1l0,0h1l0,0h1l0,0h1l0,0h1l0,0h1l0,0h1l0,0h1l0,0h1l0,0h1l0,0h1l0,0h1l0,0h1
		l0,0h1l0,0h1l0,0h1l0,0h1l0,0h1l0,0h1l0,0h1l0,0h1l0,0h1l0,0h1l0,0h1l0,0h1l0,0h1l0,0h1l0,0h1l0,0h1l0,0h1l0,0h1l0,0h1l0,0h1l0,0h1
		l0,0h1l0,0h1l0,0h1l0,0h1l0,0h1l0,0h1l0,0h1l0,0h1l0,0h1l0,0h1l0,0h1l0,0h1l0,0h1l0,0h1l0,0h1l0,0h1l0,0h1l0,0h1l0,0h1l0,0h1l0,0h1
		l0,0h1l0,0h1l0,0h1l0,0h1l0,0h1l0,0h1l0,0h1l0,0h1l0,0h1l0,0h1l0,0h1l0,0h1l0,0h1l0,0h1l0,0h1l0,0h1l0,0h1l0,0h1l0,0h1l0,0h1l0,0h1
		l0,0h1l0,0h1l0,0h1l0,0h1l0,0h1l0,0h1l0,0h1l0,0h1l0,0h1l0,0h1l0,0h1l0,0h1l0,0h1l0,0h1l0,0h1l0,0h1l0,0h1l0,0h1l0,0h1l0,0h1l0,0h1
		l0,0h1l0,0h1l0,0h1l0,0h1l0,0h1l0,0h1l0,0h1l0,0h1l0,0h1l0,0h1l0,0h1l0,0h1l0,0h1l0,0h1l0,0h1l0,0h1l0,0h1l0,0h1l0,0h1l0,0h1l0,0h1
		l0,0h1l0,0h1l0,0h1l0,0h1l0,0h1l0,0h1l0,0h1l0,0h1l0,0h1l0,0h1l0,0h1l0,0h1l0,0h1l0,0h1l0,0h1l0,0h1l0,0h1l0,0h1l0,0h1l0,0h1l0,0h1
		l0,0h1l0,0h1l0,0h1l0,0h1l0,0h1l0,0h1l0,0h1l0,0h1l0,0h1l0,0h1l0,0h1l0,0h1l0,0h1l0,0h1l0,0h1l0,0h1l0,0h1l0,0h1l0,0h1l0,0h1l0,0h1
		l0,0h1l0,0h1l0,0h1l0,0h1l0,0h1l0,0h1l0,0h1l0,0h1l0,0h1l0,0h1l0,0h1l0,0h1l0,0h1l0,0h1l0,0h1l0,0h1l0,0h1l0,0h1l0,0h1l0,0h1l0,0h1
		l0,0h1l0,0h1l0,0h1l0,0h1l0,0h1l0,0h1l0,0h1l0,0h1l0,0h1l0,0h1l0,0h1l0,0h1l0,0h1l0,0h1l0,0h1l0,0h1l0,0h1l0,0h1l0,0h1l0,0h1l0,0h1
		l0,0h1l0,0h1l0,0h1l0,0h1l0,0h1l0,0h1l0,0h1l0,0h1l0,0h1l0,0h1l0,0h1l0,0h1l0,0h1l0,0h1l0,0h1l0,0h1l0,0h1l0,0h1l0,0h1l0,0h1l0,0h1
		l0,0h1l0,0h1l0,0h1l0,0h1l0,0h1l0,0h1l0,0h1l0,0h1l0,0h1l0,0h1l0,0h1l0,0h1l0,0h1l0,0h1l0,0h1l0,0h1l0,0h1l0,0h1l0,0h1l0,0h1l0,0h1
		l0,0h1l0,0h1l0,0"/>
	<path class="st1" d="M387.5,278.4l0.8-18l0.8-4.2L390,270l0.8,5.3l0.8-9.7l0.8,8.6l0.8,0.9l0.8-31.8l0.8,8l0.8,14l0.8-16.6
		l0.8,22.7l0.8,6.5l0.8-6.4l0.8,5l0.8,0.8l0.8-13.4l0.8,0.8l0.8-0.1l0.8,7.3l0.8-5.3l0.8,4.8l0.8-9l0.8,11.2l0.8-5.4l0.8,3l0.8,4.2
		l0.8,0.1l0.8-4.9l0.8-1l0.8-2.5l0.8,0.8l0.8,2.6l0.8-21l0.8,14.8l0.8,10.9l0.8-4.2l0.8-6.1l0.8-3.4l0.8,15.8l0.8-1.4l0.8-0.8
		l0.8,0.1l0.8-5.4l0.8,8.2l0.8-1.3l0.8-4.6l0.8-4.6l0.8-0.2l0.8,2.4l0.8,7.7l0.8-11.2l0.8,1l0.8,10.9l0.8-15l0.8,7.5l0.8,3.9
		l0.8,1.4l0.8-8.8l0.8,0.3l0.8,10.4l0.8-5.1l0.8-5.4l0.8-4.4l0.8,14.3l0.8,0.8"/>
</g>
<g transform="translate(163,274.8678)">
	<path d="M-29.1-9.6l1.8-0.2C-27.2-9-27-8.5-26.7-8c0.3,0.5,0.8,0.8,1.4,1.1c0.7,0.3,1.4,0.4,2.2,0.4c0.7,0,1.4-0.1,1.9-0.3
		c0.6-0.2,1-0.5,1.2-0.9c0.3-0.4,0.4-0.8,0.4-1.2c0-0.4-0.1-0.8-0.4-1.2c-0.3-0.3-0.7-0.6-1.3-0.8c-0.4-0.2-1.2-0.4-2.6-0.7
		c-1.3-0.3-2.2-0.6-2.8-0.9c-0.7-0.4-1.2-0.8-1.5-1.3c-0.3-0.5-0.5-1.1-0.5-1.8c0-0.7,0.2-1.4,0.6-2s1-1.1,1.8-1.4s1.7-0.5,2.6-0.5
		c1.1,0,2,0.2,2.8,0.5c0.8,0.3,1.4,0.8,1.9,1.5c0.4,0.7,0.7,1.4,0.7,2.3l-1.8,0.1c-0.1-0.9-0.4-1.6-1-2.1c-0.6-0.5-1.4-0.7-2.5-0.7
		c-1.1,0-2,0.2-2.5,0.6c-0.5,0.4-0.8,0.9-0.8,1.5c0,0.5,0.2,0.9,0.6,1.3c0.4,0.3,1.3,0.7,2.9,1c1.5,0.3,2.6,0.6,3.2,0.9
		c0.8,0.4,1.4,0.9,1.8,1.5c0.4,0.6,0.6,1.3,0.6,2c0,0.8-0.2,1.5-0.7,2.2c-0.4,0.7-1.1,1.2-1.9,1.6S-22-4.8-23-4.8
		c-1.3,0-2.4-0.2-3.3-0.6c-0.9-0.4-1.6-1-2.1-1.7C-28.8-7.8-29.1-8.6-29.1-9.6z M-11.5-6.6l0.3,1.6c-0.5,0.1-0.9,0.2-1.3,0.2
		c-0.6,0-1.1-0.1-1.5-0.3c-0.3-0.2-0.6-0.5-0.7-0.8C-14.9-6.3-15-7-15-8v-6h-1.3v-1.4h1.3v-2.6l1.7-1.1v3.6h1.8v1.4h-1.8v6.1
		c0,0.5,0,0.8,0.1,1c0.1,0.1,0.2,0.3,0.3,0.3c0.1,0.1,0.3,0.1,0.6,0.1C-12.1-6.5-11.8-6.5-11.5-6.6z M-9.8-17.3v-2H-8v2H-9.8z
		 M-9.8-5v-10.4H-8V-5H-9.8z M-5.3-5v-10.4h1.6v1.5c0.3-0.5,0.8-0.9,1.3-1.2c0.5-0.3,1.2-0.5,1.8-0.5c0.8,0,1.4,0.2,1.9,0.5
		c0.5,0.3,0.8,0.8,1,1.3c0.8-1.2,1.9-1.8,3.2-1.8c1,0,1.8,0.3,2.4,0.9c0.6,0.6,0.8,1.4,0.8,2.6V-5H7v-6.5c0-0.7-0.1-1.2-0.2-1.5
		c-0.1-0.3-0.3-0.6-0.6-0.7c-0.3-0.2-0.6-0.3-1.1-0.3c-0.7,0-1.3,0.2-1.8,0.7c-0.5,0.5-0.7,1.3-0.7,2.3v6H0.8v-6.7
		c0-0.8-0.1-1.4-0.4-1.8c-0.3-0.4-0.8-0.6-1.4-0.6c-0.5,0-0.9,0.1-1.4,0.4c-0.4,0.3-0.7,0.6-0.9,1.1c-0.2,0.5-0.3,1.2-0.3,2.2V-5
		H-5.3z M18.1-5v-1.5c-0.8,1.2-1.9,1.8-3.3,1.8c-0.6,0-1.2-0.1-1.7-0.4c-0.5-0.2-0.9-0.5-1.2-0.9c-0.3-0.4-0.4-0.8-0.5-1.3
		c-0.1-0.3-0.1-0.9-0.1-1.6v-6.4H13v5.8c0,0.9,0,1.5,0.1,1.9c0.1,0.5,0.4,0.8,0.7,1.1c0.4,0.3,0.8,0.4,1.3,0.4c0.5,0,1-0.1,1.5-0.4
		s0.8-0.6,1-1.1c0.2-0.5,0.3-1.1,0.3-2v-5.6h1.8V-5H18.1z M22.4-5v-14.3h1.8V-5H22.4z M33.7-5v-1.5c-0.8,1.2-1.9,1.8-3.3,1.8
		c-0.6,0-1.2-0.1-1.7-0.4c-0.5-0.2-0.9-0.5-1.2-0.9S27.1-6.8,27-7.3c-0.1-0.3-0.1-0.9-0.1-1.6v-6.4h1.8v5.8c0,0.9,0,1.5,0.1,1.9
		c0.1,0.5,0.4,0.8,0.7,1.1c0.4,0.3,0.8,0.4,1.3,0.4c0.5,0,1-0.1,1.5-0.4s0.8-0.6,1-1.1c0.2-0.5,0.3-1.1,0.3-2v-5.6h1.8V-5H33.7z
		 M37.3-8.1L39-8.4c0.1,0.7,0.4,1.2,0.8,1.6c0.4,0.4,1.1,0.6,1.9,0.6c0.8,0,1.4-0.2,1.8-0.5c0.4-0.3,0.6-0.7,0.6-1.1
		c0-0.4-0.2-0.7-0.5-0.9c-0.2-0.2-0.8-0.4-1.8-0.6c-1.3-0.3-2.2-0.6-2.7-0.9c-0.5-0.2-0.9-0.6-1.1-1c-0.3-0.4-0.4-0.9-0.4-1.4
		c0-0.5,0.1-0.9,0.3-1.3c0.2-0.4,0.5-0.7,0.9-1c0.3-0.2,0.6-0.4,1.1-0.5c0.5-0.1,1-0.2,1.5-0.2c0.8,0,1.5,0.1,2.1,0.4
		c0.6,0.2,1.1,0.6,1.4,1c0.3,0.4,0.5,0.9,0.6,1.6l-1.7,0.2c-0.1-0.5-0.3-0.9-0.7-1.2c-0.4-0.3-0.9-0.4-1.6-0.4
		c-0.8,0-1.4,0.1-1.7,0.4c-0.3,0.3-0.5,0.6-0.5,0.9c0,0.2,0.1,0.4,0.2,0.6c0.1,0.2,0.4,0.3,0.7,0.5c0.2,0.1,0.7,0.2,1.5,0.4
		c1.3,0.3,2.1,0.6,2.6,0.8c0.5,0.2,0.9,0.5,1.2,0.9c0.3,0.4,0.4,0.9,0.4,1.5c0,0.6-0.2,1.1-0.5,1.7c-0.3,0.5-0.8,0.9-1.5,1.2
		c-0.6,0.3-1.4,0.4-2.2,0.4c-1.3,0-2.4-0.3-3.1-0.8C37.9-6.2,37.5-7,37.3-8.1z M59.7-5h-1.8v-11.2c-0.4,0.4-1,0.8-1.7,1.2
		c-0.7,0.4-1.3,0.7-1.9,0.9v-1.7c1-0.5,1.9-1,2.6-1.7c0.7-0.7,1.3-1.3,1.6-1.9h1.1V-5z M73.6-0.8c-1-1.2-1.8-2.6-2.5-4.3
		c-0.7-1.6-1-3.3-1-5.1c0-1.6,0.3-3,0.8-4.5c0.6-1.6,1.5-3.3,2.7-4.9h1.3c-0.8,1.4-1.3,2.3-1.6,2.9c-0.4,0.9-0.7,1.8-0.9,2.8
		c-0.3,1.2-0.4,2.4-0.4,3.7c0,3.1,1,6.3,2.9,9.4H73.6z M76.5-9.6l1.8-0.2C78.4-9,78.6-8.5,78.9-8c0.3,0.5,0.8,0.8,1.4,1.1
		c0.7,0.3,1.4,0.4,2.2,0.4c0.7,0,1.4-0.1,1.9-0.3c0.6-0.2,1-0.5,1.2-0.9c0.3-0.4,0.4-0.8,0.4-1.2c0-0.4-0.1-0.8-0.4-1.2
		c-0.3-0.3-0.7-0.6-1.3-0.8c-0.4-0.2-1.2-0.4-2.6-0.7c-1.3-0.3-2.2-0.6-2.8-0.9c-0.7-0.4-1.2-0.8-1.5-1.3C77.2-14.4,77-15,77-15.6
		c0-0.7,0.2-1.4,0.6-2c0.4-0.6,1-1.1,1.8-1.4c0.8-0.3,1.7-0.5,2.6-0.5c1.1,0,2,0.2,2.8,0.5c0.8,0.3,1.4,0.8,1.9,1.5
		c0.4,0.7,0.7,1.4,0.7,2.3l-1.8,0.1c-0.1-0.9-0.4-1.6-1-2.1c-0.6-0.5-1.4-0.7-2.5-0.7c-1.1,0-2,0.2-2.5,0.6
		c-0.5,0.4-0.8,0.9-0.8,1.5c0,0.5,0.2,0.9,0.6,1.3c0.4,0.3,1.3,0.7,2.9,1c1.5,0.3,2.6,0.6,3.2,0.9c0.8,0.4,1.4,0.9,1.8,1.5
		c0.4,0.6,0.6,1.3,0.6,2c0,0.8-0.2,1.5-0.7,2.2c-0.4,0.7-1.1,1.2-1.9,1.6c-0.8,0.4-1.7,0.6-2.8,0.6c-1.3,0-2.4-0.2-3.3-0.6
		c-0.9-0.4-1.6-1-2.1-1.7C76.8-7.8,76.5-8.6,76.5-9.6z M96.4-5h-1.8v-11.2c-0.4,0.4-1,0.8-1.7,1.2c-0.7,0.4-1.3,0.7-1.9,0.9v-1.7
		c1-0.5,1.9-1,2.6-1.7c0.7-0.7,1.3-1.3,1.6-1.9h1.1V-5z M102.5-0.8h-1.3c1.9-3.1,2.9-6.2,2.9-9.4c0-1.2-0.1-2.4-0.4-3.6
		c-0.2-1-0.5-1.9-0.9-2.8c-0.3-0.6-0.8-1.6-1.6-2.9h1.3c1.2,1.6,2.1,3.3,2.7,4.9c0.5,1.4,0.8,2.9,0.8,4.5c0,1.8-0.3,3.5-1,5.1
		C104.3-3.4,103.5-2,102.5-0.8z"/>
</g>
<g>
	<path class="st0" d="M163,348.6h1l0,0h1l0,0h1l0,0h1l0,0h1l0,0h1l0,0h1l0,0h1l0,0h1l0,0h1l0,0h1l0,0h1l0,0h1l0,0h1l0,0h1l0,0h1l0,0
		h1l0,0h1l0,0h1l0,0h1l0,0h1l0,0h1l0,0h1l0,0h1l0,0h1l0,0h1l0,0h1l0,0h1l0,0h1l0,0h1l0,0h1l0,0h1l0,0h1l0,0h1l0,0h1l0,0h1l0,0h1l0,0
		h1l0,0h1l0,0h1l0,0h1l0,0h1l0,0h1l0,0h1l0,0h1l0,0h1l0,0h1l0,0h1l0,0h1l0,0h1l0,0h1l0,0h1l0,0h1l0,0h1l0,0h1l0,0h1l0,0h1l0,0h1l0,0
		h1l0,0h1l0,0h1l0,0h1l0,0h1l0,0h1l0,0h1l0,0h1l0,0h1l0,0h1l0,0h1l0,0h1l0,0h1l0,0h1l0,0h1l0,0h1l0,0h1l0,0h1l0,0h1l0,0h1l0,0h1l0,0
		h1l0,0h1l0,0h1l0,0h1l0,0h1l0,0h1l0,0h1l0,0h1l0,0h1l0,0h1l0,0h1l0,0h1l0,0h1l0,0h1l0,0h1l0,0h1l0,0h1l0,0h1l0,0h1l0,0h1l0,0h1l0,0
		h1l0,0h1l0,0h1l0,0h1l0,0h1l0,0h1l0,0h1l0,0h1l0,0h1l0,0h1l0,0h1l0,0h1l0,0h1l0,0h1l0,0h1l0,0h1l0,0h1l0,0h1l0,0h1l0,0h1l0,0h1l0,0
		h1l0,0h1l0,0h1l0,0h1l0,0h1l0,0h1l0,0h1l0,0h1l0,0h1l0,0h1l0,0h1l0,0h1l0,0h1l0,0h1l0,0h1l0,0h1l0,0h1l0,0h1l0,0h1l0,0h1l0,0h1l0,0
		h1l0,0h1l0,0h1l0,0h1l0,0h1l0,0h1l0,0h1l0,0h1l0,0h1l0,0h1l0,0h1l0,0h1l0,0h1l0,0h1l0,0h1l0,0h1l0,0h1l0,0h1l0,0h1l0,0h1l0,0h1l0,0
		h1l0,0h1l0,0h1l0,0h1l0,0h1l0,0h1l0,0h1l0,0h1l0,0h1l0,0h1l0,0h1l0,0h1l0,0h1l0,0h1l0,0h1l0,0h1l0,0h1l0,0h1l0,0h1l0,0h1l0,0h1l0,0
		h1l0,0h1l0,0h1l0,0h1l0,0h1l0,0h1l0,0h1l0,0h1l0,0h1l0,0h1l0,0h1l0,0h1l0,0h1l0,0h1l0,0h1l0,0h1l0,0h1l0,0h1l0,0h1l0,0h1l0,0h1l0,0
		h1l0,0h1l0,0h1l0,0h1l0,0h1l0,0h1l0,0h1l0,0h1l0,0h1l0,0h1l0,0h1l0,0h1l0,0h1l0,0h1l0,0h1l0,0h1l0,0h1l0,0h1l0,0h1l0,0h1l0,0h1l0,0
		h1l0,0h1l0,0h1l0,0h1l0,0h1l0,0h1l0,0h1l0,0h1l0,0h1l0,0h1l0,0h1l0,0h1l0,0h1l0,0h1l0,0h1l0,0h1l0,0h1l0,0h1l0,0h1l0,0h1l0,0h1l0,0
		h1l0,0h1l0,0h1l0,0h1l0,0h1l0,0h1l0,0h1l0,0h1l0,0h1l0,0h1l0,0h1l0,0h1l0,0h1l0,0h1l0,0h1l0,0h1l0,0h1l0,0h1l0,0h1l0,0h1l0,0h1l0,0
		h1l0,0h1l0,0h1l0,0h1l0,0h1l0,0h1l0,0h1l0,0h1l0,0h1l0,0h1l0,0h1l0,0h1l0,0h1l0,0h1l0,0h1l0,0h1l0,0h1l0,0h1l0,0h1l0,0h1l0,0h1l0,0
		h1l0,0h1l0,0h1l0,0h1l0,0h1l0,0h1l0,0h1l0,0h1l0,0h1l0,0h1l0,0h1l0,0h1l0,0h1l0,0h1l0,0h1l0,0h1l0,0h1l0,0h1l0,0h1l0,0h1l0,0h1l0,0
		h1l0,0h1l0,0h1l0,0h1l0,0h1l0,0h1l0,0h1l0,0h1l0,0h1l0,0h1l0,0h1l0,0h1l0,0h1l0,0h1l0,0h1l0,0h1l0,0h1l0,0h1l0,0h1l0,0h1l0,0h1l0,0
		h1l0,0h1l0,0h1l0,0h1l0,0h1l0,0h1l0,0h1l0,0h1l0,0h1l0,0h1l0,0h1l0,0h1l0,0h1l0,0h1l0,0h1l0,0h1l0,0h1l0,0h1l0,0h1l0,0h1l0,0h1l0,0
		h1l0,0h1l0,0h1l0,0h1l0,0h1l0,0h1l0,0h1l0,0h1l0,0h1l0,0h1l0,0h1l0,0h1l0,0h1l0,0h1l0,0h1l0,0h1l0,0h1l0,0h1l0,0h1l0,0h1l0,0h1l0,0
		h1l0,0h1l0,0h1l0,0h1l0,0h1l0,0h1l0,0h1l0,0h1l0,0h1l0,0h1l0,0h1l0,0h1l0,0h1l0,0h1l0,0h1l0,0h1l0,0h1l0,0h1l0,0h1l0,0h1l0,0h1l0,0
		h1l0,0h1l0,0h1l0,0h1l0,0h1l0,0h1l0,0h1l0,0h1l0,0h1l0,0h1l0,0h1l0,0h1l0,0h1l0,0h1l0,0h1l0,0h1l0,0h1l0,0h1l0,0h1l0,0h1l0,0h1l0,0
		h1l0,0h1l0,0h1l0,0h1l0,0h1l0,0h1l0,0h1l0,0h1l0,0h1l0,0h1l0,0h1l0,0h1l0,0h1l0,0h1l0,0h1l0,0h1l0,0h1l0,0h1l0,0h1l0,0h1l0,0h1l0,0
		h1l0,0h1l0,0h1l0,0h1l0,0h1l0,0h1l0,0h1l0,0h1l0,0h1l0,0h1l0,0h1l0,0h1l0,0h1l0,0h1l0,0h1l0,0h1l0,0h1l0,0h1l0,0h1l0,0h1l0,0h1l0,0
		h1l0,0h1l0,0h1l0,0h1l0,0h1l0,0h1l0,0h1l0,0h1l0,0h1l0,0h1l0,0h1l0,0h1l0,0h1l0,0h1l0,0h1l0,0h1l0,0h1l0,0h1l0,0h1l0,0h1l0,0h1l0,0
		h1l0,0h1l0,0h1l0,0h1l0,0h1l0,0h1l0,0h1l0,0h1l0,0h1l0,0h1l0,0h1l0,0h1l0,0h1l0,0h1l0,0h1l0,0h1l0,0h1l0,0h1l0,0h1l0,0h1l0,0h1l0,0
		h1l0,0h1l0,0h1l0,0h1l0,0h1l0,0h1l0,0h1l0,0h1l0,0h1l0,0h1l0,0h1l0,0h1l0,0h1l0,0h1l0,0h1l0,0h1l0,0h1l0,0h1l0,0h1l0,0h1l0,0h1l0,0
		h1l0,0h1l0,0h1l0,0h1l0,0h1l0,0h1l0,0h1l0,0h1l0,0h1l0,0h1l0,0h1l0,0h1l0,0h1l0,0h1l0,0h1l0,0h1l0,0h1l0,0h1l0,0h1l0,0h1l0,0h1l0,0
		h1l0,0h1l0,0h1l0,0h1l0,0h1l0,0h1l0,0h1l0,0h1l0,0h1l0,0h1l0,0h1l0,0h1l0,0h1l0,0h1l0,0h1l0,0h1l0,0h1l0,0h1l0,0h1l0,0h1l0,0h1l0,0
		h1l0,0h1l0,0h1l0,0h1l0,0h1l0,0h1l0,0h1l0,0h1l0,0h1l0,0h1l0,0h1l0,0h1l0,0h1l0,0h1l0,0h1l0,0h1l0,0h1l0,0h1l0,0h1l0,0h1l0,0h1l0,0
		h1l0,0h1l0,0h1l0,0h1l0,0h1l0,0h1l0,0h1l0,0h1l0,0h1l0,0h1l0,0h1l0,0h1l0,0h1l0,0h1l0,0h1l0,0h1l0,0h1l0,0h1l0,0h1l0,0h1l0,0h1l0,0
		h1l0,0h1l0,0h1l0,0h1l0,0h1l0,0h1l0,0h1l0,0h1l0,0h1l0,0h1l0,0h1l0,0h1l0,0h1l0,0h1l0,0h1"/>
	<path class="st0" d="M874.2,348.6h1l0,0h1l0,0h1l0,0h1l0,0h1l0,0h1l0,0h1l0,0h1l0,0h1l0,0h1l0,0h1l0,0h1l0,0h1l0,0h1l0,0h1l0,0h1
		l0,0h1l0,0h1l0,0h1l0,0h1l0,0h1l0,0h1l0,0h1l0,0h1l0,0h1l0,0h1l0,0h1l0,0h1l0,0h1l0,0h1l0,0h1l0,0h1l0,0h1l0,0h1l0,0h1l0,0h1l0,0h1
		l0,0h1l0,0h1l0,0h1l0,0h1l0,0h1l0,0h1l0,0h1l0,0h1l0,0h1l0,0h1l0,0h1l0,0h1l0,0h1l0,0h1l0,0h1l0,0h1l0,0h1l0,0h1l0,0h1l0,0h1l0,0h1
		l0,0h1l0,0h1l0,0h1l0,0h1l0,0h1l0,0h1l0,0h1l0,0h1l0,0h1l0,0h1l0,0h1l0,0h1l0,0h1l0,0h1l0,0h1l0,0h1l0,0h1l0,0h1l0,0h1l0,0h1l0,0h1
		l0,0h1l0,0h1l0,0h1l0,0h1l0,0h1l0,0h1l0,0h1l0,0h1l0,0h1l0,0h1l0,0h1l0,0h1l0,0h1l0,0h1l0,0h1l0,0h1l0,0h1l0,0h1l0,0h1l0,0h1l0,0h1
		l0,0h1l0,0h1l0,0h1l0,0h1l0,0h1l0,0h1l0,0h1l0,0h1l0,0h1l0,0h1l0,0h1l0,0h1l0,0h1l0,0h1l0,0h1l0,0h1l0,0h1l0,0h1l0,0h1l0,0h1l0,0h1
		l0,0h1l0,0h1l0,0h1l0,0h1l0,0h1l0,0h1l0,0h1l0,0h1l0,0h1l0,0h1l0,0h1l0,0h1l0,0h1l0,0h1l0,0h1l0,0h1l0,0h1l0,0h1l0,0h1l0,0h1l0,0h1
		l0,0h1l0,0h1l0,0h1l0,0h1l0,0h1l0,0h1l0,0h1l0,0h1l0,0h1l0,0h1l0,0h1l0,0h1l0,0h1l0,0h1l0,0h1l0,0h1l0,0h1l0,0h1l0,0h1l0,0h1l0,0h1
		l0,0h1l0,0h1l0,0h1l0,0h1l0,0h1l0,0h1l0,0h1l0,0h1l0,0h1l0,0h1l0,0h1l0,0h1l0,0h1l0,0h1l0,0h1l0,0h1l0,0h1l0,0h1l0,0h1l0,0h1l0,0h1
		l0,0h1l0,0h1l0,0h1l0,0h1l0,0h1l0,0h1l0,0h1l0,0h1l0,0h1l0,0h1l0,0h1l0,0h1l0,0h1l0,0h1l0,0h1l0,0h1l0,0h1l0,0h1l0,0h1l0,0h1l0,0h1
		l0,0h1l0,0h1l0,0h1l0,0h1l0,0h1l0,0h1l0,0h1l0,0h1l0,0h1l0,0h1l0,0h1l0,0h1l0,0h1l0,0h1l0,0h1l0,0h1l0,0h1l0,0h1l0,0h1l0,0h1l0,0h1
		l0,0h1l0,0h1l0,0h1l0,0h1l0,0h1l0,0h1l0,0h1l0,0h1l0,0h1l0,0h1l0,0h1l0,0h1l0,0h1l0,0h1l0,0h1l0,0h1l0,0h1l0,0h1l0,0h1l0,0h1l0,0h1
		l0,0h1l0,0h1l0,0h1l0,0h1l0,0h1l0,0h1l0,0h1l0,0h1l0,0h1l0,0h1l0,0h1l0,0h1l0,0h1l0,0h1l0,0h1l0,0h1l0,0h1l0,0h1l0,0"/>
	<path class="st1" d="M762.5,348.6l0.8-12.7l0.8-15.7l0.8,21.1l0.8-1.6l0.8,6.8l0.8-8.5l0.8,1.5l0.8-7.8l0.8-0.2l0.8,11.4l0.8,3.8
		l0.8-0.2l0.8-14.9l0.8,13.7l0.8,1.1l0.8-16.9l0.8,9.5l0.8,1.3l0.8-1.7l0.8,7.2l0.8,0.3l0.8-11.6l0.8,0.2l0.8,12.7l0.8-7.5l0.8-22.7
		l0.8,23.3l0.8,5.8l0.8,1.3l0.8-22.5l0.8,18.2l0.8-16.5l0.8,11.6l0.8-0.6l0.8,9.6l0.8-5.4l0.8,2.9l0.8-3.6l0.8,1.3l0.8-3l0.8-11.8
		l0.8,18.5l0.8-23.6l0.8,15.8l0.8-6.3l0.8,3.4l0.8,1.4l0.8,10.2l0.8-16l0.8-6.4l0.8,21.4l0.8-12.3l0.8-20.7l0.8,25.3l0.8-6.7
		l0.8,3.9l0.8,7.2l0.8,2.4l0.8-10l0.8,10l0.8-5.2l0.8-16.4l0.8,20.6l0.8-5.7l0.8-9.2l0.8,13l0.8,2.7l0.8,3l0.8-15.8l0.8,2.5l0.8,9.5
		l0.8,0.6l0.8,3.4l0.8-2.9l0.8-18.1l0.8,17.8l0.8-6.6l0.8-1.8l0.8-2.2l0.8,7.6l0.8-17.9l0.8,12.6l0.8,5.4l0.8,6.1l0.8-0.2l0.8-9.3
		l0.8-2.7l0.8,10.8l0.8-7.1l0.8-7.7l0.8,13.7l0.8-4.4l0.8,3.6l0.8-6.7l0.8-3.3l0.8-17.1l0.8,10.6l0.8,16.4l0.8-11.5l0.8,4.8l0.8,8.4
		l0.8-7.5l0.8-6.6l0.8-12.1l0.8,10.7l0.8,13.6l0.8-0.7l0.8-0.7l0.8,3.9l0.8-0.6l0.8-3.6l0.8-4.7l0.8-6.1l0.8,11l0.8-4.8l0.8,6.2
		l0.8-2.6l0.8-5.9l0.8-1l0.8-1.7l0.8,7.3l0.8,7.2l0.8-1.5l0.8-0.3l0.8-1l0.8,3.4l0.8-0.3l0.8-9.4l0.8-8.5l0.8,12.9l0.8,3.1l0.8-5.1
		l0.8,5.4l0.8-10.3l0.8,1l0.8,7.8l0.8,2.1l0.8,1.4"/>
</g>
<g transform="translate(163,345.1082)">
	<path d="M-29.1-9.6l1.8-0.2C-27.2-9-27-8.5-26.7-8c0.3,0.5,0.8,0.8,1.4,1.1c0.7,0.3,1.4,0.4,2.2,0.4c0.7,0,1.4-0.1,1.9-0.3
		c0.6-0.2,1-0.5,1.2-0.9c0.3-0.4,0.4-0.8,0.4-1.2c0-0.4-0.1-0.8-0.4-1.2c-0.3-0.3-0.7-0.6-1.3-0.8c-0.4-0.2-1.2-0.4-2.6-0.7
		c-1.3-0.3-2.2-0.6-2.8-0.9c-0.7-0.4-1.2-0.8-1.5-1.3c-0.3-0.5-0.5-1.1-0.5-1.8c0-0.7,0.2-1.4,0.6-2s1-1.1,1.8-1.4s1.7-0.5,2.6-0.5
		c1.1,0,2,0.2,2.8,0.5c0.8,0.3,1.4,0.8,1.9,1.5c0.4,0.7,0.7,1.4,0.7,2.3l-1.8,0.1c-0.1-0.9-0.4-1.6-1-2.1c-0.6-0.5-1.4-0.7-2.5-0.7
		c-1.1,0-2,0.2-2.5,0.6c-0.5,0.4-0.8,0.9-0.8,1.5c0,0.5,0.2,0.9,0.6,1.3c0.4,0.3,1.3,0.7,2.9,1c1.5,0.3,2.6,0.6,3.2,0.9
		c0.8,0.4,1.4,0.9,1.8,1.5c0.4,0.6,0.6,1.3,0.6,2c0,0.8-0.2,1.5-0.7,2.2c-0.4,0.7-1.1,1.2-1.9,1.6S-22-4.8-23-4.8
		c-1.3,0-2.4-0.2-3.3-0.6c-0.9-0.4-1.6-1-2.1-1.7C-28.8-7.8-29.1-8.6-29.1-9.6z M-11.5-6.6l0.3,1.6c-0.5,0.1-0.9,0.2-1.3,0.2
		c-0.6,0-1.1-0.1-1.5-0.3c-0.3-0.2-0.6-0.5-0.7-0.8C-14.9-6.3-15-7-15-8v-6h-1.3v-1.4h1.3v-2.6l1.7-1.1v3.6h1.8v1.4h-1.8v6.1
		c0,0.5,0,0.8,0.1,1c0.1,0.1,0.2,0.3,0.3,0.3c0.1,0.1,0.3,0.1,0.6,0.1C-12.1-6.5-11.8-6.5-11.5-6.6z M-9.8-17.3v-2H-8v2H-9.8z
		 M-9.8-5v-10.4H-8V-5H-9.8z M-5.3-5v-10.4h1.6v1.5c0.3-0.5,0.8-0.9,1.3-1.2c0.5-0.3,1.2-0.5,1.8-0.5c0.8,0,1.4,0.2,1.9,0.5
		c0.5,0.3,0.8,0.8,1,1.3c0.8-1.2,1.9-1.8,3.2-1.8c1,0,1.8,0.3,2.4,0.9c0.6,0.6,0.8,1.4,0.8,2.6V-5H7v-6.5c0-0.7-0.1-1.2-0.2-1.5
		c-0.1-0.3-0.3-0.6-0.6-0.7c-0.3-0.2-0.6-0.3-1.1-0.3c-0.7,0-1.3,0.2-1.8,0.7c-0.5,0.5-0.7,1.3-0.7,2.3v6H0.8v-6.7
		c0-0.8-0.1-1.4-0.4-1.8c-0.3-0.4-0.8-0.6-1.4-0.6c-0.5,0-0.9,0.1-1.4,0.4c-0.4,0.3-0.7,0.6-0.9,1.1c-0.2,0.5-0.3,1.2-0.3,2.2V-5
		H-5.3z M18.1-5v-1.5c-0.8,1.2-1.9,1.8-3.3,1.8c-0.6,0-1.2-0.1-1.7-0.4c-0.5-0.2-0.9-0.5-1.2-0.9c-0.3-0.4-0.4-0.8-0.5-1.3
		c-0.1-0.3-0.1-0.9-0.1-1.6v-6.4H13v5.8c0,0.9,0,1.5,0.1,1.9c0.1,0.5,0.4,0.8,0.7,1.1c0.4,0.3,0.8,0.4,1.3,0.4c0.5,0,1-0.1,1.5-0.4
		s0.8-0.6,1-1.1c0.2-0.5,0.3-1.1,0.3-2v-5.6h1.8V-5H18.1z M22.4-5v-14.3h1.8V-5H22.4z M33.7-5v-1.5c-0.8,1.2-1.9,1.8-3.3,1.8
		c-0.6,0-1.2-0.1-1.7-0.4c-0.5-0.2-0.9-0.5-1.2-0.9S27.1-6.8,27-7.3c-0.1-0.3-0.1-0.9-0.1-1.6v-6.4h1.8v5.8c0,0.9,0,1.5,0.1,1.9
		c0.1,0.5,0.4,0.8,0.7,1.1c0.4,0.3,0.8,0.4,1.3,0.4c0.5,0,1-0.1,1.5-0.4s0.8-0.6,1-1.1c0.2-0.5,0.3-1.1,0.3-2v-5.6h1.8V-5H33.7z
		 M37.3-8.1L39-8.4c0.1,0.7,0.4,1.2,0.8,1.6c0.4,0.4,1.1,0.6,1.9,0.6c0.8,0,1.4-0.2,1.8-0.5c0.4-0.3,0.6-0.7,0.6-1.1
		c0-0.4-0.2-0.7-0.5-0.9c-0.2-0.2-0.8-0.4-1.8-0.6c-1.3-0.3-2.2-0.6-2.7-0.9c-0.5-0.2-0.9-0.6-1.1-1c-0.3-0.4-0.4-0.9-0.4-1.4
		c0-0.5,0.1-0.9,0.3-1.3c0.2-0.4,0.5-0.7,0.9-1c0.3-0.2,0.6-0.4,1.1-0.5c0.5-0.1,1-0.2,1.5-0.2c0.8,0,1.5,0.1,2.1,0.4
		c0.6,0.2,1.1,0.6,1.4,1c0.3,0.4,0.5,0.9,0.6,1.6l-1.7,0.2c-0.1-0.5-0.3-0.9-0.7-1.2c-0.4-0.3-0.9-0.4-1.6-0.4
		c-0.8,0-1.4,0.1-1.7,0.4c-0.3,0.3-0.5,0.6-0.5,0.9c0,0.2,0.1,0.4,0.2,0.6c0.1,0.2,0.4,0.3,0.7,0.5c0.2,0.1,0.7,0.2,1.5,0.4
		c1.3,0.3,2.1,0.6,2.6,0.8c0.5,0.2,0.9,0.5,1.2,0.9c0.3,0.4,0.4,0.9,0.4,1.5c0,0.6-0.2,1.1-0.5,1.7c-0.3,0.5-0.8,0.9-1.5,1.2
		c-0.6,0.3-1.4,0.4-2.2,0.4c-1.3,0-2.4-0.3-3.1-0.8C37.9-6.2,37.5-7,37.3-8.1z M62.3-6.7V-5h-9.5c0-0.4,0.1-0.8,0.2-1.2
		c0.2-0.6,0.6-1.3,1.2-1.9c0.5-0.6,1.3-1.3,2.3-2.2c1.6-1.3,2.6-2.3,3.2-3c0.5-0.7,0.8-1.5,0.8-2.1c0-0.7-0.3-1.3-0.8-1.8
		c-0.5-0.5-1.2-0.7-2-0.7c-0.8,0-1.5,0.3-2,0.8C55.3-16.6,55-15.9,55-15l-1.8-0.2c0.1-1.3,0.6-2.4,1.4-3.1c0.8-0.7,1.9-1.1,3.3-1.1
		c1.4,0,2.4,0.4,3.3,1.1c0.8,0.8,1.2,1.7,1.2,2.8c0,0.6-0.1,1.1-0.4,1.7c-0.2,0.6-0.6,1.1-1.2,1.8c-0.5,0.6-1.4,1.5-2.7,2.5
		C57-8.6,56.3-8,56-7.6c-0.3,0.3-0.5,0.6-0.7,1H62.3z M73.6-0.8c-1-1.2-1.8-2.6-2.5-4.3c-0.7-1.6-1-3.3-1-5.1c0-1.6,0.3-3,0.8-4.5
		c0.6-1.6,1.5-3.3,2.7-4.9h1.3c-0.8,1.4-1.3,2.3-1.6,2.9c-0.4,0.9-0.7,1.8-0.9,2.8c-0.3,1.2-0.4,2.4-0.4,3.7c0,3.1,1,6.3,2.9,9.4
		H73.6z M76.5-9.6l1.8-0.2C78.4-9,78.6-8.5,78.9-8c0.3,0.5,0.8,0.8,1.4,1.1c0.7,0.3,1.4,0.4,2.2,0.4c0.7,0,1.4-0.1,1.9-0.3
		c0.6-0.2,1-0.5,1.2-0.9c0.3-0.4,0.4-0.8,0.4-1.2c0-0.4-0.1-0.8-0.4-1.2c-0.3-0.3-0.7-0.6-1.3-0.8c-0.4-0.2-1.2-0.4-2.6-0.7
		c-1.3-0.3-2.2-0.6-2.8-0.9c-0.7-0.4-1.2-0.8-1.5-1.3C77.2-14.4,77-15,77-15.6c0-0.7,0.2-1.4,0.6-2c0.4-0.6,1-1.1,1.8-1.4
		c0.8-0.3,1.7-0.5,2.6-0.5c1.1,0,2,0.2,2.8,0.5c0.8,0.3,1.4,0.8,1.9,1.5c0.4,0.7,0.7,1.4,0.7,2.3l-1.8,0.1c-0.1-0.9-0.4-1.6-1-2.1
		c-0.6-0.5-1.4-0.7-2.5-0.7c-1.1,0-2,0.2-2.5,0.6c-0.5,0.4-0.8,0.9-0.8,1.5c0,0.5,0.2,0.9,0.6,1.3c0.4,0.3,1.3,0.7,2.9,1
		c1.5,0.3,2.6,0.6,3.2,0.9c0.8,0.4,1.4,0.9,1.8,1.5c0.4,0.6,0.6,1.3,0.6,2c0,0.8-0.2,1.5-0.7,2.2c-0.4,0.7-1.1,1.2-1.9,1.6
		c-0.8,0.4-1.7,0.6-2.8,0.6c-1.3,0-2.4-0.2-3.3-0.6c-0.9-0.4-1.6-1-2.1-1.7C76.8-7.8,76.5-8.6,76.5-9.6z M99-6.7V-5h-9.5
		c0-0.4,0.1-0.8,0.2-1.2c0.2-0.6,0.6-1.3,1.2-1.9c0.5-0.6,1.3-1.3,2.3-2.2c1.6-1.3,2.6-2.3,3.2-3c0.5-0.7,0.8-1.5,0.8-2.1
		c0-0.7-0.2-1.3-0.8-1.8c-0.5-0.5-1.2-0.7-2-0.7c-0.8,0-1.5,0.3-2,0.8c-0.5,0.5-0.8,1.2-0.8,2.1l-1.8-0.2c0.1-1.3,0.6-2.4,1.4-3.1
		c0.8-0.7,1.9-1.1,3.3-1.1c1.4,0,2.4,0.4,3.3,1.1c0.8,0.8,1.2,1.7,1.2,2.8c0,0.6-0.1,1.1-0.4,1.7c-0.2,0.6-0.6,1.1-1.2,1.8
		c-0.5,0.6-1.4,1.5-2.7,2.5c-1.1,0.9-1.7,1.5-2,1.8c-0.3,0.3-0.5,0.6-0.7,1H99z M102.5-0.8h-1.3c1.9-3.1,2.9-6.2,2.9-9.4
		c0-1.2-0.1-2.4-0.4-3.6c-0.2-1-0.5-1.9-0.9-2.8c-0.3-0.6-0.8-1.6-1.6-2.9h1.3c1.2,1.6,2.1,3.3,2.7,4.9c0.5,1.4,0.8,2.9,0.8,4.5
		c0,1.8-0.3,3.5-1,5.1C104.3-3.4,103.5-2,102.5-0.8z"/>
</g>
<g>
	<path class="st0" d="M163,418.9h1l0,0h1l0,0h1l0,0h1l0,0h1l0,0h1l0,0h1l0,0h1l0,0h1l0,0h1l0,0h1l0,0h1l0,0h1l0,0h1l0,0h1l0,0h1l0,0
		h1l0,0h1l0,0h1l0,0h1l0,0h1l0,0h1l0,0h1l0,0h1l0,0h1l0,0h1l0,0h1l0,0h1l0,0h1l0,0h1l0,0h1l0,0h1l0,0h1l0,0h1l0,0h1l0,0h1l0,0h1l0,0
		h1l0,0h1l0,0h1l0,0h1l0,0h1l0,0h1l0,0h1l0,0h1l0,0h1l0,0h1l0,0h1l0,0h1l0,0h1l0,0h1l0,0h1l0,0h1l0,0h1l0,0h1l0,0h1l0,0h1l0,0h1l0,0
		h1l0,0h1l0,0h1l0,0h1l0,0h1l0,0h1l0,0h1l0,0h1l0,0h1l0,0h1l0,0h1l0,0h1l0,0h1l0,0h1l0,0h1l0,0h1l0,0h1l0,0h1l0,0h1l0,0h1l0,0h1l0,0
		h1l0,0h1l0,0h1l0,0h1l0,0h1l0,0h1l0,0h1l0,0h1l0,0h1l0,0h1l0,0h1l0,0h1l0,0h1l0,0h1l0,0h1l0,0h1l0,0h1l0,0h1l0,0h1l0,0h1l0,0h1l0,0
		h1l0,0h1l0,0h1l0,0h1l0,0h1l0,0h1l0,0h1l0,0h1l0,0h1l0,0h1l0,0h1l0,0h1l0,0h1l0,0h1l0,0h1l0,0h1l0,0h1l0,0h1l0,0h1l0,0h1l0,0h1l0,0
		h1l0,0h1l0,0h1l0,0h1l0,0h1l0,0h1l0,0h1l0,0h1l0,0h1l0,0h1l0,0h1l0,0h1l0,0h1l0,0h1l0,0h1l0,0h1l0,0h1l0,0h1l0,0h1l0,0h1l0,0h1l0,0
		h1l0,0h1l0,0h1l0,0h1l0,0h1l0,0h1l0,0h1l0,0h1l0,0h1l0,0h1l0,0h1l0,0h1l0,0h1l0,0h1l0,0h1l0,0h1l0,0h1l0,0h1l0,0h1l0,0h1l0,0h1l0,0
		h1l0,0h1l0,0h1l0,0h1l0,0h1l0,0h1l0,0h1l0,0h1l0,0h1l0,0h1l0,0h1l0,0h1l0,0h1l0,0h1l0,0h1l0,0h1l0,0h1l0,0h1l0,0h1l0,0h1l0,0h1l0,0
		h1l0,0h1l0,0h1l0,0h1l0,0h1l0,0h1l0,0h1l0,0h1l0,0h1l0,0h1l0,0h1l0,0h1l0,0h1l0,0h1l0,0h1l0,0h1l0,0h1l0,0h1l0,0h1l0,0h1l0,0h1l0,0
		h1l0,0h1l0,0h1l0,0h1l0,0h1l0,0h1l0,0h1l0,0h1l0,0h1l0,0h1l0,0h1l0,0h1l0,0h1l0,0h1l0,0h1l0,0h1l0,0h1l0,0h1l0,0h1l0,0h1l0,0h1l0,0
		h1l0,0h1l0,0h1l0,0h1l0,0h1l0,0h1l0,0h1l0,0h1l0,0h1l0,0h1l0,0h1l0,0h1l0,0h1l0,0h1l0,0h1l0,0h1l0,0h1l0,0h1l0,0h1l0,0h1l0,0h1l0,0
		h1l0,0h1l0,0h1l0,0h1l0,0h1l0,0h1l0,0h1l0,0h1l0,0h1l0,0h1l0,0h1l0,0h1l0,0h1l0,0h1l0,0h1l0,0h1l0,0h1l0,0h1l0,0h1l0,0h1l0,0h1l0,0
		h1l0,0h1l0,0h1l0,0h1l0,0h1l0,0h1l0,0h1l0,0h1l0,0h1l0,0h1l0,0h1l0,0h1l0,0h1l0,0h1l0,0h1l0,0h1l0,0h1l0,0h1l0,0h1l0,0h1l0,0h1l0,0
		h1l0,0h1l0,0h1l0,0h1l0,0h1l0,0h1l0,0h1l0,0h1l0,0h1l0,0h1l0,0h1l0,0h1l0,0h1l0,0h1l0,0h1l0,0h1l0,0h1l0,0h1l0,0h1l0,0h1l0,0h1l0,0
		h1l0,0h1l0,0h1l0,0h1l0,0h1l0,0h1l0,0h1l0,0h1l0,0h1l0,0h1l0,0h1l0,0h1l0,0h1l0,0h1l0,0h1l0,0h1l0,0h1l0,0h1l0,0h1l0,0h1l0,0h1l0,0
		h1l0,0h1l0,0h1l0,0h1l0,0h1l0,0h1l0,0h1l0,0h1l0,0h1l0,0h1l0,0h1l0,0h1l0,0h1l0,0h1l0,0h1l0,0h1l0,0h1l0,0h1l0,0h1l0,0h1l0,0h1l0,0
		h1l0,0h1l0,0h1l0,0h1l0,0h1l0,0h1l0,0h1l0,0h1l0,0h1l0,0h1l0,0h1l0,0h1l0,0h1l0,0h1l0,0h1l0,0h1l0,0h1l0,0h1l0,0h1l0,0h1l0,0h1l0,0
		h1l0,0h1l0,0h1l0,0h1l0,0h1l0,0h1l0,0h1l0,0h1l0,0h1l0,0h1l0,0h1l0,0h1l0,0h1l0,0h1l0,0h1l0,0h1l0,0h1l0,0h1l0,0h1l0,0h1l0,0h1l0,0
		h1l0,0h1l0,0h1l0,0h1l0,0h1l0,0h1l0,0h1l0,0h1l0,0h1l0,0h1l0,0h1l0,0h1l0,0h1l0,0h1l0,0h1l0,0h1l0,0h1l0,0h1l0,0h1l0,0h1l0,0h1l0,0
		h1l0,0h1l0,0h1l0,0h1l0,0h1l0,0h1l0,0h1l0,0h1l0,0h1l0,0h1l0,0h1l0,0h1l0,0h1l0,0h1l0,0h1l0,0h1l0,0h1l0,0h1l0,0h1l0,0h1l0,0h1l0,0
		h1l0,0h1l0,0h1l0,0h1l0,0h1l0,0h1l0,0h1l0,0h1l0,0h1l0,0h1l0,0h1l0,0h1l0,0h1l0,0h1l0,0h1l0,0h1l0,0h1l0,0h1l0,0h1l0,0h1l0,0h1l0,0
		h1l0,0h1l0,0h1l0,0h1l0,0h1l0,0h1l0,0h1l0,0h1l0,0h1l0,0h1l0,0h1l0,0h1l0,0h1l0,0h1l0,0h1l0,0h1l0,0h1l0,0h1l0,0h1l0,0h1l0,0h1l0,0
		h1l0,0h1l0,0h1l0,0h1l0,0h1l0,0h1l0,0h1l0,0h1l0,0h1l0,0h1l0,0h1l0,0h1l0,0h1l0,0h1l0,0h1l0,0h1l0,0h1l0,0h1l0,0h1l0,0h1l0,0h1l0,0
		h1l0,0h1l0,0h1l0,0h1l0,0h1l0,0h1l0,0h1l0,0h1l0,0h1l0,0h1l0,0h1l0,0h1l0,0h1l0,0h1l0,0h1l0,0h1l0,0h1l0,0h1l0,0h1l0,0h1l0,0h1l0,0
		h1l0,0h1l0,0h1l0,0h1l0,0h1l0,0h1l0,0h1l0,0h1l0,0h1l0,0h1l0,0h1l0,0h1l0,0h1l0,0h1l0,0h1l0,0h1l0,0h1l0,0h1l0,0h1l0,0h1l0,0h1l0,0
		h1l0,0h1l0,0h1l0,0h1l0,0h1l0,0h1l0,0h1l0,0h1l0,0h1l0,0h1l0,0h1l0,0h1l0,0h1l0,0h1l0,0h1l0,0h1l0,0h1l0,0h1l0,0h1l0,0h1l0,0h1l0,0
		h1l0,0h1l0,0h1l0,0h1l0,0h1l0,0h1l0,0h1l0,0h1l0,0h1l0,0h1l0,0h1l0,0h1l0,0h1l0,0h1l0,0h1l0,0h1l0,0h1l0,0h1l0,0h1l0,0h1l0,0h1l0,0
		h1l0,0h1l0,0h1l0,0h1l0,0h1l0,0h1l0,0h1l0,0h1l0,0h1l0,0h1l0,0h1l0,0h1l0,0h1l0,0h1l0,0h1l0,0h1l0,0h1l0,0h1l0,0h1l0,0h1l0,0h1l0,0
		h1l0,0h1l0,0h1l0,0h1l0,0h1l0,0h1l0,0h1l0,0h1l0,0h1l0,0h1l0,0h1l0,0h1l0,0h1l0,0h1l0,0h1l0,0h1l0,0h1l0,0h1l0,0h1l0,0h1l0,0h1l0,0
		h1l0,0h1l0,0h1l0,0h1l0,0h1l0,0h1l0,0h1l0,0h1l0,0h1l0,0h1l0,0h1l0,0h1l0,0h1l0,0h1l0,0h1l0,0h1l0,0h1l0,0h1l0,0h1l0,0h1l0,0h1l0,0
		h1l0,0h1l0,0h1l0,0h1l0,0h1l0,0h1l0,0h1l0,0h1l0,0h1l0,0h1l0,0h1l0,0h1l0,0h1l0,0h1l0,0h1l0,0h1l0,0h1l0,0h1l0,0h1l0,0h1l0,0h1l0,0
		h1l0,0h1l0,0h1l0,0h1l0,0h1l0,0h1l0,0h1l0,0h1l0,0h1l0,0h1l0,0h1l0,0h1l0,0h1l0,0h1l0,0h1l0,0h1l0,0h1l0,0h1l0,0h1l0,0h1l0,0h1l0,0
		h1l0,0h1l0,0h1l0,0h1l0,0h1l0,0h1l0,0h1l0,0h1l0,0h1l0,0h1l0,0h1l0,0h1l0,0h1l0,0h1l0,0h1l0,0h1l0,0h1l0,0h1l0,0h1l0,0h1l0,0h1l0,0
		h1l0,0h1l0,0h1l0,0h1l0,0h1l0,0h1l0,0h1l0,0h1l0,0h1l0,0h1l0,0h1l0,0h1l0,0h1l0,0h1l0,0h1l0,0h1l0,0h1l0,0h1l0,0h1l0,0h1l0,0h1l0,0
		h1l0,0h1l0,0h1l0,0h1l0,0h1l0,0h1l0,0h1l0,0h1l0,0h1l0,0h1l0,0h1l0,0h1l0,0h1l0,0h1l0,0h1l0,0h1l0,0h1l0,0h1l0,0h1l0,0h1l0,0h1l0,0
		h1l0,0h1l0,0h1l0,0h1l0,0h1l0,0h1l0,0h1l0,0h1l0,0h1l0,0h1l0,0h1l0,0h1l0,0h1l0,0h1l0,0h1l0,0h1l0,0h1l0,0h1l0,0h1l0,0h1l0,0h1l0,0
		h1l0,0h1l0,0h1l0,0h1l0,0h1l0,0h1l0,0h1l0,0h1l0,0h1l0,0h1l0,0h1l0,0h1l0,0h1l0,0h1l0,0h1l0,0h1l0,0h1l0,0h1l0,0h1l0,0h1l0,0h1l0,0
		h1l0,0h1l0,0h1l0,0h1l0,0h1l0,0h1l0,0h1l0,0h1l0,0h1l0,0h1l0,0h1l0,0h1l0,0h1l0,0h1l0,0h1l0,0h1l0,0h1l0,0h1l0,0h1l0,0h1l0,0h1l0,0
		h1l0,0h1l0,0h1"/>
	<path class="st0" d="M971.1,418.9h1l0,0h1l0,0h1l0,0h1l0,0h1l0,0h1l0,0h1l0,0h1l0,0h1l0,0h1l0,0h1l0,0h1l0,0h1l0,0h1l0,0h1l0,0h1
		l0,0h1l0,0h1l0,0h1l0,0h1l0,0h1l0,0h1l0,0h1l0,0h1l0,0h1l0,0h1l0,0h1l0,0h1l0,0h1l0,0h1l0,0h1l0,0h1l0,0h1l0,0h1l0,0h1l0,0h1l0,0h1
		l0,0h1l0,0h1l0,0h1l0,0h1l0,0h1l0,0h1l0,0h1l0,0h1l0,0h1l0,0h1l0,0h1l0,0h1l0,0h1l0,0h1l0,0h1l0,0h1l0,0h1l0,0h1l0,0h1l0,0h1l0,0h1
		l0,0h1l0,0h1l0,0h1l0,0h1l0,0h1l0,0h1l0,0h1l0,0h1l0,0h1l0,0h1l0,0h1l0,0h1l0,0h1l0,0h1l0,0h1l0,0h1l0,0h1l0,0h1l0,0h1l0,0h1l0,0h1
		l0,0h1l0,0h1l0,0h1l0,0h1l0,0h1l0,0h1l0,0h1l0,0h1l0,0h1l0,0h1l0,0h1l0,0h1l0,0h1l0,0h1l0,0h1l0,0h1l0,0h1l0,0h1l0,0h1l0,0h1l0,0h1
		l0,0h1l0,0h1l0,0h1l0,0h1l0,0h1l0,0h1l0,0h1l0,0h1l0,0h1l0,0h1l0,0h1l0,0h1l0,0h1l0,0h1l0,0h1l0,0h1l0,0h1l0,0h1l0,0h1l0,0h1l0,0h1
		l0,0h1l0,0h1l0,0h1l0,0h1l0,0h1l0,0h1l0,0h1l0,0h1l0,0h1l0,0h1l0,0h1l0,0h1l0,0h1l0,0h1l0,0h1l0,0h1l0,0h1l0,0h1l0,0h1l0,0h1l0,0h1
		l0,0h1l0,0h1l0,0h1l0,0h1l0,0h1l0,0h1l0,0h1l0,0h1l0,0h1l0,0h1l0,0h1l0,0h1l0,0h1l0,0h1l0,0h1l0,0h1l0,0h1l0,0h1l0,0h1l0,0h1l0,0h1
		l0,0h1l0,0h1l0,0"/>
	<path class="st1" d="M954.8,418.9l0-0.3l0-0.3l0-0.3l0-0.3l0-0.3l0-0.3l0-0.3l0-0.3l0-0.3l0-0.3l0-0.3l0-0.3l0-0.3l0-0.3l0-0.3
		l0-0.3l0-0.3l0-0.3l0-0.3l0-0.3l0-0.3l0-0.3l0-0.3l0-0.3l0-0.3l0-0.3l0-0.3l0-0.3l0-0.2l0-0.2l0-0.2l0-0.2l0-0.2l0-0.2l0-0.2l0-0.2
		l0-0.2l0-0.2l0-0.2l0-0.2l0-0.2l0-0.2l0-0.2l0-0.2l0-0.2l0-0.2l0-0.2l0-0.2l0-0.2l0-0.2l0-0.2l0-0.2l0-0.2l0-0.2l0-0.2l0-0.2l0-0.2
		l0-0.2l0-0.2l0-0.2l0-0.2l0-0.2l0-0.2l0-0.1l0-0.1l0-0.1l0-0.1l0-0.1l0-0.1l0-0.1l0-0.1l0-0.1l0-0.1l0-0.1l0-0.1l0-0.1l0-0.1l0-0.1
		l0-0.1l0-0.1l0-0.1l0-0.1l0-0.1l0-0.1l0-0.1l0-0.1l0-0.1l0-0.1l0,0l0,0l0,0l0,0l0,0l0,0l0,0l0,0l0,0l0,0l0,0l0,0l0,0l0,0l0,0l0,0
		l0,0l0,0l0,0l0,0l0,0l0,0l0,0l0,0.1l0,0.1l0,0.1l0,0.1l0,0.1l0,0.1l0,0.1l0,0.1l0,0.1l0,0.1l0,0.1l0,0.1l0,0.1l0,0.1l0,0.1l0,0.1
		l0,0.1l0,0.1l0,0.1l0,0.1l0,0.1l0,0.1l0,0.1l0,0.1l0,0.1l0,0.2l0,0.2l0,0.2l0,0.2l0,0.2l0,0.2l0,0.2l0,0.2l0,0.2l0,0.2l0,0.2l0,0.2
		l0,0.2l0,0.2l0,0.2l0,0.2l0,0.2l0,0.2l0,0.2l0,0.2l0,0.2l0,0.2l0,0.2l0,0.2l0,0.2l0,0.2l0,0.2l0,0.2l0,0.2l0,0.2l0,0.2l0,0.2l0,0.2
		l0,0.2l0,0.2l0,0.2l0,0.3l0,0.3l0,0.3l0,0.3l0,0.3l0,0.3l0,0.3l0,0.3l0,0.3l0,0.3l0,0.3l0,0.3l0,0.3l0,0.3l0,0.3l0,0.3l0,0.3l0,0.3
		l0,0.3l0,0.3l0,0.3l0,0.3l0,0.3l0,0.3l0,0.3l0,0.3l0,0.3l0,0.3l0,0.3l0,0.3l0,0.3l0,0.3l0,0.3l0,0.3l0,0.3l0,0.3l0,0.3l0,0.3l0,0.3
		l0,0.3l0,0.3l0,0.3l0,0.3l0,0.3l0,0.3l0,0.3l0,0.3l0,0.3l0,0.3l0,0.3l0,0.3l0,0.3l0,0.3l0,0.3l0,0.3l0,0.3l0,0.2l0,0.2l0,0.2l0,0.2
		l0,0.2l0,0.2l0,0.2l0,0.2l0,0.2l0,0.2l0,0.2l0,0.2l0,0.2l0,0.2l0,0.2l0,0.2l0,0.2l0,0.2l0,0.2l0,0.2l0,0.2l0,0.2l0,0.2l0,0.2l0,0.2
		l0,0.2l0,0.2l0,0.2l0,0.2l0,0.2l0,0.2l0,0.2l0,0.2l0,0.2l0,0.2l0,0.1l0,0.1l0,0.1l0,0.1l0,0.1l0,0.1l0,0.1l0,0.1l0,0.1l0,0.1l0,0.1
		l0,0.1l0,0.1l0,0.1l0,0.1l0,0.1l0,0.1l0,0.1l0,0.1l0,0.1l0,0.1l0,0.1l0,0.1l0,0.1l0,0.1l0,0l0,0l0,0l0,0l0,0l0,0l0,0l0,0l0,0l0,0
		l0,0l0,0l0,0l0,0l0,0l0,0l0,0l0,0l0,0l0,0l0,0l0,0l0,0l0-0.1l0-0.1l0-0.1l0-0.1l0-0.1l0-0.1l0-0.1l0-0.1l0-0.1l0-0.1l0-0.1l0-0.1
		l0-0.1l0-0.1l0-0.1l0-0.1l0-0.1l0-0.1l0-0.1l0-0.1l0-0.1l0-0.1l0-0.1l0-0.1l0-0.1l0-0.2l0-0.2l0-0.2l0-0.2l0-0.2l0-0.2l0-0.2l0-0.2
		l0-0.2l0-0.2l0-0.2l0-0.2l0-0.2l0-0.2l0-0.2l0-0.2l0-0.2l0-0.2l0-0.2l0-0.2l0-0.2l0-0.2l0-0.2l0-0.2l0-0.2l0-0.2l0-0.2l0-0.2l0-0.2
		l0-0.2l0-0.2l0-0.2l0-0.2l0-0.2l0-0.2l0-0.2l0-0.3l0-0.3l0-0.3l0-0.3l0-0.3l0-0.3l0-0.3l0-0.3l0-0.3l0-0.3l0-0.3l0-0.3l0-0.3l0-0.3
		l0-0.3l0-0.3l0-0.3l0-0.3l0-0.3l0-0.3l0-0.3l0-0.3l0-0.3l0-0.3l0-0.3l0-0.3l0-0.3l0-0.3l0-0.3l0-0.3l0-0.3l0-0.3l0-0.3l0-0.3l0-0.3
		l0-0.3l0-0.3l0-0.3l0-0.3l0-0.3l0-0.3l0-0.3l0-0.3l0-0.3l0-0.3l0-0.3l0-0.3l0-0.3l0-0.3l0-0.3l0-0.3l0-0.3l0-0.3l0-0.3l0-0.3l0-0.2
		l0-0.2l0-0.2l0-0.2l0-0.2l0-0.2l0-0.2l0-0.2l0-0.2l0-0.2l0-0.2l0-0.2l0-0.2l0-0.2l0-0.2l0-0.2l0-0.2l0-0.2l0-0.2l0-0.2l0-0.2l0-0.2
		l0-0.2l0-0.2l0-0.2l0-0.2l0-0.2l0-0.2l0-0.2l0-0.2l0-0.2l0-0.2l0-0.2l0-0.2l0-0.2l0-0.2l0-0.1l0-0.1l0-0.1l0-0.1l0-0.1l0-0.1l0-0.1
		l0-0.1l0-0.1l0-0.1l0-0.1l0-0.1l0-0.1l0-0.1l0-0.1l0-0.1l0-0.1l0-0.1l0-0.1l0-0.1l0-0.1l0-0.1l0-0.1l0-0.1l0-0.1l0,0l0,0l0,0l0,0
		l0,0l0,0l0,0l0,0l0,0l0,0l0,0h0l0,0l0,0l0,0l0,0l0,0l0,0l0,0l0,0l0,0l0,0l0,0l0,0.1l0,0.1l0,0.1l0,0.1l0,0.1l0,0.1l0,0.1l0,0.1
		l0,0.1l0,0.1l0,0.1l0,0.1l0,0.1l0,0.1l0,0.1l0,0.1l0,0.1l0,0.1l0,0.1l0,0.1l0,0.1l0,0.1l0,0.1l0,0.1l0,0.1l0,0.2l0,0.2l0,0.2l0,0.2
		l0,0.2l0,0.2l0,0.2l0,0.2l0,0.2l0,0.2l0,0.2l0,0.2l0,0.2l0,0.2l0,0.2l0,0.2l0,0.2l0,0.2l0,0.2l0,0.2l0,0.2l0,0.2l0,0.2l0,0.2l0,0.2
		l0,0.2l0,0.2l0,0.2l0,0.2l0,0.2l0,0.2l0,0.2l0,0.2l0,0.2l0,0.2l0,0.2l0,0.3l0,0.3l0,0.3l0,0.3l0,0.3l0,0.3l0,0.3l0,0.3l0,0.3l0,0.3
		l0,0.3l0,0.3l0,0.3l0,0.3l0,0.3l0,0.3l0,0.3l0,0.3l0,0.3l0,0.3l0,0.3l0,0.3l0,0.3l0,0.3l0,0.3l0,0.3l0,0.3l0,0.3l0,0.3l0,0.3l0,0.3
		l0,0.3l0,0.3l0,0.3l0,0.3l0,0.3l0,0.3l0,0.3l0,0.3l0,0.3l0,0.3l0,0.3l0,0.3l0,0.3l0,0.3l0,0.3l0,0.3l0,0.3l0,0.3l0,0.3l0,0.3l0,0.3
		l0,0.3l0,0.3l0,0.3l0,0.2l0,0.2l0,0.2l0,0.2l0,0.2l0,0.2l0,0.2l0,0.2l0,0.2l0,0.2l0,0.2l0,0.2l0,0.2l0,0.2l0,0.2l0,0.2l0,0.2l0,0.2
		l0,0.2l0,0.2l0,0.2l0,0.2l0,0.2l0,0.2l0,0.2l0,0.2l0,0.2l0,0.2l0,0.2l0,0.2l0,0.2l0,0.2l0,0.2l0,0.2l0,0.2l0,0.2l0,0.1l0,0.1l0,0.1
		l0,0.1l0,0.1l0,0.1l0,0.1l0,0.1l0,0.1l0,0.1l0,0.1l0,0.1l0,0.1l0,0.1l0,0.1l0,0.1l0,0.1l0,0.1l0,0.1l0,0.1l0,0.1l0,0.1l0,0.1l0,0.1
		l0,0.1l0,0l0,0l0,0l0,0l0,0l0,0l0,0l0,0l0,0l0,0l0,0l0,0l0,0l0,0l0,0l0,0l0,0l0,0l0,0l0,0l0,0l0,0l0,0l0-0.1l0-0.1l0-0.1l0-0.1
		l0-0.1l0-0.1l0-0.1l0-0.1l0-0.1l0-0.1l0-0.1l0-0.1l0-0.1l0-0.1l0-0.1l0-0.1l0-0.1l0-0.1l0-0.1l0-0.1l0-0.1l0-0.1l0-0.1l0-0.1l0-0.1
		l0-0.2l0-0.2l0-0.2l0-0.2l0-0.2l0-0.2l0-0.2l0-0.2l0-0.2l0-0.2l0-0.2l0-0.2l0-0.2l0-0.2l0-0.2l0-0.2l0-0.2l0-0.2l0-0.2l0-0.2l0-0.2
		l0-0.2l0-0.2l0-0.2l0-0.2l0-0.2l0-0.2l0-0.2l0-0.2l0-0.2l0-0.2l0-0.2l0-0.2l0-0.2l0-0.2l0-0.3l0-0.3l0-0.3l0-0.3l0-0.3l0-0.3l0-0.3
		l0-0.3l0-0.3l0-0.3l0-0.3l0-0.3l0-0.3l0-0.3l0-0.3l0-0.3l0-0.3l0-0.3l0-0.3l0-0.3l0-0.3l0-0.3l0-0.3l0-0.3l0-0.3l0-0.3l0-0.3l0-0.3
		l0-0.3l0-0.3l0-0.3l0-0.3l0-0.3l0-0.3l0-0.3l0-0.3l0-0.3l0-0.3l0-0.3l0-0.3l0-0.3l0-0.3l0-0.3l0-0.3l0-0.3l0-0.3l0-0.3l0-0.3l0-0.3
		l0-0.3l0-0.3l0-0.3l0-0.3l0-0.3l0-0.3l0-0.3l0-0.2l0-0.2l0-0.2l0-0.2l0-0.2l0-0.2l0-0.2l0-0.2l0-0.2l0-0.2l0-0.2l0-0.2l0-0.2l0-0.2
		l0-0.2l0-0.2l0-0.2l0-0.2l0-0.2l0-0.2l0-0.2l0-0.2l0-0.2l0-0.2l0-0.2l0-0.2l0-0.2l0-0.2l0-0.2l0-0.2l0-0.2l0-0.2l0-0.2l0-0.2l0-0.2
		l0-0.2l0-0.1l0-0.1l0-0.1l0-0.1l0-0.1l0-0.1l0-0.1l0-0.1l0-0.1l0-0.1l0-0.1l0-0.1l0-0.1l0-0.1l0-0.1l0-0.1l0-0.1l0-0.1l0-0.1l0-0.1
		l0-0.1l0-0.1l0-0.1l0-0.1l0-0.1l0,0l0,0l0,0l0,0l0,0l0,0l0,0l0,0l0,0l0,0l0,0l0,0l0,0l0,0l0,0l0,0l0,0l0,0l0,0l0,0l0,0l0,0l0,0
		l0,0.1l0,0.1l0,0.1l0,0.1l0,0.1l0,0.1l0,0.1l0,0.1l0,0.1l0,0.1l0,0.1l0,0.1l0,0.1l0,0.1l0,0.1l0,0.1l0,0.1l0,0.1l0,0.1l0,0.1l0,0.1
		l0,0.1l0,0.1l0,0.1l0,0.1l0,0.2l0,0.2l0,0.2l0,0.2l0,0.2l0,0.2l0,0.2l0,0.2l0,0.2l0,0.2l0,0.2l0,0.2l0,0.2l0,0.2l0,0.2l0,0.2l0,0.2
		l0,0.2l0,0.2l0,0.2l0,0.2l0,0.2l0,0.2l0,0.2l0,0.2l0,0.2l0,0.2l0,0.2l0,0.2l0,0.2l0,0.2l0,0.2l0,0.2l0,0.2l0,0.2l0,0.3l0,0.3l0,0.3
		l0,0.3l0,0.3l0,0.3l0,0.3l0,0.3l0,0.3l0,0.3l0,0.3l0,0.3l0,0.3l0,0.3l0,0.3l0,0.3l0,0.3l0,0.3l0,0.3l0,0.3l0,0.3l0,0.3l0,0.3l0,0.3
		l0,0.3l0,0.3l0,0.3l0,0.3"/>
</g>
<g transform="translate(163,415.3485)">
	<path d="M-21.8-10.6v-1.7l6.1,0V-7c-0.9,0.8-1.9,1.3-2.9,1.7c-1,0.4-2,0.6-3,0.6c-1.4,0-2.7-0.3-3.8-0.9c-1.1-0.6-2-1.5-2.6-2.6
		c-0.6-1.1-0.9-2.4-0.9-3.8c0-1.4,0.3-2.7,0.9-3.9s1.4-2.1,2.5-2.7c1.1-0.6,2.4-0.9,3.8-0.9c1,0,2,0.2,2.8,0.5
		c0.8,0.3,1.5,0.8,2,1.4c0.5,0.6,0.8,1.4,1.1,2.4l-1.7,0.5c-0.2-0.7-0.5-1.3-0.8-1.7c-0.3-0.4-0.8-0.8-1.4-1c-0.6-0.3-1.3-0.4-2-0.4
		c-0.9,0-1.6,0.1-2.3,0.4c-0.6,0.3-1.1,0.6-1.5,1c-0.4,0.4-0.7,0.9-0.9,1.4c-0.4,0.9-0.5,1.8-0.5,2.9c0,1.3,0.2,2.3,0.7,3.2
		c0.4,0.9,1.1,1.5,1.9,1.9c0.8,0.4,1.7,0.6,2.7,0.6c0.8,0,1.6-0.2,2.4-0.5s1.4-0.7,1.8-1v-2.7H-21.8z M-13.8-10.2
		c0-1.9,0.5-3.3,1.6-4.3c0.9-0.8,2-1.2,3.3-1.2c1.4,0,2.6,0.5,3.5,1.4c0.9,0.9,1.4,2.2,1.4,3.9c0,1.3-0.2,2.4-0.6,3.1
		c-0.4,0.8-1,1.4-1.7,1.8C-7.2-5-8-4.8-8.9-4.8c-1.5,0-2.6-0.5-3.5-1.4C-13.3-7.1-13.8-8.4-13.8-10.2z M-12-10.2
		c0,1.3,0.3,2.3,0.9,3c0.6,0.7,1.3,1,2.2,1c0.9,0,1.6-0.3,2.2-1c0.6-0.7,0.9-1.7,0.9-3c0-1.3-0.3-2.3-0.9-2.9c-0.6-0.7-1.3-1-2.2-1
		c-0.9,0-1.6,0.3-2.2,1C-11.7-12.5-12-11.5-12-10.2z M10.3-8.8L12-8.6c-0.2,1.2-0.7,2.1-1.4,2.8c-0.8,0.7-1.7,1-2.9,1
		c-1.4,0-2.6-0.5-3.4-1.4C3.4-7.1,3-8.4,3-10.1c0-1.1,0.2-2.1,0.6-2.9c0.4-0.8,0.9-1.5,1.7-1.9c0.8-0.4,1.6-0.6,2.5-0.6
		c1.1,0,2,0.3,2.8,0.9c0.7,0.6,1.2,1.4,1.4,2.4l-1.7,0.3c-0.2-0.7-0.4-1.2-0.9-1.6c-0.4-0.3-0.9-0.5-1.5-0.5c-0.9,0-1.6,0.3-2.2,1
		c-0.6,0.6-0.8,1.6-0.8,3c0,1.4,0.3,2.4,0.8,3c0.5,0.6,1.2,0.9,2.1,0.9c0.7,0,1.3-0.2,1.7-0.6C9.9-7.3,10.2-7.9,10.3-8.8z M20.3-5
		v-1.5c-0.8,1.2-1.9,1.8-3.3,1.8c-0.6,0-1.2-0.1-1.7-0.4c-0.5-0.2-0.9-0.5-1.2-0.9s-0.4-0.8-0.5-1.3c-0.1-0.3-0.1-0.9-0.1-1.6v-6.4
		h1.8v5.8c0,0.9,0,1.5,0.1,1.9c0.1,0.5,0.4,0.8,0.7,1.1c0.4,0.3,0.8,0.4,1.3,0.4c0.5,0,1-0.1,1.5-0.4c0.5-0.3,0.8-0.6,1-1.1
		c0.2-0.5,0.3-1.1,0.3-2v-5.6h1.8V-5H20.3z M31.8-8.3l1.8,0.2c-0.3,1.1-0.8,1.9-1.6,2.5c-0.8,0.6-1.8,0.9-3,0.9
		c-1.5,0-2.7-0.5-3.6-1.4c-0.9-0.9-1.3-2.2-1.3-3.9c0-1.8,0.4-3.1,1.3-4.1s2.1-1.4,3.5-1.4c1.4,0,2.5,0.5,3.4,1.4
		c0.9,0.9,1.3,2.3,1.3,4c0,0.1,0,0.3,0,0.5h-7.7c0.1,1.1,0.4,2,1,2.6s1.3,0.9,2.2,0.9c0.6,0,1.2-0.2,1.6-0.5S31.5-7.6,31.8-8.3z
		 M26-11.2h5.8c-0.1-0.9-0.3-1.5-0.7-2c-0.6-0.7-1.3-1-2.2-1c-0.8,0-1.5,0.3-2,0.8C26.4-12.8,26.1-12.1,26-11.2z"/>
</g>
<g>
	<path class="st0" d="M163,489.1h1l0,0h1l0,0h1l0,0h1l0,0h1l0,0h1l0,0h1l0,0h1l0,0h1l0,0h1l0,0h1l0,0h1l0,0h1l0,0h1l0,0h1l0,0h1l0,0
		h1l0,0h1l0,0h1l0,0h1l0,0h1l0,0h1l0,0h1l0,0h1l0,0h1l0,0h1l0,0h1l0,0h1l0,0h1l0,0h1l0,0h1l0,0h1l0,0h1l0,0h1l0,0h1l0,0h1l0,0h1l0,0
		h1l0,0h1l0,0h1l0,0h1l0,0h1l0,0h1l0,0h1l0,0h1l0,0h1l0,0h1l0,0h1l0,0h1l0,0h1l0,0h1l0,0h1l0,0h1l0,0h1l0,0h1l0,0h1l0,0h1l0,0h1l0,0
		h1l0,0h1l0,0h1l0,0h1l0,0h1l0,0h1l0,0h1l0,0h1l0,0h1l0,0h1l0,0h1l0,0h1l0,0h1l0,0h1l0,0h1l0,0h1l0,0h1l0,0h1l0,0h1l0,0h1l0,0h1l0,0
		h1l0,0h1l0,0h1l0,0h1l0,0h1l0,0h1l0,0h1l0,0h1l0,0h1l0,0h1l0,0h1l0,0h1l0,0h1l0,0h1l0,0h1l0,0h1l0,0h1l0,0h1l0,0h1l0,0h1l0,0h1l0,0
		h1l0,0h1l0,0h1l0,0h1l0,0h1l0,0h1l0,0h1l0,0h1l0,0h1l0,0h1l0,0h1l0,0h1l0,0h1l0,0h1l0,0h1l0,0h1l0,0h1l0,0h1l0,0h1l0,0h1l0,0h1l0,0
		h1l0,0h1l0,0h1l0,0h1l0,0h1l0,0h1l0,0h1l0,0h1l0,0h1l0,0h1l0,0h1l0,0h1l0,0h1l0,0h1l0,0h1l0,0h1l0,0h1l0,0h1l0,0h1l0,0h1l0,0h1l0,0
		h1l0,0h1l0,0h1l0,0h1l0,0h1l0,0h1l0,0h1l0,0h1l0,0h1l0,0h1l0,0h1l0,0h1l0,0h1l0,0h1l0,0h1l0,0h1l0,0h1l0,0h1l0,0h1l0,0h1l0,0h1l0,0
		h1l0,0h1l0,0h1l0,0h1l0,0h1l0,0h1l0,0h1l0,0h1l0,0h1l0,0h1l0,0h1l0,0h1l0,0h1l0,0h1l0,0h1l0,0h1l0,0h1l0,0h1l0,0h1l0,0h1l0,0h1l0,0
		h1l0,0h1l0,0h1l0,0h1l0,0h1l0,0h1l0,0h1l0,0h1l0,0h1l0,0h1l0,0h1l0,0h1l0,0h1l0,0h1l0,0h1l0,0h1l0,0h1l0,0h1l0,0h1l0,0h1l0,0h1l0,0
		h1l0,0h1l0,0h1l0,0h1l0,0h1l0,0h1l0,0h1l0,0h1l0,0h1l0,0h1l0,0h1l0,0h1l0,0h1l0,0h1l0,0h1l0,0h1l0,0h1l0,0h1l0,0h1l0,0h1l0,0h1l0,0
		h1l0,0h1l0,0h1l0,0h1l0,0h1l0,0h1l0,0h1l0,0h1l0,0h1l0,0h1l0,0h1l0,0h1l0,0h1l0,0h1l0,0h1l0,0h1l0,0h1l0,0h1l0,0h1l0,0h1l0,0h1l0,0
		h1l0,0h1l0,0h1l0,0h1l0,0h1l0,0h1l0,0h1l0,0h1l0,0h1l0,0h1l0,0h1l0,0h1l0,0h1l0,0h1l0,0h1l0,0h1l0,0h1l0,0h1l0,0h1l0,0h1l0,0h1l0,0
		h1l0,0h1l0,0h1l0,0h1l0,0h1l0,0h1l0,0h1l0,0h1l0,0h1l0,0h1l0,0h1l0,0h1l0,0h1l0,0h1l0,0h1l0,0h1l0,0h1l0,0h1l0,0h1l0,0h1l0,0h1l0,0
		h1l0,0h1l0,0h1l0,0h1l0,0h1l0,0h1l0,0h1l0,0h1l0,0h1l0,0h1l0,0h1l0,0h1l0,0h1l0,0h1l0,0h1l0,0h1l0,0h1l0,0h1l0,0h1l0,0h1l0,0h1l0,0
		h1l0,0h1l0,0h1l0,0h1l0,0h1l0,0h1l0,0h1l0,0h1l0,0h1l0,0h1l0,0h1l0,0h1l0,0h1l0,0h1l0,0h1l0,0h1l0,0h1l0,0h1l0,0h1l0,0h1l0,0h1l0,0
		h1l0,0h1l0,0h1l0,0h1l0,0h1l0,0h1l0,0h1l0,0h1l0,0h1l0,0h1l0,0h1l0,0h1l0,0h1l0,0h1l0,0h1l0,0h1l0,0h1l0,0h1l0,0h1l0,0h1l0,0h1l0,0
		h1l0,0h1l0,0h1l0,0h1l0,0h1l0,0h1l0,0h1l0,0h1l0,0h1l0,0h1l0,0h1l0,0h1l0,0h1l0,0h1l0,0h1l0,0h1l0,0h1l0,0h1l0,0h1l0,0h1l0,0h1l0,0
		h1l0,0h1l0,0h1l0,0h1l0,0h1l0,0h1l0,0h1l0,0h1l0,0h1l0,0h1l0,0h1l0,0h1l0,0h1l0,0h1l0,0h1l0,0h1l0,0h1l0,0h1l0,0h1l0,0h1l0,0h1l0,0
		h1l0,0h1l0,0h1l0,0h1l0,0h1l0,0h1l0,0h1l0,0h1l0,0h1l0,0h1l0,0h1l0,0h1l0,0h1l0,0h1l0,0h1l0,0h1l0,0h1l0,0h1l0,0h1l0,0h1l0,0h1l0,0
		h1l0,0h1l0,0h1l0,0h1l0,0h1l0,0h1l0,0h1l0,0h1l0,0h1l0,0h1l0,0h1l0,0h1l0,0h1l0,0h1l0,0h1l0,0h1l0,0h1l0,0h1l0,0h1l0,0h1l0,0h1l0,0
		h1l0,0h1l0,0h1l0,0h1l0,0h1l0,0h1l0,0h1l0,0h1l0,0h1l0,0h1l0,0h1l0,0h1l0,0h1l0,0h1l0,0h1l0,0h1l0,0h1l0,0h1l0,0h1l0,0h1l0,0h1l0,0
		h1l0,0h1l0,0h1l0,0h1l0,0h1l0,0h1l0,0h1l0,0h1l0,0h1l0,0h1l0,0h1l0,0h1l0,0h1l0,0h1l0,0h1l0,0h1l0,0h1l0,0h1l0,0h1l0,0h1l0,0h1l0,0
		h1l0,0h1l0,0h1l0,0h1l0,0h1l0,0h1l0,0h1l0,0h1l0,0h1l0,0h1l0,0h1l0,0h1l0,0h1l0,0h1l0,0h1l0,0h1l0,0h1l0,0h1l0,0h1l0,0h1l0,0h1l0,0
		h1l0,0h1l0,0h1l0,0h1l0,0h1l0,0h1l0,0h1l0,0h1l0,0h1l0,0h1l0,0h1l0,0h1l0,0h1l0,0h1l0,0h1l0,0h1l0,0h1l0,0h1l0,0h1l0,0h1l0,0h1l0,0
		h1l0,0h1l0,0h1l0,0h1l0,0h1l0,0h1l0,0h1l0,0h1l0,0h1l0,0h1l0,0h1l0,0h1l0,0h1l0,0h1l0,0h1l0,0h1l0,0h1l0,0h1l0,0h1l0,0h1l0,0h1l0,0
		h1l0,0h1l0,0h1l0,0h1l0,0h1l0,0h1l0,0h1l0,0h1l0,0h1l0,0h1l0,0h1l0,0h1l0,0h1l0,0h1l0,0h1l0,0h1l0,0h1l0,0h1l0,0h1l0,0h1l0,0h1l0,0
		h1l0,0h1l0,0h1l0,0h1l0,0h1l0,0h1l0,0h1l0,0h1l0,0h1l0,0h1l0,0h1l0,0h1l0,0h1l0,0h1l0,0h1l0,0h1l0,0h1l0,0h1l0,0h1l0,0h1l0,0h1l0,0
		h1l0,0h1l0,0h1l0,0h1l0,0h1l0,0h1l0,0h1l0,0h1l0,0h1l0,0h1l0,0h1l0,0h1l0,0h1l0,0h1l0,0h1l0,0h1l0,0h1l0,0h1l0,0h1l0,0h1l0,0h1l0,0
		h1l0,0h1l0,0h1l0,0h1l0,0h1l0,0h1l0,0h1l0,0h1l0,0h1l0,0h1l0,0h1l0,0h1l0,0h1l0,0h1l0,0h1l0,0h1l0,0h1l0,0h1l0,0h1l0,0h1l0,0h1l0,0
		h1l0,0h1l0,0h1l0,0h1l0,0h1l0,0h1l0,0h1l0,0h1l0,0h1l0,0h1l0,0h1l0,0h1l0,0h1l0,0h1l0,0h1l0,0h1l0,0h1l0,0h1l0,0h1l0,0h1l0,0h1l0,0
		h1l0,0h1l0,0h1l0,0h1l0,0h1l0,0h1l0,0h1l0,0h1l0,0h1l0,0h1l0,0h1l0,0h1l0,0h1l0,0h1l0,0h1l0,0h1l0,0h1l0,0h1l0,0h1l0,0h1l0,0h1l0,0
		h1l0,0h1l0,0h1l0,0h1l0,0h1l0,0h1l0,0h1l0,0h1l0,0h1l0,0h1l0,0h1l0,0h1l0,0h1l0,0h1l0,0h1l0,0h1l0,0h1l0,0h1l0,0h1l0,0h1l0,0h1l0,0
		h1l0,0h1l0,0h1l0,0h1l0,0h1l0,0h1l0,0h1l0,0h1l0,0h1l0,0h1l0,0h1l0,0h1l0,0h1l0,0h1l0,0h1l0,0h1l0,0h1l0,0h1l0,0h1l0,0h1l0,0h1l0,0
		h1l0,0h1l0,0h1l0,0h1l0,0h1l0,0h1l0,0h1l0,0h1l0,0h1l0,0h1l0,0h1l0,0h1l0,0h1l0,0h1l0,0h1l0,0h1l0,0h1l0,0h1l0,0h1l0,0h1l0,0h1l0,0
		h1l0,0h1l0,0h1l0,0h1l0,0h1l0,0h1l0,0h1l0,0h1l0,0h1l0,0h1l0,0h1l0,0h1l0,0h1l0,0h1l0,0h1l0,0h1l0,0h1l0,0h1l0,0h1l0,0h1l0,0h1l0,0
		h1l0,0h1l0,0h1l0,0h1l0,0h1l0,0h1l0,0h1l0,0h1l0,0h1l0,0h1l0,0h1l0,0h1l0,0h1l0,0h1l0,0h1l0,0h1l0,0h1l0,0h1l0,0h1l0,0h1l0,0h1l0,0
		h1l0,0h1l0,0h1l0,0h1l0,0h1l0,0h1l0,0h1l0,0h1l0,0h1l0,0h1l0,0h1l0,0h1l0,0h1l0,0h1l0,0h1l0,0h1l0,0h1l0,0h1l0,0h1l0,0h1l0,0h1l0,0
		h1l0,0h1l0,0h1l0,0h1l0,0h1l0,0h1l0,0h1l0,0h1l0,0h1l0,0h1l0,0h1l0,0h1l0,0h1l0,0h1l0,0h1l0,0h1l0,0h1l0,0h1l0,0h1l0,0h1l0,0h1l0,0
		h1l0,0h1l0,0h1l0,0h1l0,0h1l0,0h1l0,0h1l0,0h1l0,0h1l0,0h1l0,0h1l0,0h1l0,0h1l0,0h1l0,0h1l0,0h1l0,0h1l0,0h1l0,0h1l0,0h1l0,0h1l0,0
		h1l0,0h1l0,0h1l0,0h1l0,0h1l0,0h1l0,0h1l0,0h1l0,0h1l0,0h1l0,0h1l0,0h1l0,0h1l0,0h1l0,0h1l0,0h1l0,0h1l0,0h1l0,0h1l0,0h1l0,0h1l0,0
		h1l0,0h1l0,0h1l0,0h1l0,0h1l0,0h1l0,0h1l0,0h1l0,0h1l0,0h1l0,0h1l0,0h1l0,0h1l0,0h1l0,0h1l0,0h1l0,0h1l0,0h1l0,0h1l0,0h1l0,0h1l0,0
		h1l0,0h1l0,0h1l0,0h1l0,0h1l0,0h1l0,0h1l0,0h1l0,0h1l0,0h1l0,0h1l0,0h1l0,0h1l0,0h1l0,0h1l0,0h1l0,0h1l0,0h1l0,0h1l0,0h1l0,0h1l0,0
		h1l0,0h1l0,0h1l0,0h1l0,0h1l0,0h1l0,0h1l0,0h1l0,0h1l0,0h1l0,0h1l0,0h1l0,0h1l0,0h1l0,0h1l0,0h1l0,0h1l0,0h1l0,0h1l0,0h1l0,0h1l0,0
		h1l0,0h1l0,0h1l0,0h1l0,0h1l0,0h1l0,0h1l0,0h1l0,0h1l0,0h1l0,0h1l0,0h1l0,0h1l0,0h1l0,0h1l0,0h1l0,0h1l0,0h1l0,0h1l0,0h1l0,0h1l0,0
		h1l0,0h1l0,0h1l0,0h1l0,0h1l0,0h1l0,0h1l0,0h1l0,0h1l0,0h1l0,0h1l0,0h1l0,0h1l0,0h1l0,0h1l0,0h1l0,0h1l0,0h1l0,0h1l0,0h1l0,0h1l0,0
		h1l0,0h1l0,0h1l0,0h1l0,0h1v-23.4h1l0,0h1l0,0h1l0,0h1l0,0h1l0,0h1l0,0h1l0,0h1l0,0h1l0,0h1l0,0h1l0,0h1l0,0h1l0,0h1l0,0h1l0,0h1
		l0,0h1l0,0h1l0,0h1l0,0h1l0,0h1l0,0h1l0,0h1l0,0h1l0,0h1l0,0h1l0,0h1l0,0h1l0,0h1l0,0h1l0,0h1l0,0h1l0,0h1l0,0"/>
</g>
<g transform="translate(163,485.5889)">
	<path d="M-18.2-10l1.9,0.5C-16.7-8-17.5-6.8-18.5-6c-1,0.8-2.3,1.2-3.8,1.2c-1.5,0-2.8-0.3-3.8-0.9s-1.7-1.5-2.2-2.7
		c-0.5-1.2-0.8-2.5-0.8-3.8c0-1.5,0.3-2.8,0.9-3.9c0.6-1.1,1.4-2,2.4-2.5c1.1-0.6,2.2-0.9,3.5-0.9c1.4,0,2.6,0.4,3.6,1.1
		c1,0.7,1.7,1.8,2,3.1l-1.9,0.4c-0.3-1-0.8-1.8-1.4-2.3c-0.6-0.5-1.4-0.7-2.4-0.7c-1.1,0-2,0.3-2.8,0.8c-0.7,0.5-1.3,1.2-1.6,2.1
		c-0.3,0.9-0.4,1.8-0.4,2.7c0,1.2,0.2,2.3,0.5,3.2c0.4,0.9,0.9,1.6,1.7,2c0.8,0.4,1.6,0.7,2.4,0.7c1.1,0,2-0.3,2.7-0.9
		S-18.5-8.8-18.2-10z M-14.2-5v-14.3h1.8v5.1c0.8-0.9,1.9-1.4,3.1-1.4c0.8,0,1.4,0.2,2,0.5c0.6,0.3,1,0.7,1.2,1.3
		c0.2,0.5,0.4,1.3,0.4,2.3V-5h-1.8v-6.6c0-0.9-0.2-1.5-0.6-1.9c-0.4-0.4-0.9-0.6-1.6-0.6c-0.5,0-1,0.1-1.5,0.4
		c-0.5,0.3-0.8,0.6-1,1.1c-0.2,0.5-0.3,1.1-0.3,1.9V-5H-14.2z M-3.8-10.2c0-1.9,0.5-3.3,1.6-4.3c0.9-0.8,2-1.2,3.3-1.2
		c1.4,0,2.6,0.5,3.5,1.4c0.9,0.9,1.4,2.2,1.4,3.9c0,1.3-0.2,2.4-0.6,3.1C5-6.4,4.4-5.8,3.6-5.4C2.8-5,2-4.8,1.1-4.8
		c-1.5,0-2.6-0.5-3.5-1.4C-3.3-7.1-3.8-8.4-3.8-10.2z M-2-10.2c0,1.3,0.3,2.3,0.9,3c0.6,0.7,1.3,1,2.2,1c0.9,0,1.6-0.3,2.2-1
		c0.6-0.7,0.9-1.7,0.9-3c0-1.3-0.3-2.3-0.9-2.9c-0.6-0.7-1.3-1-2.2-1c-0.9,0-1.6,0.3-2.2,1C-1.7-12.5-2-11.5-2-10.2z M8-17.3v-2h1.8
		v2H8z M8-5v-10.4h1.8V-5H8z M19.2-8.8l1.7,0.2c-0.2,1.2-0.7,2.1-1.4,2.8s-1.7,1-2.9,1c-1.4,0-2.6-0.5-3.4-1.4
		c-0.9-0.9-1.3-2.3-1.3-4c0-1.1,0.2-2.1,0.6-2.9c0.4-0.8,0.9-1.5,1.7-1.9c0.8-0.4,1.6-0.6,2.5-0.6c1.1,0,2,0.3,2.8,0.9
		c0.7,0.6,1.2,1.4,1.4,2.4l-1.7,0.3c-0.2-0.7-0.4-1.2-0.9-1.6c-0.4-0.3-0.9-0.5-1.5-0.5c-0.9,0-1.6,0.3-2.2,1
		c-0.6,0.6-0.8,1.6-0.8,3c0,1.4,0.3,2.4,0.8,3c0.5,0.6,1.2,0.9,2.1,0.9c0.7,0,1.3-0.2,1.7-0.6C18.8-7.3,19.1-7.9,19.2-8.8z
		 M29.6-8.3l1.8,0.2c-0.3,1.1-0.8,1.9-1.6,2.5c-0.8,0.6-1.8,0.9-3,0.9c-1.5,0-2.7-0.5-3.6-1.4c-0.9-0.9-1.3-2.2-1.3-3.9
		c0-1.8,0.4-3.1,1.3-4.1c0.9-1,2.1-1.4,3.5-1.4c1.4,0,2.5,0.5,3.4,1.4c0.9,0.9,1.3,2.3,1.3,4c0,0.1,0,0.3,0,0.5h-7.7
		c0.1,1.1,0.4,2,1,2.6c0.6,0.6,1.3,0.9,2.2,0.9c0.6,0,1.2-0.2,1.6-0.5C28.9-7.1,29.3-7.6,29.6-8.3z M23.8-11.2h5.8
		c-0.1-0.9-0.3-1.5-0.7-2c-0.6-0.7-1.3-1-2.2-1c-0.8,0-1.5,0.3-2,0.8C24.1-12.8,23.8-12.1,23.8-11.2z M38.4-8.1l1.8-0.3
		c0.1,0.7,0.4,1.2,0.8,1.6c0.4,0.4,1.1,0.6,1.9,0.6c0.8,0,1.4-0.2,1.8-0.5C45-7,45.2-7.4,45.2-7.9c0-0.4-0.2-0.7-0.5-0.9
		c-0.2-0.2-0.8-0.4-1.8-0.6c-1.3-0.3-2.2-0.6-2.7-0.9c-0.5-0.2-0.9-0.6-1.1-1c-0.3-0.4-0.4-0.9-0.4-1.4c0-0.5,0.1-0.9,0.3-1.3
		c0.2-0.4,0.5-0.7,0.9-1c0.3-0.2,0.6-0.4,1.1-0.5c0.5-0.1,1-0.2,1.5-0.2c0.8,0,1.5,0.1,2.1,0.4s1.1,0.6,1.4,1
		c0.3,0.4,0.5,0.9,0.6,1.6l-1.7,0.2c-0.1-0.5-0.3-0.9-0.7-1.2c-0.4-0.3-0.9-0.4-1.6-0.4c-0.8,0-1.4,0.1-1.7,0.4s-0.5,0.6-0.5,0.9
		c0,0.2,0.1,0.4,0.2,0.6c0.1,0.2,0.4,0.3,0.7,0.5c0.2,0.1,0.7,0.2,1.5,0.4c1.3,0.3,2.1,0.6,2.6,0.8c0.5,0.2,0.9,0.5,1.2,0.9
		C46.9-9.2,47-8.7,47-8c0,0.6-0.2,1.1-0.5,1.7c-0.3,0.5-0.8,0.9-1.5,1.2c-0.6,0.3-1.4,0.4-2.2,0.4c-1.3,0-2.4-0.3-3.1-0.8
		C39.1-6.2,38.6-7,38.4-8.1z M49.1-1v-14.3h1.6v1.3c0.4-0.5,0.8-0.9,1.3-1.2c0.5-0.3,1-0.4,1.7-0.4c0.9,0,1.7,0.2,2.3,0.7
		c0.7,0.5,1.2,1.1,1.5,1.9c0.3,0.8,0.5,1.7,0.5,2.7c0,1.1-0.2,2-0.6,2.9c-0.4,0.8-0.9,1.5-1.7,2c-0.7,0.5-1.5,0.7-2.3,0.7
		c-0.6,0-1.1-0.1-1.6-0.4s-0.8-0.6-1.1-0.9v5H49.1z M50.7-10.1c0,1.3,0.3,2.3,0.8,3c0.5,0.6,1.2,1,2,1c0.8,0,1.5-0.3,2-1
		c0.6-0.7,0.8-1.7,0.8-3.1c0-1.3-0.3-2.3-0.8-3c-0.5-0.7-1.2-1-1.9-1c-0.8,0-1.4,0.4-2,1.1C51-12.5,50.7-11.5,50.7-10.1z M59.6-10.2
		c0-1.9,0.5-3.3,1.6-4.3c0.9-0.8,2-1.2,3.3-1.2c1.4,0,2.6,0.5,3.5,1.4c0.9,0.9,1.4,2.2,1.4,3.9c0,1.3-0.2,2.4-0.6,3.1
		c-0.4,0.8-1,1.4-1.7,1.8c-0.8,0.4-1.6,0.6-2.5,0.6c-1.5,0-2.6-0.5-3.5-1.4C60.1-7.1,59.6-8.4,59.6-10.2z M61.4-10.2
		c0,1.3,0.3,2.3,0.9,3c0.6,0.7,1.3,1,2.2,1c0.9,0,1.6-0.3,2.2-1c0.6-0.7,0.9-1.7,0.9-3c0-1.3-0.3-2.3-0.9-2.9c-0.6-0.7-1.3-1-2.2-1
		c-0.9,0-1.6,0.3-2.2,1C61.7-12.5,61.4-11.5,61.4-10.2z M78.2-5v-1.5c-0.8,1.2-1.9,1.8-3.3,1.8c-0.6,0-1.2-0.1-1.7-0.4
		C72.6-5.4,72.2-5.6,72-6s-0.4-0.8-0.5-1.3c-0.1-0.3-0.1-0.9-0.1-1.6v-6.4h1.8v5.8c0,0.9,0,1.5,0.1,1.9c0.1,0.5,0.4,0.8,0.7,1.1
		c0.4,0.3,0.8,0.4,1.3,0.4c0.5,0,1-0.1,1.5-0.4c0.5-0.3,0.8-0.6,1-1.1c0.2-0.5,0.3-1.1,0.3-2v-5.6h1.8V-5H78.2z M86.3-6.6L86.6-5
		c-0.5,0.1-0.9,0.2-1.3,0.2c-0.6,0-1.1-0.1-1.5-0.3C83.4-5.4,83.2-5.6,83-6c-0.1-0.3-0.2-1-0.2-2.1v-6h-1.3v-1.4h1.3v-2.6l1.8-1.1
		v3.6h1.8v1.4h-1.8v6.1c0,0.5,0,0.8,0.1,1c0.1,0.1,0.2,0.3,0.3,0.3c0.1,0.1,0.3,0.1,0.6,0.1C85.8-6.5,86-6.5,86.3-6.6z"/>
</g>
<g>
	<line class="st2" x1="275.1" y1="512.5" x2="275.1" y2="137.9"/>
	<line class="st2" x1="387.5" y1="512.5" x2="387.5" y2="137.9"/>
	<line class="st2" x1="441.2" y1="512.5" x2="441.2" y2="137.9"/>
	<line class="st2" x1="762.5" y1="512.5" x2="762.5" y2="137.9"/>
	<line class="st2" x1="874" y1="512.5" x2="874" y2="137.9"/>
	<line class="st2" x1="954.3" y1="512.5" x2="954.3" y2="137.9"/>
	<line class="st2" x1="1002.5" y1="512.5" x2="1002.5" y2="137.9"/>
	<line class="st2" x1="1098.9" y1="512.5" x2="1098.9" y2="137.9"/>
</g>
</svg>
