<?xml version="1.0" encoding="utf-8"?>
<!-- Generator: Adobe Illustrator 24.0.1, SVG Export Plug-In . SVG Version: 6.00 Build 0)  -->
<svg version="1.1" id="Layer_1" xmlns="http://www.w3.org/2000/svg" xmlns:xlink="http://www.w3.org/1999/xlink" x="0px" y="0px"
	 viewBox="0 0 700 525" style="enable-background:new 0 0 700 525;" xml:space="preserve">
<style type="text/css">
	.st0{fill:none;stroke:#000000;stroke-width:1.6667;stroke-linejoin:bevel;stroke-miterlimit:1;stroke-dasharray:1,3;}
	.st1{fill:#24C1AD;}
	.st2{fill:none;stroke:#000000;stroke-width:2.5;stroke-miterlimit:10;}
	.st3{fill:#474EF1;}
	.st4{fill:#0CBDBB;}
	.st5{fill:#DBBD28;}
	.st6{fill:#10BDB9;}
	.st7{fill:none;stroke:#000000;stroke-width:3.3333;stroke-linecap:square;stroke-linejoin:round;stroke-miterlimit:10;}
</style>
<line class="st0" x1="133" y1="421" x2="515" y2="39"/>
<line class="st0" x1="164.8" y1="228.4" x2="325.6" y2="70.8"/>
<line class="st0" x1="325.6" y1="389.2" x2="483.2" y2="228.4"/>
<g transform="translate(164.8334,228.3917)">
	<path class="st1" d="M-10-10v20h20v-20H-10z"/>
</g>
<g transform="translate(164.8334,228.3917)">
	<path class="st2" d="M-10-10v20h20v-20H-10z"/>
</g>
<g transform="translate(325.6083,389.1667)">
	<path class="st3" d="M-10-10v20h20v-20H-10z"/>
</g>
<g transform="translate(325.6083,389.1667)">
	<path class="st2" d="M-10-10v20h20v-20H-10z"/>
</g>
<g transform="translate(325.6083,228.3917)">
	<path class="st4" d="M-10-10v20h20v-20H-10z"/>
</g>
<g transform="translate(325.6083,228.3917)">
	<path class="st2" d="M-10-10v20h20v-20H-10z"/>
</g>
<g transform="translate(325.6083,70.8333)">
	<path class="st5" d="M-10-10v20h20v-20H-10z"/>
</g>
<g transform="translate(325.6083,70.8333)">
	<path class="st2" d="M-10-10v20h20v-20H-10z"/>
</g>
<g transform="translate(483.1667,228.3917)">
	<path class="st6" d="M-10-10v20h20v-20H-10z"/>
</g>
<g transform="translate(483.1667,228.3917)">
	<path class="st2" d="M-10-10v20h20v-20H-10z"/>
</g>
<g transform="translate(171.228,249.985)">
	<path d="M-19.7,4.2l1.8-0.2c0.1,0.9,0.5,1.6,1,2c0.5,0.5,1.1,0.7,1.8,0.7c0.8,0,1.6-0.3,2.1-1c0.6-0.6,0.9-1.5,0.9-2.5
		c0-1-0.3-1.8-0.8-2.4c-0.6-0.6-1.3-0.9-2.2-0.9c-0.6,0-1.1,0.1-1.5,0.4s-0.8,0.6-1.1,1l-1.7-0.2l1.4-7.4h7.1v1.7h-5.7l-0.8,3.8
		c0.9-0.6,1.8-0.9,2.7-0.9c1.3,0,2.3,0.4,3.2,1.3c0.9,0.9,1.3,2,1.3,3.3c0,1.3-0.4,2.4-1.1,3.4c-0.9,1.2-2.2,1.8-3.8,1.8
		c-1.3,0-2.4-0.4-3.2-1.1C-19.1,6.4-19.6,5.5-19.7,4.2z M-1.9,8h-1.8V-3.2c-0.4,0.4-1,0.8-1.7,1.2C-6-1.6-6.7-1.3-7.2-1.1v-1.7
		c1-0.5,1.9-1,2.6-1.7c0.7-0.7,1.3-1.3,1.6-1.9h1.1V8z M2.9-2.9c0-1,0.3-1.9,0.8-2.6c0.5-0.7,1.3-1.1,2.2-1.1c0.9,0,1.6,0.3,2.2,1
		C8.7-5,9-4,9-2.8C9-1.6,8.7-0.6,8.1,0C7.5,0.7,6.8,1,5.9,1C5.1,1,4.3,0.7,3.8,0C3.2-0.6,2.9-1.6,2.9-2.9z M6-5.3
		c-0.4,0-0.8,0.2-1.1,0.6C4.6-4.4,4.4-3.7,4.4-2.7c0,0.9,0.1,1.6,0.4,1.9C5.2-0.4,5.5-0.2,6-0.2c0.4,0,0.8-0.2,1.1-0.6
		c0.3-0.4,0.4-1.1,0.4-2.1c0-0.9-0.1-1.6-0.4-1.9C6.8-5.2,6.4-5.3,6-5.3z M6,8.5l7.8-15.1h1.4L7.4,8.5H6z M12.2,4.6
		c0-1,0.3-1.9,0.8-2.6C13.5,1.3,14.2,1,15.2,1c0.9,0,1.6,0.3,2.2,1c0.6,0.6,0.9,1.6,0.9,2.8c0,1.2-0.3,2.1-0.9,2.8
		c-0.6,0.7-1.3,1-2.2,1c-0.9,0-1.6-0.3-2.2-1C12.5,6.9,12.2,5.9,12.2,4.6z M15.2,2.2c-0.4,0-0.8,0.2-1.1,0.6s-0.4,1.1-0.4,2.1
		c0,0.9,0.1,1.6,0.4,1.9s0.7,0.6,1.1,0.6c0.4,0,0.8-0.2,1.1-0.6s0.4-1.1,0.4-2.1c0-0.9-0.1-1.6-0.4-1.9S15.7,2.2,15.2,2.2z"/>
</g>
<g transform="translate(332.0029,365.6641)">
	<path d="M-19.7,4.2l1.8-0.2c0.2,1,0.6,1.7,1,2.2c0.5,0.4,1.1,0.7,1.8,0.7c0.8,0,1.5-0.3,2.1-0.9c0.6-0.6,0.9-1.3,0.9-2.1
		c0-0.8-0.3-1.5-0.8-2C-13.5,1.3-14.1,1-15,1c-0.3,0-0.7,0.1-1.2,0.2l0.2-1.5c0.1,0,0.2,0,0.3,0c0.8,0,1.4-0.2,2-0.6
		c0.6-0.4,0.9-1,0.9-1.8c0-0.6-0.2-1.2-0.7-1.6c-0.4-0.4-1-0.6-1.7-0.6c-0.7,0-1.2,0.2-1.7,0.6c-0.5,0.4-0.7,1.1-0.9,1.9l-1.8-0.3
		c0.2-1.2,0.7-2.1,1.5-2.7c0.8-0.6,1.7-1,2.8-1c0.8,0,1.5,0.2,2.2,0.5c0.7,0.3,1.2,0.8,1.5,1.4c0.3,0.6,0.5,1.2,0.5,1.8
		c0,0.6-0.2,1.2-0.5,1.7c-0.3,0.5-0.8,0.9-1.5,1.2c0.8,0.2,1.5,0.6,2,1.2c0.5,0.6,0.7,1.4,0.7,2.3c0,1.3-0.5,2.3-1.4,3.2
		s-2.1,1.3-3.5,1.3c-1.3,0-2.3-0.4-3.1-1.1S-19.5,5.4-19.7,4.2z M-8.5,4.2l1.8-0.2c0.1,0.9,0.5,1.6,1,2c0.5,0.5,1.1,0.7,1.8,0.7
		c0.8,0,1.6-0.3,2.1-1c0.6-0.6,0.9-1.5,0.9-2.5c0-1-0.3-1.8-0.8-2.4C-2.3,0.4-3.1,0.1-4,0.1c-0.6,0-1.1,0.1-1.5,0.4s-0.8,0.6-1.1,1
		l-1.7-0.2l1.4-7.4h7.1v1.7h-5.7l-0.8,3.8c0.9-0.6,1.8-0.9,2.7-0.9c1.3,0,2.3,0.4,3.2,1.3S1,1.8,1,3.1c0,1.3-0.4,2.4-1.1,3.4
		c-0.9,1.2-2.2,1.8-3.8,1.8c-1.3,0-2.4-0.4-3.2-1.1C-8,6.4-8.4,5.5-8.5,4.2z M2.9-2.9c0-1,0.3-1.9,0.8-2.6c0.5-0.7,1.3-1.1,2.2-1.1
		c0.9,0,1.6,0.3,2.2,1C8.7-5,9-4,9-2.8C9-1.6,8.7-0.6,8.1,0C7.5,0.7,6.8,1,5.9,1C5.1,1,4.3,0.7,3.8,0C3.2-0.6,2.9-1.6,2.9-2.9z
		 M6-5.3c-0.4,0-0.8,0.2-1.1,0.6C4.6-4.4,4.4-3.7,4.4-2.7c0,0.9,0.1,1.6,0.4,1.9C5.2-0.4,5.5-0.2,6-0.2c0.4,0,0.8-0.2,1.1-0.6
		c0.3-0.4,0.4-1.1,0.4-2.1c0-0.9-0.1-1.6-0.4-1.9C6.8-5.2,6.4-5.3,6-5.3z M6,8.5l7.8-15.1h1.4L7.4,8.5H6z M12.2,4.6
		c0-1,0.3-1.9,0.8-2.6C13.5,1.3,14.2,1,15.2,1c0.9,0,1.6,0.3,2.2,1c0.6,0.6,0.9,1.6,0.9,2.8c0,1.2-0.3,2.1-0.9,2.8
		c-0.6,0.7-1.3,1-2.2,1c-0.9,0-1.6-0.3-2.2-1C12.5,6.9,12.2,5.9,12.2,4.6z M15.2,2.2c-0.4,0-0.8,0.2-1.1,0.6s-0.4,1.1-0.4,2.1
		c0,0.9,0.1,1.6,0.4,1.9s0.7,0.6,1.1,0.6c0.4,0,0.8-0.2,1.1-0.6s0.4-1.1,0.4-2.1c0-0.9-0.1-1.6-0.4-1.9S15.7,2.2,15.2,2.2z"/>
</g>
<g transform="translate(332.0029,204.8891)">
	<path d="M-19.7,4.2l1.8-0.2c0.1,0.9,0.5,1.6,1,2c0.5,0.5,1.1,0.7,1.8,0.7c0.8,0,1.6-0.3,2.1-1c0.6-0.6,0.9-1.5,0.9-2.5
		c0-1-0.3-1.8-0.8-2.4c-0.6-0.6-1.3-0.9-2.2-0.9c-0.6,0-1.1,0.1-1.5,0.4s-0.8,0.6-1.1,1l-1.7-0.2l1.4-7.4h7.1v1.7h-5.7l-0.8,3.8
		c0.9-0.6,1.8-0.9,2.7-0.9c1.3,0,2.3,0.4,3.2,1.3c0.9,0.9,1.3,2,1.3,3.3c0,1.3-0.4,2.4-1.1,3.4c-0.9,1.2-2.2,1.8-3.8,1.8
		c-1.3,0-2.4-0.4-3.2-1.1C-19.1,6.4-19.6,5.5-19.7,4.2z M-8.5,0.9c0-1.7,0.2-3,0.5-4.1c0.3-1,0.9-1.8,1.6-2.4
		c0.7-0.6,1.6-0.8,2.6-0.8c0.8,0,1.4,0.2,2,0.5c0.6,0.3,1.1,0.8,1.4,1.3s0.7,1.3,0.9,2.1s0.3,2,0.3,3.4c0,1.7-0.2,3-0.5,4.1
		c-0.3,1-0.9,1.8-1.5,2.4C-2,8-2.8,8.2-3.9,8.2c-1.4,0-2.5-0.5-3.3-1.5C-8.1,5.6-8.5,3.6-8.5,0.9z M-6.7,0.9c0,2.4,0.3,3.9,0.8,4.7
		c0.5,0.8,1.2,1.2,2,1.2c0.8,0,1.5-0.4,2-1.2S-1,3.3-1,0.9C-1-1.4-1.3-3-1.8-3.8c-0.6-0.8-1.2-1.2-2-1.2c-0.8,0-1.5,0.3-1.9,1
		C-6.4-3-6.7-1.4-6.7,0.9z M2.9-2.9c0-1,0.3-1.9,0.8-2.6c0.5-0.7,1.3-1.1,2.2-1.1c0.9,0,1.6,0.3,2.2,1C8.7-5,9-4,9-2.8
		C9-1.6,8.7-0.6,8.1,0C7.5,0.7,6.8,1,5.9,1C5.1,1,4.3,0.7,3.8,0C3.2-0.6,2.9-1.6,2.9-2.9z M6-5.3c-0.4,0-0.8,0.2-1.1,0.6
		C4.6-4.4,4.4-3.7,4.4-2.7c0,0.9,0.1,1.6,0.4,1.9C5.2-0.4,5.5-0.2,6-0.2c0.4,0,0.8-0.2,1.1-0.6c0.3-0.4,0.4-1.1,0.4-2.1
		c0-0.9-0.1-1.6-0.4-1.9C6.8-5.2,6.4-5.3,6-5.3z M6,8.5l7.8-15.1h1.4L7.4,8.5H6z M12.2,4.6c0-1,0.3-1.9,0.8-2.6
		C13.5,1.3,14.2,1,15.2,1c0.9,0,1.6,0.3,2.2,1c0.6,0.6,0.9,1.6,0.9,2.8c0,1.2-0.3,2.1-0.9,2.8c-0.6,0.7-1.3,1-2.2,1
		c-0.9,0-1.6-0.3-2.2-1C12.5,6.9,12.2,5.9,12.2,4.6z M15.2,2.2c-0.4,0-0.8,0.2-1.1,0.6s-0.4,1.1-0.4,2.1c0,0.9,0.1,1.6,0.4,1.9
		s0.7,0.6,1.1,0.6c0.4,0,0.8-0.2,1.1-0.6s0.4-1.1,0.4-2.1c0-0.9-0.1-1.6-0.4-1.9S15.7,2.2,15.2,2.2z"/>
</g>
<g transform="translate(332.0029,92.4266)">
	<path d="M-10.5-2.8l-1.8,0.1c-0.2-0.7-0.4-1.2-0.7-1.5c-0.5-0.5-1.1-0.8-1.8-0.8c-0.6,0-1.1,0.2-1.5,0.5c-0.6,0.4-1,1-1.3,1.8
		S-18-0.8-18,0.6c0.4-0.6,0.9-1.1,1.6-1.4c0.6-0.3,1.3-0.5,1.9-0.5c1.2,0,2.2,0.4,3,1.3c0.8,0.9,1.2,2,1.2,3.3
		c0,0.9-0.2,1.7-0.6,2.5c-0.4,0.8-0.9,1.4-1.6,1.8c-0.7,0.4-1.4,0.6-2.3,0.6c-1.5,0-2.7-0.5-3.6-1.6s-1.4-2.9-1.4-5.3
		c0-2.8,0.5-4.8,1.5-6c0.9-1.1,2.1-1.6,3.6-1.6c1.1,0,2,0.3,2.8,0.9C-11.1-4.8-10.7-3.9-10.5-2.8z M-17.7,3.4c0,0.6,0.1,1.2,0.4,1.7
		c0.3,0.6,0.6,1,1.1,1.3c0.5,0.3,0.9,0.4,1.4,0.4c0.8,0,1.4-0.3,1.9-0.9c0.5-0.6,0.8-1.4,0.8-2.4c0-1-0.3-1.8-0.8-2.3
		c-0.5-0.6-1.2-0.9-2-0.9c-0.8,0-1.5,0.3-2,0.9C-17.4,1.7-17.7,2.4-17.7,3.4z M-1.9,8h-1.8V-3.2c-0.4,0.4-1,0.8-1.7,1.2
		C-6-1.6-6.7-1.3-7.2-1.1v-1.7c1-0.5,1.9-1,2.6-1.7c0.7-0.7,1.3-1.3,1.6-1.9h1.1V8z M2.9-2.9c0-1,0.3-1.9,0.8-2.6
		c0.5-0.7,1.3-1.1,2.2-1.1c0.9,0,1.6,0.3,2.2,1C8.7-5,9-4,9-2.8C9-1.6,8.7-0.6,8.1,0C7.5,0.7,6.8,1,5.9,1C5.1,1,4.3,0.7,3.8,0
		C3.2-0.6,2.9-1.6,2.9-2.9z M6-5.3c-0.4,0-0.8,0.2-1.1,0.6C4.6-4.4,4.4-3.7,4.4-2.7c0,0.9,0.1,1.6,0.4,1.9C5.2-0.4,5.5-0.2,6-0.2
		c0.4,0,0.8-0.2,1.1-0.6c0.3-0.4,0.4-1.1,0.4-2.1c0-0.9-0.1-1.6-0.4-1.9C6.8-5.2,6.4-5.3,6-5.3z M6,8.5l7.8-15.1h1.4L7.4,8.5H6z
		 M12.2,4.6c0-1,0.3-1.9,0.8-2.6C13.5,1.3,14.2,1,15.2,1c0.9,0,1.6,0.3,2.2,1c0.6,0.6,0.9,1.6,0.9,2.8c0,1.2-0.3,2.1-0.9,2.8
		c-0.6,0.7-1.3,1-2.2,1c-0.9,0-1.6-0.3-2.2-1C12.5,6.9,12.2,5.9,12.2,4.6z M15.2,2.2c-0.4,0-0.8,0.2-1.1,0.6s-0.4,1.1-0.4,2.1
		c0,0.9,0.1,1.6,0.4,1.9s0.7,0.6,1.1,0.6c0.4,0,0.8-0.2,1.1-0.6s0.4-1.1,0.4-2.1c0-0.9-0.1-1.6-0.4-1.9S15.7,2.2,15.2,2.2z"/>
</g>
<g transform="translate(489.5613,204.8891)">
	<path d="M-19.7,4.2l1.8-0.2c0.1,0.9,0.5,1.6,1,2c0.5,0.5,1.1,0.7,1.8,0.7c0.8,0,1.6-0.3,2.1-1c0.6-0.6,0.9-1.5,0.9-2.5
		c0-1-0.3-1.8-0.8-2.4c-0.6-0.6-1.3-0.9-2.2-0.9c-0.6,0-1.1,0.1-1.5,0.4s-0.8,0.6-1.1,1l-1.7-0.2l1.4-7.4h7.1v1.7h-5.7l-0.8,3.8
		c0.9-0.6,1.8-0.9,2.7-0.9c1.3,0,2.3,0.4,3.2,1.3c0.9,0.9,1.3,2,1.3,3.3c0,1.3-0.4,2.4-1.1,3.4c-0.9,1.2-2.2,1.8-3.8,1.8
		c-1.3,0-2.4-0.4-3.2-1.1C-19.1,6.4-19.6,5.5-19.7,4.2z M-8.5,0.9c0-1.7,0.2-3,0.5-4.1c0.3-1,0.9-1.8,1.6-2.4
		c0.7-0.6,1.6-0.8,2.6-0.8c0.8,0,1.4,0.2,2,0.5c0.6,0.3,1.1,0.8,1.4,1.3s0.7,1.3,0.9,2.1s0.3,2,0.3,3.4c0,1.7-0.2,3-0.5,4.1
		c-0.3,1-0.9,1.8-1.5,2.4C-2,8-2.8,8.2-3.9,8.2c-1.4,0-2.5-0.5-3.2-1.5C-8.1,5.6-8.5,3.6-8.5,0.9z M-6.7,0.9c0,2.4,0.3,3.9,0.8,4.7
		c0.5,0.8,1.2,1.2,2,1.2c0.8,0,1.5-0.4,2-1.2S-1,3.3-1,0.9C-1-1.4-1.3-3-1.8-3.8c-0.6-0.8-1.2-1.2-2-1.2c-0.8,0-1.5,0.3-1.9,1
		C-6.4-3-6.7-1.4-6.7,0.9z M2.9-2.9c0-1,0.3-1.9,0.8-2.6c0.5-0.7,1.3-1.1,2.2-1.1c0.9,0,1.6,0.3,2.2,1C8.7-5,9-4,9-2.8
		C9-1.6,8.7-0.6,8.1,0C7.5,0.7,6.8,1,5.9,1C5.1,1,4.3,0.7,3.8,0C3.2-0.6,2.9-1.6,2.9-2.9z M6-5.3c-0.4,0-0.8,0.2-1.1,0.6
		C4.6-4.4,4.4-3.7,4.4-2.7c0,0.9,0.1,1.6,0.4,1.9C5.2-0.4,5.5-0.2,6-0.2c0.4,0,0.8-0.2,1.1-0.6c0.3-0.4,0.4-1.1,0.4-2.1
		c0-0.9-0.1-1.6-0.4-1.9C6.8-5.2,6.4-5.3,6-5.3z M6,8.5l7.8-15.1h1.4L7.4,8.5H6z M12.2,4.6c0-1,0.3-1.9,0.8-2.6
		C13.5,1.3,14.2,1,15.2,1c0.9,0,1.6,0.3,2.2,1c0.6,0.6,0.9,1.6,0.9,2.8c0,1.2-0.3,2.1-0.9,2.8c-0.6,0.7-1.3,1-2.2,1
		c-0.9,0-1.6-0.3-2.2-1C12.5,6.9,12.2,5.9,12.2,4.6z M15.2,2.2c-0.4,0-0.8,0.2-1.1,0.6s-0.4,1.1-0.4,2.1c0,0.9,0.1,1.6,0.4,1.9
		s0.7,0.6,1.1,0.6c0.4,0,0.8-0.2,1.1-0.6s0.4-1.1,0.4-2.1c0-0.9-0.1-1.6-0.4-1.9S15.7,2.2,15.2,2.2z"/>
</g>
<g>
	<line class="st7" x1="133" y1="421" x2="515" y2="421"/>
	<line class="st7" x1="164.8" y1="421" x2="164.8" y2="430.5"/>
	<line class="st7" x1="325.6" y1="421" x2="325.6" y2="430.5"/>
	<line class="st7" x1="483.2" y1="421" x2="483.2" y2="430.5"/>
</g>
<g transform="translate(164.8334,437.8833) rotate(-45)">
	<path d="M-16.5,21v-3.4h-6.2V16l6.5-9.3h1.4V16h1.9v1.6h-1.9V21H-16.5z M-16.5,16V9.5L-21,16H-16.5z M-11,17.2l1.7-0.2
		c0.2,1,0.6,1.7,1,2.2c0.5,0.4,1.1,0.7,1.8,0.7c0.8,0,1.5-0.3,2.1-0.9c0.6-0.6,0.9-1.3,0.9-2.1c0-0.8-0.3-1.5-0.8-2
		c-0.5-0.5-1.2-0.8-2-0.8c-0.3,0-0.7,0.1-1.2,0.2l0.2-1.5c0.1,0,0.2,0,0.3,0c0.8,0,1.4-0.2,2-0.6c0.6-0.4,0.9-1,0.9-1.8
		c0-0.6-0.2-1.2-0.7-1.6c-0.4-0.4-1-0.6-1.7-0.6c-0.7,0-1.2,0.2-1.7,0.6C-8.7,9.1-9,9.8-9.1,10.6l-1.8-0.3c0.2-1.2,0.7-2.1,1.5-2.7
		c0.8-0.6,1.7-1,2.8-1c0.8,0,1.5,0.2,2.2,0.5c0.7,0.3,1.2,0.8,1.5,1.4c0.3,0.6,0.5,1.2,0.5,1.8c0,0.6-0.2,1.2-0.5,1.7
		c-0.3,0.5-0.8,0.9-1.5,1.2c0.8,0.2,1.5,0.6,2,1.2c0.5,0.6,0.7,1.4,0.7,2.3c0,1.2-0.5,2.3-1.4,3.2c-0.9,0.9-2.1,1.3-3.5,1.3
		c-1.3,0-2.3-0.4-3.1-1.1C-10.4,19.4-10.9,18.4-11,17.2z"/>
</g>
<g transform="translate(325.6083,437.8833) rotate(-45)">
	<path d="M-19.5,13.2c-0.7-0.3-1.3-0.7-1.6-1.1c-0.3-0.5-0.5-1.1-0.5-1.8c0-1,0.4-1.9,1.1-2.6s1.7-1.1,3-1.1c1.3,0,2.3,0.4,3,1.1
		c0.8,0.7,1.1,1.6,1.1,2.6c0,0.7-0.2,1.2-0.5,1.7c-0.3,0.5-0.9,0.9-1.6,1.1c0.9,0.3,1.6,0.8,2,1.4c0.5,0.6,0.7,1.4,0.7,2.3
		c0,1.2-0.4,2.3-1.3,3.1c-0.9,0.8-2,1.3-3.4,1.3c-1.4,0-2.6-0.4-3.4-1.3c-0.9-0.8-1.3-1.9-1.3-3.1c0-0.9,0.2-1.7,0.7-2.3
		C-21,13.9-20.3,13.5-19.5,13.2z M-19.8,10.2c0,0.7,0.2,1.2,0.7,1.7c0.4,0.4,1,0.6,1.7,0.6c0.7,0,1.2-0.2,1.7-0.6
		c0.4-0.4,0.7-0.9,0.7-1.6c0-0.6-0.2-1.2-0.7-1.6c-0.4-0.4-1-0.7-1.7-0.7c-0.7,0-1.2,0.2-1.7,0.6C-19.6,9.1-19.8,9.7-19.8,10.2z
		 M-20.4,16.9c0,0.5,0.1,1,0.4,1.5c0.2,0.5,0.6,0.8,1.1,1.1c0.5,0.3,1,0.4,1.5,0.4c0.8,0,1.5-0.3,2.1-0.8c0.5-0.5,0.8-1.2,0.8-2.1
		c0-0.8-0.3-1.5-0.8-2.1c-0.6-0.6-1.3-0.8-2.1-0.8c-0.8,0-1.5,0.3-2,0.8C-20.1,15.4-20.4,16.1-20.4,16.9z M-11,13.9
		c0-1.7,0.2-3,0.5-4.1c0.3-1,0.9-1.8,1.6-2.4c0.7-0.6,1.6-0.8,2.6-0.8c0.8,0,1.4,0.2,2,0.5c0.6,0.3,1.1,0.8,1.4,1.3
		C-2.5,9-2.3,9.7-2,10.6c0.2,0.8,0.3,2,0.3,3.4c0,1.7-0.2,3-0.5,4.1c-0.3,1-0.9,1.8-1.5,2.4c-0.7,0.6-1.5,0.9-2.6,0.9
		c-1.4,0-2.5-0.5-3.2-1.5C-10.6,18.6-11,16.6-11,13.9z M-9.2,13.9c0,2.4,0.3,3.9,0.8,4.7c0.5,0.8,1.2,1.2,2,1.2c0.8,0,1.5-0.4,2-1.2
		c0.6-0.8,0.8-2.3,0.8-4.7c0-2.4-0.3-3.9-0.8-4.7c-0.6-0.8-1.2-1.2-2-1.2c-0.8,0-1.5,0.3-1.9,1C-8.9,10-9.2,11.6-9.2,13.9z"/>
</g>
<g transform="translate(483.1667,437.8833) rotate(-45)">
	<path d="M-26.5,21h-1.8V9.8c-0.4,0.4-1,0.8-1.7,1.2c-0.7,0.4-1.3,0.7-1.9,0.9v-1.7c1-0.5,1.9-1,2.6-1.7c0.7-0.7,1.3-1.3,1.6-1.9
		h1.1V21z M-16.4,21v-3.4h-6.2V16l6.5-9.3h1.4V16h1.9v1.6h-1.9V21H-16.4z M-16.4,16V9.5l-4.5,6.5H-16.4z M-10.8,8.6V6.9h9.3v1.4
		c-0.9,1-1.8,2.3-2.7,3.9c-0.9,1.6-1.6,3.3-2.1,5C-6.7,18.3-6.9,19.6-7,21h-1.8c0-1.1,0.2-2.5,0.7-4.1c0.4-1.6,1-3.1,1.8-4.6
		c0.8-1.5,1.6-2.7,2.5-3.7H-10.8z"/>
</g>
<g transform="translate(269,510)">
	<path d="M2,0v-15.8h2.1V0H2z"/>
</g>
<g transform="translate(276,520)">
	<path d="M6.7,0H5.1v-10.1C4.7-9.7,4.2-9.4,3.6-9C3-8.6,2.5-8.4,2-8.2v-1.5c0.9-0.4,1.7-0.9,2.3-1.5c0.7-0.6,1.1-1.2,1.4-1.7h1V0z"
		/>
</g>
<g transform="translate(286,510)">
	<path d="M11.3,4.6c-1.1-1.3-2-2.9-2.7-4.7C7.8-1.9,7.4-3.8,7.4-5.7c0-1.7,0.3-3.3,0.8-4.9c0.6-1.8,1.6-3.6,3-5.4h1.4
		c-0.9,1.5-1.4,2.6-1.7,3.2c-0.4,1-0.8,2-1,3.1C9.6-8.4,9.4-7,9.4-5.7c0,3.4,1.1,6.9,3.2,10.3H11.3z M14.9,0v-11.4h1.7v1.6
		c0.4-0.6,0.8-1,1.4-1.3c0.6-0.3,1.3-0.5,2-0.5c0.8,0,1.5,0.2,2.1,0.5c0.5,0.4,0.9,0.8,1.1,1.5c0.9-1.3,2.1-2,3.5-2
		c1.1,0,2,0.3,2.6,0.9c0.6,0.6,0.9,1.6,0.9,2.9V0h-1.9v-7.2c0-0.8-0.1-1.3-0.2-1.7s-0.4-0.6-0.7-0.8c-0.3-0.2-0.7-0.3-1.2-0.3
		c-0.8,0-1.5,0.3-2,0.8c-0.5,0.5-0.8,1.4-0.8,2.6V0h-1.9v-7.4c0-0.9-0.2-1.5-0.5-1.9c-0.3-0.4-0.8-0.6-1.6-0.6c-0.5,0-1,0.1-1.5,0.4
		s-0.8,0.7-1,1.3c-0.2,0.5-0.3,1.3-0.3,2.4V0H14.9z M33.2,0v-11.4H35v1.6c0.4-0.6,0.8-1,1.4-1.3c0.6-0.3,1.3-0.5,2-0.5
		c0.8,0,1.5,0.2,2.1,0.5c0.5,0.4,0.9,0.8,1.1,1.5c0.9-1.3,2.1-2,3.5-2c1.1,0,2,0.3,2.6,0.9c0.6,0.6,0.9,1.6,0.9,2.9V0h-1.9v-7.2
		c0-0.8-0.1-1.3-0.2-1.7c-0.1-0.3-0.4-0.6-0.7-0.8c-0.3-0.2-0.7-0.3-1.2-0.3c-0.8,0-1.5,0.3-2,0.8c-0.5,0.5-0.8,1.4-0.8,2.6V0H40
		v-7.4c0-0.9-0.2-1.5-0.5-1.9C39.2-9.8,38.7-10,38-10c-0.5,0-1,0.1-1.5,0.4c-0.5,0.3-0.8,0.7-1,1.3c-0.2,0.5-0.3,1.3-0.3,2.4V0H33.2
		z M52.1,0v-2.2h2.2V0H52.1z M56.9-3.4l1.9-0.3c0.1,0.8,0.4,1.3,0.9,1.8s1.2,0.6,2.1,0.6s1.5-0.2,2-0.5c0.4-0.4,0.6-0.8,0.6-1.3
		c0-0.4-0.2-0.8-0.6-1c-0.3-0.2-0.9-0.4-2-0.7c-1.4-0.4-2.4-0.7-3-0.9c-0.5-0.3-1-0.6-1.2-1.1c-0.3-0.5-0.4-1-0.4-1.5
		c0-0.5,0.1-1,0.4-1.4c0.2-0.4,0.5-0.8,0.9-1.1c0.3-0.2,0.7-0.4,1.2-0.6c0.5-0.2,1.1-0.2,1.7-0.2c0.9,0,1.7,0.1,2.4,0.4
		c0.7,0.3,1.2,0.6,1.5,1c0.3,0.4,0.5,1,0.7,1.8L64-8.2c-0.1-0.6-0.3-1.1-0.7-1.4c-0.4-0.3-1-0.5-1.7-0.5c-0.9,0-1.5,0.1-1.9,0.4
		s-0.6,0.6-0.6,1c0,0.3,0.1,0.5,0.2,0.7c0.2,0.2,0.4,0.4,0.7,0.5c0.2,0.1,0.8,0.2,1.7,0.5c1.4,0.4,2.3,0.7,2.9,0.9
		c0.5,0.2,1,0.6,1.3,1c0.3,0.4,0.5,1,0.5,1.6c0,0.6-0.2,1.3-0.6,1.8c-0.4,0.6-0.9,1-1.6,1.3c-0.7,0.3-1.5,0.5-2.4,0.5
		c-1.5,0-2.6-0.3-3.4-0.9C57.6-1.3,57.1-2.2,56.9-3.4z"/>
</g>
<g transform="translate(354,500)">
	<path d="M0.6-3.9v-1.6h4.9v1.6H0.6z M12.6,0H11v-10.1C10.6-9.7,10.1-9.4,9.5-9C8.9-8.6,8.3-8.4,7.8-8.2v-1.5
		c0.9-0.4,1.7-0.9,2.3-1.5c0.7-0.6,1.1-1.2,1.4-1.7h1V0z"/>
</g>
<g transform="translate(370,510)">
	<path d="M2.7,4.6H1.3C3.5,1.2,4.5-2.2,4.5-5.7c0-1.4-0.2-2.7-0.5-4c-0.2-1.1-0.6-2.1-1-3.1c-0.3-0.6-0.9-1.7-1.7-3.2h1.4
		c1.3,1.8,2.3,3.6,3,5.4C6.3-9,6.5-7.4,6.5-5.7c0,1.9-0.4,3.8-1.1,5.6C4.7,1.7,3.8,3.3,2.7,4.6z"/>
</g>
<g>
	<line class="st7" x1="133" y1="421" x2="133" y2="39"/>
	<line class="st7" x1="133" y1="389.2" x2="123.4" y2="389.2"/>
	<line class="st7" x1="133" y1="228.4" x2="123.4" y2="228.4"/>
	<line class="st7" x1="133" y1="70.8" x2="123.4" y2="70.8"/>
</g>
<g transform="translate(116.1167,389.1667) rotate(-45)">
	<path d="M-16.5,8V4.6h-6.2V3l6.5-9.3h1.4V3h1.9v1.6h-1.9V8H-16.5z M-16.5,3v-6.5L-21,3H-16.5z M-11,4.2L-9.3,4c0.2,1,0.6,1.7,1,2.2
		c0.5,0.4,1.1,0.7,1.8,0.7c0.8,0,1.5-0.3,2.1-0.9c0.6-0.6,0.9-1.3,0.9-2.1c0-0.8-0.3-1.5-0.8-2C-4.8,1.3-5.5,1-6.3,1
		c-0.3,0-0.7,0.1-1.2,0.2l0.2-1.5c0.1,0,0.2,0,0.3,0c0.7,0,1.4-0.2,2-0.6c0.6-0.4,0.9-1,0.9-1.8c0-0.6-0.2-1.2-0.7-1.6
		c-0.4-0.4-1-0.6-1.7-0.6c-0.7,0-1.2,0.2-1.7,0.6C-8.7-3.9-9-3.2-9.1-2.4l-1.8-0.3c0.2-1.2,0.7-2.1,1.5-2.7c0.8-0.6,1.7-1,2.8-1
		c0.8,0,1.5,0.2,2.2,0.5c0.7,0.3,1.2,0.8,1.5,1.4c0.3,0.6,0.5,1.2,0.5,1.8C-2.4-2-2.5-1.5-2.9-1c-0.3,0.5-0.8,0.9-1.5,1.2
		c0.8,0.2,1.5,0.6,2,1.2c0.5,0.6,0.7,1.4,0.7,2.3C-1.7,5-2.1,6.1-3,6.9s-2.1,1.3-3.5,1.3c-1.3,0-2.3-0.4-3.1-1.1
		C-10.4,6.4-10.9,5.4-11,4.2z"/>
</g>
<g transform="translate(116.1167,228.3917) rotate(-45)">
	<path d="M-19.5,0.2c-0.7-0.3-1.3-0.7-1.6-1.1c-0.3-0.5-0.5-1.1-0.5-1.8c0-1,0.4-1.9,1.1-2.6s1.7-1.1,3-1.1c1.3,0,2.3,0.4,3,1.1
		c0.8,0.7,1.1,1.6,1.1,2.6c0,0.7-0.2,1.2-0.5,1.7c-0.3,0.5-0.9,0.9-1.6,1.1c0.9,0.3,1.6,0.8,2,1.4s0.7,1.4,0.7,2.3
		c0,1.2-0.4,2.3-1.3,3.1c-0.9,0.8-2,1.2-3.4,1.2c-1.4,0-2.6-0.4-3.4-1.3c-0.9-0.8-1.3-1.9-1.3-3.1c0-0.9,0.2-1.7,0.7-2.3
		C-21,0.9-20.3,0.5-19.5,0.2z M-19.8-2.8c0,0.7,0.2,1.2,0.7,1.7c0.4,0.4,1,0.6,1.7,0.6c0.7,0,1.2-0.2,1.7-0.6
		c0.4-0.4,0.7-0.9,0.7-1.6c0-0.6-0.2-1.2-0.7-1.6c-0.4-0.4-1-0.7-1.7-0.7c-0.7,0-1.2,0.2-1.7,0.6C-19.6-3.9-19.8-3.3-19.8-2.8z
		 M-20.4,3.9c0,0.5,0.1,1,0.4,1.5c0.2,0.5,0.6,0.8,1.1,1.1c0.5,0.3,1,0.4,1.5,0.4c0.8,0,1.5-0.3,2.1-0.8c0.5-0.5,0.8-1.2,0.8-2.1
		c0-0.8-0.3-1.5-0.8-2.1C-16,1.3-16.7,1-17.5,1c-0.8,0-1.5,0.3-2,0.8S-20.4,3.1-20.4,3.9z M-11,0.9c0-1.7,0.2-3,0.5-4.1
		c0.3-1,0.9-1.8,1.6-2.4c0.7-0.6,1.6-0.8,2.6-0.8c0.8,0,1.4,0.2,2,0.5c0.6,0.3,1.1,0.8,1.4,1.3C-2.5-4-2.3-3.3-2-2.4
		c0.2,0.8,0.3,2,0.3,3.4c0,1.7-0.2,3-0.5,4.1c-0.3,1-0.9,1.8-1.5,2.4C-4.5,8-5.3,8.2-6.4,8.2c-1.4,0-2.5-0.5-3.2-1.5
		C-10.6,5.6-11,3.6-11,0.9z M-9.2,0.9c0,2.4,0.3,3.9,0.8,4.7c0.5,0.8,1.2,1.2,2,1.2c0.8,0,1.5-0.4,2-1.2s0.8-2.3,0.8-4.7
		c0-2.4-0.3-3.9-0.8-4.7c-0.6-0.8-1.2-1.2-2-1.2c-0.8,0-1.5,0.3-1.9,1C-8.9-3-9.2-1.4-9.2,0.9z"/>
</g>
<g transform="translate(116.1167,70.8333) rotate(-45)">
	<path d="M-26.5,8h-1.8V-3.2c-0.4,0.4-1,0.8-1.7,1.2c-0.7,0.4-1.3,0.7-1.9,0.9v-1.7c1-0.5,1.9-1,2.6-1.7c0.7-0.7,1.3-1.3,1.6-1.9
		h1.1V8z M-16.4,8V4.6h-6.2V3l6.5-9.3h1.4V3h1.9v1.6h-1.9V8H-16.4z M-16.4,3v-6.5L-20.9,3H-16.4z M-10.8-4.4v-1.7h9.3v1.4
		c-0.9,1-1.8,2.3-2.7,3.9c-0.9,1.6-1.6,3.3-2.1,5C-6.7,5.3-6.9,6.6-7,8h-1.8c0-1.1,0.2-2.5,0.7-4.1c0.4-1.6,1-3.1,1.8-4.6
		c0.8-1.5,1.6-2.7,2.5-3.7H-10.8z"/>
</g>
<g transform="translate(55,285) rotate(-90)">
	<path d="M2,0v-15.8h2.1V0H2z"/>
</g>
<g transform="translate(65,278) rotate(-90)">
	<path d="M9.1-1.5V0H0.5c0-0.4,0.1-0.8,0.2-1.1c0.2-0.6,0.6-1.2,1-1.7c0.5-0.6,1.2-1.2,2.1-2c1.4-1.1,2.3-2.1,2.8-2.7
		s0.7-1.3,0.7-1.9c0-0.6-0.2-1.2-0.7-1.6c-0.4-0.4-1-0.6-1.8-0.6c-0.8,0-1.4,0.2-1.8,0.7S2.5-9.8,2.5-9L0.8-9.2
		C1-10.4,1.4-11.3,2.1-12c0.7-0.6,1.7-1,2.9-1c1.2,0,2.2,0.3,2.9,1C8.7-11.2,9-10.4,9-9.4c0,0.5-0.1,1-0.3,1.5
		c-0.2,0.5-0.6,1-1.1,1.6C7.2-5.7,6.4-5,5.2-4C4.3-3.2,3.7-2.7,3.4-2.4C3.1-2.1,2.9-1.8,2.8-1.5H9.1z"/>
</g>
<g transform="translate(55,268) rotate(-90)">
	<path d="M11.3,4.6c-1.1-1.3-2-2.9-2.7-4.7C7.8-1.9,7.4-3.8,7.4-5.7c0-1.7,0.3-3.3,0.8-4.9c0.6-1.8,1.6-3.6,3-5.4h1.4
		c-0.9,1.5-1.4,2.6-1.7,3.2c-0.4,1-0.8,2-1,3.1C9.6-8.4,9.4-7,9.4-5.7c0,3.4,1.1,6.9,3.2,10.3H11.3z M14.9,0v-11.4h1.7v1.6
		c0.4-0.6,0.8-1,1.4-1.3c0.6-0.3,1.3-0.5,2-0.5c0.8,0,1.5,0.2,2.1,0.5c0.5,0.4,0.9,0.8,1.1,1.5c0.9-1.3,2.1-2,3.5-2
		c1.1,0,2,0.3,2.6,0.9c0.6,0.6,0.9,1.6,0.9,2.9V0h-1.9v-7.2c0-0.8-0.1-1.3-0.2-1.7s-0.4-0.6-0.7-0.8c-0.3-0.2-0.7-0.3-1.2-0.3
		c-0.8,0-1.5,0.3-2,0.8c-0.5,0.5-0.8,1.4-0.8,2.6V0h-1.9v-7.4c0-0.9-0.2-1.5-0.5-1.9c-0.3-0.4-0.8-0.6-1.6-0.6c-0.5,0-1,0.1-1.5,0.4
		s-0.8,0.7-1,1.3c-0.2,0.5-0.3,1.3-0.3,2.4V0H14.9z M33.2,0v-11.4H35v1.6c0.4-0.6,0.8-1,1.4-1.3c0.6-0.3,1.3-0.5,2-0.5
		c0.8,0,1.5,0.2,2.1,0.5c0.5,0.4,0.9,0.8,1.1,1.5c0.9-1.3,2.1-2,3.5-2c1.1,0,2,0.3,2.6,0.9c0.6,0.6,0.9,1.6,0.9,2.9V0h-1.9v-7.2
		c0-0.8-0.1-1.3-0.2-1.7c-0.1-0.3-0.4-0.6-0.7-0.8c-0.3-0.2-0.7-0.3-1.2-0.3c-0.8,0-1.5,0.3-2,0.8c-0.5,0.5-0.8,1.4-0.8,2.6V0H40
		v-7.4c0-0.9-0.2-1.5-0.5-1.9C39.2-9.8,38.7-10,38-10c-0.5,0-1,0.1-1.5,0.4c-0.5,0.3-0.8,0.7-1,1.3c-0.2,0.5-0.3,1.3-0.3,2.4V0H33.2
		z M52.1,0v-2.2h2.2V0H52.1z M56.9-3.4l1.9-0.3c0.1,0.8,0.4,1.3,0.9,1.8s1.2,0.6,2.1,0.6s1.5-0.2,2-0.5c0.4-0.4,0.6-0.8,0.6-1.3
		c0-0.4-0.2-0.8-0.6-1c-0.3-0.2-0.9-0.4-2-0.7c-1.4-0.4-2.4-0.7-3-0.9c-0.5-0.3-1-0.6-1.2-1.1c-0.3-0.5-0.4-1-0.4-1.5
		c0-0.5,0.1-1,0.4-1.4c0.2-0.4,0.5-0.8,0.9-1.1c0.3-0.2,0.7-0.4,1.2-0.6c0.5-0.2,1.1-0.2,1.7-0.2c0.9,0,1.7,0.1,2.4,0.4
		c0.7,0.3,1.2,0.6,1.5,1c0.3,0.4,0.5,1,0.7,1.8L64-8.2c-0.1-0.6-0.3-1.1-0.7-1.4c-0.4-0.3-1-0.5-1.7-0.5c-0.9,0-1.5,0.1-1.9,0.4
		s-0.6,0.6-0.6,1c0,0.3,0.1,0.5,0.2,0.7c0.2,0.2,0.4,0.4,0.7,0.5c0.2,0.1,0.8,0.2,1.7,0.5c1.4,0.4,2.3,0.7,2.9,0.9
		c0.5,0.2,1,0.6,1.3,1c0.3,0.4,0.5,1,0.5,1.6c0,0.6-0.2,1.3-0.6,1.8c-0.4,0.6-0.9,1-1.6,1.3c-0.7,0.3-1.5,0.5-2.4,0.5
		c-1.5,0-2.6-0.3-3.4-0.9C57.6-1.3,57.1-2.2,56.9-3.4z"/>
</g>
<g transform="translate(45,200) rotate(-90)">
	<path d="M0.6-3.9v-1.6h4.9v1.6H0.6z M12.6,0H11v-10.1C10.6-9.7,10.1-9.4,9.5-9C8.9-8.6,8.3-8.4,7.8-8.2v-1.5
		c0.9-0.4,1.7-0.9,2.3-1.5c0.7-0.6,1.1-1.2,1.4-1.7h1V0z"/>
</g>
<g transform="translate(55,184) rotate(-90)">
	<path d="M2.7,4.6H1.3C3.5,1.2,4.5-2.2,4.5-5.7c0-1.4-0.2-2.7-0.5-4c-0.2-1.1-0.6-2.1-1-3.1c-0.3-0.6-0.9-1.7-1.7-3.2h1.4
		c1.3,1.8,2.3,3.6,3,5.4C6.3-9,6.5-7.4,6.5-5.7c0,1.9-0.4,3.8-1.1,5.6C4.7,1.7,3.8,3.3,2.7,4.6z"/>
</g>
<g transform="translate(495.9,58.1001) rotate(-45)">
	<path d="M-67.5-5v-14.3h1.9L-58-8.1v-11.2h1.8V-5h-1.9l-7.5-11.2V-5H-67.5z M-52.7-5v-14.3h1.9V-5H-52.7z M-47.5-5v-14.3h4.9
		c1.1,0,2,0.1,2.6,0.2c0.8,0.2,1.5,0.5,2.1,1c0.8,0.6,1.3,1.5,1.7,2.5s0.6,2.1,0.6,3.4c0,1.1-0.1,2-0.4,2.9s-0.6,1.5-1,2.1
		c-0.4,0.6-0.8,1-1.3,1.3c-0.5,0.3-1,0.6-1.7,0.7C-40.7-5.1-41.4-5-42.3-5H-47.5z M-45.6-6.7h3.1c0.9,0,1.7-0.1,2.2-0.3
		c0.5-0.2,1-0.4,1.3-0.7c0.4-0.4,0.8-1,1-1.8c0.3-0.8,0.4-1.7,0.4-2.8c0-1.5-0.2-2.7-0.7-3.5c-0.5-0.8-1.1-1.3-1.8-1.6
		c-0.5-0.2-1.3-0.3-2.4-0.3h-3V-6.7z M-18.4-13.4h-9.5v-1.6h9.5V-13.4z M-18.4-9.1h-9.5v-1.6h9.5V-9.1z M-10.9-12.1
		c0-1.7,0.2-3,0.5-4.1c0.3-1,0.9-1.8,1.6-2.4c0.7-0.6,1.6-0.8,2.6-0.8c0.8,0,1.4,0.2,2,0.5c0.6,0.3,1.1,0.8,1.4,1.3
		c0.4,0.6,0.7,1.3,0.9,2.1s0.3,2,0.3,3.4c0,1.7-0.2,3-0.5,4.1C-2.5-7-3-6.2-3.7-5.6C-4.3-5-5.2-4.8-6.3-4.8c-1.4,0-2.5-0.5-3.2-1.5
		C-10.5-7.4-10.9-9.4-10.9-12.1z M-9.1-12.1c0,2.4,0.3,3.9,0.8,4.7c0.5,0.8,1.2,1.2,2,1.2c0.8,0,1.5-0.4,2-1.2s0.8-2.3,0.8-4.7
		c0-2.4-0.3-3.9-0.8-4.7c-0.6-0.8-1.2-1.2-2-1.2c-0.8,0-1.5,0.3-1.9,1C-8.8-16-9.1-14.4-9.1-12.1z"/>
</g>
<g transform="matrix(0.5,0,0,0.5,528,39)">
	<g>
		<defs>
			<rect id="SVGID_1_" x="13.5" y="191" width="27" height="382"/>
		</defs>
		<clipPath id="SVGID_2_">
			<use xlink:href="#SVGID_1_"  style="overflow:visible;"/>
		</clipPath>
		<g style="clip-path:url(#SVGID_2_);enable-background:new    ;">
			
				<image style="overflow:visible;" width="54" height="764" xlink:href="48D2453D.png"  transform="matrix(1 0 0 1 0 -1.730138e-05)">
			</image>
		</g>
	</g>
</g>
<g>
	<line class="st7" x1="555" y1="421" x2="555" y2="39"/>
	<line class="st7" x1="555" y1="421" x2="564.5" y2="421"/>
	<line class="st7" x1="555" y1="230" x2="564.5" y2="230"/>
	<line class="st7" x1="555" y1="39" x2="564.5" y2="39"/>
</g>
<g transform="translate(571.8834,421)">
	<path d="M0.8,0.9c0-1.7,0.2-3,0.5-4.1c0.3-1,0.9-1.8,1.6-2.4c0.7-0.6,1.6-0.8,2.6-0.8c0.8,0,1.4,0.2,2,0.5C8.1-5.6,8.6-5.2,9-4.6
		s0.7,1.3,0.9,2.1c0.2,0.8,0.3,2,0.3,3.4c0,1.7-0.2,3-0.5,4.1C9.3,6,8.8,6.8,8.1,7.4C7.4,8,6.6,8.2,5.5,8.2C4.1,8.2,3,7.8,2.2,6.8
		C1.3,5.6,0.8,3.6,0.8,0.9z M2.6,0.9c0,2.4,0.3,3.9,0.8,4.7c0.5,0.8,1.2,1.2,2,1.2c0.8,0,1.5-0.4,2-1.2c0.6-0.8,0.8-2.3,0.8-4.7
		c0-2.4-0.3-3.9-0.8-4.7C7-4.5,6.3-4.9,5.5-4.9c-0.8,0-1.5,0.3-1.9,1C2.9-3,2.6-1.4,2.6,0.9z M12.9,8V6h2v2H12.9z M17.5,4.2L19.3,4
		c0.2,1,0.6,1.7,1,2.2c0.5,0.4,1.1,0.7,1.8,0.7c0.8,0,1.5-0.3,2.1-0.9C24.7,5.4,25,4.7,25,3.8c0-0.8-0.3-1.5-0.8-2
		C23.7,1.3,23,1,22.2,1c-0.3,0-0.7,0.1-1.2,0.2l0.2-1.5c0.1,0,0.2,0,0.3,0c0.8,0,1.4-0.2,2-0.6c0.6-0.4,0.9-1,0.9-1.8
		c0-0.6-0.2-1.2-0.7-1.6c-0.4-0.4-1-0.6-1.7-0.6c-0.7,0-1.2,0.2-1.7,0.6c-0.5,0.4-0.8,1.1-0.9,1.9l-1.8-0.3c0.2-1.2,0.7-2.1,1.5-2.7
		c0.8-0.6,1.7-1,2.8-1c0.8,0,1.5,0.2,2.2,0.5c0.7,0.3,1.2,0.8,1.5,1.4c0.3,0.6,0.5,1.2,0.5,1.8C26.2-2,26-1.5,25.7-1
		c-0.3,0.5-0.8,0.9-1.5,1.2c0.8,0.2,1.5,0.6,2,1.2c0.5,0.6,0.7,1.4,0.7,2.3c0,1.3-0.5,2.3-1.4,3.2c-0.9,0.9-2.1,1.3-3.5,1.3
		c-1.3,0-2.3-0.4-3.1-1.1S17.6,5.4,17.5,4.2z"/>
</g>
<g transform="translate(571.8834,230)">
	<path d="M0.8,0.9c0-1.7,0.2-3,0.5-4.1c0.3-1,0.9-1.8,1.6-2.4c0.7-0.6,1.6-0.8,2.6-0.8c0.8,0,1.4,0.2,2,0.5C8.1-5.6,8.6-5.2,9-4.6
		s0.7,1.3,0.9,2.1c0.2,0.8,0.3,2,0.3,3.4c0,1.7-0.2,3-0.5,4.1C9.3,6,8.8,6.8,8.1,7.4C7.4,8,6.6,8.2,5.5,8.2C4.1,8.2,3,7.8,2.2,6.8
		C1.3,5.6,0.8,3.6,0.8,0.9z M2.6,0.9c0,2.4,0.3,3.9,0.8,4.7c0.5,0.8,1.2,1.2,2,1.2c0.8,0,1.5-0.4,2-1.2c0.6-0.8,0.8-2.3,0.8-4.7
		c0-2.4-0.3-3.9-0.8-4.7C7-4.5,6.3-4.9,5.5-4.9c-0.8,0-1.5,0.3-1.9,1C2.9-3,2.6-1.4,2.6,0.9z M12.9,8V6h2v2H12.9z M17.5,4.2l1.8-0.2
		c0.1,0.9,0.5,1.6,1,2c0.5,0.5,1.1,0.7,1.8,0.7c0.8,0,1.6-0.3,2.1-1c0.6-0.6,0.9-1.5,0.9-2.5c0-1-0.3-1.8-0.8-2.4
		c-0.6-0.6-1.3-0.9-2.2-0.9c-0.6,0-1.1,0.1-1.5,0.4s-0.8,0.6-1.1,1l-1.7-0.2l1.4-7.4h7.1v1.7h-5.7l-0.8,3.8c0.9-0.6,1.8-0.9,2.7-0.9
		c1.3,0,2.3,0.4,3.2,1.3c0.9,0.9,1.3,2,1.3,3.3c0,1.3-0.4,2.4-1.1,3.4c-0.9,1.2-2.2,1.8-3.8,1.8c-1.3,0-2.4-0.4-3.2-1.1
		C18.1,6.4,17.6,5.5,17.5,4.2z"/>
</g>
<g transform="translate(571.8834,39)">
	<path d="M0.8,0.9c0-1.7,0.2-3,0.5-4.1c0.3-1,0.9-1.8,1.6-2.4c0.7-0.6,1.6-0.8,2.6-0.8c0.8,0,1.4,0.2,2,0.5C8.1-5.6,8.6-5.2,9-4.6
		s0.7,1.3,0.9,2.1c0.2,0.8,0.3,2,0.3,3.4c0,1.7-0.2,3-0.5,4.1C9.3,6,8.8,6.8,8.1,7.4C7.4,8,6.6,8.2,5.5,8.2C4.1,8.2,3,7.8,2.2,6.8
		C1.3,5.6,0.8,3.6,0.8,0.9z M2.6,0.9c0,2.4,0.3,3.9,0.8,4.7c0.5,0.8,1.2,1.2,2,1.2c0.8,0,1.5-0.4,2-1.2c0.6-0.8,0.8-2.3,0.8-4.7
		c0-2.4-0.3-3.9-0.8-4.7C7-4.5,6.3-4.9,5.5-4.9c-0.8,0-1.5,0.3-1.9,1C2.9-3,2.6-1.4,2.6,0.9z M12.9,8V6h2v2H12.9z M17.6-4.4v-1.7
		h9.3v1.4c-0.9,1-1.8,2.3-2.7,3.9c-0.9,1.6-1.6,3.3-2.1,5c-0.4,1.2-0.6,2.5-0.7,3.9h-1.8c0-1.1,0.2-2.5,0.7-4.1
		c0.4-1.6,1-3.1,1.8-4.6c0.8-1.5,1.6-2.7,2.5-3.7H17.6z"/>
</g>
<g transform="translate(618,183) rotate(90)">
	<path d="M1.5,0v-14.3h5.4c1,0,1.7,0,2.2,0.1c0.7,0.1,1.3,0.4,1.8,0.7c0.5,0.3,0.9,0.8,1.1,1.4s0.4,1.2,0.4,2c0,1.2-0.4,2.2-1.2,3.1
		c-0.8,0.8-2.2,1.3-4.2,1.3H3.4V0H1.5z M3.4-7.5h3.7c1.2,0,2.1-0.2,2.6-0.7c0.5-0.5,0.8-1.1,0.8-1.9c0-0.6-0.2-1.1-0.5-1.5
		c-0.3-0.4-0.7-0.7-1.2-0.8c-0.3-0.1-0.9-0.1-1.8-0.1H3.4V-7.5z M18,4.2c-1-1.2-1.8-2.6-2.5-4.3c-0.7-1.6-1-3.3-1-5.1
		c0-1.6,0.3-3,0.8-4.5c0.6-1.6,1.5-3.3,2.7-4.9h1.3c-0.8,1.4-1.3,2.3-1.6,2.9c-0.4,0.9-0.7,1.8-0.9,2.8c-0.3,1.2-0.4,2.4-0.4,3.7
		c0,3.1,1,6.3,2.9,9.4H18z M25.2,0v-12.6h-4.7v-1.7h11.3v1.7h-4.7V0H25.2z"/>
</g>
<g transform="translate(609,216) rotate(90)">
	<path d="M8.1-1.4V0H0.5c0-0.3,0-0.7,0.2-1c0.2-0.5,0.5-1,0.9-1.5C2-3,2.6-3.6,3.4-4.2c1.2-1,2.1-1.8,2.5-2.4
		c0.4-0.6,0.7-1.2,0.7-1.7c0-0.6-0.2-1-0.6-1.4c-0.4-0.4-0.9-0.6-1.6-0.6c-0.7,0-1.2,0.2-1.6,0.6S2.2-8.8,2.2-8L0.7-8.2
		c0.1-1.1,0.5-1.9,1.1-2.5c0.6-0.6,1.5-0.8,2.6-0.8c1.1,0,2,0.3,2.6,0.9C7.7-10,8-9.2,8-8.3C8-7.9,8-7.4,7.8-7
		C7.6-6.5,7.3-6.1,6.8-5.6c-0.4,0.5-1.2,1.2-2.2,2C3.8-2.9,3.3-2.4,3-2.1C2.8-1.9,2.6-1.6,2.4-1.4H8.1z"/>
</g>
<g transform="translate(618,225) rotate(90)">
	<path d="M16.1-6.3L6.7-2.2V-4l7.5-3.1l-7.5-3.1v-1.8l9.5,4V-6.3z M28,0v-12.6h-4.7v-1.7h11.3v1.7h-4.7V0H28z"/>
</g>
<g transform="translate(609,261) rotate(90)">
	<path d="M6,0H4.6v-9C4.2-8.6,3.8-8.3,3.2-8c-0.5,0.3-1,0.6-1.5,0.7v-1.4C2.5-9,3.2-9.5,3.8-10c0.6-0.5,1-1,1.3-1.5H6V0z"/>
</g>
<g transform="translate(618,270) rotate(90)">
	<path d="M2.5,4.2H1.2C3.2,1.1,4.1-2,4.1-5.2c0-1.2-0.1-2.4-0.4-3.6c-0.2-1-0.5-1.9-0.9-2.8c-0.3-0.6-0.8-1.6-1.6-2.9h1.3
		c1.2,1.6,2.1,3.3,2.7,4.9c0.5,1.4,0.8,2.9,0.8,4.5c0,1.8-0.3,3.5-1,5.1C4.3,1.6,3.4,3,2.5,4.2z"/>
</g>
</svg>
