<?xml version="1.0" encoding="utf-8"?>
<!-- Generator: Adobe Illustrator 24.0.1, SVG Export Plug-In . SVG Version: 6.00 Build 0)  -->
<svg version="1.1" id="Layer_1" xmlns="http://www.w3.org/2000/svg" xmlns:xlink="http://www.w3.org/1999/xlink" x="0px" y="0px"
	 viewBox="0 0 537 400" style="enable-background:new 0 0 537 400;" xml:space="preserve">
<style type="text/css">
	.st0{fill:none;stroke:#000000;stroke-width:0.8333;stroke-linejoin:bevel;stroke-miterlimit:1;stroke-dasharray:10,6;}
	.st1{fill:none;stroke:#000000;stroke-width:2.5;stroke-linejoin:round;stroke-miterlimit:10;}
	.st2{fill:none;stroke:#000000;stroke-width:2.5;stroke-miterlimit:10;}
	.st3{fill:#BFBFBF;}
	.st4{fill:none;stroke:#000000;stroke-width:3.3333;stroke-linecap:square;stroke-linejoin:round;stroke-miterlimit:10;}
</style>
<g>
	<line class="st0" x1="221.1" y1="326.2" x2="221.1" y2="54.8"/>
</g>
<g>
	<path class="st1" d="M138.9,206.2l18.1,25.4l26.3,23.8l37.7,9.8l54.4-11.6l78.8-36.3l113.2-46"/>
	<path class="st2" d="M132.9,200.2v12h12v-12H132.9z"/>
	<path class="st2" d="M151.1,225.6v12h12v-12H151.1z"/>
	<path class="st2" d="M177.3,249.4v12h12v-12H177.3z"/>
	<path class="st2" d="M215.1,259.2v12h12v-12H215.1z"/>
	<path class="st2" d="M269.5,247.6v12h12v-12H269.5z"/>
	<path class="st2" d="M348.3,211.3v12h12v-12H348.3z"/>
	<path class="st2" d="M461.5,165.3v12h12v-12H461.5z"/>
	<path class="st1" d="M138.9,210.3l18.1,26l26.3,24.6l37.7,8.9l54.4-13.5l78.8-38l113.2-47"/>
	<path d="M138.9,205.3c2.8,0,5,2.2,5,5l0,0c0,2.8-2.2,5-5,5s-5-2.2-5-5C133.9,207.6,136.2,205.3,138.9,205.3z M138.9,202.8
		c-4.1,0-7.5,3.4-7.5,7.5c0,4.1,3.4,7.5,7.5,7.5s7.5-3.4,7.5-7.5l0,0C146.4,206.2,143.1,202.8,138.9,202.8z"/>
	<path d="M157.1,231.3c2.8,0,5,2.2,5,5l0,0c0,2.8-2.2,5-5,5s-5-2.2-5-5C152.1,233.6,154.3,231.3,157.1,231.3z M157.1,228.8
		c-4.1,0-7.5,3.4-7.5,7.5c0,4.1,3.4,7.5,7.5,7.5s7.5-3.4,7.5-7.5l0,0C164.6,232.2,161.2,228.8,157.1,228.8z"/>
	<path d="M183.3,255.9c2.8,0,5,2.2,5,5l0,0c0,2.8-2.2,5-5,5s-5-2.2-5-5C178.3,258.1,180.6,255.9,183.3,255.9z M183.3,253.4
		c-4.1,0-7.5,3.4-7.5,7.5c0,4.1,3.4,7.5,7.5,7.5s7.5-3.4,7.5-7.5l0,0C190.8,256.8,187.5,253.4,183.3,253.4z"/>
	<path d="M221.1,264.8c2.8,0,5,2.2,5,5l0,0c0,2.8-2.2,5-5,5s-5-2.2-5-5C216.1,267.1,218.3,264.8,221.1,264.8z M221.1,262.3
		c-4.1,0-7.5,3.4-7.5,7.5c0,4.1,3.4,7.5,7.5,7.5s7.5-3.4,7.5-7.5l0,0C228.6,265.7,225.2,262.3,221.1,262.3z"/>
	<path d="M275.5,251.4c2.8,0,5,2.2,5,5l0,0c0,2.8-2.2,5-5,5s-5-2.2-5-5C270.5,253.6,272.7,251.4,275.5,251.4z M275.5,248.9
		c-4.1,0-7.5,3.4-7.5,7.5c0,4.1,3.4,7.5,7.5,7.5s7.5-3.4,7.5-7.5l0,0C283,252.2,279.6,248.9,275.5,248.9z"/>
	<path d="M354.3,213.4c2.8,0,5,2.2,5,5l0,0c0,2.8-2.2,5-5,5s-5-2.2-5-5C349.3,215.6,351.5,213.4,354.3,213.4z M354.3,210.9
		c-4.1,0-7.5,3.4-7.5,7.5c0,4.1,3.4,7.5,7.5,7.5s7.5-3.4,7.5-7.5l0,0C361.8,214.2,358.4,210.9,354.3,210.9z"/>
	<path d="M467.5,166.3c2.8,0,5,2.2,5,5l0,0c0,2.8-2.2,5-5,5s-5-2.2-5-5C462.5,168.6,464.7,166.3,467.5,166.3z M467.5,163.8
		c-4.1,0-7.5,3.4-7.5,7.5c0,4.1,3.4,7.5,7.5,7.5s7.5-3.4,7.5-7.5l0,0C475,167.2,471.6,163.8,467.5,163.8z"/>
	<path class="st1" d="M138.9,142.4l18.1,22.1l26.3,17.7l37.7,6.5l54.4-10.2l78.8-28.2l113.2-35.2"/>
	<path class="st2" d="M132.9,136.4v12h12v-12H132.9z"/>
	<path class="st2" d="M151.1,158.5v12h12v-12H151.1z"/>
	<path class="st2" d="M177.3,176.2v12h12v-12H177.3z"/>
	<path class="st2" d="M215.1,182.7v12h12v-12H215.1z"/>
	<path class="st2" d="M269.5,172.6v12h12v-12H269.5z"/>
	<path class="st2" d="M348.3,144.3v12h12v-12H348.3z"/>
	<path class="st2" d="M461.5,109.1v12h12v-12H461.5z"/>
	<path class="st1" d="M138.9,145.2l18.1,19.4l26.3,21.7l37.7,6.6l54.4-13.9l78.8-31.2l113.2-32.8"/>
	<path d="M138.9,140.2c2.8,0,5,2.2,5,5l0,0c0,2.8-2.2,5-5,5s-5-2.2-5-5C133.9,142.4,136.2,140.2,138.9,140.2z M138.9,137.7
		c-4.1,0-7.5,3.4-7.5,7.5c0,4.1,3.4,7.5,7.5,7.5s7.5-3.4,7.5-7.5l0,0C146.4,141.1,143.1,137.7,138.9,137.7z"/>
	<path d="M157.1,159.6c2.8,0,5,2.2,5,5l0,0c0,2.8-2.2,5-5,5s-5-2.2-5-5C152.1,161.9,154.3,159.6,157.1,159.6z M157.1,157.1
		c-4.1,0-7.5,3.4-7.5,7.5c0,4.1,3.4,7.5,7.5,7.5s7.5-3.4,7.5-7.5l0,0C164.6,160.5,161.2,157.1,157.1,157.1z"/>
	<path d="M183.3,181.4c2.8,0,5,2.2,5,5l0,0c0,2.8-2.2,5-5,5s-5-2.2-5-5C178.3,183.6,180.6,181.4,183.3,181.4z M183.3,178.9
		c-4.1,0-7.5,3.4-7.5,7.5c0,4.1,3.4,7.5,7.5,7.5s7.5-3.4,7.5-7.5l0,0C190.8,182.2,187.5,178.9,183.3,178.9z"/>
	<path d="M221.1,188c2.8,0,5,2.2,5,5l0,0c0,2.8-2.2,5-5,5s-5-2.2-5-5C216.1,190.2,218.3,188,221.1,188z M221.1,185.5
		c-4.1,0-7.5,3.4-7.5,7.5c0,4.1,3.4,7.5,7.5,7.5s7.5-3.4,7.5-7.5l0,0C228.6,188.9,225.2,185.5,221.1,185.5z"/>
	<path d="M275.5,174.1c2.8,0,5,2.2,5,5l0,0c0,2.8-2.2,5-5,5s-5-2.2-5-5C270.5,176.3,272.7,174.1,275.5,174.1z M275.5,171.6
		c-4.1,0-7.5,3.4-7.5,7.5c0,4.1,3.4,7.5,7.5,7.5s7.5-3.4,7.5-7.5l0,0C283,175,279.6,171.6,275.5,171.6z"/>
	<path d="M354.3,142.9c2.8,0,5,2.2,5,5l0,0c0,2.8-2.2,5-5,5s-5-2.2-5-5C349.3,145.2,351.5,142.9,354.3,142.9z M354.3,140.4
		c-4.1,0-7.5,3.4-7.5,7.5c0,4.1,3.4,7.5,7.5,7.5s7.5-3.4,7.5-7.5l0,0C361.8,143.8,358.4,140.4,354.3,140.4z"/>
	<path d="M467.5,110.1c2.8,0,5,2.2,5,5l0,0c0,2.8-2.2,5-5,5s-5-2.2-5-5S464.7,110.1,467.5,110.1z M467.5,107.6
		c-4.1,0-7.5,3.4-7.5,7.5s3.4,7.5,7.5,7.5s7.5-3.4,7.5-7.5l0,0C475,111,471.6,107.6,467.5,107.6z"/>
</g>
<g transform="translate(138.94,206.2091)">
	<path class="st3" d="M-5-5V5H5V-5H-5z"/>
	<path class="st3" d="M13.1,20.4v10h10v-10H13.1z"/>
	<path class="st3" d="M39.4,44.2v10h10v-10H39.4z"/>
	<path class="st3" d="M77.1,54v10h10V54H77.1z"/>
	<path class="st3" d="M131.5,42.4v10h10v-10H131.5z"/>
	<path class="st3" d="M210.3,6.1v10h10v-10H210.3z"/>
	<path class="st3" d="M323.6-39.9v10h10v-10H323.6z"/>
	<circle class="st3" cx="0" cy="4.1" r="5"/>
	<circle class="st3" cx="18.1" cy="30.1" r="5"/>
	<circle class="st3" cx="44.4" cy="54.7" r="5"/>
	<circle class="st3" cx="82.1" cy="63.6" r="5"/>
	<circle class="st3" cx="136.5" cy="50.2" r="5"/>
	<circle class="st3" cx="215.3" cy="12.2" r="5"/>
	<circle class="st3" cx="328.6" cy="-34.9" r="5"/>
	<path d="M-5-68.8v10H5v-10H-5z"/>
	<path d="M13.1-46.7v10h10v-10H13.1z"/>
	<path d="M39.4-29v10h10v-10H39.4z"/>
	<path d="M77.1-22.5v10h10v-10H77.1z"/>
	<path d="M131.5-32.7v10h10v-10H131.5z"/>
	<path d="M210.3-60.9v10h10v-10H210.3z"/>
	<path d="M323.6-96.1v10h10v-10H323.6z"/>
	<circle cx="0" cy="-61" r="5"/>
	<circle cx="18.1" cy="-41.6" r="5"/>
	<circle cx="44.4" cy="-19.8" r="5"/>
	<circle cx="82.1" cy="-13.2" r="5"/>
	<circle cx="136.5" cy="-27.1" r="5"/>
	<circle cx="215.3" cy="-58.3" r="5"/>
	<circle cx="328.6" cy="-91.1" r="5"/>
</g>
<g>
	<line class="st4" x1="79" y1="326.2" x2="486" y2="326.2"/>
	<line class="st4" x1="97.5" y1="326.2" x2="97.5" y2="336.3"/>
	<line class="st4" x1="138.9" y1="326.2" x2="138.9" y2="336.3"/>
	<line class="st4" x1="157.1" y1="326.2" x2="157.1" y2="336.3"/>
	<line class="st4" x1="183.3" y1="326.2" x2="183.3" y2="336.3"/>
	<line class="st4" x1="221.1" y1="326.2" x2="221.1" y2="336.3"/>
	<line class="st4" x1="275.5" y1="326.2" x2="275.5" y2="336.3"/>
	<line class="st4" x1="354.3" y1="326.2" x2="354.3" y2="336.3"/>
	<line class="st4" x1="467.5" y1="326.2" x2="467.5" y2="336.3"/>
</g>
<g transform="translate(97.5,343.675)">
	<path d="M-5.2,13.9c0-1.7,0.2-3,0.5-4.1c0.3-1,0.9-1.8,1.6-2.4c0.7-0.6,1.6-0.8,2.6-0.8c0.8,0,1.4,0.2,2,0.5C2.1,7.4,2.6,7.8,3,8.4
		C3.3,9,3.6,9.7,3.8,10.6c0.2,0.8,0.3,2,0.3,3.4c0,1.7-0.2,3-0.5,4.1c-0.3,1-0.9,1.8-1.5,2.4c-0.7,0.6-1.5,0.9-2.6,0.9
		c-1.4,0-2.5-0.5-3.3-1.5C-4.7,18.6-5.2,16.6-5.2,13.9z M-3.4,13.9c0,2.4,0.3,3.9,0.8,4.7c0.5,0.8,1.2,1.2,2,1.2
		c0.8,0,1.5-0.4,2-1.2c0.6-0.8,0.8-2.3,0.8-4.7c0-2.4-0.3-3.9-0.8-4.7C1,8.5,0.3,8.1-0.5,8.1c-0.8,0-1.5,0.3-1.9,1
		C-3.1,10-3.4,11.6-3.4,13.9z"/>
</g>
<g transform="translate(221.08,343.675)">
	<path d="M-16.2,17.2l1.8-0.2c0.2,1,0.6,1.7,1,2.2c0.5,0.4,1.1,0.7,1.8,0.7c0.8,0,1.5-0.3,2.1-0.9c0.6-0.6,0.9-1.3,0.9-2.1
		c0-0.8-0.3-1.5-0.8-2c-0.5-0.5-1.2-0.8-2-0.8c-0.3,0-0.7,0.1-1.2,0.2l0.2-1.5c0.1,0,0.2,0,0.3,0c0.8,0,1.4-0.2,2-0.6
		c0.6-0.4,0.9-1,0.9-1.8c0-0.6-0.2-1.2-0.7-1.6c-0.4-0.4-1-0.6-1.7-0.6c-0.7,0-1.2,0.2-1.7,0.6c-0.5,0.4-0.7,1.1-0.9,1.9l-1.8-0.3
		c0.2-1.2,0.7-2.1,1.5-2.7c0.8-0.6,1.7-1,2.8-1c0.8,0,1.5,0.2,2.2,0.5S-8.4,7.9-8,8.5c0.3,0.6,0.5,1.2,0.5,1.8
		c0,0.6-0.2,1.2-0.5,1.7c-0.3,0.5-0.8,0.9-1.5,1.2c0.8,0.2,1.5,0.6,2,1.2c0.5,0.6,0.7,1.4,0.7,2.3c0,1.3-0.5,2.3-1.4,3.2
		c-0.9,0.9-2.1,1.3-3.5,1.3c-1.3,0-2.3-0.4-3.1-1.1C-15.6,19.4-16,18.4-16.2,17.2z M-5,17.2l1.7-0.2c0.2,1,0.6,1.7,1,2.2
		c0.5,0.4,1.1,0.7,1.8,0.7c0.8,0,1.5-0.3,2.1-0.9c0.6-0.6,0.9-1.3,0.9-2.1c0-0.8-0.3-1.5-0.8-2c-0.5-0.5-1.2-0.8-2-0.8
		c-0.3,0-0.7,0.1-1.2,0.2l0.2-1.5c0.1,0,0.2,0,0.3,0c0.7,0,1.4-0.2,2-0.6c0.6-0.4,0.9-1,0.9-1.8c0-0.6-0.2-1.2-0.7-1.6
		c-0.4-0.4-1-0.6-1.7-0.6c-0.7,0-1.2,0.2-1.7,0.6C-2.7,9.1-3,9.8-3.1,10.6l-1.8-0.3c0.2-1.2,0.7-2.1,1.5-2.7c0.8-0.6,1.7-1,2.8-1
		c0.8,0,1.5,0.2,2.2,0.5s1.2,0.8,1.5,1.4c0.3,0.6,0.5,1.2,0.5,1.8c0,0.6-0.2,1.2-0.5,1.7c-0.3,0.5-0.8,0.9-1.5,1.2
		c0.8,0.2,1.5,0.6,2,1.2c0.5,0.6,0.7,1.4,0.7,2.3c0,1.3-0.5,2.3-1.4,3.2c-0.9,0.9-2.1,1.3-3.5,1.3c-1.3,0-2.3-0.4-3.1-1.1
		C-4.4,19.4-4.9,18.4-5,17.2z M11.7,21v-3.4H5.5V16L12,6.7h1.4V16h1.9v1.6h-1.9V21H11.7z M11.7,16V9.5L7.2,16H11.7z"/>
</g>
<g transform="translate(467.5,343.675)">
	<path d="M-15,21h-1.8V9.8c-0.4,0.4-1,0.8-1.7,1.2c-0.7,0.4-1.3,0.7-1.9,0.9v-1.7c1-0.5,1.9-1,2.6-1.7c0.7-0.7,1.3-1.3,1.6-1.9h1.1
		V21z M-10.5,13.9c0-1.7,0.2-3,0.5-4.1c0.3-1,0.9-1.8,1.6-2.4c0.7-0.6,1.6-0.8,2.6-0.8c0.8,0,1.4,0.2,2,0.5c0.6,0.3,1.1,0.8,1.4,1.3
		C-2,9-1.8,9.7-1.5,10.6s0.3,2,0.3,3.4c0,1.7-0.2,3-0.5,4.1c-0.3,1-0.9,1.8-1.5,2.4C-4,21-4.8,21.2-5.9,21.2c-1.4,0-2.5-0.5-3.3-1.5
		C-10.1,18.6-10.5,16.6-10.5,13.9z M-8.7,13.9c0,2.4,0.3,3.9,0.8,4.7c0.5,0.8,1.2,1.2,2,1.2c0.8,0,1.5-0.4,2-1.2S-3,16.3-3,13.9
		c0-2.4-0.3-3.9-0.8-4.7c-0.6-0.8-1.2-1.2-2-1.2c-0.8,0-1.5,0.3-1.9,1C-8.4,10-8.7,11.6-8.7,13.9z M0.6,13.9c0-1.7,0.2-3,0.5-4.1
		C1.4,8.8,2,8,2.7,7.5c0.7-0.6,1.6-0.8,2.6-0.8c0.8,0,1.4,0.2,2,0.5c0.6,0.3,1.1,0.8,1.4,1.3C9.1,9,9.4,9.7,9.6,10.6
		c0.2,0.8,0.3,2,0.3,3.4c0,1.7-0.2,3-0.5,4.1c-0.3,1-0.9,1.8-1.5,2.4c-0.7,0.6-1.5,0.9-2.6,0.9c-1.4,0-2.5-0.5-3.3-1.5
		C1,18.6,0.6,16.6,0.6,13.9z M2.4,13.9c0,2.4,0.3,3.9,0.8,4.7c0.5,0.8,1.2,1.2,2,1.2c0.8,0,1.5-0.4,2-1.2c0.6-0.8,0.8-2.3,0.8-4.7
		c0-2.4-0.3-3.9-0.8-4.7C6.7,8.5,6,8.1,5.2,8.1c-0.8,0-1.5,0.3-1.9,1C2.7,10,2.4,11.6,2.4,13.9z M11.7,13.9c0-1.7,0.2-3,0.5-4.1
		c0.3-1,0.9-1.8,1.6-2.4c0.7-0.6,1.6-0.8,2.6-0.8c0.8,0,1.4,0.2,2,0.5c0.6,0.3,1.1,0.8,1.4,1.3c0.4,0.6,0.7,1.3,0.9,2.1
		c0.2,0.8,0.3,2,0.3,3.4c0,1.7-0.2,3-0.5,4.1c-0.3,1-0.9,1.8-1.5,2.4c-0.7,0.6-1.5,0.9-2.6,0.9c-1.4,0-2.5-0.5-3.3-1.5
		C12.2,18.6,11.7,16.6,11.7,13.9z M13.5,13.9c0,2.4,0.3,3.9,0.8,4.7c0.5,0.8,1.2,1.2,2,1.2c0.8,0,1.5-0.4,2-1.2s0.8-2.3,0.8-4.7
		c0-2.4-0.3-3.9-0.8-4.7c-0.6-0.8-1.2-1.2-2-1.2c-0.8,0-1.5,0.3-1.9,1C13.8,10,13.5,11.6,13.5,13.9z"/>
</g>
<g transform="translate(282.5002,371.3417)">
	<path d="M-146,17.9l2-0.2c0.1,0.8,0.3,1.4,0.6,1.9c0.3,0.5,0.9,0.9,1.6,1.2s1.5,0.5,2.4,0.5c0.8,0,1.5-0.1,2.1-0.4
		c0.6-0.2,1.1-0.6,1.4-1c0.3-0.4,0.4-0.9,0.4-1.4c0-0.5-0.1-0.9-0.4-1.3c-0.3-0.4-0.8-0.7-1.4-0.9c-0.4-0.2-1.4-0.4-2.8-0.8
		c-1.4-0.3-2.5-0.7-3-1c-0.8-0.4-1.3-0.9-1.7-1.5c-0.4-0.6-0.6-1.2-0.6-2c0-0.8,0.2-1.5,0.7-2.2c0.4-0.7,1.1-1.2,2-1.6
		c0.9-0.4,1.8-0.5,2.9-0.5c1.2,0,2.2,0.2,3.1,0.6c0.9,0.4,1.6,0.9,2.1,1.7c0.5,0.7,0.7,1.6,0.8,2.5l-2,0.2c-0.1-1-0.5-1.8-1.1-2.3
		c-0.6-0.5-1.5-0.8-2.7-0.8c-1.3,0-2.2,0.2-2.8,0.7c-0.6,0.5-0.9,1-0.9,1.7c0,0.6,0.2,1,0.6,1.4c0.4,0.4,1.4,0.7,3.1,1.1
		c1.7,0.4,2.9,0.7,3.5,1c0.9,0.4,1.6,1,2,1.6c0.4,0.6,0.7,1.4,0.7,2.2c0,0.8-0.2,1.6-0.7,2.4c-0.5,0.7-1.2,1.3-2.1,1.7
		c-0.9,0.4-1.9,0.6-3,0.6c-1.4,0-2.6-0.2-3.6-0.6c-1-0.4-1.7-1-2.3-1.9C-145.7,19.9-146,19-146,17.9z M-130.9,27.4V11.6h1.8v1.5
		c0.4-0.6,0.9-1,1.4-1.3c0.5-0.3,1.2-0.4,1.9-0.4c1,0,1.8,0.3,2.6,0.8c0.7,0.5,1.3,1.2,1.7,2.1c0.4,0.9,0.6,1.9,0.6,3
		c0,1.2-0.2,2.2-0.6,3.2c-0.4,0.9-1,1.7-1.8,2.2c-0.8,0.5-1.6,0.8-2.5,0.8c-0.6,0-1.2-0.1-1.7-0.4c-0.5-0.3-0.9-0.6-1.3-1v5.6
		H-130.9z M-129.1,17.4c0,1.5,0.3,2.6,0.9,3.3c0.6,0.7,1.3,1.1,2.2,1.1c0.9,0,1.6-0.4,2.2-1.1c0.6-0.7,0.9-1.9,0.9-3.4
		c0-1.5-0.3-2.5-0.9-3.3c-0.6-0.7-1.3-1.1-2.1-1.1c-0.8,0-1.6,0.4-2.2,1.2C-128.8,14.8-129.1,15.9-129.1,17.4z M-118.6,9.5V7.2h1.9
		v2.2H-118.6z M-118.6,23V11.6h1.9V23H-118.6z M-113.7,23V7.2h1.9v9l4.6-4.6h2.5l-4.4,4.2l4.8,7.2h-2.4l-3.8-5.8l-1.4,1.3V23H-113.7
		z M-94.9,19.3l2,0.3c-0.3,1.2-0.9,2.1-1.8,2.7c-0.8,0.6-1.9,1-3.3,1c-1.7,0-3-0.5-4-1.5c-1-1-1.5-2.5-1.5-4.3
		c0-1.9,0.5-3.4,1.5-4.5c1-1.1,2.3-1.6,3.9-1.6c1.5,0,2.8,0.5,3.7,1.6s1.5,2.5,1.5,4.4c0,0.1,0,0.3,0,0.5h-8.5
		c0.1,1.3,0.4,2.2,1.1,2.9c0.6,0.7,1.4,1,2.4,1c0.7,0,1.3-0.2,1.8-0.6S-95.2,20.1-94.9,19.3z M-101.3,16.2h6.4
		c-0.1-1-0.3-1.7-0.7-2.2c-0.6-0.7-1.4-1.1-2.4-1.1c-0.9,0-1.6,0.3-2.2,0.9C-100.9,14.4-101.2,15.2-101.3,16.2z M-84.4,9.5V7.2h1.9
		v2.2H-84.4z M-84.4,23V11.6h1.9V23H-84.4z M-79.5,23V11.6h1.7v1.6c0.8-1.3,2.1-1.9,3.6-1.9c0.7,0,1.3,0.1,1.9,0.4
		c0.6,0.2,1,0.6,1.3,1c0.3,0.4,0.5,0.9,0.6,1.4c0.1,0.4,0.1,1,0.1,1.9v7h-1.9v-6.9c0-0.8-0.1-1.4-0.2-1.8c-0.1-0.4-0.4-0.7-0.8-0.9
		c-0.4-0.2-0.8-0.3-1.4-0.3c-0.8,0-1.5,0.3-2.1,0.8c-0.6,0.5-0.9,1.5-0.9,3V23H-79.5z M-63.1,21.3l0.3,1.7c-0.5,0.1-1,0.2-1.5,0.2
		c-0.7,0-1.2-0.1-1.6-0.3c-0.4-0.2-0.7-0.5-0.8-0.9c-0.2-0.4-0.2-1.1-0.2-2.3v-6.6h-1.4v-1.5h1.4V8.8l1.9-1.2v4h1.9v1.5H-65v6.7
		c0,0.6,0,0.9,0.1,1.1c0.1,0.2,0.2,0.3,0.3,0.4c0.2,0.1,0.4,0.1,0.7,0.1C-63.7,21.3-63.4,21.3-63.1,21.3z M-53.4,19.3l2,0.3
		c-0.3,1.2-0.9,2.1-1.8,2.7c-0.8,0.6-1.9,1-3.3,1c-1.7,0-3-0.5-4-1.5c-1-1-1.5-2.5-1.5-4.3c0-1.9,0.5-3.4,1.5-4.5
		c1-1.1,2.3-1.6,3.9-1.6c1.5,0,2.8,0.5,3.7,1.6c1,1,1.5,2.5,1.5,4.4c0,0.1,0,0.3,0,0.5h-8.5c0.1,1.3,0.4,2.2,1.1,2.9
		c0.6,0.7,1.4,1,2.4,1c0.7,0,1.3-0.2,1.8-0.6S-53.7,20.1-53.4,19.3z M-59.7,16.2h6.4c-0.1-1-0.3-1.7-0.7-2.2
		c-0.6-0.7-1.4-1.1-2.4-1.1c-0.9,0-1.6,0.3-2.2,0.9C-59.3,14.4-59.6,15.2-59.7,16.2z M-49.3,24l1.9,0.3c0.1,0.6,0.3,1,0.7,1.3
		c0.5,0.4,1.1,0.5,2,0.5c0.9,0,1.6-0.2,2.1-0.5c0.5-0.4,0.8-0.9,1-1.5c0.1-0.4,0.2-1.2,0.1-2.5c-0.8,1-1.9,1.5-3.2,1.5
		c-1.6,0-2.8-0.6-3.6-1.7c-0.9-1.1-1.3-2.5-1.3-4.1c0-1.1,0.2-2.1,0.6-3c0.4-0.9,1-1.6,1.7-2.1c0.8-0.5,1.6-0.8,2.6-0.8
		c1.3,0,2.5,0.5,3.3,1.6v-1.4h1.8v9.9c0,1.8-0.2,3-0.5,3.8c-0.4,0.7-0.9,1.3-1.7,1.8c-0.8,0.4-1.7,0.6-2.9,0.6
		c-1.4,0-2.5-0.3-3.3-0.9C-48.9,26.1-49.3,25.2-49.3,24z M-47.7,17.1c0,1.5,0.3,2.6,0.9,3.3s1.3,1,2.2,1c0.9,0,1.6-0.3,2.2-1
		c0.6-0.7,0.9-1.8,0.9-3.2c0-1.4-0.3-2.4-0.9-3.2c-0.6-0.7-1.4-1.1-2.2-1.1s-1.6,0.3-2.2,1C-47.4,14.7-47.7,15.7-47.7,17.1z
		 M-36.7,23V11.6h1.8v1.7c0.4-0.8,0.8-1.3,1.2-1.6c0.4-0.3,0.8-0.4,1.2-0.4c0.7,0,1.3,0.2,2,0.6l-0.7,1.8c-0.5-0.3-1-0.4-1.4-0.4
		c-0.4,0-0.8,0.1-1.1,0.4c-0.3,0.3-0.6,0.6-0.7,1.1c-0.2,0.7-0.3,1.4-0.3,2.3v6H-36.7z M-21.9,21.6c-0.7,0.6-1.4,1-2.1,1.3
		c-0.7,0.3-1.4,0.4-2.1,0.4c-1.3,0-2.2-0.3-2.9-0.9c-0.7-0.6-1-1.4-1-2.4c0-0.6,0.1-1.1,0.4-1.5c0.3-0.5,0.6-0.8,1-1.1
		c0.4-0.3,0.9-0.5,1.4-0.6c0.4-0.1,1-0.2,1.7-0.3c1.6-0.2,2.7-0.4,3.5-0.7c0-0.3,0-0.4,0-0.5c0-0.8-0.2-1.3-0.5-1.7
		c-0.5-0.4-1.2-0.7-2.2-0.7c-0.9,0-1.6,0.2-2,0.5c-0.4,0.3-0.8,0.9-1,1.7l-1.9-0.3c0.2-0.8,0.5-1.5,0.9-2c0.4-0.5,1-0.9,1.7-1.1
		c0.7-0.3,1.6-0.4,2.6-0.4c1,0,1.8,0.1,2.4,0.3c0.6,0.2,1.1,0.5,1.3,0.9c0.3,0.3,0.5,0.8,0.6,1.3c0.1,0.3,0.1,0.9,0.1,1.8v2.6
		c0,1.8,0,2.9,0.1,3.4c0.1,0.5,0.2,0.9,0.5,1.4h-2C-21.7,22.6-21.9,22.1-21.9,21.6z M-22.1,17.3c-0.7,0.3-1.7,0.5-3.2,0.7
		c-0.8,0.1-1.4,0.2-1.7,0.4c-0.3,0.1-0.6,0.4-0.8,0.6c-0.2,0.3-0.3,0.6-0.3,0.9c0,0.5,0.2,1,0.6,1.3c0.4,0.3,1,0.5,1.7,0.5
		s1.4-0.2,2-0.5s1-0.8,1.3-1.3c0.2-0.4,0.3-1.1,0.3-1.9V17.3z M-12.9,21.3l0.3,1.7c-0.5,0.1-1,0.2-1.5,0.2c-0.7,0-1.2-0.1-1.6-0.3
		c-0.4-0.2-0.7-0.5-0.8-0.9c-0.2-0.4-0.2-1.1-0.2-2.3v-6.6h-1.4v-1.5h1.4V8.8l1.9-1.2v4h1.9v1.5h-1.9v6.7c0,0.6,0,0.9,0.1,1.1
		c0.1,0.2,0.2,0.3,0.3,0.4c0.2,0.1,0.4,0.1,0.7,0.1C-13.6,21.3-13.3,21.3-12.9,21.3z M-11,9.5V7.2h1.9v2.2H-11z M-11,23V11.6h1.9V23
		H-11z M-6.9,17.3c0-2.1,0.6-3.7,1.8-4.7c1-0.8,2.2-1.3,3.6-1.3c1.6,0,2.9,0.5,3.9,1.5s1.5,2.5,1.5,4.3c0,1.5-0.2,2.6-0.7,3.5
		c-0.4,0.8-1.1,1.5-1.9,2c-0.8,0.5-1.8,0.7-2.8,0.7c-1.6,0-2.9-0.5-3.9-1.5C-6.4,20.7-6.9,19.2-6.9,17.3z M-4.9,17.3
		c0,1.5,0.3,2.6,1,3.3c0.6,0.7,1.4,1.1,2.4,1.1c1,0,1.8-0.4,2.4-1.1c0.6-0.7,1-1.8,1-3.3c0-1.4-0.3-2.5-1-3.2
		c-0.6-0.7-1.4-1.1-2.4-1.1c-1,0-1.8,0.4-2.4,1.1C-4.6,14.7-4.9,15.8-4.9,17.3z M6.1,23V11.6h1.7v1.6c0.8-1.3,2.1-1.9,3.6-1.9
		c0.7,0,1.3,0.1,1.9,0.4c0.6,0.2,1,0.6,1.3,1c0.3,0.4,0.5,0.9,0.6,1.4c0.1,0.4,0.1,1,0.1,1.9v7h-1.9v-6.9c0-0.8-0.1-1.4-0.2-1.8
		c-0.1-0.4-0.4-0.7-0.8-0.9C12,13.1,11.6,13,11.1,13c-0.8,0-1.5,0.3-2.1,0.8c-0.6,0.5-0.9,1.5-0.9,3V23H6.1z M26.6,23l-3.5-11.4h2
		l1.8,6.6l0.7,2.5c0-0.1,0.2-0.9,0.6-2.4l1.8-6.7h2l1.7,6.6l0.6,2.2l0.7-2.2l2-6.6h1.9L35.2,23h-2l-1.8-6.8l-0.4-2L28.6,23H26.6z
		 M40.4,9.5V7.2h1.9v2.2H40.4z M40.4,23V11.6h1.9V23H40.4z M45.2,23V11.6H47v1.6c0.8-1.3,2.1-1.9,3.6-1.9c0.7,0,1.3,0.1,1.9,0.4
		c0.6,0.2,1,0.6,1.3,1c0.3,0.4,0.5,0.9,0.6,1.4c0.1,0.4,0.1,1,0.1,1.9v7h-1.9v-6.9c0-0.8-0.1-1.4-0.2-1.8c-0.1-0.4-0.4-0.7-0.8-0.9
		c-0.4-0.2-0.8-0.3-1.4-0.3c-0.8,0-1.5,0.3-2.1,0.8c-0.6,0.5-0.9,1.5-0.9,3V23H45.2z M64.9,23v-1.4c-0.7,1.1-1.8,1.7-3.2,1.7
		c-0.9,0-1.7-0.3-2.5-0.8c-0.8-0.5-1.4-1.2-1.8-2.1c-0.4-0.9-0.6-1.9-0.6-3.1c0-1.1,0.2-2.2,0.6-3.1c0.4-0.9,1-1.6,1.7-2.1
		c0.8-0.5,1.6-0.7,2.5-0.7c0.7,0,1.3,0.1,1.8,0.4c0.5,0.3,1,0.7,1.3,1.1V7.2h1.9V23H64.9z M58.7,17.3c0,1.5,0.3,2.5,0.9,3.3
		c0.6,0.7,1.3,1.1,2.2,1.1c0.8,0,1.6-0.3,2.2-1c0.6-0.7,0.9-1.7,0.9-3.2c0-1.6-0.3-2.7-0.9-3.4c-0.6-0.7-1.3-1.1-2.2-1.1
		c-0.9,0-1.6,0.4-2.2,1.1C59,14.7,58.7,15.8,58.7,17.3z M69,17.3c0-2.1,0.6-3.7,1.8-4.7c1-0.8,2.2-1.3,3.6-1.3
		c1.6,0,2.9,0.5,3.9,1.5c1,1,1.5,2.5,1.5,4.3c0,1.5-0.2,2.6-0.7,3.5c-0.4,0.8-1.1,1.5-1.9,2c-0.8,0.5-1.8,0.7-2.8,0.7
		c-1.6,0-2.9-0.5-3.9-1.5C69.5,20.7,69,19.2,69,17.3z M71,17.3c0,1.5,0.3,2.6,1,3.3c0.6,0.7,1.4,1.1,2.4,1.1c1,0,1.8-0.4,2.4-1.1
		c0.6-0.7,1-1.8,1-3.3c0-1.4-0.3-2.5-1-3.2c-0.6-0.7-1.4-1.1-2.4-1.1c-1,0-1.8,0.4-2.4,1.1C71.3,14.7,71,15.8,71,17.3z M84,23
		l-3.5-11.4h2l1.8,6.6l0.7,2.5c0-0.1,0.2-0.9,0.6-2.4l1.8-6.7h2l1.7,6.6l0.6,2.2l0.7-2.2l2-6.6h1.9L92.6,23h-2l-1.8-6.8l-0.4-2
		L86.1,23H84z M107.6,27.6c-1.1-1.3-2-2.9-2.7-4.7c-0.7-1.8-1.1-3.7-1.1-5.6c0-1.7,0.3-3.3,0.8-4.9c0.6-1.8,1.6-3.6,3-5.4h1.4
		c-0.9,1.5-1.4,2.6-1.7,3.2c-0.4,1-0.8,2-1,3.1c-0.3,1.3-0.5,2.7-0.5,4c0,3.4,1.1,6.9,3.2,10.3H107.6z M111.3,23V11.6h1.7v1.6
		c0.4-0.6,0.8-1,1.4-1.3c0.6-0.3,1.3-0.5,2-0.5c0.8,0,1.5,0.2,2.1,0.5c0.5,0.4,0.9,0.8,1.1,1.5c0.9-1.3,2.1-2,3.5-2
		c1.1,0,2,0.3,2.6,0.9c0.6,0.6,0.9,1.6,0.9,2.9V23h-1.9v-7.2c0-0.8-0.1-1.3-0.2-1.7c-0.1-0.3-0.4-0.6-0.7-0.8
		c-0.3-0.2-0.7-0.3-1.2-0.3c-0.8,0-1.5,0.3-2,0.8c-0.5,0.5-0.8,1.4-0.8,2.6V23H118v-7.4c0-0.9-0.2-1.5-0.5-1.9
		c-0.3-0.4-0.8-0.6-1.6-0.6c-0.5,0-1,0.1-1.5,0.4c-0.5,0.3-0.8,0.7-1,1.3c-0.2,0.5-0.3,1.3-0.3,2.4V23H111.3z M128.8,19.6l1.9-0.3
		c0.1,0.8,0.4,1.3,0.9,1.8c0.5,0.4,1.2,0.6,2.1,0.6c0.9,0,1.5-0.2,2-0.5c0.4-0.4,0.6-0.8,0.6-1.3c0-0.4-0.2-0.8-0.6-1
		c-0.3-0.2-0.9-0.4-2-0.7c-1.4-0.4-2.4-0.7-3-0.9c-0.5-0.3-1-0.6-1.2-1.1c-0.3-0.5-0.4-1-0.4-1.5c0-0.5,0.1-1,0.4-1.4
		c0.2-0.4,0.5-0.8,0.9-1.1c0.3-0.2,0.7-0.4,1.2-0.6c0.5-0.2,1.1-0.2,1.7-0.2c0.9,0,1.7,0.1,2.4,0.4c0.7,0.3,1.2,0.6,1.5,1
		c0.3,0.4,0.5,1,0.7,1.8l-1.9,0.3c-0.1-0.6-0.3-1.1-0.7-1.4c-0.4-0.3-1-0.5-1.7-0.5c-0.9,0-1.5,0.1-1.9,0.4c-0.4,0.3-0.6,0.6-0.6,1
		c0,0.2,0.1,0.5,0.2,0.7c0.2,0.2,0.4,0.4,0.7,0.5c0.2,0.1,0.8,0.2,1.7,0.5c1.4,0.4,2.3,0.7,2.9,0.9c0.5,0.2,1,0.6,1.3,1
		c0.3,0.4,0.5,1,0.5,1.6c0,0.6-0.2,1.3-0.6,1.8c-0.4,0.6-0.9,1-1.6,1.3c-0.7,0.3-1.5,0.5-2.4,0.5c-1.5,0-2.6-0.3-3.4-0.9
		C129.5,21.7,129,20.8,128.8,19.6z M141.8,27.6h-1.4c2.1-3.4,3.2-6.9,3.2-10.3c0-1.4-0.2-2.7-0.5-4c-0.2-1.1-0.6-2.1-1-3.1
		c-0.3-0.6-0.9-1.7-1.7-3.2h1.4c1.3,1.8,2.3,3.6,3,5.4c0.6,1.6,0.8,3.2,0.8,4.9c0,1.9-0.4,3.8-1.1,5.6
		C143.8,24.7,142.9,26.3,141.8,27.6z"/>
</g>
<g>
	<line class="st4" x1="79" y1="326.2" x2="79" y2="54.8"/>
	<line class="st4" x1="79" y1="301.2" x2="68.8" y2="301.2"/>
	<line class="st4" x1="79" y1="190.5" x2="68.8" y2="190.5"/>
	<line class="st4" x1="79" y1="79.8" x2="68.8" y2="79.8"/>
</g>
<g transform="translate(61.4917,301.2483)">
	<path d="M-27.2,0.9c0-1.7,0.2-3,0.5-4.1c0.3-1,0.9-1.8,1.6-2.4c0.7-0.6,1.6-0.8,2.6-0.8c0.8,0,1.4,0.2,2,0.5
		c0.6,0.3,1.1,0.8,1.4,1.3s0.7,1.3,0.9,2.1c0.2,0.8,0.3,2,0.3,3.4c0,1.7-0.2,3-0.5,4.1c-0.3,1-0.9,1.8-1.5,2.4
		c-0.7,0.6-1.5,0.9-2.6,0.9c-1.4,0-2.5-0.5-3.3-1.5C-26.7,5.6-27.2,3.6-27.2,0.9z M-25.4,0.9c0,2.4,0.3,3.9,0.8,4.7
		c0.5,0.8,1.2,1.2,2,1.2c0.8,0,1.5-0.4,2-1.2c0.6-0.8,0.8-2.3,0.8-4.7c0-2.4-0.3-3.9-0.8-4.7c-0.6-0.8-1.2-1.2-2-1.2
		c-0.8,0-1.5,0.3-1.9,1C-25.1-3-25.4-1.4-25.4,0.9z M-15.1,8V6h2v2H-15.1z M-10.5,4.2l1.8-0.2c0.1,0.9,0.5,1.6,1,2
		c0.5,0.5,1.1,0.7,1.8,0.7c0.8,0,1.6-0.3,2.1-1c0.6-0.6,0.9-1.5,0.9-2.5c0-1-0.3-1.8-0.8-2.4C-4.3,0.4-5,0.1-5.9,0.1
		c-0.6,0-1.1,0.1-1.5,0.4s-0.8,0.6-1.1,1l-1.7-0.2l1.4-7.4h7.1v1.7h-5.7l-0.8,3.8c0.9-0.6,1.8-0.9,2.7-0.9c1.3,0,2.3,0.4,3.2,1.3
		C-1.4,0.7-1,1.8-1,3.1c0,1.3-0.4,2.4-1.1,3.4C-3,7.7-4.3,8.2-5.9,8.2c-1.3,0-2.4-0.4-3.2-1.1C-9.9,6.4-10.4,5.5-10.5,4.2z"/>
</g>
<g transform="translate(61.4917,79.7517)">
	<path d="M-4.5,8h-1.8V-3.2C-6.7-2.8-7.3-2.4-8-2c-0.7,0.4-1.3,0.7-1.9,0.9v-1.7c1-0.5,1.9-1,2.6-1.7C-6.5-5.1-6-5.8-5.7-6.4h1.1V8z
		"/>
</g>
<g transform="translate(28.4917,190.4999) rotate(-90)">
	<path d="M-81.3-5v-15.8h5.9c1,0,1.8,0.1,2.4,0.2c0.8,0.1,1.4,0.4,1.9,0.7c0.5,0.4,0.9,0.9,1.3,1.5c0.3,0.7,0.5,1.4,0.5,2.1
		c0,1.3-0.4,2.5-1.3,3.4c-0.9,0.9-2.4,1.4-4.6,1.4h-4V-5H-81.3z M-79.2-13.3h4.1c1.3,0,2.3-0.2,2.9-0.8c0.6-0.5,0.8-1.2,0.8-2.1
		c0-0.7-0.2-1.2-0.5-1.7c-0.3-0.5-0.8-0.8-1.3-0.9c-0.3-0.1-1-0.1-1.9-0.1h-4V-13.3z M-63.2-0.4c-1.1-1.3-2-2.9-2.7-4.7
		c-0.7-1.8-1.1-3.7-1.1-5.6c0-1.7,0.3-3.3,0.8-4.9c0.6-1.8,1.6-3.6,3-5.4h1.4c-0.9,1.5-1.4,2.6-1.7,3.2c-0.4,1-0.8,2-1,3.1
		c-0.3,1.3-0.5,2.7-0.5,4c0,3.4,1.1,6.9,3.2,10.3H-63.2z M-59.1-5v-9.9h-1.7v-1.5h1.7v-1.2c0-0.8,0.1-1.3,0.2-1.7
		c0.2-0.5,0.5-0.9,1-1.2c0.5-0.3,1.1-0.5,2-0.5c0.5,0,1.1,0.1,1.8,0.2l-0.3,1.7c-0.4-0.1-0.8-0.1-1.1-0.1c-0.6,0-1,0.1-1.3,0.4
		c-0.2,0.3-0.4,0.7-0.4,1.4v1.1h2.2v1.5h-2.2V-5H-59.1z M-46-6.4c-0.7,0.6-1.4,1-2.1,1.3s-1.4,0.4-2.1,0.4c-1.3,0-2.2-0.3-2.9-0.9
		c-0.7-0.6-1-1.4-1-2.4c0-0.6,0.1-1.1,0.4-1.5s0.6-0.8,1-1.1c0.4-0.3,0.9-0.5,1.4-0.6c0.4-0.1,1-0.2,1.7-0.3
		c1.6-0.2,2.7-0.4,3.5-0.7c0-0.3,0-0.4,0-0.5c0-0.8-0.2-1.3-0.5-1.7c-0.5-0.4-1.2-0.7-2.2-0.7c-0.9,0-1.6,0.2-2,0.5
		c-0.4,0.3-0.8,0.9-1,1.7l-1.9-0.3c0.2-0.8,0.5-1.5,0.9-2c0.4-0.5,1-0.9,1.7-1.1c0.7-0.3,1.6-0.4,2.6-0.4c1,0,1.8,0.1,2.4,0.3
		c0.6,0.2,1.1,0.5,1.3,0.9c0.3,0.3,0.5,0.8,0.6,1.3c0.1,0.3,0.1,0.9,0.1,1.8v2.6c0,1.8,0,2.9,0.1,3.4c0.1,0.5,0.2,0.9,0.5,1.4h-2
		C-45.8-5.4-45.9-5.9-46-6.4z M-46.2-10.7c-0.7,0.3-1.8,0.5-3.2,0.7c-0.8,0.1-1.4,0.2-1.7,0.4c-0.3,0.1-0.6,0.4-0.8,0.6
		C-51.9-8.7-52-8.4-52-8.1c0,0.5,0.2,1,0.6,1.3c0.4,0.3,1,0.5,1.7,0.5s1.4-0.2,2-0.5c0.6-0.3,1-0.8,1.3-1.3c0.2-0.4,0.3-1.1,0.3-1.9
		V-10.7z M-41.2-5v-15.8h1.9V-5H-41.2z M-37.1-8.4l1.9-0.3c0.1,0.8,0.4,1.3,0.9,1.8c0.5,0.4,1.2,0.6,2.1,0.6c0.9,0,1.5-0.2,2-0.5
		c0.4-0.4,0.6-0.8,0.6-1.3c0-0.4-0.2-0.8-0.6-1c-0.3-0.2-0.9-0.4-2-0.7c-1.4-0.4-2.4-0.7-3-0.9c-0.5-0.3-1-0.6-1.2-1.1
		c-0.3-0.5-0.4-1-0.4-1.5c0-0.5,0.1-1,0.4-1.4c0.2-0.4,0.5-0.8,0.9-1.1c0.3-0.2,0.7-0.4,1.2-0.6c0.5-0.2,1.1-0.2,1.7-0.2
		c0.9,0,1.7,0.1,2.4,0.4c0.7,0.3,1.2,0.6,1.5,1c0.3,0.4,0.5,1,0.7,1.8l-1.9,0.3c-0.1-0.6-0.3-1.1-0.7-1.4c-0.4-0.3-1-0.5-1.7-0.5
		c-0.9,0-1.5,0.1-1.9,0.4c-0.4,0.3-0.6,0.6-0.6,1c0,0.2,0.1,0.5,0.2,0.7c0.2,0.2,0.4,0.4,0.7,0.5c0.2,0.1,0.8,0.2,1.7,0.5
		c1.4,0.4,2.3,0.7,2.9,0.9c0.5,0.2,1,0.6,1.3,1c0.3,0.4,0.5,1,0.5,1.6c0,0.6-0.2,1.3-0.6,1.8c-0.4,0.6-0.9,1-1.6,1.3
		c-0.7,0.3-1.5,0.5-2.4,0.5c-1.5,0-2.6-0.3-3.4-0.9C-36.4-6.3-36.9-7.2-37.1-8.4z M-17.5-8.7l2,0.3c-0.3,1.2-0.9,2.1-1.8,2.7
		c-0.8,0.6-1.9,1-3.3,1c-1.7,0-3-0.5-4-1.5c-1-1-1.5-2.5-1.5-4.3c0-1.9,0.5-3.4,1.5-4.5c1-1.1,2.3-1.6,3.9-1.6
		c1.5,0,2.8,0.5,3.7,1.6c1,1,1.5,2.5,1.5,4.4c0,0.1,0,0.3,0,0.5H-24c0.1,1.3,0.4,2.2,1.1,2.9c0.6,0.7,1.4,1,2.4,1
		c0.7,0,1.3-0.2,1.8-0.6S-17.8-7.9-17.5-8.7z M-23.9-11.8h6.4c-0.1-1-0.3-1.7-0.7-2.2c-0.6-0.7-1.4-1.1-2.4-1.1
		c-0.9,0-1.6,0.3-2.2,0.9C-23.4-13.6-23.8-12.8-23.9-11.8z M-7-5v-11.4h1.7v1.6c0.8-1.3,2.1-1.9,3.6-1.9c0.7,0,1.3,0.1,1.9,0.4
		c0.6,0.3,1,0.6,1.3,1c0.3,0.4,0.5,0.9,0.6,1.4c0.1,0.4,0.1,1,0.1,1.9v7H0.4v-6.9c0-0.8-0.1-1.4-0.2-1.8c-0.1-0.4-0.4-0.7-0.8-0.9
		C-1-14.9-1.5-15-2-15c-0.8,0-1.5,0.3-2.1,0.8c-0.6,0.5-0.9,1.5-0.9,3V-5H-7z M13.1-8.7l2,0.3c-0.3,1.2-0.9,2.1-1.8,2.7
		c-0.8,0.6-1.9,1-3.3,1c-1.7,0-3-0.5-4-1.5c-1-1-1.5-2.5-1.5-4.3c0-1.9,0.5-3.4,1.5-4.5c1-1.1,2.3-1.6,3.9-1.6
		c1.5,0,2.8,0.5,3.7,1.6c1,1,1.5,2.5,1.5,4.4c0,0.1,0,0.3,0,0.5H6.6C6.7-9,7-8,7.7-7.3c0.6,0.7,1.4,1,2.4,1c0.7,0,1.3-0.2,1.8-0.6
		S12.8-7.9,13.1-8.7z M6.7-11.8h6.4c-0.1-1-0.3-1.7-0.7-2.2c-0.6-0.7-1.4-1.1-2.4-1.1c-0.9,0-1.6,0.3-2.2,0.9
		C7.1-13.6,6.8-12.8,6.7-11.8z M17.1-4L19-3.8c0.1,0.6,0.3,1,0.7,1.3c0.5,0.4,1.1,0.5,2,0.5c0.9,0,1.6-0.2,2.1-0.5
		c0.5-0.4,0.8-0.9,1-1.5c0.1-0.4,0.2-1.2,0.1-2.5C24-5.5,23-5,21.7-5c-1.6,0-2.8-0.6-3.6-1.7c-0.9-1.1-1.3-2.5-1.3-4.1
		c0-1.1,0.2-2.1,0.6-3c0.4-0.9,1-1.6,1.7-2.1c0.8-0.5,1.6-0.8,2.6-0.8c1.3,0,2.5,0.5,3.3,1.6v-1.4h1.8v9.9c0,1.8-0.2,3-0.5,3.8
		C25.9-2,25.3-1.4,24.6-1s-1.7,0.6-2.9,0.6c-1.4,0-2.5-0.3-3.3-0.9C17.5-1.9,17.1-2.8,17.1-4z M18.8-10.9c0,1.5,0.3,2.6,0.9,3.3
		c0.6,0.7,1.3,1,2.2,1c0.9,0,1.6-0.3,2.2-1S25-9.4,25-10.8c0-1.4-0.3-2.4-0.9-3.2c-0.6-0.7-1.4-1.1-2.2-1.1c-0.9,0-1.6,0.3-2.2,1
		C19.1-13.3,18.8-12.3,18.8-10.9z M37.2-6.4c-0.7,0.6-1.4,1-2.1,1.3c-0.7,0.3-1.4,0.4-2.1,0.4c-1.3,0-2.2-0.3-2.9-0.9
		c-0.7-0.6-1-1.4-1-2.4c0-0.6,0.1-1.1,0.4-1.5c0.3-0.5,0.6-0.8,1-1.1c0.4-0.3,0.9-0.5,1.4-0.6c0.4-0.1,1-0.2,1.7-0.3
		c1.6-0.2,2.7-0.4,3.5-0.7c0-0.3,0-0.4,0-0.5c0-0.8-0.2-1.3-0.5-1.7c-0.5-0.4-1.2-0.7-2.2-0.7c-0.9,0-1.6,0.2-2,0.5
		c-0.4,0.3-0.8,0.9-1,1.7l-1.9-0.3c0.2-0.8,0.5-1.5,0.9-2c0.4-0.5,1-0.9,1.7-1.1c0.7-0.3,1.6-0.4,2.6-0.4c1,0,1.8,0.1,2.4,0.3
		c0.6,0.2,1.1,0.5,1.3,0.9c0.3,0.3,0.5,0.8,0.6,1.3c0.1,0.3,0.1,0.9,0.1,1.8v2.6c0,1.8,0,2.9,0.1,3.4c0.1,0.5,0.2,0.9,0.5,1.4h-2
		C37.4-5.4,37.2-5.9,37.2-6.4z M37-10.7c-0.7,0.3-1.7,0.5-3.2,0.7c-0.8,0.1-1.4,0.2-1.7,0.4c-0.3,0.1-0.6,0.4-0.8,0.6
		c-0.2,0.3-0.3,0.6-0.3,0.9c0,0.5,0.2,1,0.6,1.3c0.4,0.3,1,0.5,1.7,0.5s1.4-0.2,2-0.5c0.6-0.3,1-0.8,1.3-1.3C36.9-8.5,37-9.2,37-10
		V-10.7z M46.2-6.7L46.5-5c-0.5,0.1-1,0.2-1.5,0.2c-0.7,0-1.2-0.1-1.6-0.3c-0.4-0.2-0.7-0.5-0.8-0.9s-0.2-1.1-0.2-2.3v-6.6h-1.4
		v-1.5h1.4v-2.8l1.9-1.2v4h1.9v1.5h-1.9v6.7c0,0.6,0,0.9,0.1,1.1c0.1,0.2,0.2,0.3,0.3,0.4c0.2,0.1,0.4,0.1,0.7,0.1
		C45.6-6.7,45.8-6.7,46.2-6.7z M48.1-18.5v-2.2H50v2.2H48.1z M48.1-5v-11.4H50V-5H48.1z M56.1-5l-4.3-11.4h2l2.4,6.8
		c0.3,0.7,0.5,1.5,0.7,2.3c0.2-0.6,0.4-1.3,0.7-2.2l2.5-7h2L57.9-5H56.1z M71.8-8.7l2,0.3c-0.3,1.2-0.9,2.1-1.8,2.7
		c-0.8,0.6-1.9,1-3.3,1c-1.7,0-3-0.5-4-1.5c-1-1-1.5-2.5-1.5-4.3c0-1.9,0.5-3.4,1.5-4.5c1-1.1,2.3-1.6,3.9-1.6
		c1.5,0,2.8,0.5,3.7,1.6c1,1,1.5,2.5,1.5,4.4c0,0.1,0,0.3,0,0.5h-8.5C65.4-9,65.8-8,66.4-7.3s1.4,1,2.4,1c0.7,0,1.3-0.2,1.8-0.6
		S71.5-7.9,71.8-8.7z M65.4-11.8h6.4c-0.1-1-0.3-1.7-0.7-2.2c-0.6-0.7-1.4-1.1-2.4-1.1c-0.9,0-1.6,0.3-2.2,0.9
		C65.8-13.6,65.5-12.8,65.4-11.8z M77.5-0.4h-1.4c2.1-3.4,3.2-6.9,3.2-10.3c0-1.4-0.2-2.7-0.5-4c-0.2-1.1-0.6-2.1-1-3.1
		c-0.3-0.6-0.9-1.7-1.7-3.2h1.4c1.3,1.8,2.3,3.6,3,5.4c0.6,1.6,0.8,3.2,0.8,4.9c0,1.9-0.4,3.8-1.1,5.6C79.4-3.3,78.5-1.7,77.5-0.4z"
		/>
</g>
</svg>
