<?xml version="1.0" encoding="utf-8"?>
<!-- Generator: Adobe Illustrator 24.0.1, SVG Export Plug-In . SVG Version: 6.00 Build 0)  -->
<svg version="1.1" id="Layer_1" xmlns="http://www.w3.org/2000/svg" xmlns:xlink="http://www.w3.org/1999/xlink" x="0px" y="0px"
	 viewBox="0 0 700 525" style="enable-background:new 0 0 700 525;" xml:space="preserve">
<style type="text/css">
	.st0{fill:none;stroke:#000000;stroke-width:0.8333;stroke-linejoin:bevel;stroke-miterlimit:1;stroke-dasharray:10,6;}
	.st1{fill:none;stroke:#000000;stroke-width:2.5;stroke-linejoin:round;stroke-miterlimit:10;}
	.st2{fill:none;stroke:#000000;stroke-width:2.5;stroke-miterlimit:10;}
	.st3{fill:#BFBFBF;}
	.st4{fill:none;stroke:#000000;stroke-width:3.3333;stroke-linecap:square;stroke-linejoin:round;stroke-miterlimit:10;}
	.st5{fill:#FFFFFF;}
</style>
<g>
	<line class="st0" x1="300.2" y1="452" x2="300.2" y2="39"/>
</g>
<g>
	<path class="st1" d="M216.8,163.6l18.4,23.5l26.7,22.1l38.3,15.9l55.2-5.5l80-42.2"/>
	<path class="st2" d="M210.8,157.6v12h12v-12H210.8z"/>
	<path class="st2" d="M229.2,181.1v12h12v-12H229.2z"/>
	<path class="st2" d="M255.9,203.2v12h12v-12H255.9z"/>
	<path class="st2" d="M294.2,219.1v12h12v-12H294.2z"/>
	<path class="st2" d="M349.4,213.6v12h12v-12H349.4z"/>
	<path class="st2" d="M429.3,171.4v12h12v-12H429.3z"/>
	<path class="st1" d="M216.8,174.6l18.4,18l26.7,19.4l38.3,7.6l55.2-9l80-33.2"/>
	<path d="M216.8,169.6c2.8,0,5,2.2,5,5l0,0c0,2.8-2.2,5-5,5s-5-2.2-5-5C211.8,171.9,214.1,169.6,216.8,169.6z M216.8,167.1
		c-4.1,0-7.5,3.4-7.5,7.5c0,4.1,3.4,7.5,7.5,7.5s7.5-3.4,7.5-7.5l0,0C224.3,170.5,221,167.1,216.8,167.1z"/>
	<path d="M235.2,187.6c2.8,0,5,2.2,5,5l0,0c0,2.8-2.2,5-5,5s-5-2.2-5-5C230.2,189.8,232.5,187.6,235.2,187.6z M235.2,185.1
		c-4.1,0-7.5,3.4-7.5,7.5c0,4.1,3.4,7.5,7.5,7.5s7.5-3.4,7.5-7.5l0,0C242.7,188.5,239.4,185.1,235.2,185.1z"/>
	<path d="M261.9,207c2.8,0,5,2.2,5,5l0,0c0,2.8-2.2,5-5,5s-5-2.2-5-5C256.9,209.2,259.1,207,261.9,207z M261.9,204.5
		c-4.1,0-7.5,3.4-7.5,7.5c0,4.1,3.4,7.5,7.5,7.5s7.5-3.4,7.5-7.5l0,0C269.4,207.8,266,204.5,261.9,204.5z"/>
	<path d="M300.2,214.6c2.8,0,5,2.2,5,5l0,0c0,2.8-2.2,5-5,5s-5-2.2-5-5C295.2,216.8,297.4,214.6,300.2,214.6z M300.2,212.1
		c-4.1,0-7.5,3.4-7.5,7.5c0,4.1,3.4,7.5,7.5,7.5s7.5-3.4,7.5-7.5l0,0C307.7,215.4,304.3,212.1,300.2,212.1z"/>
	<path d="M355.4,205.6c2.8,0,5,2.2,5,5l0,0c0,2.8-2.2,5-5,5s-5-2.2-5-5C350.4,207.8,352.6,205.6,355.4,205.6z M355.4,203.1
		c-4.1,0-7.5,3.4-7.5,7.5c0,4.1,3.4,7.5,7.5,7.5s7.5-3.4,7.5-7.5l0,0C362.9,206.4,359.5,203.1,355.4,203.1z"/>
	<path d="M435.3,172.4c2.8,0,5,2.2,5,5l0,0c0,2.8-2.2,5-5,5s-5-2.2-5-5C430.3,174.6,432.6,172.4,435.3,172.4z M435.3,169.9
		c-4.1,0-7.5,3.4-7.5,7.5c0,4.1,3.4,7.5,7.5,7.5s7.5-3.4,7.5-7.5l0,0C442.8,173.3,439.5,169.9,435.3,169.9z"/>
	<path class="st1" d="M216.8,109.6l18.4,15.9l26.7,19.4l38.3,15.9l55.2-10.4l80-35.3"/>
	<path class="st2" d="M210.8,103.6v12h12v-12H210.8z"/>
	<path class="st2" d="M229.2,119.5v12h12v-12H229.2z"/>
	<path class="st2" d="M255.9,138.9v12h12v-12H255.9z"/>
	<path class="st2" d="M294.2,154.8v12h12v-12H294.2z"/>
	<path class="st2" d="M349.4,144.4v12h12v-12H349.4z"/>
	<path class="st2" d="M429.3,109.2v12h12v-12H429.3z"/>
	<path class="st1" d="M216.8,114.5l18.4,13.1l26.7,15.2l38.3,11.8l55.2-12.4l80-31.8"/>
	<path d="M216.8,109.5c2.8,0,5,2.2,5,5l0,0c0,2.8-2.2,5-5,5s-5-2.2-5-5S214.1,109.5,216.8,109.5z M216.8,107c-4.1,0-7.5,3.4-7.5,7.5
		s3.4,7.5,7.5,7.5s7.5-3.4,7.5-7.5l0,0C224.3,110.3,221,107,216.8,107z"/>
	<path d="M235.2,122.6c2.8,0,5,2.2,5,5l0,0c0,2.8-2.2,5-5,5s-5-2.2-5-5C230.2,124.8,232.5,122.6,235.2,122.6z M235.2,120.1
		c-4.1,0-7.5,3.4-7.5,7.5s3.4,7.5,7.5,7.5s7.5-3.4,7.5-7.5l0,0C242.7,123.5,239.4,120.1,235.2,120.1z"/>
	<path d="M261.9,137.8c2.8,0,5,2.2,5,5l0,0c0,2.8-2.2,5-5,5s-5-2.2-5-5C256.9,140.1,259.1,137.8,261.9,137.8z M261.9,135.3
		c-4.1,0-7.5,3.4-7.5,7.5c0,4.1,3.4,7.5,7.5,7.5s7.5-3.4,7.5-7.5l0,0C269.4,138.7,266,135.3,261.9,135.3z"/>
	<path d="M300.2,149.6c2.8,0,5,2.2,5,5l0,0c0,2.8-2.2,5-5,5s-5-2.2-5-5C295.2,151.8,297.4,149.6,300.2,149.6z M300.2,147.1
		c-4.1,0-7.5,3.4-7.5,7.5c0,4.1,3.4,7.5,7.5,7.5s7.5-3.4,7.5-7.5l0,0C307.7,150.4,304.3,147.1,300.2,147.1z"/>
	<path d="M355.4,137.1c2.8,0,5,2.2,5,5l0,0c0,2.8-2.2,5-5,5s-5-2.2-5-5C350.4,139.4,352.6,137.1,355.4,137.1z M355.4,134.6
		c-4.1,0-7.5,3.4-7.5,7.5c0,4.1,3.4,7.5,7.5,7.5s7.5-3.4,7.5-7.5l0,0C362.9,138,359.5,134.6,355.4,134.6z"/>
	<path d="M435.3,105.3c2.8,0,5,2.2,5,5l0,0c0,2.8-2.2,5-5,5s-5-2.2-5-5S432.6,105.3,435.3,105.3z M435.3,102.8
		c-4.1,0-7.5,3.4-7.5,7.5s3.4,7.5,7.5,7.5s7.5-3.4,7.5-7.5l0,0C442.8,106.2,439.5,102.8,435.3,102.8z"/>
</g>
<g transform="translate(216.8236,163.5638)">
	<path class="st3" d="M-5-5V5H5V-5H-5z"/>
	<path class="st3" d="M13.4,18.5v10h10v-10H13.4z"/>
	<path class="st3" d="M40.1,40.6v10h10v-10H40.1z"/>
	<path class="st3" d="M78.4,56.5v10h10v-10H78.4z"/>
	<path class="st3" d="M133.5,51v10h10V51H133.5z"/>
	<path class="st3" d="M213.5,8.8v10h10v-10H213.5z"/>
	<circle class="st3" cx="0" cy="11.1" r="5"/>
	<circle class="st3" cx="18.4" cy="29" r="5"/>
	<circle class="st3" cx="45.1" cy="48.4" r="5"/>
	<circle class="st3" cx="83.4" cy="56" r="5"/>
	<circle class="st3" cx="138.5" cy="47" r="5"/>
	<circle class="st3" cx="218.5" cy="13.8" r="5"/>
	<path d="M-5-58.9v10H5v-10H-5z"/>
	<path d="M13.4-43v10h10v-10H13.4z"/>
	<path d="M40.1-23.7v10h10v-10H40.1z"/>
	<path d="M78.4-7.8v10h10v-10H78.4z"/>
	<path d="M133.5-18.1v10h10v-10H133.5z"/>
	<path d="M213.5-53.4v10h10v-10H213.5z"/>
	<circle cx="0" cy="-49.1" r="5"/>
	<circle cx="18.4" cy="-36" r="5"/>
	<circle cx="45.1" cy="-20.7" r="5"/>
	<circle cx="83.4" cy="-9" r="5"/>
	<circle cx="138.5" cy="-21.4" r="5"/>
	<circle cx="218.5" cy="-53.2" r="5"/>
</g>
<g>
	<line class="st4" x1="156" y1="452" x2="569" y2="452"/>
	<line class="st4" x1="174.8" y1="452" x2="174.8" y2="462.3"/>
	<line class="st4" x1="216.8" y1="452" x2="216.8" y2="462.3"/>
	<line class="st4" x1="235.2" y1="452" x2="235.2" y2="462.3"/>
	<line class="st4" x1="261.9" y1="452" x2="261.9" y2="462.3"/>
	<line class="st4" x1="300.2" y1="452" x2="300.2" y2="462.3"/>
	<line class="st4" x1="355.4" y1="452" x2="355.4" y2="462.3"/>
	<line class="st4" x1="435.3" y1="452" x2="435.3" y2="462.3"/>
	<line class="st4" x1="550.2" y1="452" x2="550.2" y2="462.3"/>
</g>
<g transform="translate(174.7727,469.6333)">
	<path d="M-5.2,13.9c0-1.7,0.2-3,0.5-4.1c0.3-1,0.9-1.8,1.6-2.4c0.7-0.6,1.6-0.8,2.6-0.8c0.8,0,1.4,0.2,2,0.5C2.1,7.4,2.6,7.8,3,8.4
		C3.3,9,3.6,9.7,3.8,10.6c0.2,0.8,0.3,2,0.3,3.4c0,1.7-0.2,3-0.5,4.1c-0.3,1-0.9,1.8-1.5,2.4c-0.7,0.6-1.5,0.9-2.6,0.9
		c-1.4,0-2.5-0.5-3.3-1.5C-4.7,18.6-5.2,16.6-5.2,13.9z M-3.4,13.9c0,2.4,0.3,3.9,0.8,4.7c0.5,0.8,1.2,1.2,2,1.2
		c0.8,0,1.5-0.4,2-1.2c0.6-0.8,0.8-2.3,0.8-4.7c0-2.4-0.3-3.9-0.8-4.7C1,8.5,0.3,8.1-0.5,8.1c-0.8,0-1.5,0.3-1.9,1
		C-3.1,10-3.4,11.6-3.4,13.9z"/>
</g>
<g transform="translate(300.1746,469.6333)">
	<path d="M-16.2,17.2l1.8-0.2c0.2,1,0.6,1.7,1,2.2c0.5,0.4,1.1,0.7,1.8,0.7c0.8,0,1.5-0.3,2.1-0.9c0.6-0.6,0.9-1.3,0.9-2.1
		c0-0.8-0.3-1.5-0.8-2c-0.5-0.5-1.2-0.8-2-0.8c-0.3,0-0.7,0.1-1.2,0.2l0.2-1.5c0.1,0,0.2,0,0.3,0c0.8,0,1.4-0.2,2-0.6
		c0.6-0.4,0.9-1,0.9-1.8c0-0.6-0.2-1.2-0.7-1.6c-0.4-0.4-1-0.6-1.7-0.6c-0.7,0-1.2,0.2-1.7,0.6c-0.5,0.4-0.7,1.1-0.9,1.9l-1.8-0.3
		c0.2-1.2,0.7-2.1,1.5-2.7c0.8-0.6,1.7-1,2.8-1c0.8,0,1.5,0.2,2.2,0.5S-8.4,7.9-8,8.5c0.3,0.6,0.5,1.2,0.5,1.8
		c0,0.6-0.2,1.2-0.5,1.7c-0.3,0.5-0.8,0.9-1.5,1.2c0.8,0.2,1.5,0.6,2,1.2c0.5,0.6,0.7,1.4,0.7,2.3c0,1.3-0.5,2.3-1.4,3.2
		c-0.9,0.9-2.1,1.3-3.5,1.3c-1.3,0-2.3-0.4-3.1-1.1C-15.6,19.4-16,18.4-16.2,17.2z M-5,17.2l1.7-0.2c0.2,1,0.6,1.7,1,2.2
		c0.5,0.4,1.1,0.7,1.8,0.7c0.8,0,1.5-0.3,2.1-0.9c0.6-0.6,0.9-1.3,0.9-2.1c0-0.8-0.3-1.5-0.8-2c-0.5-0.5-1.2-0.8-2-0.8
		c-0.3,0-0.7,0.1-1.2,0.2l0.2-1.5c0.1,0,0.2,0,0.3,0c0.7,0,1.4-0.2,2-0.6c0.6-0.4,0.9-1,0.9-1.8c0-0.6-0.2-1.2-0.7-1.6
		c-0.4-0.4-1-0.6-1.7-0.6c-0.7,0-1.2,0.2-1.7,0.6C-2.7,9.1-3,9.8-3.1,10.6l-1.8-0.3c0.2-1.2,0.7-2.1,1.5-2.7c0.8-0.6,1.7-1,2.8-1
		c0.8,0,1.5,0.2,2.2,0.5s1.2,0.8,1.5,1.4c0.3,0.6,0.5,1.2,0.5,1.8c0,0.6-0.2,1.2-0.5,1.7c-0.3,0.5-0.8,0.9-1.5,1.2
		c0.8,0.2,1.5,0.6,2,1.2c0.5,0.6,0.7,1.4,0.7,2.3c0,1.3-0.5,2.3-1.4,3.2c-0.9,0.9-2.1,1.3-3.5,1.3c-1.3,0-2.3-0.4-3.1-1.1
		C-4.4,19.4-4.9,18.4-5,17.2z M11.7,21v-3.4H5.5V16L12,6.7h1.4V16h1.9v1.6h-1.9V21H11.7z M11.7,16V9.5L7.2,16H11.7z"/>
</g>
<g transform="translate(550.2273,469.6333)">
	<path d="M-15,21h-1.8V9.8c-0.4,0.4-1,0.8-1.7,1.2c-0.7,0.4-1.3,0.7-1.9,0.9v-1.7c1-0.5,1.9-1,2.6-1.7c0.7-0.7,1.3-1.3,1.6-1.9h1.1
		V21z M-10.5,13.9c0-1.7,0.2-3,0.5-4.1c0.3-1,0.9-1.8,1.6-2.4c0.7-0.6,1.6-0.8,2.6-0.8c0.8,0,1.4,0.2,2,0.5c0.6,0.3,1.1,0.8,1.4,1.3
		C-2,9-1.8,9.7-1.5,10.6s0.3,2,0.3,3.4c0,1.7-0.2,3-0.5,4.1c-0.3,1-0.9,1.8-1.5,2.4C-4,21-4.8,21.2-5.9,21.2c-1.4,0-2.5-0.5-3.3-1.5
		C-10.1,18.6-10.5,16.6-10.5,13.9z M-8.7,13.9c0,2.4,0.3,3.9,0.8,4.7c0.5,0.8,1.2,1.2,2,1.2c0.8,0,1.5-0.4,2-1.2S-3,16.3-3,13.9
		c0-2.4-0.3-3.9-0.8-4.7c-0.6-0.8-1.2-1.2-2-1.2c-0.8,0-1.5,0.3-1.9,1C-8.4,10-8.7,11.6-8.7,13.9z M0.6,13.9c0-1.7,0.2-3,0.5-4.1
		C1.4,8.8,2,8,2.7,7.5c0.7-0.6,1.6-0.8,2.6-0.8c0.8,0,1.4,0.2,2,0.5c0.6,0.3,1.1,0.8,1.4,1.3C9.1,9,9.4,9.7,9.6,10.6
		c0.2,0.8,0.3,2,0.3,3.4c0,1.7-0.2,3-0.5,4.1c-0.3,1-0.9,1.8-1.5,2.4c-0.7,0.6-1.5,0.9-2.6,0.9c-1.4,0-2.5-0.5-3.3-1.5
		C1,18.6,0.6,16.6,0.6,13.9z M2.4,13.9c0,2.4,0.3,3.9,0.8,4.7c0.5,0.8,1.2,1.2,2,1.2c0.8,0,1.5-0.4,2-1.2c0.6-0.8,0.8-2.3,0.8-4.7
		c0-2.4-0.3-3.9-0.8-4.7C6.7,8.5,6,8.1,5.2,8.1c-0.8,0-1.5,0.3-1.9,1C2.7,10,2.4,11.6,2.4,13.9z M11.7,13.9c0-1.7,0.2-3,0.5-4.1
		c0.3-1,0.9-1.8,1.6-2.4c0.7-0.6,1.6-0.8,2.6-0.8c0.8,0,1.4,0.2,2,0.5c0.6,0.3,1.1,0.8,1.4,1.3c0.4,0.6,0.7,1.3,0.9,2.1
		c0.2,0.8,0.3,2,0.3,3.4c0,1.7-0.2,3-0.5,4.1c-0.3,1-0.9,1.8-1.5,2.4c-0.7,0.6-1.5,0.9-2.6,0.9c-1.4,0-2.5-0.5-3.3-1.5
		C12.2,18.6,11.7,16.6,11.7,13.9z M13.5,13.9c0,2.4,0.3,3.9,0.8,4.7c0.5,0.8,1.2,1.2,2,1.2c0.8,0,1.5-0.4,2-1.2s0.8-2.3,0.8-4.7
		c0-2.4-0.3-3.9-0.8-4.7c-0.6-0.8-1.2-1.2-2-1.2c-0.8,0-1.5,0.3-1.9,1C13.8,10,13.5,11.6,13.5,13.9z"/>
</g>
<g transform="translate(362.5002,496.3)">
	<path d="M-146,17.9l2-0.2c0.1,0.8,0.3,1.4,0.6,1.9c0.3,0.5,0.9,0.9,1.6,1.2s1.5,0.5,2.4,0.5c0.8,0,1.5-0.1,2.1-0.4
		c0.6-0.2,1.1-0.6,1.4-1c0.3-0.4,0.4-0.9,0.4-1.4c0-0.5-0.1-0.9-0.4-1.3c-0.3-0.4-0.8-0.7-1.4-0.9c-0.4-0.2-1.4-0.4-2.8-0.8
		c-1.4-0.3-2.5-0.7-3-1c-0.8-0.4-1.3-0.9-1.7-1.5c-0.4-0.6-0.6-1.2-0.6-2c0-0.8,0.2-1.5,0.7-2.2c0.4-0.7,1.1-1.2,2-1.6
		c0.9-0.4,1.8-0.5,2.9-0.5c1.2,0,2.2,0.2,3.1,0.6c0.9,0.4,1.6,0.9,2.1,1.7c0.5,0.7,0.7,1.6,0.8,2.5l-2,0.2c-0.1-1-0.5-1.8-1.1-2.3
		c-0.6-0.5-1.5-0.8-2.7-0.8c-1.3,0-2.2,0.2-2.8,0.7c-0.6,0.5-0.9,1-0.9,1.7c0,0.6,0.2,1,0.6,1.4c0.4,0.4,1.4,0.7,3.1,1.1
		c1.7,0.4,2.9,0.7,3.5,1c0.9,0.4,1.6,1,2,1.6s0.7,1.4,0.7,2.2c0,0.8-0.2,1.6-0.7,2.4c-0.5,0.7-1.2,1.3-2.1,1.7
		c-0.9,0.4-1.9,0.6-3,0.6c-1.4,0-2.6-0.2-3.6-0.6c-1-0.4-1.7-1-2.3-1.9C-145.7,19.9-146,19-146,17.9z M-130.9,27.4V11.6h1.8v1.5
		c0.4-0.6,0.9-1,1.4-1.3c0.5-0.3,1.2-0.4,1.9-0.4c1,0,1.8,0.3,2.6,0.8c0.7,0.5,1.3,1.2,1.7,2.1c0.4,0.9,0.6,1.9,0.6,3
		c0,1.2-0.2,2.2-0.6,3.2c-0.4,0.9-1,1.7-1.8,2.2c-0.8,0.5-1.6,0.8-2.5,0.8c-0.6,0-1.2-0.1-1.7-0.4c-0.5-0.3-0.9-0.6-1.3-1v5.6
		H-130.9z M-129.1,17.4c0,1.5,0.3,2.6,0.9,3.3c0.6,0.7,1.3,1.1,2.2,1.1c0.9,0,1.6-0.4,2.2-1.1c0.6-0.7,0.9-1.9,0.9-3.4
		c0-1.5-0.3-2.5-0.9-3.3c-0.6-0.7-1.3-1.1-2.1-1.1c-0.8,0-1.6,0.4-2.2,1.2C-128.8,14.8-129.1,15.9-129.1,17.4z M-118.6,9.5V7.2h1.9
		v2.2H-118.6z M-118.6,23V11.6h1.9V23H-118.6z M-113.7,23V7.2h1.9v9l4.6-4.6h2.5l-4.4,4.2l4.8,7.2h-2.4l-3.8-5.8l-1.4,1.3V23H-113.7
		z M-94.9,19.3l2,0.3c-0.3,1.2-0.9,2.1-1.8,2.7c-0.8,0.6-1.9,1-3.3,1c-1.7,0-3-0.5-4-1.5c-1-1-1.5-2.5-1.5-4.3
		c0-1.9,0.5-3.4,1.5-4.5c1-1.1,2.3-1.6,3.9-1.6c1.5,0,2.8,0.5,3.7,1.6s1.5,2.5,1.5,4.4c0,0.1,0,0.3,0,0.5h-8.5
		c0.1,1.3,0.4,2.2,1.1,2.9c0.6,0.7,1.4,1,2.4,1c0.7,0,1.3-0.2,1.8-0.6S-95.2,20.1-94.9,19.3z M-101.3,16.2h6.4
		c-0.1-1-0.3-1.7-0.7-2.2c-0.6-0.7-1.4-1.1-2.4-1.1c-0.9,0-1.6,0.3-2.2,0.9C-100.9,14.4-101.2,15.2-101.3,16.2z M-84.4,9.5V7.2h1.9
		v2.2H-84.4z M-84.4,23V11.6h1.9V23H-84.4z M-79.5,23V11.6h1.7v1.6c0.8-1.3,2.1-1.9,3.6-1.9c0.7,0,1.3,0.1,1.9,0.4
		c0.6,0.2,1,0.6,1.3,1c0.3,0.4,0.5,0.9,0.6,1.4c0.1,0.4,0.1,1,0.1,1.9v7h-1.9v-6.9c0-0.8-0.1-1.4-0.2-1.8c-0.1-0.4-0.4-0.7-0.8-0.9
		c-0.4-0.2-0.8-0.3-1.4-0.3c-0.8,0-1.5,0.3-2.1,0.8c-0.6,0.5-0.9,1.5-0.9,3V23H-79.5z M-63.1,21.3l0.3,1.7c-0.5,0.1-1,0.2-1.5,0.2
		c-0.7,0-1.2-0.1-1.6-0.3c-0.4-0.2-0.7-0.5-0.8-0.9c-0.2-0.4-0.2-1.1-0.2-2.3v-6.6h-1.4v-1.5h1.4V8.8l1.9-1.2v4h1.9v1.5H-65v6.7
		c0,0.6,0,0.9,0.1,1.1c0.1,0.2,0.2,0.3,0.3,0.4c0.2,0.1,0.4,0.1,0.7,0.1C-63.7,21.3-63.4,21.3-63.1,21.3z M-53.4,19.3l2,0.3
		c-0.3,1.2-0.9,2.1-1.8,2.7c-0.8,0.6-1.9,1-3.3,1c-1.7,0-3-0.5-4-1.5c-1-1-1.5-2.5-1.5-4.3c0-1.9,0.5-3.4,1.5-4.5
		c1-1.1,2.3-1.6,3.9-1.6c1.5,0,2.8,0.5,3.7,1.6c1,1,1.5,2.5,1.5,4.4c0,0.1,0,0.3,0,0.5h-8.5c0.1,1.3,0.4,2.2,1.1,2.9
		c0.6,0.7,1.4,1,2.4,1c0.7,0,1.3-0.2,1.8-0.6S-53.7,20.1-53.4,19.3z M-59.7,16.2h6.4c-0.1-1-0.3-1.7-0.7-2.2
		c-0.6-0.7-1.4-1.1-2.4-1.1c-0.9,0-1.6,0.3-2.2,0.9C-59.3,14.4-59.6,15.2-59.7,16.2z M-49.3,24l1.9,0.3c0.1,0.6,0.3,1,0.7,1.3
		c0.5,0.4,1.1,0.5,2,0.5c0.9,0,1.6-0.2,2.1-0.5c0.5-0.4,0.8-0.9,1-1.5c0.1-0.4,0.2-1.2,0.1-2.5c-0.8,1-1.9,1.5-3.2,1.5
		c-1.6,0-2.8-0.6-3.6-1.7c-0.9-1.1-1.3-2.5-1.3-4.1c0-1.1,0.2-2.1,0.6-3c0.4-0.9,1-1.6,1.7-2.1c0.8-0.5,1.6-0.8,2.6-0.8
		c1.3,0,2.5,0.5,3.3,1.6v-1.4h1.8v9.9c0,1.8-0.2,3-0.5,3.8c-0.4,0.7-0.9,1.3-1.7,1.8c-0.8,0.4-1.7,0.6-2.9,0.6
		c-1.4,0-2.5-0.3-3.3-0.9C-48.9,26.1-49.3,25.2-49.3,24z M-47.7,17.1c0,1.5,0.3,2.6,0.9,3.3s1.3,1,2.2,1c0.9,0,1.6-0.3,2.2-1
		c0.6-0.7,0.9-1.8,0.9-3.2c0-1.4-0.3-2.4-0.9-3.2c-0.6-0.7-1.4-1.1-2.2-1.1s-1.6,0.3-2.2,1C-47.4,14.7-47.7,15.7-47.7,17.1z
		 M-36.7,23V11.6h1.8v1.7c0.4-0.8,0.8-1.3,1.2-1.6c0.4-0.3,0.8-0.4,1.2-0.4c0.7,0,1.3,0.2,2,0.6l-0.7,1.8c-0.5-0.3-1-0.4-1.4-0.4
		c-0.4,0-0.8,0.1-1.1,0.4c-0.3,0.3-0.6,0.6-0.7,1.1c-0.2,0.7-0.3,1.4-0.3,2.3v6H-36.7z M-21.9,21.6c-0.7,0.6-1.4,1-2.1,1.3
		c-0.7,0.3-1.4,0.4-2.1,0.4c-1.3,0-2.2-0.3-2.9-0.9c-0.7-0.6-1-1.4-1-2.4c0-0.6,0.1-1.1,0.4-1.5c0.3-0.5,0.6-0.8,1-1.1
		c0.4-0.3,0.9-0.5,1.4-0.6c0.4-0.1,1-0.2,1.7-0.3c1.6-0.2,2.7-0.4,3.5-0.7c0-0.3,0-0.4,0-0.5c0-0.8-0.2-1.3-0.5-1.7
		c-0.5-0.4-1.2-0.7-2.2-0.7c-0.9,0-1.6,0.2-2,0.5c-0.4,0.3-0.8,0.9-1,1.7l-1.9-0.3c0.2-0.8,0.5-1.5,0.9-2c0.4-0.5,1-0.9,1.7-1.1
		c0.7-0.3,1.6-0.4,2.6-0.4c1,0,1.8,0.1,2.4,0.3c0.6,0.2,1.1,0.5,1.3,0.9c0.3,0.3,0.5,0.8,0.6,1.3c0.1,0.3,0.1,0.9,0.1,1.8v2.6
		c0,1.8,0,2.9,0.1,3.4c0.1,0.5,0.2,0.9,0.5,1.4h-2C-21.7,22.6-21.9,22.1-21.9,21.6z M-22.1,17.3c-0.7,0.3-1.7,0.5-3.2,0.7
		c-0.8,0.1-1.4,0.2-1.7,0.4c-0.3,0.1-0.6,0.4-0.8,0.6c-0.2,0.3-0.3,0.6-0.3,0.9c0,0.5,0.2,1,0.6,1.3c0.4,0.3,1,0.5,1.7,0.5
		s1.4-0.2,2-0.5s1-0.8,1.3-1.3c0.2-0.4,0.3-1.1,0.3-1.9V17.3z M-12.9,21.3l0.3,1.7c-0.5,0.1-1,0.2-1.5,0.2c-0.7,0-1.2-0.1-1.6-0.3
		c-0.4-0.2-0.7-0.5-0.8-0.9c-0.2-0.4-0.2-1.1-0.2-2.3v-6.6h-1.4v-1.5h1.4V8.8l1.9-1.2v4h1.9v1.5h-1.9v6.7c0,0.6,0,0.9,0.1,1.1
		c0.1,0.2,0.2,0.3,0.3,0.4c0.2,0.1,0.4,0.1,0.7,0.1C-13.6,21.3-13.3,21.3-12.9,21.3z M-11,9.5V7.2h1.9v2.2H-11z M-11,23V11.6h1.9V23
		H-11z M-6.9,17.3c0-2.1,0.6-3.7,1.8-4.7c1-0.8,2.2-1.3,3.6-1.3c1.6,0,2.9,0.5,3.9,1.5s1.5,2.5,1.5,4.3c0,1.5-0.2,2.6-0.7,3.5
		c-0.4,0.8-1.1,1.5-1.9,2c-0.8,0.5-1.8,0.7-2.8,0.7c-1.6,0-2.9-0.5-3.9-1.5C-6.4,20.7-6.9,19.2-6.9,17.3z M-4.9,17.3
		c0,1.5,0.3,2.6,1,3.3c0.6,0.7,1.4,1.1,2.4,1.1c1,0,1.8-0.4,2.4-1.1c0.6-0.7,1-1.8,1-3.3c0-1.4-0.3-2.5-1-3.2
		c-0.6-0.7-1.4-1.1-2.4-1.1c-1,0-1.8,0.4-2.4,1.1C-4.6,14.7-4.9,15.8-4.9,17.3z M6.1,23V11.6h1.7v1.6c0.8-1.3,2.1-1.9,3.6-1.9
		c0.7,0,1.3,0.1,1.9,0.4c0.6,0.2,1,0.6,1.3,1c0.3,0.4,0.5,0.9,0.6,1.4c0.1,0.4,0.1,1,0.1,1.9v7h-1.9v-6.9c0-0.8-0.1-1.4-0.2-1.8
		c-0.1-0.4-0.4-0.7-0.8-0.9C12,13.1,11.6,13,11.1,13c-0.8,0-1.5,0.3-2.1,0.8c-0.6,0.5-0.9,1.5-0.9,3V23H6.1z M26.6,23l-3.5-11.4h2
		l1.8,6.6l0.7,2.5c0-0.1,0.2-0.9,0.6-2.4l1.8-6.7h2l1.7,6.6l0.6,2.2l0.7-2.2l2-6.6h1.9L35.2,23h-2l-1.8-6.8l-0.4-2L28.6,23H26.6z
		 M40.4,9.5V7.2h1.9v2.2H40.4z M40.4,23V11.6h1.9V23H40.4z M45.2,23V11.6H47v1.6c0.8-1.3,2.1-1.9,3.6-1.9c0.7,0,1.3,0.1,1.9,0.4
		c0.6,0.2,1,0.6,1.3,1c0.3,0.4,0.5,0.9,0.6,1.4c0.1,0.4,0.1,1,0.1,1.9v7h-1.9v-6.9c0-0.8-0.1-1.4-0.2-1.8c-0.1-0.4-0.4-0.7-0.8-0.9
		c-0.4-0.2-0.8-0.3-1.4-0.3c-0.8,0-1.5,0.3-2.1,0.8c-0.6,0.5-0.9,1.5-0.9,3V23H45.2z M64.9,23v-1.4c-0.7,1.1-1.8,1.7-3.2,1.7
		c-0.9,0-1.7-0.3-2.5-0.8c-0.8-0.5-1.4-1.2-1.8-2.1c-0.4-0.9-0.6-1.9-0.6-3.1c0-1.1,0.2-2.2,0.6-3.1c0.4-0.9,1-1.6,1.7-2.1
		c0.8-0.5,1.6-0.7,2.5-0.7c0.7,0,1.3,0.1,1.8,0.4c0.5,0.3,1,0.7,1.3,1.1V7.2h1.9V23H64.9z M58.7,17.3c0,1.5,0.3,2.5,0.9,3.3
		c0.6,0.7,1.3,1.1,2.2,1.1c0.8,0,1.6-0.3,2.2-1c0.6-0.7,0.9-1.7,0.9-3.2c0-1.6-0.3-2.7-0.9-3.4c-0.6-0.7-1.3-1.1-2.2-1.1
		c-0.9,0-1.6,0.4-2.2,1.1C59,14.7,58.7,15.8,58.7,17.3z M69,17.3c0-2.1,0.6-3.7,1.8-4.7c1-0.8,2.2-1.3,3.6-1.3
		c1.6,0,2.9,0.5,3.9,1.5c1,1,1.5,2.5,1.5,4.3c0,1.5-0.2,2.6-0.7,3.5c-0.4,0.8-1.1,1.5-1.9,2c-0.8,0.5-1.8,0.7-2.8,0.7
		c-1.6,0-2.9-0.5-3.9-1.5C69.5,20.7,69,19.2,69,17.3z M71,17.3c0,1.5,0.3,2.6,1,3.3c0.6,0.7,1.4,1.1,2.4,1.1c1,0,1.8-0.4,2.4-1.1
		c0.6-0.7,1-1.8,1-3.3c0-1.4-0.3-2.5-1-3.2c-0.6-0.7-1.4-1.1-2.4-1.1c-1,0-1.8,0.4-2.4,1.1C71.3,14.7,71,15.8,71,17.3z M84,23
		l-3.5-11.4h2l1.8,6.6l0.7,2.5c0-0.1,0.2-0.9,0.6-2.4l1.8-6.7h2l1.7,6.6l0.6,2.2l0.7-2.2l2-6.6h1.9L92.6,23h-2l-1.8-6.8l-0.4-2
		L86.1,23H84z M107.6,27.6c-1.1-1.3-2-2.9-2.7-4.7c-0.7-1.8-1.1-3.7-1.1-5.6c0-1.7,0.3-3.3,0.8-4.9c0.6-1.8,1.6-3.6,3-5.4h1.4
		c-0.9,1.5-1.4,2.6-1.7,3.2c-0.4,1-0.8,2-1,3.1c-0.3,1.3-0.5,2.7-0.5,4c0,3.4,1.1,6.9,3.2,10.3H107.6z M111.3,23V11.6h1.7v1.6
		c0.4-0.6,0.8-1,1.4-1.3c0.6-0.3,1.3-0.5,2-0.5c0.8,0,1.5,0.2,2.1,0.5c0.5,0.4,0.9,0.8,1.1,1.5c0.9-1.3,2.1-2,3.5-2
		c1.1,0,2,0.3,2.6,0.9c0.6,0.6,0.9,1.6,0.9,2.9V23h-1.9v-7.2c0-0.8-0.1-1.3-0.2-1.7c-0.1-0.3-0.4-0.6-0.7-0.8
		c-0.3-0.2-0.7-0.3-1.2-0.3c-0.8,0-1.5,0.3-2,0.8c-0.5,0.5-0.8,1.4-0.8,2.6V23H118v-7.4c0-0.9-0.2-1.5-0.5-1.9
		c-0.3-0.4-0.8-0.6-1.6-0.6c-0.5,0-1,0.1-1.5,0.4c-0.5,0.3-0.8,0.7-1,1.3c-0.2,0.5-0.3,1.3-0.3,2.4V23H111.3z M128.8,19.6l1.9-0.3
		c0.1,0.8,0.4,1.3,0.9,1.8c0.5,0.4,1.2,0.6,2.1,0.6c0.9,0,1.5-0.2,2-0.5c0.4-0.4,0.6-0.8,0.6-1.3c0-0.4-0.2-0.8-0.6-1
		c-0.3-0.2-0.9-0.4-2-0.7c-1.4-0.4-2.4-0.7-3-0.9c-0.5-0.3-1-0.6-1.2-1.1c-0.3-0.5-0.4-1-0.4-1.5c0-0.5,0.1-1,0.4-1.4
		c0.2-0.4,0.5-0.8,0.9-1.1c0.3-0.2,0.7-0.4,1.2-0.6c0.5-0.2,1.1-0.2,1.7-0.2c0.9,0,1.7,0.1,2.4,0.4c0.7,0.3,1.2,0.6,1.5,1
		c0.3,0.4,0.5,1,0.7,1.8l-1.9,0.3c-0.1-0.6-0.3-1.1-0.7-1.4c-0.4-0.3-1-0.5-1.7-0.5c-0.9,0-1.5,0.1-1.9,0.4c-0.4,0.3-0.6,0.6-0.6,1
		c0,0.2,0.1,0.5,0.2,0.7c0.2,0.2,0.4,0.4,0.7,0.5c0.2,0.1,0.8,0.2,1.7,0.5c1.4,0.4,2.3,0.7,2.9,0.9c0.5,0.2,1,0.6,1.3,1
		c0.3,0.4,0.5,1,0.5,1.6c0,0.6-0.2,1.3-0.6,1.8c-0.4,0.6-0.9,1-1.6,1.3c-0.7,0.3-1.5,0.5-2.4,0.5c-1.5,0-2.6-0.3-3.4-0.9
		C129.5,21.7,129,20.8,128.8,19.6z M141.8,27.6h-1.4c2.1-3.4,3.2-6.9,3.2-10.3c0-1.4-0.2-2.7-0.5-4c-0.2-1.1-0.6-2.1-1-3.1
		c-0.3-0.6-0.9-1.7-1.7-3.2h1.4c1.3,1.8,2.3,3.6,3,5.4c0.6,1.6,0.8,3.2,0.8,4.9c0,1.9-0.4,3.8-1.1,5.6
		C143.8,24.7,142.9,26.3,141.8,27.6z"/>
</g>
<g>
	<line class="st4" x1="156" y1="452" x2="156" y2="39"/>
	<line class="st4" x1="156" y1="433.2" x2="145.7" y2="433.2"/>
	<line class="st4" x1="156" y1="339.4" x2="145.7" y2="339.4"/>
	<line class="st4" x1="156" y1="245.5" x2="145.7" y2="245.5"/>
	<line class="st4" x1="156" y1="151.6" x2="145.7" y2="151.6"/>
	<line class="st4" x1="156" y1="57.8" x2="145.7" y2="57.8"/>
</g>
<g transform="translate(138.3667,433.2273)">
	<path d="M-11.2,0.9c0-1.7,0.2-3,0.5-4.1c0.3-1,0.9-1.8,1.6-2.4c0.7-0.6,1.6-0.8,2.6-0.8c0.8,0,1.4,0.2,2,0.5
		C-3.9-5.6-3.4-5.2-3-4.6s0.7,1.3,0.9,2.1c0.2,0.8,0.3,2,0.3,3.4C-1.8,2.6-2,4-2.4,5c-0.3,1-0.9,1.8-1.5,2.4C-4.6,8-5.4,8.2-6.5,8.2
		c-1.4,0-2.5-0.5-3.3-1.5C-10.7,5.6-11.2,3.6-11.2,0.9z M-9.4,0.9c0,2.4,0.3,3.9,0.8,4.7c0.5,0.8,1.2,1.2,2,1.2c0.8,0,1.5-0.4,2-1.2
		c0.6-0.8,0.8-2.3,0.8-4.7c0-2.4-0.3-3.9-0.8-4.7c-0.6-0.8-1.2-1.2-2-1.2c-0.8,0-1.5,0.3-1.9,1C-9.1-3-9.4-1.4-9.4,0.9z"/>
</g>
<g transform="translate(138.3667,57.7727)">
	<path d="M-4.5,8h-1.8V-3.2C-6.7-2.8-7.3-2.4-8-2c-0.7,0.4-1.3,0.7-1.9,0.9v-1.7c1-0.5,1.9-1,2.6-1.7C-6.5-5.1-6-5.8-5.7-6.4h1.1V8z
		"/>
</g>
<g transform="translate(121.8667,245.4998) rotate(-90)">
	<path d="M-81.3-5v-15.8h5.9c1,0,1.8,0.1,2.4,0.2c0.8,0.1,1.4,0.4,1.9,0.7c0.5,0.4,0.9,0.9,1.3,1.5c0.3,0.7,0.5,1.4,0.5,2.1
		c0,1.3-0.4,2.5-1.3,3.4c-0.9,0.9-2.4,1.4-4.6,1.4h-4V-5H-81.3z M-79.2-13.3h4.1c1.3,0,2.3-0.2,2.9-0.8c0.6-0.5,0.8-1.2,0.8-2.1
		c0-0.7-0.2-1.2-0.5-1.7c-0.3-0.5-0.8-0.8-1.3-0.9c-0.3-0.1-1-0.1-1.9-0.1h-4V-13.3z M-63.2-0.4c-1.1-1.3-2-2.9-2.7-4.7
		c-0.7-1.8-1.1-3.7-1.1-5.6c0-1.7,0.3-3.3,0.8-4.9c0.6-1.8,1.6-3.6,3-5.4h1.4c-0.9,1.5-1.4,2.6-1.7,3.2c-0.4,1-0.8,2-1,3.1
		c-0.3,1.3-0.5,2.7-0.5,4c0,3.4,1.1,6.9,3.2,10.3H-63.2z M-59.1-5v-9.9h-1.7v-1.5h1.7v-1.2c0-0.8,0.1-1.3,0.2-1.7
		c0.2-0.5,0.5-0.9,1-1.2c0.5-0.3,1.1-0.5,2-0.5c0.5,0,1.1,0.1,1.8,0.2l-0.3,1.7c-0.4-0.1-0.8-0.1-1.1-0.1c-0.6,0-1,0.1-1.3,0.4
		c-0.2,0.3-0.4,0.7-0.4,1.4v1.1h2.2v1.5h-2.2V-5H-59.1z M-46-6.4c-0.7,0.6-1.4,1-2.1,1.3s-1.4,0.4-2.1,0.4c-1.3,0-2.2-0.3-2.9-0.9
		c-0.7-0.6-1-1.4-1-2.4c0-0.6,0.1-1.1,0.4-1.5s0.6-0.8,1-1.1c0.4-0.3,0.9-0.5,1.4-0.6c0.4-0.1,1-0.2,1.7-0.3
		c1.6-0.2,2.7-0.4,3.5-0.7c0-0.3,0-0.4,0-0.5c0-0.8-0.2-1.3-0.5-1.7c-0.5-0.4-1.2-0.7-2.2-0.7c-0.9,0-1.6,0.2-2,0.5
		c-0.4,0.3-0.8,0.9-1,1.7l-1.9-0.3c0.2-0.8,0.5-1.5,0.9-2c0.4-0.5,1-0.9,1.7-1.1c0.7-0.3,1.6-0.4,2.6-0.4c1,0,1.8,0.1,2.4,0.3
		c0.6,0.2,1.1,0.5,1.3,0.9c0.3,0.3,0.5,0.8,0.6,1.3c0.1,0.3,0.1,0.9,0.1,1.8v2.6c0,1.8,0,2.9,0.1,3.4c0.1,0.5,0.2,0.9,0.5,1.4h-2
		C-45.8-5.4-45.9-5.9-46-6.4z M-46.2-10.7c-0.7,0.3-1.8,0.5-3.2,0.7c-0.8,0.1-1.4,0.2-1.7,0.4c-0.3,0.1-0.6,0.4-0.8,0.6
		C-51.9-8.7-52-8.4-52-8.1c0,0.5,0.2,1,0.6,1.3c0.4,0.3,1,0.5,1.7,0.5s1.4-0.2,2-0.5c0.6-0.3,1-0.8,1.3-1.3c0.2-0.4,0.3-1.1,0.3-1.9
		V-10.7z M-41.2-5v-15.8h1.9V-5H-41.2z M-37.1-8.4l1.9-0.3c0.1,0.8,0.4,1.3,0.9,1.8c0.5,0.4,1.2,0.6,2.1,0.6c0.9,0,1.5-0.2,2-0.5
		c0.4-0.4,0.6-0.8,0.6-1.3c0-0.4-0.2-0.8-0.6-1c-0.3-0.2-0.9-0.4-2-0.7c-1.4-0.4-2.4-0.7-3-0.9c-0.5-0.3-1-0.6-1.2-1.1
		c-0.3-0.5-0.4-1-0.4-1.5c0-0.5,0.1-1,0.4-1.4c0.2-0.4,0.5-0.8,0.9-1.1c0.3-0.2,0.7-0.4,1.2-0.6c0.5-0.2,1.1-0.2,1.7-0.2
		c0.9,0,1.7,0.1,2.4,0.4c0.7,0.3,1.2,0.6,1.5,1c0.3,0.4,0.5,1,0.7,1.8l-1.9,0.3c-0.1-0.6-0.3-1.1-0.7-1.4c-0.4-0.3-1-0.5-1.7-0.5
		c-0.9,0-1.5,0.1-1.9,0.4c-0.4,0.3-0.6,0.6-0.6,1c0,0.2,0.1,0.5,0.2,0.7c0.2,0.2,0.4,0.4,0.7,0.5c0.2,0.1,0.8,0.2,1.7,0.5
		c1.4,0.4,2.3,0.7,2.9,0.9c0.5,0.2,1,0.6,1.3,1c0.3,0.4,0.5,1,0.5,1.6c0,0.6-0.2,1.3-0.6,1.8c-0.4,0.6-0.9,1-1.6,1.3
		c-0.7,0.3-1.5,0.5-2.4,0.5c-1.5,0-2.6-0.3-3.4-0.9C-36.4-6.3-36.9-7.2-37.1-8.4z M-17.5-8.7l2,0.3c-0.3,1.2-0.9,2.1-1.8,2.7
		c-0.8,0.6-1.9,1-3.3,1c-1.7,0-3-0.5-4-1.5c-1-1-1.5-2.5-1.5-4.3c0-1.9,0.5-3.4,1.5-4.5c1-1.1,2.3-1.6,3.9-1.6
		c1.5,0,2.8,0.5,3.7,1.6c1,1,1.5,2.5,1.5,4.4c0,0.1,0,0.3,0,0.5H-24c0.1,1.3,0.4,2.2,1.1,2.9c0.6,0.7,1.4,1,2.4,1
		c0.7,0,1.3-0.2,1.8-0.6S-17.8-7.9-17.5-8.7z M-23.9-11.8h6.4c-0.1-1-0.3-1.7-0.7-2.2c-0.6-0.7-1.4-1.1-2.4-1.1
		c-0.9,0-1.6,0.3-2.2,0.9C-23.4-13.6-23.8-12.8-23.9-11.8z M-7-5v-11.4h1.7v1.6c0.8-1.3,2.1-1.9,3.6-1.9c0.7,0,1.3,0.1,1.9,0.4
		c0.6,0.3,1,0.6,1.3,1c0.3,0.4,0.5,0.9,0.6,1.4c0.1,0.4,0.1,1,0.1,1.9v7H0.4v-6.9c0-0.8-0.1-1.4-0.2-1.8c-0.1-0.4-0.4-0.7-0.8-0.9
		C-1-14.9-1.5-15-2-15c-0.8,0-1.5,0.3-2.1,0.8c-0.6,0.5-0.9,1.5-0.9,3V-5H-7z M13.1-8.7l2,0.3c-0.3,1.2-0.9,2.1-1.8,2.7
		c-0.8,0.6-1.9,1-3.3,1c-1.7,0-3-0.5-4-1.5c-1-1-1.5-2.5-1.5-4.3c0-1.9,0.5-3.4,1.5-4.5c1-1.1,2.3-1.6,3.9-1.6
		c1.5,0,2.8,0.5,3.7,1.6c1,1,1.5,2.5,1.5,4.4c0,0.1,0,0.3,0,0.5H6.6C6.7-9,7-8,7.7-7.3c0.6,0.7,1.4,1,2.4,1c0.7,0,1.3-0.2,1.8-0.6
		S12.8-7.9,13.1-8.7z M6.7-11.8h6.4c-0.1-1-0.3-1.7-0.7-2.2c-0.6-0.7-1.4-1.1-2.4-1.1c-0.9,0-1.6,0.3-2.2,0.9
		C7.1-13.6,6.8-12.8,6.7-11.8z M17.1-4L19-3.8c0.1,0.6,0.3,1,0.7,1.3c0.5,0.4,1.1,0.5,2,0.5c0.9,0,1.6-0.2,2.1-0.5
		c0.5-0.4,0.8-0.9,1-1.5c0.1-0.4,0.2-1.2,0.1-2.5C24-5.5,23-5,21.7-5c-1.6,0-2.8-0.6-3.6-1.7c-0.9-1.1-1.3-2.5-1.3-4.1
		c0-1.1,0.2-2.1,0.6-3c0.4-0.9,1-1.6,1.7-2.1c0.8-0.5,1.6-0.8,2.6-0.8c1.3,0,2.5,0.5,3.3,1.6v-1.4h1.8v9.9c0,1.8-0.2,3-0.5,3.8
		C25.9-2,25.3-1.4,24.6-1s-1.7,0.6-2.9,0.6c-1.4,0-2.5-0.3-3.3-0.9C17.5-1.9,17.1-2.8,17.1-4z M18.8-10.9c0,1.5,0.3,2.6,0.9,3.3
		c0.6,0.7,1.3,1,2.2,1c0.9,0,1.6-0.3,2.2-1S25-9.4,25-10.8c0-1.4-0.3-2.4-0.9-3.2c-0.6-0.7-1.4-1.1-2.2-1.1c-0.9,0-1.6,0.3-2.2,1
		C19.1-13.3,18.8-12.3,18.8-10.9z M37.2-6.4c-0.7,0.6-1.4,1-2.1,1.3c-0.7,0.3-1.4,0.4-2.1,0.4c-1.2,0-2.2-0.3-2.9-0.9
		c-0.7-0.6-1-1.4-1-2.4c0-0.6,0.1-1.1,0.4-1.5c0.3-0.5,0.6-0.8,1-1.1c0.4-0.3,0.9-0.5,1.4-0.6c0.4-0.1,1-0.2,1.7-0.3
		c1.6-0.2,2.7-0.4,3.5-0.7c0-0.3,0-0.4,0-0.5c0-0.8-0.2-1.3-0.5-1.7c-0.5-0.4-1.2-0.7-2.2-0.7c-0.9,0-1.6,0.2-2,0.5
		c-0.4,0.3-0.8,0.9-1,1.7l-1.9-0.3c0.2-0.8,0.5-1.5,0.9-2c0.4-0.5,1-0.9,1.7-1.1c0.7-0.3,1.6-0.4,2.6-0.4c1,0,1.8,0.1,2.4,0.3
		c0.6,0.2,1.1,0.5,1.3,0.9c0.3,0.3,0.5,0.8,0.6,1.3c0.1,0.3,0.1,0.9,0.1,1.8v2.6c0,1.8,0,2.9,0.1,3.4c0.1,0.5,0.2,0.9,0.5,1.4h-2
		C37.4-5.4,37.2-5.9,37.2-6.4z M37-10.7c-0.7,0.3-1.7,0.5-3.2,0.7c-0.8,0.1-1.4,0.2-1.7,0.4c-0.3,0.1-0.6,0.4-0.8,0.6
		c-0.2,0.3-0.3,0.6-0.3,0.9c0,0.5,0.2,1,0.6,1.3c0.4,0.3,1,0.5,1.7,0.5s1.4-0.2,2-0.5c0.6-0.3,1-0.8,1.3-1.3C36.9-8.5,37-9.2,37-10
		V-10.7z M46.2-6.7L46.5-5c-0.5,0.1-1,0.2-1.5,0.2c-0.7,0-1.2-0.1-1.6-0.3c-0.4-0.2-0.7-0.5-0.8-0.9s-0.2-1.1-0.2-2.3v-6.6h-1.4
		v-1.5h1.4v-2.8l1.9-1.2v4h1.9v1.5h-1.9v6.7c0,0.6,0,0.9,0.1,1.1c0.1,0.2,0.2,0.3,0.3,0.4c0.2,0.1,0.4,0.1,0.7,0.1
		C45.6-6.7,45.8-6.7,46.2-6.7z M48.1-18.5v-2.2H50v2.2H48.1z M48.1-5v-11.4H50V-5H48.1z M56.1-5l-4.3-11.4h2l2.4,6.8
		c0.3,0.7,0.5,1.5,0.7,2.3c0.2-0.6,0.4-1.3,0.7-2.2l2.5-7h2L57.9-5H56.1z M71.8-8.7l2,0.3c-0.3,1.2-0.9,2.1-1.8,2.7
		c-0.8,0.6-1.9,1-3.3,1c-1.7,0-3-0.5-4-1.5c-1-1-1.5-2.5-1.5-4.3c0-1.9,0.5-3.4,1.5-4.5c1-1.1,2.3-1.6,3.9-1.6
		c1.5,0,2.8,0.5,3.7,1.6c1,1,1.5,2.5,1.5,4.4c0,0.1,0,0.3,0,0.5h-8.5C65.4-9,65.8-8,66.4-7.3s1.4,1,2.4,1c0.7,0,1.3-0.2,1.8-0.6
		S71.5-7.9,71.8-8.7z M65.4-11.8h6.4c-0.1-1-0.3-1.7-0.7-2.2c-0.6-0.7-1.4-1.1-2.4-1.1c-0.9,0-1.6,0.3-2.2,0.9
		C65.8-13.6,65.5-12.8,65.4-11.8z M77.5-0.4h-1.4c2.1-3.4,3.2-6.9,3.2-10.3c0-1.4-0.2-2.7-0.5-4c-0.2-1.1-0.6-2.1-1-3.1
		c-0.3-0.6-0.9-1.7-1.7-3.2h1.4c1.3,1.8,2.3,3.6,3,5.4c0.6,1.6,0.8,3.2,0.8,4.9c0,1.9-0.4,3.8-1.1,5.6C79.4-3.3,78.5-1.7,77.5-0.4z"
		/>
</g>
<g transform="translate(435.8326,400.1017)">
	<path d="M1.4,7.5V-5.4h4.9c0.9,0,1.5,0,2,0.1C8.8-5.2,9.4-5,9.8-4.7c0.4,0.3,0.8,0.7,1,1.3c0.3,0.5,0.4,1.1,0.4,1.8
		c0,1.1-0.3,2-1,2.8c-0.7,0.8-2,1.1-3.8,1.1H3.1v5.2H1.4z M3.1,0.7h3.3c1.1,0,1.9-0.2,2.4-0.6c0.5-0.4,0.7-1,0.7-1.7
		c0-0.5-0.1-1-0.4-1.4S8.4-3.6,8-3.8C7.7-3.8,7.2-3.9,6.4-3.9H3.1V0.7z M12.6,2.8c0-1.7,0.5-3,1.5-3.8c0.8-0.7,1.8-1,2.9-1
		c1.3,0,2.3,0.4,3.2,1.3c0.8,0.8,1.2,2,1.2,3.5c0,1.2-0.2,2.1-0.5,2.8c-0.4,0.7-0.9,1.2-1.6,1.6c-0.7,0.4-1.4,0.6-2.3,0.6
		c-1.3,0-2.4-0.4-3.2-1.3C13,5.6,12.6,4.4,12.6,2.8z M14.2,2.8c0,1.2,0.3,2.1,0.8,2.7c0.5,0.6,1.2,0.9,2,0.9c0.8,0,1.4-0.3,2-0.9
		c0.5-0.6,0.8-1.5,0.8-2.7c0-1.2-0.3-2-0.8-2.6c-0.5-0.6-1.2-0.9-2-0.9c-0.8,0-1.4,0.3-2,0.9C14.5,0.7,14.2,1.6,14.2,2.8z M22.6,4.7
		l1.6-0.3c0.1,0.6,0.3,1.1,0.7,1.4c0.4,0.3,1,0.5,1.7,0.5c0.7,0,1.3-0.1,1.6-0.4c0.4-0.3,0.5-0.6,0.5-1c0-0.4-0.2-0.6-0.5-0.8
		c-0.2-0.1-0.8-0.3-1.6-0.5c-1.2-0.3-2-0.5-2.4-0.8s-0.8-0.5-1-0.9c-0.2-0.4-0.4-0.8-0.4-1.3c0-0.4,0.1-0.8,0.3-1.2
		c0.2-0.4,0.5-0.6,0.8-0.9c0.3-0.2,0.6-0.3,1-0.5C25.3-2,25.8-2,26.3-2c0.7,0,1.4,0.1,1.9,0.3c0.6,0.2,1,0.5,1.2,0.9
		C29.7-0.5,29.9,0,30,0.6l-1.5,0.2c-0.1-0.5-0.3-0.9-0.6-1.1c-0.3-0.3-0.8-0.4-1.4-0.4c-0.7,0-1.2,0.1-1.6,0.4
		c-0.3,0.2-0.5,0.5-0.5,0.8c0,0.2,0.1,0.4,0.2,0.6c0.1,0.2,0.3,0.3,0.6,0.4c0.2,0.1,0.6,0.2,1.4,0.4c1.1,0.3,1.9,0.5,2.3,0.7
		c0.4,0.2,0.8,0.5,1,0.8c0.3,0.4,0.4,0.8,0.4,1.3s-0.2,1-0.5,1.5c-0.3,0.5-0.8,0.8-1.3,1.1c-0.6,0.3-1.2,0.4-2,0.4
		c-1.2,0-2.1-0.3-2.8-0.8C23.1,6.5,22.7,5.7,22.6,4.7z M35.7,6.1l0.2,1.4c-0.4,0.1-0.8,0.1-1.2,0.1c-0.6,0-1-0.1-1.3-0.3
		c-0.3-0.2-0.5-0.4-0.7-0.7c-0.1-0.3-0.2-0.9-0.2-1.9v-5.4h-1.2v-1.2h1.2v-2.3l1.6-1v3.3h1.6v1.2h-1.6v5.5c0,0.4,0,0.7,0.1,0.9
		C34.2,5.9,34.3,6,34.4,6c0.1,0.1,0.3,0.1,0.5,0.1C35.1,6.1,35.4,6.1,35.7,6.1z M36.6,3.6V2h4.9v1.6H36.6z M42.8,3.4l1.6-0.1
		c0.1,0.6,0.2,1.2,0.5,1.6c0.3,0.4,0.7,0.7,1.3,1c0.6,0.3,1.2,0.4,2,0.4c0.7,0,1.2-0.1,1.7-0.3c0.5-0.2,0.9-0.5,1.1-0.8
		s0.4-0.7,0.4-1.1c0-0.4-0.1-0.8-0.4-1.1c-0.2-0.3-0.6-0.6-1.2-0.8c-0.3-0.1-1.1-0.3-2.3-0.6c-1.2-0.3-2-0.6-2.5-0.8
		c-0.6-0.3-1.1-0.7-1.4-1.2c-0.3-0.5-0.5-1-0.5-1.6c0-0.7,0.2-1.3,0.6-1.8c0.4-0.6,0.9-1,1.6-1.3c0.7-0.3,1.5-0.4,2.4-0.4
		c0.9,0,1.8,0.2,2.5,0.5c0.7,0.3,1.3,0.8,1.7,1.4c0.4,0.6,0.6,1.3,0.6,2l-1.6,0.1c-0.1-0.8-0.4-1.4-0.9-1.9
		c-0.5-0.4-1.3-0.6-2.2-0.6c-1,0-1.8,0.2-2.3,0.6c-0.5,0.4-0.7,0.8-0.7,1.4c0,0.5,0.2,0.8,0.5,1.1c0.3,0.3,1.2,0.6,2.6,0.9
		c1.4,0.3,2.3,0.6,2.9,0.8c0.8,0.3,1.3,0.8,1.7,1.3c0.4,0.5,0.5,1.1,0.5,1.8c0,0.7-0.2,1.3-0.6,1.9c-0.4,0.6-1,1.1-1.7,1.4
		c-0.7,0.3-1.6,0.5-2.5,0.5c-1.2,0-2.1-0.2-2.9-0.5c-0.8-0.3-1.4-0.8-1.9-1.5C43.1,5,42.8,4.2,42.8,3.4z M63.1,6v1.5h-8.5
		c0-0.4,0.1-0.8,0.2-1.1c0.2-0.6,0.6-1.2,1-1.7c0.5-0.6,1.2-1.2,2.1-2c1.4-1.1,2.3-2.1,2.8-2.7c0.5-0.7,0.7-1.3,0.7-1.9
		c0-0.6-0.2-1.2-0.7-1.6s-1-0.6-1.8-0.6c-0.8,0-1.4,0.2-1.8,0.7c-0.5,0.5-0.7,1.1-0.7,1.9l-1.6-0.2c0.1-1.2,0.5-2.1,1.3-2.8
		c0.7-0.6,1.7-1,2.9-1c1.2,0,2.2,0.3,2.9,1c0.7,0.7,1.1,1.5,1.1,2.5c0,0.5-0.1,1-0.3,1.5c-0.2,0.5-0.6,1-1.1,1.6
		c-0.5,0.6-1.3,1.3-2.4,2.3c-0.9,0.8-1.6,1.3-1.8,1.6c-0.3,0.3-0.5,0.6-0.7,0.9H63.1z M69.6,2.8c0-1.7,0.5-3,1.5-3.8
		c0.8-0.7,1.8-1,2.9-1c1.3,0,2.3,0.4,3.2,1.3c0.8,0.8,1.2,2,1.2,3.5c0,1.2-0.2,2.1-0.5,2.8c-0.4,0.7-0.9,1.2-1.6,1.6
		c-0.7,0.4-1.4,0.6-2.3,0.6c-1.3,0-2.4-0.4-3.2-1.3C70,5.6,69.6,4.4,69.6,2.8z M71.2,2.8c0,1.2,0.3,2.1,0.8,2.7
		c0.5,0.6,1.2,0.9,2,0.9s1.4-0.3,2-0.9c0.5-0.6,0.8-1.5,0.8-2.7c0-1.2-0.3-2-0.8-2.6c-0.5-0.6-1.2-0.9-2-0.9c-0.8,0-1.4,0.3-2,0.9
		C71.5,0.7,71.2,1.6,71.2,2.8z M80.2,7.5v-9.3h1.4v1.3c0.7-1,1.7-1.5,3-1.5c0.6,0,1.1,0.1,1.6,0.3c0.5,0.2,0.8,0.5,1.1,0.8
		c0.2,0.3,0.4,0.7,0.5,1.2c0.1,0.3,0.1,0.8,0.1,1.5v5.7h-1.6V1.8c0-0.6-0.1-1.1-0.2-1.5c-0.1-0.3-0.3-0.6-0.7-0.8
		c-0.3-0.2-0.7-0.3-1.1-0.3c-0.7,0-1.3,0.2-1.8,0.6c-0.5,0.4-0.7,1.2-0.7,2.4v5.1H80.2z M89.6,4.7l1.6-0.3c0.1,0.6,0.3,1.1,0.7,1.4
		c0.4,0.3,1,0.5,1.7,0.5c0.7,0,1.3-0.1,1.6-0.4c0.4-0.3,0.5-0.6,0.5-1c0-0.4-0.2-0.6-0.5-0.8c-0.2-0.1-0.8-0.3-1.6-0.5
		c-1.2-0.3-2-0.5-2.4-0.8c-0.4-0.2-0.8-0.5-1-0.9c-0.2-0.4-0.4-0.8-0.4-1.3c0-0.4,0.1-0.8,0.3-1.2c0.2-0.4,0.5-0.6,0.8-0.9
		c0.3-0.2,0.6-0.3,1-0.5C92.4-2,92.8-2,93.3-2c0.7,0,1.4,0.1,1.9,0.3c0.6,0.2,1,0.5,1.2,0.9C96.7-0.5,96.9,0,97,0.6l-1.5,0.2
		c-0.1-0.5-0.3-0.9-0.6-1.1c-0.3-0.3-0.8-0.4-1.4-0.4c-0.7,0-1.3,0.1-1.6,0.4c-0.3,0.2-0.5,0.5-0.5,0.8c0,0.2,0.1,0.4,0.2,0.6
		c0.1,0.2,0.3,0.3,0.6,0.4c0.2,0.1,0.6,0.2,1.4,0.4c1.1,0.3,1.9,0.5,2.3,0.7s0.8,0.5,1,0.8c0.3,0.4,0.4,0.8,0.4,1.3
		c0,0.5-0.2,1-0.5,1.5c-0.3,0.5-0.8,0.8-1.3,1.1c-0.6,0.3-1.2,0.4-2,0.4c-1.2,0-2.1-0.3-2.8-0.8C90.2,6.5,89.8,5.7,89.6,4.7z
		 M105.6,4.5l1.6,0.2c-0.3,0.9-0.7,1.7-1.4,2.2c-0.7,0.5-1.6,0.8-2.7,0.8c-1.4,0-2.4-0.4-3.3-1.3c-0.8-0.8-1.2-2-1.2-3.5
		c0-1.6,0.4-2.8,1.2-3.6c0.8-0.9,1.9-1.3,3.1-1.3c1.3,0,2.3,0.4,3.1,1.3c0.8,0.8,1.2,2,1.2,3.6c0,0.1,0,0.2,0,0.4h-7
		c0.1,1,0.3,1.8,0.9,2.4c0.5,0.5,1.2,0.8,1.9,0.8c0.6,0,1.1-0.2,1.5-0.5C105.1,5.7,105.4,5.2,105.6,4.5z M100.4,1.9h5.2
		c-0.1-0.8-0.3-1.4-0.6-1.8c-0.5-0.6-1.2-0.9-2-0.9c-0.7,0-1.3,0.2-1.8,0.7S100.5,1.1,100.4,1.9z M112.7,6.1l0.2,1.4
		c-0.4,0.1-0.8,0.1-1.2,0.1c-0.6,0-1-0.1-1.3-0.3c-0.3-0.2-0.5-0.4-0.7-0.7c-0.1-0.3-0.2-0.9-0.2-1.9v-5.4h-1.2v-1.2h1.2v-2.3l1.6-1
		v3.3h1.6v1.2h-1.6v5.5c0,0.4,0,0.7,0.1,0.9c0.1,0.1,0.1,0.2,0.3,0.3c0.1,0.1,0.3,0.1,0.5,0.1C112.2,6.1,112.4,6.1,112.7,6.1z"/>
</g>
<g>
	<line class="st1" x1="382" y1="400.1" x2="432.1" y2="400.1"/>
</g>
<g transform="translate(407.0422,400.1017)">
	<path class="st5" d="M-6-6V6H6V-6H-6z"/>
</g>
<g transform="translate(407.0422,400.1017)">
	<path class="st2" d="M-6-6V6H6V-6H-6z"/>
</g>
<g transform="translate(435.8326,423.8983)">
	<path d="M1.4,7.5V-5.4h4.9c0.9,0,1.5,0,2,0.1C8.8-5.2,9.4-5,9.8-4.7c0.4,0.3,0.8,0.7,1,1.3c0.3,0.5,0.4,1.1,0.4,1.8
		c0,1.1-0.3,2-1,2.8c-0.7,0.8-2,1.1-3.8,1.1H3.1v5.2H1.4z M3.1,0.7h3.3c1.1,0,1.9-0.2,2.4-0.6c0.5-0.4,0.7-1,0.7-1.7
		c0-0.5-0.1-1-0.4-1.4S8.4-3.6,8-3.8C7.7-3.8,7.2-3.9,6.4-3.9H3.1V0.7z M13.2,7.5v-9.3h1.4v1.4c0.4-0.7,0.7-1.1,1-1.3
		c0.3-0.2,0.6-0.3,1-0.3c0.5,0,1.1,0.2,1.6,0.5l-0.5,1.5c-0.4-0.2-0.8-0.3-1.2-0.3c-0.3,0-0.7,0.1-0.9,0.3c-0.3,0.2-0.5,0.5-0.6,0.9
		c-0.2,0.6-0.3,1.2-0.3,1.8v4.9H13.2z M25.6,4.5l1.6,0.2c-0.3,0.9-0.7,1.7-1.4,2.2c-0.7,0.5-1.6,0.8-2.7,0.8c-1.4,0-2.4-0.4-3.3-1.3
		c-0.8-0.8-1.2-2-1.2-3.5c0-1.6,0.4-2.8,1.2-3.6C20.7-1.6,21.7-2,23-2c1.3,0,2.3,0.4,3.1,1.3c0.8,0.8,1.2,2,1.2,3.6
		c0,0.1,0,0.2,0,0.4h-7c0.1,1,0.3,1.8,0.9,2.4c0.5,0.5,1.2,0.8,1.9,0.8c0.6,0,1.1-0.2,1.5-0.5C25,5.7,25.3,5.2,25.6,4.5z M20.4,1.9
		h5.2c-0.1-0.8-0.3-1.4-0.6-1.8c-0.5-0.6-1.2-0.9-2-0.9c-0.7,0-1.3,0.2-1.8,0.7C20.7,0.5,20.4,1.1,20.4,1.9z M28.6,3.6V2h4.9v1.6
		H28.6z M34.8,3.4l1.6-0.1c0.1,0.6,0.2,1.2,0.5,1.6c0.3,0.4,0.7,0.7,1.3,1c0.6,0.3,1.2,0.4,2,0.4c0.7,0,1.2-0.1,1.7-0.3
		c0.5-0.2,0.9-0.5,1.1-0.8s0.4-0.7,0.4-1.1c0-0.4-0.1-0.8-0.4-1.1c-0.2-0.3-0.6-0.6-1.2-0.8c-0.3-0.1-1.1-0.3-2.3-0.6
		c-1.2-0.3-2-0.6-2.5-0.8c-0.6-0.3-1.1-0.7-1.4-1.2c-0.3-0.5-0.5-1-0.5-1.6c0-0.7,0.2-1.3,0.6-1.8c0.4-0.6,0.9-1,1.6-1.3
		c0.7-0.3,1.5-0.4,2.4-0.4c0.9,0,1.8,0.2,2.5,0.5c0.7,0.3,1.3,0.8,1.7,1.4c0.4,0.6,0.6,1.3,0.6,2l-1.6,0.1c-0.1-0.8-0.4-1.4-0.9-1.9
		c-0.5-0.4-1.3-0.6-2.2-0.6c-1,0-1.8,0.2-2.3,0.6c-0.5,0.4-0.7,0.8-0.7,1.4c0,0.5,0.2,0.8,0.5,1.1c0.3,0.3,1.2,0.6,2.6,0.9
		c1.4,0.3,2.3,0.6,2.9,0.8c0.8,0.3,1.3,0.8,1.7,1.3c0.4,0.5,0.5,1.1,0.5,1.8c0,0.7-0.2,1.3-0.6,1.9c-0.4,0.6-1,1.1-1.7,1.4
		c-0.7,0.3-1.6,0.5-2.5,0.5c-1.2,0-2.1-0.2-2.9-0.5c-0.8-0.3-1.4-0.8-1.9-1.5C35.1,5,34.8,4.2,34.8,3.4z M55.1,6v1.5h-8.5
		c0-0.4,0.1-0.8,0.2-1.1c0.2-0.6,0.6-1.2,1-1.7c0.5-0.6,1.2-1.2,2.1-2c1.4-1.1,2.3-2.1,2.8-2.7s0.7-1.3,0.7-1.9
		c0-0.6-0.2-1.2-0.7-1.6c-0.4-0.4-1-0.6-1.8-0.6c-0.8,0-1.4,0.2-1.8,0.7c-0.5,0.5-0.7,1.1-0.7,1.9l-1.6-0.2c0.1-1.2,0.5-2.1,1.3-2.8
		c0.7-0.6,1.7-1,2.9-1c1.2,0,2.2,0.3,2.9,1c0.7,0.7,1.1,1.5,1.1,2.5c0,0.5-0.1,1-0.3,1.5s-0.6,1-1.1,1.6c-0.5,0.6-1.3,1.3-2.4,2.3
		c-0.9,0.8-1.6,1.3-1.8,1.6c-0.3,0.3-0.5,0.6-0.7,0.9H55.1z M61.6,2.8c0-1.7,0.5-3,1.5-3.8c0.8-0.7,1.8-1,2.9-1
		c1.3,0,2.3,0.4,3.2,1.3c0.8,0.8,1.2,2,1.2,3.5c0,1.2-0.2,2.1-0.5,2.8c-0.4,0.7-0.9,1.2-1.6,1.6c-0.7,0.4-1.4,0.6-2.3,0.6
		c-1.3,0-2.4-0.4-3.2-1.3C62,5.6,61.6,4.4,61.6,2.8z M63.2,2.8c0,1.2,0.3,2.1,0.8,2.7c0.5,0.6,1.2,0.9,2,0.9c0.8,0,1.4-0.3,2-0.9
		c0.5-0.6,0.8-1.5,0.8-2.7c0-1.2-0.3-2-0.8-2.6c-0.5-0.6-1.2-0.9-2-0.9c-0.8,0-1.4,0.3-2,0.9C63.5,0.7,63.2,1.6,63.2,2.8z M72.6,7.5
		v-8.1h-1.4v-1.2h1.4v-1c0-0.6,0.1-1.1,0.2-1.4c0.1-0.4,0.4-0.8,0.8-1c0.4-0.3,0.9-0.4,1.6-0.4c0.4,0,0.9,0.1,1.5,0.2l-0.2,1.4
		c-0.3-0.1-0.6-0.1-0.9-0.1c-0.5,0-0.8,0.1-1,0.3c-0.2,0.2-0.3,0.6-0.3,1.1v0.9H76v1.2h-1.8v8.1H72.6z M77.6,7.5v-8.1h-1.4v-1.2h1.4
		v-1c0-0.6,0.1-1.1,0.2-1.4c0.1-0.4,0.4-0.8,0.8-1c0.4-0.3,0.9-0.4,1.6-0.4c0.4,0,0.9,0.1,1.5,0.2l-0.2,1.4
		c-0.3-0.1-0.6-0.1-0.9-0.1c-0.5,0-0.8,0.1-1,0.3c-0.2,0.2-0.3,0.6-0.3,1.1v0.9H81v1.2h-1.8v8.1H77.6z M81.6,4.7l1.6-0.3
		c0.1,0.6,0.3,1.1,0.7,1.4c0.4,0.3,1,0.5,1.7,0.5c0.7,0,1.3-0.1,1.6-0.4c0.4-0.3,0.5-0.6,0.5-1c0-0.4-0.2-0.6-0.5-0.8
		c-0.2-0.1-0.8-0.3-1.6-0.5c-1.2-0.3-2-0.5-2.4-0.8c-0.4-0.2-0.8-0.5-1-0.9c-0.2-0.4-0.4-0.8-0.4-1.3c0-0.4,0.1-0.8,0.3-1.2
		c0.2-0.4,0.5-0.6,0.8-0.9c0.3-0.2,0.6-0.3,1-0.5C84.4-2,84.8-2,85.3-2c0.7,0,1.4,0.1,1.9,0.3c0.6,0.2,1,0.5,1.2,0.9
		C88.7-0.5,88.9,0,89,0.6l-1.5,0.2c-0.1-0.5-0.3-0.9-0.6-1.1c-0.3-0.3-0.8-0.4-1.4-0.4c-0.7,0-1.3,0.1-1.6,0.4
		c-0.3,0.2-0.5,0.5-0.5,0.8c0,0.2,0.1,0.4,0.2,0.6c0.1,0.2,0.3,0.3,0.6,0.4c0.2,0.1,0.6,0.2,1.4,0.4c1.1,0.3,1.9,0.5,2.3,0.7
		c0.4,0.2,0.8,0.5,1,0.8c0.3,0.4,0.4,0.8,0.4,1.3c0,0.5-0.2,1-0.5,1.5c-0.3,0.5-0.8,0.8-1.3,1.1c-0.6,0.3-1.2,0.4-2,0.4
		c-1.2,0-2.1-0.3-2.8-0.8C82.2,6.5,81.8,5.7,81.6,4.7z M97.6,4.5l1.6,0.2c-0.3,0.9-0.7,1.7-1.4,2.2c-0.7,0.5-1.6,0.8-2.7,0.8
		c-1.4,0-2.4-0.4-3.3-1.3c-0.8-0.8-1.2-2-1.2-3.5c0-1.6,0.4-2.8,1.2-3.6C92.7-1.6,93.8-2,95.1-2c1.3,0,2.3,0.4,3.1,1.3
		c0.8,0.8,1.2,2,1.2,3.6c0,0.1,0,0.2,0,0.4h-7c0.1,1,0.3,1.8,0.9,2.4c0.5,0.5,1.2,0.8,1.9,0.8c0.6,0,1.1-0.2,1.5-0.5
		C97,5.7,97.4,5.2,97.6,4.5z M92.4,1.9h5.2c-0.1-0.8-0.3-1.4-0.6-1.8c-0.5-0.6-1.2-0.9-2-0.9c-0.7,0-1.3,0.2-1.8,0.7
		S92.5,1.1,92.4,1.9z M104.7,6.1l0.2,1.4c-0.4,0.1-0.8,0.1-1.2,0.1c-0.6,0-1-0.1-1.3-0.3c-0.3-0.2-0.5-0.4-0.7-0.7
		c-0.1-0.3-0.2-0.9-0.2-1.9v-5.4h-1.2v-1.2h1.2v-2.3l1.6-1v3.3h1.6v1.2h-1.6v5.5c0,0.4,0,0.7,0.1,0.9c0.1,0.1,0.1,0.2,0.3,0.3
		c0.1,0.1,0.3,0.1,0.5,0.1C104.2,6.1,104.4,6.1,104.7,6.1z"/>
</g>
<g>
	<line class="st1" x1="382" y1="423.9" x2="432.1" y2="423.9"/>
</g>
<g transform="translate(407.0422,423.8983)">
	<circle class="st5" cx="0" cy="0" r="6.3"/>
</g>
<g transform="translate(407.0422,423.8983)">
	<path d="M0-5c2.8,0,5,2.2,5,5l0,0c0,2.8-2.2,5-5,5s-5-2.2-5-5S-2.8-5,0-5z M0-7.5c-4.1,0-7.5,3.4-7.5,7.5S-4.1,7.5,0,7.5
		S7.5,4.1,7.5,0l0,0C7.5-4.1,4.1-7.5,0-7.5z"/>
</g>
</svg>
