<?xml version="1.0" encoding="utf-8"?>
<!-- Generator: Adobe Illustrator 24.0.1, SVG Export Plug-In . SVG Version: 6.00 Build 0)  -->
<svg version="1.1" id="Layer_1" xmlns="http://www.w3.org/2000/svg" xmlns:xlink="http://www.w3.org/1999/xlink" x="0px" y="0px"
	 viewBox="0 0 700 525" style="enable-background:new 0 0 700 525;" xml:space="preserve">
<style type="text/css">
	.st0{fill:none;stroke:#D91A33;stroke-width:2.5;stroke-linejoin:bevel;stroke-miterlimit:1;stroke-dasharray:2,2;}
	.st1{fill:none;stroke:#D91A33;stroke-width:2.5;stroke-linejoin:round;stroke-miterlimit:10;}
	.st2{fill:none;stroke:#1A80FF;stroke-width:2.5;stroke-linejoin:bevel;stroke-miterlimit:1;stroke-dasharray:2,2;}
	.st3{fill:none;stroke:#1A80FF;stroke-width:2.5;stroke-linejoin:round;stroke-miterlimit:10;}
	.st4{fill:none;stroke:#000000;stroke-width:0.8333;stroke-linejoin:bevel;stroke-miterlimit:1;stroke-dasharray:1,3;}
	.st5{fill:none;stroke:#000000;stroke-width:2.5;stroke-linejoin:round;stroke-miterlimit:10;}
	.st6{fill:#1A80FF;}
	.st7{fill:none;stroke:#000000;stroke-width:2.5;stroke-miterlimit:10;}
	.st8{fill:#D91A33;}
	.st9{fill:#D91A33;stroke:#000000;stroke-width:2.5;stroke-miterlimit:10;}
	.st10{fill:none;stroke:#000000;stroke-width:3.3333;stroke-linecap:square;stroke-linejoin:round;stroke-miterlimit:10;}
</style>
<g>
	<path class="st0" d="M546.3,63.2l0.4,0l0.4,0l0.4,0l0.4,0l0.4,0l0.4,0l0.4,0l0.4,0l0.4,0l0.4,0l0.4,0l0.4,0l0.4,0l0.4,0l0.4,0
		l0.4,0l0.4,0l0.4,0l0.4,0l0.4,0l0.4,0l0.4,0l0.4,0l0.4,0l0.4,0l0.4,0l0.4,0l0.4,0l0.4,0l0.4,0l0.4,0l0.4,0l0.4,0l0.4,0l0.4,0l0.4,0
		l0.4,0l0.4,0l0.4,0l0.4,0l0.4,0l0.4,0l0.4,0l0.4,0l0.4,0"/>
	<path class="st0" d="M160.5,245.5l0.4-0.4l0.4-0.4l0.4-0.4l0.4-0.4l0.4-0.4l0.4-0.4l0.4-0.4l0.4-0.4l0.4-0.4l0.4-0.4l0.4-0.4
		l0.4-0.4l0.4-0.4l0.4-0.4l0.4-0.4l0.4-0.4l0.4-0.4l0.4-0.4l0.4-0.4l0.4-0.4l0.4-0.4l0.4-0.4l0.4-0.4l0.4-0.4l0.4-0.4l0.4-0.4
		l0.4-0.4l0.4-0.4l0.4-0.4l0.4-0.4l0.4-0.4l0.4-0.4l0.4-0.4l0.4-0.4l0.4-0.4l0.4-0.4l0.4-0.4l0.4-0.4l0.4-0.4l0.4-0.4l0.4-0.4
		l0.4-0.4l0.4-0.4l0.4-0.4l0.4-0.4"/>
	<path class="st1" d="M179.1,226l0.4-0.4l0.4-0.4l0.4-0.4l0.4-0.4l0.4-0.4l0.4-0.4l0.4-0.4l0.4-0.4l0.4-0.4l0.4-0.4l0.4-0.4l0.4-0.4
		l0.4-0.4l0.4-0.4l0.4-0.4l0.4-0.4l0.4-0.4l0.4-0.4l0.4-0.4l0.4-0.4l0.4-0.4l0.4-0.4l0.4-0.4l0.4-0.4l0.4-0.4l0.4-0.4l0.4-0.4
		l0.4-0.4l0.4-0.4l0.4-0.4l0.4-0.4l0.4-0.4l0.4-0.4l0.4-0.4l0.4-0.5l0.4-0.5l0.4-0.5l0.4-0.5l0.4-0.5l0.4-0.5l0.4-0.5l0.4-0.5
		l0.4-0.5l0.4-0.5l0.4-0.5l0.4-0.5l0.4-0.5l0.4-0.5l0.4-0.5l0.4-0.5l0.4-0.5l0.4-0.5l0.4-0.5l0.4-0.5l0.4-0.5l0.4-0.5l0.4-0.5
		l0.4-0.5l0.4-0.5l0.4-0.5l0.4-0.5l0.4-0.5l0.4-0.5l0.4-0.5l0.4-0.5l0.4-0.5l0.4-0.5l0.4-0.5l0.4-0.5l0.4-0.5l0.4-0.5l0.4-0.5
		l0.4-0.5l0.4-0.5l0.4-0.5l0.4-0.5l0.4-0.5l0.4-0.5l0.4-0.5l0.4-0.5l0.4-0.5l0.4-0.5l0.4-0.5l0.4-0.5l0.4-0.5l0.4-0.5l0.4-0.5
		l0.4-0.5l0.4-0.5l0.4-0.5l0.4-0.5l0.4-0.4l0.4-0.4l0.4-0.4l0.4-0.4l0.4-0.4l0.4-0.4l0.4-0.4l0.4-0.4l0.4-0.4l0.4-0.4l0.4-0.4
		l0.4-0.4l0.4-0.4l0.4-0.4l0.4-0.4l0.4-0.4l0.4-0.4l0.4-0.4l0.4-0.4l0.4-0.4l0.4-0.4l0.4-0.4l0.4-0.4l0.4-0.4l0.4-0.4l0.4-0.4
		l0.4-0.4l0.4-0.4l0.4-0.4l0.4-0.4l0.4-0.4l0.4-0.4l0.4-0.4l0.4-0.4l0.4-0.4l0.4-0.4l0.4-0.4l0.4-0.4l0.4-0.4l0.4-0.4l0.4-0.4
		l0.4-0.4l0.4-0.4l0.4-0.4l0.4-0.4l0.4-0.4l0.4-0.4l0.4-0.4l0.4-0.4l0.4-0.4l0.4-0.4l0.4-0.4l0.4-0.4l0.4-0.4l0.4-0.4l0.4-0.4
		l0.4-0.4l0.4-0.4l0.4-0.4l0.4-0.4l0.4-0.4l0.4-0.4l0.4-0.4l0.4-0.4l0.4-0.4l0.4-0.4l0.4-0.4l0.4-0.4l0.4-0.4l0.4-0.4l0.4-0.4
		l0.4-0.4l0.4-0.4l0.4-0.4l0.4-0.4l0.4-0.4l0.4-0.4l0.4-0.4l0.4-0.4l0.4-0.4l0.4-0.4l0.4-0.4l0.4-0.4l0.4-0.4l0.4-0.4l0.4-0.4
		l0.4-0.4l0.4-0.4l0.4-0.4l0.4-0.4l0.4-0.4l0.4-0.4l0.4-0.4l0.4-0.4l0.4-0.4l0.4-0.4l0.4-0.4l0.4-0.4l0.4-0.4l0.4-0.4l0.4-0.4
		l0.4-0.4l0.4-0.4l0.4-0.4l0.4-0.4l0.4-0.4l0.4-0.4l0.4-0.4l0.4-0.4l0.4-0.4l0.4-0.4l0.4-0.4l0.4-0.4l0.4-0.4l0.4-0.4l0.4-0.4
		l0.4-0.4l0.4-0.4l0.4-0.4l0.4-0.4l0.4-0.4l0.4-0.4l0.4-0.4l0.4-0.4l0.4-0.4l0.4-0.4l0.4-0.4l0.4-0.4l0.4-0.4l0.4-0.4l0.4-0.4
		l0.4-0.4l0.4-0.4l0.4-0.4l0.4-0.4l0.4-0.4l0.4-0.4l0.4-0.4l0.4-0.4l0.4-0.4l0.4-0.4l0.4-0.4l0.4-0.3l0.4-0.3l0.4-0.3l0.4-0.3
		l0.4-0.3l0.4-0.3l0.4-0.3l0.4-0.3l0.4-0.3l0.4-0.3l0.4-0.3l0.4-0.3l0.4-0.3l0.4-0.3l0.4-0.3l0.4-0.3l0.4-0.3l0.4-0.3l0.4-0.3
		l0.4-0.3l0.4-0.3l0.4-0.3l0.4-0.3l0.4-0.3l0.4-0.3l0.4-0.3l0.4-0.3l0.4-0.3l0.4-0.3l0.4-0.3l0.4-0.3l0.4-0.3l0.4-0.3l0.4-0.3
		l0.4-0.3l0.4-0.3l0.4-0.3l0.4-0.3l0.4-0.3l0.4-0.3l0.4-0.3l0.4-0.3l0.4-0.3l0.4-0.3l0.4-0.3l0.4-0.3l0.4-0.3l0.4-0.3l0.4-0.3
		l0.4-0.3l0.4-0.3l0.4-0.3l0.4-0.3l0.4-0.3l0.4-0.3l0.4-0.3l0.4-0.3l0.4-0.3l0.4-0.3l0.4-0.3l0.4-0.3l0.4-0.3l0.4-0.3l0.4-0.3
		l0.4-0.3l0.4-0.3l0.4-0.3l0.4-0.3l0.4-0.3l0.4-0.3l0.4-0.3l0.4-0.3l0.4-0.3l0.4-0.3l0.4-0.3l0.4-0.3l0.4-0.3l0.4-0.3l0.4-0.3
		l0.4-0.3l0.4-0.3l0.4-0.3l0.4-0.3l0.4-0.3l0.4-0.3l0.4-0.3l0.4-0.3l0.4-0.3l0.4-0.3l0.4-0.2l0.4-0.2l0.4-0.2l0.4-0.2l0.4-0.2
		l0.4-0.2l0.4-0.2l0.4-0.2l0.4-0.2l0.4-0.2l0.4-0.2l0.4-0.2l0.4-0.2l0.4-0.2l0.4-0.2l0.4-0.2l0.4-0.2l0.4-0.2l0.4-0.2l0.4-0.2
		l0.4-0.2l0.4-0.2l0.4-0.2l0.4-0.2l0.4-0.2l0.4-0.2l0.4-0.2l0.4-0.2l0.4-0.2l0.4-0.2l0.4-0.2l0.4-0.2l0.4-0.2l0.4-0.2l0.4-0.2
		l0.4-0.2l0.4-0.2l0.4-0.2l0.4-0.2l0.4-0.2l0.4-0.2l0.4-0.2l0.4-0.2l0.4-0.2l0.4-0.2l0.4-0.2l0.4-0.2l0.4-0.2l0.4-0.2l0.4-0.2
		l0.4-0.2l0.4-0.2l0.4-0.2l0.4-0.2l0.4-0.2l0.4-0.2l0.4-0.2l0.4-0.2l0.4-0.2l0.4-0.2L334,87l0.4-0.2l0.4-0.2l0.4-0.2l0.4-0.2
		l0.4-0.2l0.4-0.2l0.4-0.2l0.4-0.2l0.4-0.2l0.4-0.2l0.4-0.2l0.4-0.2l0.4-0.2l0.4-0.2l0.4-0.2l0.4-0.2l0.4-0.2l0.4-0.2l0.4-0.2
		l0.4-0.2l0.4-0.2l0.4-0.2l0.4-0.2l0.4-0.2l0.4-0.2l0.4-0.2l0.4-0.2l0.4-0.2l0.4-0.2l0.4-0.2l0.4-0.2l0.4-0.2l0.4-0.2l0.4-0.1
		l0.4-0.1l0.4-0.1l0.4-0.1l0.4-0.1l0.4-0.1l0.4-0.1l0.4-0.1l0.4-0.1l0.4-0.1l0.4-0.1l0.4-0.1l0.4-0.1l0.4-0.1l0.4-0.1l0.4-0.1
		l0.4-0.1l0.4-0.1l0.4-0.1l0.4-0.1l0.4-0.1l0.4-0.1l0.4-0.1l0.4-0.1l0.4-0.1l0.4-0.1l0.4-0.1l0.4-0.1l0.4-0.1l0.4-0.1l0.4-0.1
		l0.4-0.1l0.4-0.1l0.4-0.1l0.4-0.1l0.4-0.1l0.4-0.1l0.4-0.1l0.4-0.1l0.4-0.1l0.4-0.1l0.4-0.1l0.4-0.1l0.4-0.1l0.4-0.1l0.4-0.1
		l0.4-0.1l0.4-0.1l0.4-0.1l0.4-0.1L368,75l0.4-0.1l0.4-0.1l0.4-0.1l0.4-0.1l0.4-0.1l0.4-0.1l0.4-0.1l0.4-0.1l0.4-0.1L372,74l0.4-0.1
		l0.4-0.1l0.4-0.1l0.4-0.1l0.4-0.1l0.4-0.1l0.4-0.1l0.4-0.1l0.4-0.1l0.4-0.1l0.4-0.1l0.4-0.1l0.4-0.1l0.4-0.1l0.4-0.1l0.4-0.1
		l0.4-0.1l0.4-0.1l0.4-0.1l0.4-0.1l0.4-0.1l0.4-0.1l0.4-0.1l0.4-0.1l0.4-0.1l0.4-0.1l0.4-0.1l0.4-0.1l0.4-0.1l0.4-0.1l0.4-0.1
		l0.4-0.1l0.4-0.1l0.4-0.1l0.4-0.1l0.4-0.1l0.4-0.1l0.4-0.1l0.4-0.1l0.4-0.1l0.4-0.1l0.4-0.1l0.4-0.1l0.4-0.1l0.4-0.1l0.4-0.1
		l0.4-0.1l0.4-0.1l0.4-0.1l0.4-0.1l0.4-0.1l0.4-0.1l0.4-0.1l0.4-0.1l0.4-0.1l0.4-0.1l0.4-0.1l0.4-0.1l0.4-0.1l0.4-0.1l0.4-0.1
		l0.4-0.1l0.4-0.1l0.4-0.1l0.4-0.1l0.4-0.1l0.4-0.1l0.4-0.1l0.4-0.1l0.4-0.1l0.4-0.1l0.4-0.1l0.4-0.1l0.4-0.1l0.4-0.1l0.4-0.1
		l0.4-0.1l0.4-0.1l0.4-0.1l0.4-0.1l0.4-0.1l0.4-0.1l0.4-0.1l0.4-0.1l0.4,0l0.4,0l0.4,0l0.4,0l0.4,0l0.4,0l0.4,0l0.4,0l0.4,0l0.4,0
		l0.4,0l0.4,0l0.4,0l0.4,0l0.4,0l0.4,0l0.4,0l0.4,0l0.4,0l0.4,0l0.4,0l0.4,0l0.4,0l0.4,0l0.4,0l0.4,0l0.4,0l0.4,0l0.4,0l0.4,0l0.4,0
		l0.4,0l0.4,0l0.4,0l0.4,0l0.4,0l0.4,0l0.4,0l0.4,0l0.4,0l0.4,0l0.4,0l0.4,0l0.4,0l0.4,0l0.4,0l0.4,0l0.4,0l0.4,0l0.4,0l0.4,0l0.4,0
		l0.4,0l0.4,0l0.4,0l0.4,0l0.4,0l0.4,0l0.4,0l0.4,0l0.4,0l0.4,0l0.4,0l0.4,0l0.4,0l0.4,0l0.4,0l0.4,0l0.4,0l0.4,0l0.4,0l0.4,0l0.4,0
		l0.4,0l0.4,0l0.4,0l0.4,0l0.4,0l0.4,0l0.4,0l0.4,0l0.4,0l0.4,0l0.4,0l0.4,0l0.4,0l0.4,0l0.4,0l0.4,0l0.4,0l0.4,0l0.4,0l0.4,0l0.4,0
		l0.4,0l0.4,0l0.4,0l0.4,0l0.4,0l0.4,0l0.4,0l0.4,0l0.4,0l0.4,0l0.4,0l0.4,0l0.4,0l0.4,0l0.4,0l0.4,0l0.4,0l0.4,0l0.4,0l0.4,0l0.4,0
		l0.4,0l0.4,0l0.4,0l0.4,0l0.4,0l0.4,0l0.4,0l0.4,0l0.4,0l0.4,0l0.4,0l0.4,0l0.4,0l0.4,0l0.4,0l0.4,0l0.4,0l0.4,0l0.4,0l0.4,0l0.4,0
		l0.4,0l0.4,0l0.4,0l0.4,0l0.4,0l0.4,0l0.4,0l0.4,0l0.4,0l0.4,0l0.4,0l0.4,0l0.4,0l0.4,0l0.4,0l0.4,0l0.4,0l0.4,0l0.4,0l0.4,0l0.4,0
		l0.4,0l0.4,0l0.4,0l0.4,0l0.4,0l0.4,0l0.4,0l0.4,0l0.4,0l0.4,0l0.4,0l0.4,0l0.4,0l0.4,0l0.4,0l0.4,0l0.4,0l0.4,0l0.4,0l0.4,0l0.4,0
		l0.4,0l0.4,0l0.4,0l0.4,0l0.4,0l0.4,0l0.4,0l0.4,0l0.4,0l0.4,0l0.4,0l0.4,0l0.4,0l0.4,0l0.4,0l0.4,0l0.4,0l0.4,0l0.4,0l0.4,0l0.4,0
		l0.4,0l0.4,0l0.4,0l0.4,0l0.4,0l0.4,0l0.4,0l0.4,0l0.4,0l0.4,0l0.4,0l0.4,0l0.4,0l0.4,0l0.4,0l0.4,0l0.4,0l0.4,0l0.4,0l0.4,0l0.4,0
		l0.4,0l0.4,0l0.4,0l0.4,0l0.4,0l0.4,0l0.4,0l0.4,0l0.4,0l0.4,0l0.4,0l0.4,0l0.4,0l0.4,0l0.4,0l0.4,0l0.4,0l0.4,0l0.4,0l0.4,0l0.4,0
		l0.4,0l0.4,0l0.4,0l0.4,0l0.4,0l0.4,0l0.4,0l0.4,0l0.4,0l0.4,0l0.4,0l0.4,0l0.4,0l0.4,0l0.4,0l0.4,0l0.4,0l0.4,0l0.4,0l0.4,0l0.4,0
		l0.4,0l0.4,0l0.4,0l0.4,0l0.4,0l0.4,0l0.4,0l0.4,0l0.4,0l0.4,0l0.4,0l0.4,0l0.4,0l0.4,0l0.4,0l0.4,0l0.4,0l0.4,0l0.4,0l0.4,0l0.4,0
		l0.4,0l0.4,0l0.4,0l0.4,0l0.4,0l0.4,0l0.4,0l0.4,0l0.4,0l0.4,0l0.4,0l0.4,0l0.4,0l0.4,0l0.4,0l0.4,0l0.4,0l0.4,0l0.4,0l0.4,0l0.4,0
		l0.4,0l0.4,0l0.4,0l0.4,0l0.4,0l0.4,0l0.4,0l0.4,0l0.4,0l0.4,0l0.4,0l0.4,0l0.4,0l0.4,0l0.4,0l0.4,0l0.4,0l0.4,0l0.4,0l0.4,0l0.4,0
		l0.4,0l0.4,0l0.4,0l0.4,0l0.4,0l0.4,0l0.4,0l0.4,0l0.4,0l0.4,0l0.4,0l0.4,0l0.4,0l0.4,0l0.4,0l0.4,0l0.4,0l0.4,0l0.4,0l0.4,0l0.4,0
		"/>
	<path class="st2" d="M546.3,58.1l0.4,0l0.4,0l0.4,0l0.4,0l0.4,0l0.4,0l0.4,0l0.4,0l0.4,0l0.4,0l0.4,0l0.4,0l0.4,0l0.4,0l0.4,0
		l0.4,0l0.4,0l0.4,0l0.4,0l0.4,0l0.4,0l0.4,0l0.4,0l0.4,0l0.4,0l0.4,0l0.4,0l0.4,0l0.4,0l0.4,0l0.4,0l0.4,0l0.4,0l0.4,0l0.4,0l0.4,0
		l0.4,0l0.4,0l0.4,0l0.4,0l0.4,0l0.4,0l0.4,0l0.4,0l0.4,0"/>
	<path class="st2" d="M160.5,416.2l0.4-0.1l0.4-0.1l0.4-0.1l0.4-0.1l0.4-0.1l0.4-0.1l0.4-0.1l0.4-0.1l0.4-0.1l0.4-0.1l0.4-0.1
		l0.4-0.1l0.4-0.1l0.4-0.1l0.4-0.1l0.4-0.1l0.4-0.1l0.4-0.1l0.4-0.1l0.4-0.1l0.4-0.1l0.4-0.1l0.4-0.1l0.4-0.1l0.4-0.1l0.4-0.1
		l0.4-0.1l0.4-0.1l0.4-0.1l0.4-0.1l0.4-0.1l0.4-0.1l0.4-0.1l0.4-0.1l0.4-0.1l0.4-0.1l0.4-0.1l0.4-0.1l0.4-0.1l0.4-0.1l0.4-0.2
		l0.4-0.2l0.4-0.2l0.4-0.2l0.4-0.2"/>
</g>
<g>
	<path class="st3" d="M179.1,410.3l0.4-0.2l0.4-0.2l0.4-0.2l0.4-0.2l0.4-0.2l0.4-0.2l0.4-0.2l0.4-0.2l0.4-0.2l0.4-0.2l0.4-0.2
		l0.4-0.2l0.4-0.2l0.4-0.2l0.4-0.2l0.4-0.2l0.4-0.2l0.4-0.2l0.4-0.2l0.4-0.2l0.4-0.2l0.4-0.2l0.4-0.2l0.4-0.2l0.4-0.2l0.4-0.2
		l0.4-0.2l0.4-0.2l0.4-0.2l0.4-0.2l0.4-0.2l0.4-0.2l0.4-0.2l0.4-0.2l0.4-0.2l0.4-0.2l0.4-0.2l0.4-0.2l0.4-0.2l0.4-0.2l0.4-0.2
		l0.4-0.2l0.4-0.2l0.4-0.2l0.4-0.2l0.4-0.2l0.4-0.2l0.4-0.2l0.4-0.2l0.4-0.2l0.4-0.2l0.4-0.2l0.4-0.2l0.4-0.2l0.4-0.2l0.4-0.3
		l0.4-0.3l0.4-0.3l0.4-0.3l0.4-0.3l0.4-0.3l0.4-0.3l0.4-0.3l0.4-0.3l0.4-0.3l0.4-0.3l0.4-0.3l0.4-0.3l0.4-0.3l0.4-0.3l0.4-0.3
		l0.4-0.3l0.4-0.3l0.4-0.3l0.4-0.3l0.4-0.3l0.4-0.3l0.4-0.3l0.4-0.3l0.4-0.3l0.4-0.3l0.4-0.3l0.4-0.3l0.4-0.3l0.4-0.3l0.4-0.3
		l0.4-0.3l0.4-0.3l0.4-0.3l0.4-0.3l0.4-0.3l0.4-0.3l0.4-0.3l0.4-0.3l0.4-0.3l0.4-0.3l0.4-0.3l0.4-0.3l0.4-0.3l0.4-0.3l0.4-0.3
		l0.4-0.3l0.4-0.3l0.4-0.4l0.4-0.4l0.4-0.4l0.4-0.4l0.4-0.4l0.4-0.4l0.4-0.4l0.4-0.4l0.4-0.4l0.4-0.4l0.4-0.4l0.4-0.4l0.4-0.4
		l0.4-0.4l0.4-0.4l0.4-0.4l0.4-0.4l0.4-0.4l0.4-0.4l0.4-0.4l0.4-0.4l0.4-0.4l0.4-0.4l0.4-0.4l0.4-0.4l0.4-0.4l0.4-0.4l0.4-0.4
		l0.4-0.4l0.4-0.4l0.4-0.4l0.4-0.4l0.4-0.4l0.4-0.4l0.4-0.4l0.4-0.4l0.4-0.4l0.4-0.4l0.4-0.4l0.4-0.4l0.4-0.4l0.4-0.4l0.4-0.4
		l0.4-0.4l0.4-0.5l0.4-0.5l0.4-0.5l0.4-0.5l0.4-0.5l0.4-0.5l0.4-0.5l0.4-0.5l0.4-0.5l0.4-0.5l0.4-0.5l0.4-0.5l0.4-0.5l0.4-0.5
		l0.4-0.5l0.4-0.5l0.4-0.5l0.4-0.5l0.4-0.5l0.4-0.5l0.4-0.5l0.4-0.5l0.4-0.5l0.4-0.5l0.4-0.5l0.4-0.5l0.4-0.5l0.4-0.5l0.4-0.5
		l0.4-0.5l0.4-0.5l0.4-0.5l0.4-0.5l0.4-0.5l0.4-0.5l0.4-0.5l0.4-0.5l0.4-0.5l0.4-0.5l0.4-0.5l0.4-0.5l0.4-0.5l0.4-0.5l0.4-0.6
		l0.4-0.6l0.4-0.6l0.4-0.6l0.4-0.6l0.4-0.6l0.4-0.6l0.4-0.6l0.4-0.6l0.4-0.6l0.4-0.6l0.4-0.6l0.4-0.6l0.4-0.6l0.4-0.6l0.4-0.6
		l0.4-0.6l0.4-0.6l0.4-0.6l0.4-0.6l0.4-0.6l0.4-0.6l0.4-0.6l0.4-0.6l0.4-0.6l0.4-0.6l0.4-0.6l0.4-0.6l0.4-0.6l0.4-0.6l0.4-0.6
		l0.4-0.6l0.4-0.6l0.4-0.6l0.4-0.6l0.4-0.6l0.4-0.6l0.4-0.6l0.4-0.6l0.4-0.6l0.4-0.6l0.4-0.6l0.4-0.6l0.4-0.6l0.4-0.6l0.4-0.6
		l0.4-0.6l0.4-0.6l0.4-0.6l0.4-0.6l0.4-0.7l0.4-0.7l0.4-0.7l0.4-0.7l0.4-0.7l0.4-0.7l0.4-0.7l0.4-0.7l0.4-0.7l0.4-0.7l0.4-0.7
		l0.4-0.7l0.4-0.7l0.4-0.7l0.4-0.7l0.4-0.7l0.4-0.7l0.4-0.7l0.4-0.7l0.4-0.7l0.4-0.7l0.4-0.7l0.4-0.7l0.4-0.7l0.4-0.7l0.4-0.7
		l0.4-0.7l0.4-0.7l0.4-0.7l0.4-0.7l0.4-0.7l0.4-0.7l0.4-0.7l0.4-0.7l0.4-0.7l0.4-0.7l0.4-0.7l0.4-0.7l0.4-0.7l0.4-0.7l0.4-0.7
		l0.4-0.7l0.4-0.7l0.4-0.7l0.4-0.7l0.4-0.7l0.4-0.7l0.4-0.7l0.4-0.7l0.4-0.7l0.4-0.7l0.4-0.7l0.4-0.7l0.4-0.7l0.4-0.7l0.4-0.7
		l0.4-0.7l0.4-0.7l0.4-0.7l0.4-0.7l0.4-0.7l0.4-0.7l0.4-0.7l0.4-0.7l0.4-0.7l0.4-0.7l0.4-0.7l0.4-0.7l0.4-0.7l0.4-0.7l0.4-0.7
		l0.4-0.7l0.4-0.7l0.4-0.7l0.4-0.7l0.4-0.7l0.4-0.7l0.4-0.7l0.4-0.7l0.4-0.7l0.4-0.7l0.4-0.7l0.4-0.7l0.4-0.7l0.4-0.7l0.4-0.7
		l0.4-0.7l0.4-0.7l0.4-0.7l0.4-0.7l0.4-0.7l0.4-0.7l0.4-0.7l0.4-0.7l0.4-0.7l0.4-0.7l0.4-0.7l0.4-0.7l0.4-0.7l0.4-0.8l0.4-0.8
		l0.4-0.8l0.4-0.8l0.4-0.8l0.4-0.8l0.4-0.8l0.4-0.8l0.4-0.8l0.4-0.8l0.4-0.7l0.4-0.7l0.4-0.7l0.4-0.7l0.4-0.7l0.4-0.7l0.4-0.7
		l0.4-0.7l0.4-0.7l0.4-0.7l0.4-0.7l0.4-0.7l0.4-0.7l0.4-0.7l0.4-0.7l0.4-0.7l0.4-0.7l0.4-0.7l0.4-0.7l0.4-0.7l0.4-0.7l0.4-0.7
		l0.4-0.7l0.4-0.7l0.4-0.7l0.4-0.7l0.4-0.7l0.4-0.7l0.4-0.7l0.4-0.7l0.4-0.7l0.4-0.7l0.4-0.7l0.4-0.7l0.4-0.7l0.4-0.7l0.4-0.7
		l0.4-0.7l0.4-0.7l0.4-0.7l0.4-0.7l0.4-0.7l0.4-0.7l0.4-0.7l0.4-0.7l0.4-0.7l0.4-0.7l0.4-0.7l0.4-0.7l0.4-0.7l0.4-0.7l0.4-0.7
		l0.4-0.7l0.4-0.7l0.4-0.7l0.4-0.7l0.4-0.7l0.4-0.7l0.4-0.7l0.4-0.7l0.4-0.7l0.4-0.7l0.4-0.7l0.4-0.7l0.4-0.7l0.4-0.7l0.4-0.7
		l0.4-0.7l0.4-0.7l0.4-0.7l0.4-0.7l0.4-0.7l0.4-0.7l0.4-0.7l0.4-0.7l0.4-0.7l0.4-0.7l0.4-0.7l0.4-0.7l0.4-0.7l0.4-0.7l0.4-0.7
		l0.4-0.7l0.4-0.7l0.4-0.7l0.4-0.7l0.4-0.7l0.4-0.7l0.4-0.7l0.4-0.7l0.4-0.7l0.4-0.7l0.4-0.7l0.4-0.7l0.4-0.7l0.4-0.7l0.4-0.7
		l0.4-0.7l0.4-0.7l0.4-0.7l0.4-0.6l0.4-0.6l0.4-0.6l0.4-0.6l0.4-0.6l0.4-0.6l0.4-0.6l0.4-0.6l0.4-0.6l0.4-0.6l0.4-0.6l0.4-0.6
		l0.4-0.6l0.4-0.6l0.4-0.6l0.4-0.6l0.4-0.6l0.4-0.6l0.4-0.6l0.4-0.6l0.4-0.6l0.4-0.6l0.4-0.6l0.4-0.6l0.4-0.6l0.4-0.6l0.4-0.6
		l0.4-0.6l0.4-0.6l0.4-0.6l0.4-0.6l0.4-0.6l0.4-0.6l0.4-0.6l0.4-0.6l0.4-0.6l0.4-0.6l0.4-0.6l0.4-0.6l0.4-0.6l0.4-0.6l0.4-0.6
		l0.4-0.6l0.4-0.6l0.4-0.6l0.4-0.6l0.4-0.6l0.4-0.6l0.4-0.6l0.4-0.5l0.4-0.5l0.4-0.5l0.4-0.5l0.4-0.5l0.4-0.5l0.4-0.5l0.4-0.5
		l0.4-0.5l0.4-0.5l0.4-0.5l0.4-0.5l0.4-0.5l0.4-0.5l0.4-0.5l0.4-0.5l0.4-0.5l0.4-0.5l0.4-0.5l0.4-0.5l0.4-0.5l0.4-0.5l0.4-0.5
		l0.4-0.5l0.4-0.5l0.4-0.5l0.4-0.5l0.4-0.5l0.4-0.5l0.4-0.5l0.4-0.5l0.4-0.5l0.4-0.5l0.4-0.5l0.4-0.5l0.4-0.5l0.4-0.5l0.4-0.5
		l0.4-0.5l0.4-0.5l0.4-0.5l0.4-0.5l0.4-0.5l0.4-0.5l0.4-0.4l0.4-0.4l0.4-0.4l0.4-0.4l0.4-0.4l0.4-0.4l0.4-0.4l0.4-0.4l0.4-0.4
		l0.4-0.4l0.4-0.4l0.4-0.4l0.4-0.4l0.4-0.4l0.4-0.4l0.4-0.4l0.4-0.4l0.4-0.4l0.4-0.4l0.4-0.4l0.4-0.4l0.4-0.4l0.4-0.4l0.4-0.4
		l0.4-0.4l0.4-0.4l0.4-0.4l0.4-0.4l0.4-0.4l0.4-0.4l0.4-0.4l0.4-0.4l0.4-0.4l0.4-0.4l0.4-0.4l0.4-0.4l0.4-0.4l0.4-0.4l0.4-0.4
		l0.4-0.4l0.4-0.4l0.4-0.4l0.4-0.4l0.4-0.3l0.4-0.3l0.4-0.3l0.4-0.3l0.4-0.3l0.4-0.3l0.4-0.3l0.4-0.3l0.4-0.3l0.4-0.3l0.4-0.3
		l0.4-0.3l0.4-0.3l0.4-0.3l0.4-0.3l0.4-0.3l0.4-0.3l0.4-0.3l0.4-0.3l0.4-0.3l0.4-0.3l0.4-0.3l0.4-0.3l0.4-0.3l0.4-0.3l0.4-0.3
		l0.4-0.3l0.4-0.3l0.4-0.3l0.4-0.3l0.4-0.3l0.4-0.3l0.4-0.3l0.4-0.3l0.4-0.3l0.4-0.3l0.4-0.3l0.4-0.3l0.4-0.3l0.4-0.3l0.4-0.3
		l0.4-0.3l0.4-0.3l0.4-0.3l0.4-0.3l0.4-0.3l0.4-0.3l0.4-0.3l0.4-0.3l0.4-0.2l0.4-0.2l0.4-0.2l0.4-0.2l0.4-0.2l0.4-0.2l0.4-0.2
		l0.4-0.2l0.4-0.2l0.4-0.2l0.4-0.2l0.4-0.2l0.4-0.2l0.4-0.2l0.4-0.2l0.4-0.2l0.4-0.2l0.4-0.2l0.4-0.2l0.4-0.2l0.4-0.2l0.4-0.2
		l0.4-0.2l0.4-0.2l0.4-0.2l0.4-0.2l0.4-0.2l0.4-0.2l0.4-0.2l0.4-0.2l0.4-0.2l0.4-0.2l0.4-0.2l0.4-0.2l0.4-0.2l0.4-0.2l0.4-0.2
		l0.4-0.2l0.4-0.2l0.4-0.2l0.4-0.2l0.4-0.2l0.4-0.2l0.4-0.2l0.4-0.2l0.4-0.2l0.4-0.2l0.4-0.2l0.4-0.2l0.4-0.2l0.4-0.2l0.4-0.2
		l0.4-0.2l0.4-0.2l0.4-0.2l0.4-0.2l0.4-0.2l0.4-0.2l0.4-0.2l0.4-0.2l0.4-0.2l0.4-0.1l0.4-0.1l0.4-0.1l0.4-0.1l0.4-0.1l0.4-0.1
		l0.4-0.1l0.4-0.1l0.4-0.1l0.4-0.1l0.4-0.1L465,69l0.4-0.1l0.4-0.1l0.4-0.1l0.4-0.1l0.4-0.1l0.4-0.1l0.4-0.1l0.4-0.1l0.4-0.1
		l0.4-0.1l0.4-0.1l0.4-0.1l0.4-0.1l0.4-0.1l0.4-0.1l0.4-0.1l0.4-0.1l0.4-0.1l0.4-0.1l0.4-0.1l0.4-0.1l0.4-0.1l0.4-0.1l0.4-0.1
		l0.4-0.1l0.4-0.1l0.4-0.1l0.4-0.1l0.4-0.1l0.4-0.1l0.4-0.1l0.4-0.1l0.4-0.1l0.4-0.1l0.4-0.1l0.4-0.1l0.4-0.1l0.4-0.1l0.4-0.1
		l0.4-0.1l0.4-0.1l0.4-0.1l0.4-0.1l0.4-0.1l0.4-0.1l0.4-0.1l0.4-0.1l0.4-0.1l0.4-0.1l0.4-0.1l0.4-0.1l0.4-0.1l0.4-0.1l0.4-0.1
		l0.4-0.1l0.4-0.1l0.4-0.1l0.4-0.1l0.4-0.1l0.4-0.1l0.4-0.1l0.4-0.1l0.4-0.1l0.4-0.1l0.4-0.1l0.4-0.1l0.4-0.1l0.4-0.1l0.4-0.1
		l0.4-0.1l0.4-0.1l0.4-0.1l0.4-0.1l0.4-0.1l0.4-0.1l0.4-0.1l0.4-0.1l0.4-0.1l0.4-0.1l0.4-0.1l0.4-0.1l0.4-0.1l0.4-0.1l0.4-0.1
		l0.4-0.1l0.4-0.1l0.4-0.1l0.4-0.1l0.4-0.1l0.4-0.1l0.4-0.1l0.4-0.1l0.4,0l0.4,0l0.4,0l0.4,0l0.4,0l0.4,0l0.4,0l0.4,0l0.4,0l0.4,0
		l0.4,0l0.4,0l0.4,0l0.4,0l0.4,0l0.4,0l0.4,0l0.4,0l0.4,0l0.4,0l0.4,0l0.4,0l0.4,0l0.4,0l0.4,0l0.4,0l0.4,0l0.4,0l0.4,0l0.4,0l0.4,0
		l0.4,0l0.4,0l0.4,0l0.4,0l0.4,0l0.4,0l0.4,0l0.4,0l0.4,0l0.4,0l0.4,0l0.4,0l0.4,0l0.4,0l0.4,0l0.4,0l0.4,0l0.4,0l0.4,0l0.4,0l0.4,0
		l0.4,0l0.4,0l0.4,0l0.4,0l0.4,0l0.4,0l0.4,0l0.4,0l0.4,0l0.4,0l0.4,0l0.4,0l0.4,0l0.4,0l0.4,0l0.4,0l0.4,0l0.4,0l0.4,0l0.4,0l0.4,0
		l0.4,0l0.4,0l0.4,0l0.4,0l0.4,0l0.4,0l0.4,0l0.4,0l0.4,0l0.4,0l0.4,0l0.4,0l0.4,0l0.4,0l0.4,0l0.4,0l0.4,0l0.4,0l0.4,0l0.4,0l0.4,0
		l0.4,0l0.4,0l0.4,0l0.4,0l0.4,0l0.4,0l0.4,0l0.4,0l0.4,0l0.4,0l0.4,0l0.4,0l0.4,0l0.4,0"/>
</g>
<g>
	<line class="st4" x1="270.7" y1="443" x2="270.7" y2="39"/>
	<line class="st4" x1="160.5" y1="241" x2="564.5" y2="241"/>
</g>
<g>
	<line class="st5" x1="546.1" y1="57.4" x2="546.1" y2="57.4"/>
	<line class="st5" x1="546.1" y1="57.4" x2="546.1" y2="57.4"/>
</g>
<g transform="translate(546.1364,57.3636)">
	<path class="st6" d="M-2-2v4h4v-4H-2z"/>
</g>
<path class="st7" d="M544.1,55.4v4h4v-4H544.1z"/>
<line class="st5" x1="419.6" y1="57.4" x2="419.6" y2="57.4"/>
<line class="st5" x1="419.6" y1="57.4" x2="419.6" y2="57.4"/>
<line class="st5" x1="331.5" y1="269.5" x2="331.5" y2="326.5"/>
<line class="st5" x1="331.5" y1="269.5" x2="331.5" y2="212.4"/>
<g transform="translate(331.4803,269.4691)">
	<path class="st6" d="M-5-5V5H5V-5H-5z"/>
</g>
<g transform="translate(331.4803,269.4691)">
	<path class="st7" d="M-5-5V5H5V-5H-5z"/>
	<line class="st5" x1="-60.8" y1="23.5" x2="-60.8" y2="57.1"/>
	<line class="st5" x1="-60.8" y1="23.5" x2="-60.8" y2="-10"/>
</g>
<g transform="translate(270.6818,293.007)">
	<path class="st6" d="M-10-10v20h20v-20H-10z"/>
</g>
<g transform="translate(270.6818,293.007)">
	<path class="st7" d="M-10-10v20h20v-20H-10z"/>
	<line class="st5" x1="-42.2" y1="82.4" x2="-42.2" y2="104.3"/>
	<line class="st5" x1="-42.2" y1="82.4" x2="-42.2" y2="60.6"/>
</g>
<g transform="translate(228.4951,375.4276)">
	<path class="st6" d="M-11-11v22h22v-22H-11z"/>
</g>
<g transform="translate(228.4951,375.4276)">
	<path class="st7" d="M-11-11v22h22v-22H-11z"/>
	<line class="st5" x1="-29.4" y1="31.5" x2="-29.4" y2="41.8"/>
	<line class="st5" x1="-29.4" y1="31.5" x2="-29.4" y2="21.1"/>
</g>
<g transform="translate(199.1298,406.8814)">
	<path class="st6" d="M-8-8V8H8V-8H-8z"/>
</g>
<g transform="translate(199.1298,406.8814)">
	<path class="st7" d="M-8-8V8H8V-8H-8z"/>
	<line class="st5" x1="-20.3" y1="9.4" x2="-20.3" y2="16.4"/>
	<line class="st5" x1="-20.3" y1="9.4" x2="-20.3" y2="2.4"/>
</g>
<g transform="translate(178.8636,416.3086)">
	<path class="st6" d="M-7-7V7H7V-7H-7z"/>
</g>
<g transform="translate(178.8636,416.3086)">
	<path class="st7" d="M-7-7V7H7V-7H-7z"/>
	<line class="st5" x1="367.3" y1="-349.2" x2="367.3" y2="-341.7"/>
	<line class="st5" x1="367.3" y1="-349.2" x2="367.3" y2="-356.7"/>
</g>
<g transform="translate(546.1364,67.1208)">
	<path class="st8" d="M-7-7V7H7V-7H-7z"/>
</g>
<path class="st7" d="M539.1,60.1v14h14v-14H539.1z"/>
<line class="st5" x1="419.6" y1="79" x2="419.6" y2="79"/>
<line class="st5" x1="419.6" y1="79" x2="419.6" y2="79"/>
<path class="st6" d="M417.6,77v4h4v-4H417.6z"/>
<path class="st7" d="M417.6,77v4h4v-4H417.6z"/>
<line class="st5" x1="419.6" y1="81.7" x2="419.6" y2="84.3"/>
<path class="st9" d="M410.6,51v18h18V51H410.6z"/>
<line class="st5" x1="331.5" y1="89.2" x2="331.5" y2="107.3"/>
<line class="st5" x1="331.5" y1="89.2" x2="331.5" y2="71.2"/>
<g transform="translate(331.4803,89.2309)">
	<path class="st8" d="M-10-10v20h20v-20H-10z"/>
</g>
<g transform="translate(331.4803,89.2309)">
	<path class="st7" d="M-10-10v20h20v-20H-10z"/>
	<line class="st5" x1="-60.8" y1="21.8" x2="-60.8" y2="45.8"/>
	<line class="st5" x1="-60.8" y1="21.8" x2="-60.8" y2="-2.3"/>
</g>
<g transform="translate(270.6818,111.0134)">
	<path class="st8" d="M-9-9V9H9V-9H-9z"/>
</g>
<g transform="translate(270.6818,111.0134)">
	<path class="st7" d="M-9-9V9H9V-9H-9z"/>
	<line class="st5" x1="-42.2" y1="178.6" x2="-42.2" y2="228.7"/>
	<line class="st5" x1="-42.2" y1="178.6" x2="-42.2" y2="128.4"/>
</g>
<g transform="translate(228.4951,289.5947)">
	<path class="st8" d="M-5-5V5H5V-5H-5z"/>
</g>
<g transform="translate(228.4951,289.5947)">
	<path class="st7" d="M-5-5V5H5V-5H-5z"/>
	<line class="st5" x1="-29.4" y1="-232.2" x2="-29.4" y2="-232.2"/>
	<line class="st5" x1="-29.4" y1="-232.2" x2="-29.4" y2="-232.2"/>
</g>
<g transform="translate(199.1298,57.3636)">
	<path class="st8" d="M-2-2v4h4v-4H-2z"/>
</g>
<g transform="translate(199.1298,57.3636)">
	<path class="st7" d="M-2-2v4h4v-4H-2z"/>
	<line class="st5" x1="-20.3" y1="0" x2="-20.3" y2="0"/>
	<line class="st5" x1="-20.3" y1="0" x2="-20.3" y2="0"/>
</g>
<g transform="translate(178.8636,57.3636)">
	<path class="st8" d="M-2-2v4h4v-4H-2z"/>
</g>
<g transform="translate(178.8636,57.3636)">
	<path class="st7" d="M-2-2v4h4v-4H-2z"/>
	<line class="st10" x1="-18.4" y1="385.6" x2="385.6" y2="385.6"/>
	<line class="st10" x1="0" y1="385.6" x2="0" y2="395.7"/>
	<line class="st10" x1="20.3" y1="385.6" x2="20.3" y2="395.7"/>
	<line class="st10" x1="49.6" y1="385.6" x2="49.6" y2="395.7"/>
	<line class="st10" x1="91.8" y1="385.6" x2="91.8" y2="395.7"/>
	<line class="st10" x1="152.6" y1="385.6" x2="152.6" y2="395.7"/>
	<line class="st10" x1="240.7" y1="385.6" x2="240.7" y2="395.7"/>
	<line class="st10" x1="367.3" y1="385.6" x2="367.3" y2="395.7"/>
</g>
<g transform="translate(178.8636,460.4083)">
	<path d="M-9.5,21h-1.8V9.8c-0.4,0.4-1,0.8-1.7,1.2c-0.7,0.4-1.3,0.7-1.9,0.9v-1.7c1-0.5,1.9-1,2.6-1.7c0.7-0.7,1.3-1.3,1.6-1.9h1.1
		V21z M1.6,21h-1.8V9.8c-0.4,0.4-1,0.8-1.7,1.2c-0.7,0.4-1.3,0.7-1.9,0.9v-1.7c1-0.5,1.9-1,2.6-1.7c0.7-0.7,1.3-1.3,1.6-1.9h1.1V21z
		 M15.3,19.3V21H5.9c0-0.4,0.1-0.8,0.2-1.2c0.2-0.6,0.6-1.3,1.2-1.9c0.5-0.6,1.3-1.3,2.3-2.2c1.6-1.3,2.6-2.3,3.2-3
		c0.5-0.7,0.8-1.5,0.8-2.1c0-0.7-0.3-1.3-0.8-1.8c-0.5-0.5-1.2-0.7-2-0.7c-0.8,0-1.5,0.3-2,0.8C8.3,9.4,8,10.1,8,11l-1.8-0.2
		c0.1-1.3,0.6-2.4,1.4-3.1C8.4,7,9.5,6.6,10.8,6.6c1.4,0,2.4,0.4,3.3,1.1c0.8,0.8,1.2,1.7,1.2,2.8c0,0.6-0.1,1.1-0.4,1.7
		c-0.2,0.6-0.6,1.1-1.2,1.8c-0.5,0.6-1.4,1.5-2.7,2.5C10,17.4,9.3,18,9,18.4c-0.3,0.3-0.5,0.6-0.7,1H15.3z"/>
</g>
<g transform="translate(546.1364,460.4083)">
	<path d="M-15,21h-1.8V9.8c-0.4,0.4-1,0.8-1.7,1.2c-0.7,0.4-1.3,0.7-1.9,0.9v-1.7c1-0.5,1.9-1,2.6-1.7c0.7-0.7,1.3-1.3,1.6-1.9h1.1
		V21z M-10.5,13.9c0-1.7,0.2-3,0.5-4.1c0.3-1,0.9-1.8,1.6-2.4c0.7-0.6,1.6-0.8,2.6-0.8c0.8,0,1.4,0.2,2,0.5c0.6,0.3,1.1,0.8,1.4,1.3
		C-2,9-1.8,9.7-1.5,10.6s0.3,2,0.3,3.4c0,1.7-0.2,3-0.5,4.1c-0.3,1-0.9,1.8-1.5,2.4C-4,21-4.8,21.3-5.9,21.3c-1.4,0-2.5-0.5-3.2-1.5
		C-10.1,18.6-10.5,16.6-10.5,13.9z M-8.7,13.9c0,2.4,0.3,3.9,0.8,4.7c0.5,0.8,1.2,1.2,2,1.2c0.8,0,1.5-0.4,2-1.2S-3,16.3-3,13.9
		c0-2.4-0.3-3.9-0.8-4.7c-0.6-0.8-1.2-1.2-2-1.2c-0.8,0-1.5,0.3-1.9,1C-8.4,10-8.7,11.6-8.7,13.9z M0.6,13.9c0-1.7,0.2-3,0.5-4.1
		C1.4,8.8,2,8,2.7,7.5c0.7-0.6,1.6-0.8,2.6-0.8c0.8,0,1.4,0.2,2,0.5c0.6,0.3,1.1,0.8,1.4,1.3C9.1,9,9.4,9.7,9.6,10.6
		c0.2,0.8,0.3,2,0.3,3.4c0,1.7-0.2,3-0.5,4.1c-0.3,1-0.9,1.8-1.5,2.4c-0.7,0.6-1.5,0.9-2.6,0.9c-1.4,0-2.5-0.5-3.3-1.5
		C1,18.6,0.6,16.6,0.6,13.9z M2.4,13.9c0,2.4,0.3,3.9,0.8,4.7c0.5,0.8,1.2,1.2,2,1.2c0.8,0,1.5-0.4,2-1.2c0.6-0.8,0.8-2.3,0.8-4.7
		c0-2.4-0.3-3.9-0.8-4.7C6.7,8.5,6,8.1,5.2,8.1c-0.8,0-1.5,0.3-1.9,1C2.7,10,2.4,11.6,2.4,13.9z M11.7,13.9c0-1.7,0.2-3,0.5-4.1
		c0.3-1,0.9-1.8,1.6-2.4c0.7-0.6,1.6-0.8,2.6-0.8c0.8,0,1.4,0.2,2,0.5c0.6,0.3,1.1,0.8,1.4,1.3c0.4,0.6,0.7,1.3,0.9,2.1
		c0.2,0.8,0.3,2,0.3,3.4c0,1.7-0.2,3-0.5,4.1c-0.3,1-0.9,1.8-1.5,2.4c-0.7,0.6-1.5,0.9-2.6,0.9c-1.4,0-2.5-0.5-3.3-1.5
		C12.2,18.6,11.7,16.6,11.7,13.9z M13.5,13.9c0,2.4,0.3,3.9,0.8,4.7c0.5,0.8,1.2,1.2,2,1.2c0.8,0,1.5-0.4,2-1.2s0.8-2.3,0.8-4.7
		c0-2.4-0.3-3.9-0.8-4.7c-0.6-0.8-1.2-1.2-2-1.2c-0.8,0-1.5,0.3-1.9,1C13.8,10,13.5,11.6,13.5,13.9z"/>
</g>
<g transform="translate(325,510)">
	<path d="M5.7,0v-13.9H0.5v-1.9H13v1.9H7.8V0H5.7z"/>
</g>
<g transform="translate(339,520)">
	<path d="M9.1-1.5V0H0.5c0-0.4,0.1-0.8,0.2-1.1c0.2-0.6,0.6-1.2,1-1.7c0.5-0.6,1.2-1.2,2.1-2c1.4-1.1,2.3-2.1,2.8-2.7
		s0.7-1.3,0.7-1.9c0-0.6-0.2-1.2-0.7-1.6c-0.4-0.4-1-0.6-1.8-0.6c-0.8,0-1.4,0.2-1.8,0.7S2.5-9.8,2.5-9L0.8-9.2
		C1-10.4,1.4-11.3,2.1-12c0.7-0.6,1.7-1,2.9-1c1.2,0,2.2,0.3,2.9,1C8.7-11.2,9-10.4,9-9.4c0,0.5-0.1,1-0.3,1.5
		c-0.2,0.5-0.6,1-1.1,1.6C7.2-5.7,6.4-5,5.2-4C4.3-3.2,3.7-2.7,3.4-2.4C3.1-2.1,2.9-1.8,2.8-1.5H9.1z"/>
</g>
<g transform="translate(349,510)">
	<path d="M11.3,4.6c-1.1-1.3-2-2.9-2.7-4.7C7.8-1.9,7.4-3.8,7.4-5.7c0-1.7,0.3-3.3,0.8-4.9c0.6-1.8,1.6-3.6,3-5.4h1.4
		c-0.9,1.5-1.4,2.6-1.7,3.2c-0.4,1-0.8,2-1,3.1C9.6-8.4,9.4-7,9.4-5.7c0,3.4,1.1,6.9,3.2,10.3H11.3z M14.9,0v-11.4h1.7v1.6
		c0.4-0.6,0.8-1,1.4-1.3c0.6-0.3,1.3-0.5,2-0.5c0.8,0,1.5,0.2,2.1,0.5c0.5,0.4,0.9,0.8,1.1,1.5c0.9-1.3,2.1-2,3.5-2
		c1.1,0,2,0.3,2.6,0.9c0.6,0.6,0.9,1.6,0.9,2.9V0h-1.9v-7.2c0-0.8-0.1-1.3-0.2-1.7s-0.4-0.6-0.7-0.8c-0.3-0.2-0.7-0.3-1.2-0.3
		c-0.8,0-1.5,0.3-2,0.8c-0.5,0.5-0.8,1.4-0.8,2.6V0h-1.9v-7.4c0-0.9-0.2-1.5-0.5-1.9c-0.3-0.4-0.8-0.6-1.6-0.6c-0.5,0-1,0.1-1.5,0.4
		s-0.8,0.7-1,1.3c-0.2,0.5-0.3,1.3-0.3,2.4V0H14.9z M32.4-3.4l1.9-0.3c0.1,0.8,0.4,1.3,0.9,1.8c0.5,0.4,1.2,0.6,2.1,0.6
		c0.9,0,1.5-0.2,2-0.5c0.4-0.4,0.6-0.8,0.6-1.3c0-0.4-0.2-0.8-0.6-1c-0.3-0.2-0.9-0.4-2-0.7c-1.4-0.4-2.4-0.7-3-0.9
		c-0.5-0.3-1-0.6-1.2-1.1c-0.3-0.5-0.4-1-0.4-1.5c0-0.5,0.1-1,0.4-1.4c0.2-0.4,0.5-0.8,0.9-1.1c0.3-0.2,0.7-0.4,1.2-0.6
		c0.5-0.2,1.1-0.2,1.7-0.2c0.9,0,1.7,0.1,2.4,0.4c0.7,0.3,1.2,0.6,1.5,1c0.3,0.4,0.5,1,0.7,1.8l-1.9,0.3c-0.1-0.6-0.3-1.1-0.7-1.4
		c-0.4-0.3-1-0.5-1.7-0.5c-0.9,0-1.5,0.1-1.9,0.4s-0.6,0.6-0.6,1c0,0.3,0.1,0.5,0.2,0.7c0.2,0.2,0.4,0.4,0.7,0.5
		c0.2,0.1,0.8,0.2,1.7,0.5c1.4,0.4,2.3,0.7,2.9,0.9c0.5,0.2,1,0.6,1.3,1c0.3,0.4,0.5,1,0.5,1.6c0,0.6-0.2,1.3-0.6,1.8
		c-0.4,0.6-0.9,1-1.6,1.3c-0.7,0.3-1.5,0.5-2.4,0.5c-1.5,0-2.6-0.3-3.4-0.9C33.2-1.3,32.7-2.2,32.4-3.4z M45.5,4.6h-1.4
		c2.1-3.4,3.2-6.9,3.2-10.3c0-1.4-0.2-2.7-0.5-4c-0.2-1.1-0.6-2.1-1-3.1c-0.3-0.6-0.9-1.7-1.7-3.2h1.4c1.3,1.8,2.3,3.6,3,5.4
		C49-9,49.3-7.4,49.3-5.7c0,1.9-0.4,3.8-1.1,5.6C47.4,1.7,46.5,3.3,45.5,4.6z"/>
</g>
<g>
	<line class="st10" x1="160.5" y1="443" x2="160.5" y2="39"/>
	<line class="st10" x1="160.5" y1="424.6" x2="150.4" y2="424.6"/>
	<line class="st10" x1="160.5" y1="332.8" x2="150.4" y2="332.8"/>
	<line class="st10" x1="160.5" y1="241" x2="150.4" y2="241"/>
	<line class="st10" x1="160.5" y1="149.2" x2="150.4" y2="149.2"/>
	<line class="st10" x1="160.5" y1="57.4" x2="150.4" y2="57.4"/>
</g>
<g transform="translate(143.0917,424.6364)">
	<path d="M-11.2,0.9c0-1.7,0.2-3,0.5-4.1c0.3-1,0.9-1.8,1.6-2.4c0.7-0.6,1.6-0.8,2.6-0.8c0.8,0,1.4,0.2,2,0.5
		C-3.9-5.6-3.4-5.2-3-4.6s0.7,1.3,0.9,2.1c0.2,0.8,0.3,2,0.3,3.4C-1.8,2.6-2,4-2.4,5c-0.3,1-0.9,1.8-1.5,2.4C-4.6,8-5.4,8.3-6.5,8.3
		c-1.4,0-2.5-0.5-3.3-1.5C-10.7,5.6-11.2,3.6-11.2,0.9z M-9.4,0.9c0,2.4,0.3,3.9,0.8,4.7c0.5,0.8,1.2,1.2,2,1.2c0.8,0,1.5-0.4,2-1.2
		c0.6-0.8,0.8-2.3,0.8-4.7c0-2.4-0.3-3.9-0.8-4.7c-0.6-0.8-1.2-1.2-2-1.2c-0.8,0-1.5,0.3-1.9,1C-9.1-3-9.4-1.4-9.4,0.9z"/>
</g>
<g transform="translate(143.0917,57.3636)">
	<path d="M-4.5,8h-1.8V-3.2C-6.7-2.8-7.3-2.4-8-2c-0.7,0.4-1.3,0.7-1.9,0.9v-1.7c1-0.5,1.9-1,2.6-1.7C-6.5-5.1-6-5.8-5.7-6.4h1.1V8z
		"/>
</g>
</svg>
