<?xml version="1.0" encoding="utf-8"?>
<!-- Generator: Adobe Illustrator 24.0.1, SVG Export Plug-In . SVG Version: 6.00 Build 0)  -->
<svg version="1.1" id="Layer_1" xmlns="http://www.w3.org/2000/svg" xmlns:xlink="http://www.w3.org/1999/xlink" x="0px" y="0px"
	 viewBox="0 0 700 525" style="enable-background:new 0 0 700 525;" xml:space="preserve">
<style type="text/css">
	.st0{fill:none;stroke:#000000;stroke-width:0.8333;stroke-linejoin:bevel;stroke-miterlimit:1;stroke-dasharray:1,3;}
	.st1{fill:none;stroke:#BFBFBF;stroke-width:2.5;stroke-linejoin:bevel;stroke-miterlimit:1;stroke-dasharray:8,8;}
	.st2{fill:none;stroke:#BFBFBF;stroke-width:2.5;stroke-linejoin:round;stroke-miterlimit:10;}
	.st3{fill:#BFBFBF;}
	.st4{fill:none;stroke:#000000;stroke-width:2.5;stroke-linejoin:bevel;stroke-miterlimit:1;stroke-dasharray:8,8;}
	.st5{fill:none;stroke:#000000;stroke-width:2.5;stroke-linejoin:round;stroke-miterlimit:10;}
	.st6{fill:#FFFFFF;}
	.st7{fill:#808080;}
	.st8{fill:none;stroke:#000000;stroke-width:3.3333;stroke-linecap:square;stroke-linejoin:round;stroke-miterlimit:10;}
</style>
<g>
	<line class="st0" x1="362.5" y1="438" x2="362.5" y2="39"/>
	<line class="st0" x1="163" y1="238.5" x2="562" y2="238.5"/>
</g>
<g>
	<path class="st1" d="M181.1,228.5l81.2,50.4l100.2-45l100.2-0.8l81.2-35.7"/>
	<line class="st2" x1="181.1" y1="228.5" x2="262.3" y2="279"/>
</g>
<g transform="translate(181.1364,228.5472)">
	<circle class="st3" cx="0" cy="0" r="5.4"/>
</g>
<g transform="translate(181.1364,228.5472)">
	<path class="st3" d="M0-4.2c2.3,0,4.2,1.9,4.2,4.2l0,0c0,2.3-1.9,4.2-4.2,4.2S-4.2,2.3-4.2,0S-2.3-4.2,0-4.2z M0-6.7
		c-3.7,0-6.7,3-6.7,6.7s3,6.7,6.7,6.7s6.7-3,6.7-6.7l0,0C6.7-3.7,3.7-6.7,0-6.7z"/>
</g>
<g transform="translate(262.344,278.9957)">
	<circle class="st3" cx="0" cy="0" r="5.4"/>
</g>
<g transform="translate(262.344,278.9957)">
	<path class="st3" d="M0-4.2c2.3,0,4.2,1.9,4.2,4.2l0,0c0,2.3-1.9,4.2-4.2,4.2S-4.2,2.3-4.2,0S-2.3-4.2,0-4.2z M0-6.7
		c-3.7,0-6.7,3-6.7,6.7s3,6.7,6.7,6.7s6.7-3,6.7-6.7l0,0C6.7-3.7,3.7-6.7,0-6.7z"/>
</g>
<g transform="translate(362.5,234.0194)">
	<circle class="st3" cx="0" cy="0" r="5.4"/>
</g>
<g transform="translate(362.5,234.0194)">
	<path class="st3" d="M0-4.2c2.3,0,4.2,1.9,4.2,4.2l0,0c0,2.3-1.9,4.2-4.2,4.2S-4.2,2.3-4.2,0S-2.3-4.2,0-4.2z M0-6.7
		c-3.7,0-6.7,3-6.7,6.7s3,6.7,6.7,6.7s6.7-3,6.7-6.7l0,0C6.7-3.7,3.7-6.7,0-6.7z"/>
	<line class="st2" x1="100.2" y1="-0.8" x2="181.4" y2="-36.4"/>
</g>
<g transform="translate(462.656,233.2562)">
	<circle class="st3" cx="0" cy="0" r="5.4"/>
</g>
<g transform="translate(462.656,233.2562)">
	<path class="st3" d="M0-4.2c2.3,0,4.2,1.9,4.2,4.2l0,0c0,2.3-1.9,4.2-4.2,4.2S-4.2,2.3-4.2,0S-2.3-4.2,0-4.2z M0-6.7
		c-3.7,0-6.7,3-6.7,6.7s3,6.7,6.7,6.7s6.7-3,6.7-6.7l0,0C6.7-3.7,3.7-6.7,0-6.7z"/>
</g>
<g transform="translate(543.8636,197.5965)">
	<circle class="st3" cx="0" cy="0" r="5.4"/>
</g>
<g transform="translate(543.8636,197.5965)">
	<path class="st3" d="M0-4.2c2.3,0,4.2,1.9,4.2,4.2l0,0c0,2.3-1.9,4.2-4.2,4.2S-4.2,2.3-4.2,0S-2.3-4.2,0-4.2z M0-6.7
		c-3.7,0-6.7,3-6.7,6.7s3,6.7,6.7,6.7s6.7-3,6.7-6.7l0,0C6.7-3.7,3.7-6.7,0-6.7z"/>
	<path class="st1" d="M-362.7,43.9l81.2,55.6L-181.4,41l100.2-4.9L0,11"/>
	<line class="st2" x1="-362.7" y1="43.9" x2="-281.5" y2="99.5"/>
</g>
<g transform="translate(181.1364,241.5077)">
	<circle class="st3" cx="0" cy="0" r="5.4"/>
</g>
<g transform="translate(181.1364,241.5077)">
	<path class="st3" d="M0-4.2c2.3,0,4.2,1.9,4.2,4.2l0,0c0,2.3-1.9,4.2-4.2,4.2S-4.2,2.3-4.2,0S-2.3-4.2,0-4.2z M0-6.7
		c-3.7,0-6.7,3-6.7,6.7s3,6.7,6.7,6.7s6.7-3,6.7-6.7l0,0C6.7-3.7,3.7-6.7,0-6.7z"/>
</g>
<g transform="translate(262.344,297.0711)">
	<circle class="st3" cx="0" cy="0" r="5.4"/>
</g>
<g transform="translate(262.344,297.0711)">
	<path class="st3" d="M0-4.2c2.3,0,4.2,1.9,4.2,4.2l0,0c0,2.3-1.9,4.2-4.2,4.2S-4.2,2.3-4.2,0S-2.3-4.2,0-4.2z M0-6.7
		c-3.7,0-6.7,3-6.7,6.7s3,6.7,6.7,6.7s6.7-3,6.7-6.7l0,0C6.7-3.7,3.7-6.7,0-6.7z"/>
</g>
<g transform="translate(362.5,238.6403)">
	<circle class="st3" cx="0" cy="0" r="5.4"/>
</g>
<g transform="translate(362.5,238.6403)">
	<path class="st3" d="M0-4.2c2.3,0,4.2,1.9,4.2,4.2l0,0c0,2.3-1.9,4.2-4.2,4.2S-4.2,2.3-4.2,0S-2.3-4.2,0-4.2z M0-6.7
		c-3.7,0-6.7,3-6.7,6.7s3,6.7,6.7,6.7s6.7-3,6.7-6.7l0,0C6.7-3.7,3.7-6.7,0-6.7z"/>
	<line class="st2" x1="100.2" y1="-4.9" x2="181.4" y2="-30.1"/>
</g>
<g transform="translate(462.656,233.7626)">
	<circle class="st3" cx="0" cy="0" r="5.4"/>
</g>
<g transform="translate(462.656,233.7626)">
	<path class="st3" d="M0-4.2c2.3,0,4.2,1.9,4.2,4.2l0,0c0,2.3-1.9,4.2-4.2,4.2S-4.2,2.3-4.2,0S-2.3-4.2,0-4.2z M0-6.7
		c-3.7,0-6.7,3-6.7,6.7s3,6.7,6.7,6.7s6.7-3,6.7-6.7l0,0C6.7-3.7,3.7-6.7,0-6.7z"/>
</g>
<g transform="translate(543.8636,208.5626)">
	<circle class="st3" cx="0" cy="0" r="5.4"/>
</g>
<g transform="translate(543.8636,208.5626)">
	<path class="st3" d="M0-4.2c2.3,0,4.2,1.9,4.2,4.2l0,0c0,2.3-1.9,4.2-4.2,4.2S-4.2,2.3-4.2,0S-2.3-4.2,0-4.2z M0-6.7
		c-3.7,0-6.7,3-6.7,6.7s3,6.7,6.7,6.7s6.7-3,6.7-6.7l0,0C6.7-3.7,3.7-6.7,0-6.7z"/>
	<path class="st1" d="M-362.7,43.1l81.2,52.4l100.2-54.3l100.2-11.6L0-18.4"/>
	<line class="st2" x1="-362.7" y1="43.1" x2="-281.5" y2="95.6"/>
</g>
<g transform="translate(181.1364,251.6976)">
	<circle class="st3" cx="0" cy="0" r="5.4"/>
</g>
<g transform="translate(181.1364,251.6976)">
	<path class="st3" d="M0-4.2c2.3,0,4.2,1.9,4.2,4.2l0,0c0,2.3-1.9,4.2-4.2,4.2S-4.2,2.3-4.2,0S-2.3-4.2,0-4.2z M0-6.7
		c-3.7,0-6.7,3-6.7,6.7s3,6.7,6.7,6.7s6.7-3,6.7-6.7l0,0C6.7-3.7,3.7-6.7,0-6.7z"/>
</g>
<g transform="translate(262.344,304.1185)">
	<circle class="st3" cx="0" cy="0" r="5.4"/>
</g>
<g transform="translate(262.344,304.1185)">
	<path class="st3" d="M0-4.2c2.3,0,4.2,1.9,4.2,4.2l0,0c0,2.3-1.9,4.2-4.2,4.2S-4.2,2.3-4.2,0S-2.3-4.2,0-4.2z M0-6.7
		c-3.7,0-6.7,3-6.7,6.7s3,6.7,6.7,6.7s6.7-3,6.7-6.7l0,0C6.7-3.7,3.7-6.7,0-6.7z"/>
</g>
<g transform="translate(362.5,249.8103)">
	<circle class="st3" cx="0" cy="0" r="5.4"/>
</g>
<g transform="translate(362.5,249.8103)">
	<path class="st3" d="M0-4.2c2.3,0,4.2,1.9,4.2,4.2l0,0c0,2.3-1.9,4.2-4.2,4.2S-4.2,2.3-4.2,0S-2.3-4.2,0-4.2z M0-6.7
		c-3.7,0-6.7,3-6.7,6.7s3,6.7,6.7,6.7s6.7-3,6.7-6.7l0,0C6.7-3.7,3.7-6.7,0-6.7z"/>
	<line class="st2" x1="100.2" y1="-11.6" x2="181.4" y2="-59.6"/>
</g>
<g transform="translate(462.656,238.2439)">
	<circle class="st3" cx="0" cy="0" r="5.4"/>
</g>
<g transform="translate(462.656,238.2439)">
	<path class="st3" d="M0-4.2c2.3,0,4.2,1.9,4.2,4.2l0,0c0,2.3-1.9,4.2-4.2,4.2S-4.2,2.3-4.2,0S-2.3-4.2,0-4.2z M0-6.7
		c-3.7,0-6.7,3-6.7,6.7s3,6.7,6.7,6.7s6.7-3,6.7-6.7l0,0C6.7-3.7,3.7-6.7,0-6.7z"/>
</g>
<g transform="translate(543.8636,190.1681)">
	<circle class="st3" cx="0" cy="0" r="5.4"/>
</g>
<g transform="translate(543.8636,190.1681)">
	<path class="st3" d="M0-4.2c2.3,0,4.2,1.9,4.2,4.2l0,0c0,2.3-1.9,4.2-4.2,4.2S-4.2,2.3-4.2,0S-2.3-4.2,0-4.2z M0-6.7
		c-3.7,0-6.7,3-6.7,6.7s3,6.7,6.7,6.7s6.7-3,6.7-6.7l0,0C6.7-3.7,3.7-6.7,0-6.7z"/>
</g>
<g>
	<path class="st4" d="M181.1,239l81.2,52.7l100.2-52.5l100.2-4.5l81.2-36"/>
	<line class="st5" x1="181.1" y1="239" x2="262.3" y2="291.7"/>
</g>
<g transform="translate(181.1364,239.0239)">
	<circle class="st6" cx="0" cy="0" r="7.1"/>
</g>
<g transform="translate(181.1364,239.0239)">
	<path d="M0-5.8c3.2,0,5.8,2.6,5.8,5.8l0,0c0,3.2-2.6,5.8-5.8,5.8S-5.8,3.2-5.8,0S-3.2-5.8,0-5.8z M0-8.3c-4.6,0-8.3,3.7-8.3,8.3
		S-4.6,8.3,0,8.3S8.3,4.6,8.3,0l0,0C8.3-4.6,4.6-8.3,0-8.3z"/>
</g>
<g transform="translate(262.344,291.6885)">
	<circle class="st6" cx="0" cy="0" r="7.1"/>
</g>
<g transform="translate(262.344,291.6885)">
	<path d="M0-5.8c3.2,0,5.8,2.6,5.8,5.8l0,0c0,3.2-2.6,5.8-5.8,5.8S-5.8,3.2-5.8,0S-3.2-5.8,0-5.8z M0-8.3c-4.6,0-8.3,3.7-8.3,8.3
		S-4.6,8.3,0,8.3S8.3,4.6,8.3,0l0,0C8.3-4.6,4.6-8.3,0-8.3z"/>
</g>
<g transform="translate(362.5,239.1844)">
	<circle class="st7" cx="0" cy="0" r="7.1"/>
</g>
<g transform="translate(362.5,239.1844)">
	<path d="M0-5.8c3.2,0,5.8,2.6,5.8,5.8l0,0c0,3.2-2.6,5.8-5.8,5.8S-5.8,3.2-5.8,0S-3.2-5.8,0-5.8z M0-8.3c-4.6,0-8.3,3.7-8.3,8.3
		S-4.6,8.3,0,8.3S8.3,4.6,8.3,0l0,0C8.3-4.6,4.6-8.3,0-8.3z"/>
	<line class="st5" x1="100.2" y1="-4.5" x2="181.4" y2="-40.5"/>
</g>
<g transform="translate(462.656,234.7099)">
	<circle cx="0" cy="0" r="7.1"/>
</g>
<g transform="translate(462.656,234.7099)">
	<path d="M0-5.8c3.2,0,5.8,2.6,5.8,5.8l0,0c0,3.2-2.6,5.8-5.8,5.8S-5.8,3.2-5.8,0S-3.2-5.8,0-5.8z M0-8.3c-4.6,0-8.3,3.7-8.3,8.3
		S-4.6,8.3,0,8.3S8.3,4.6,8.3,0l0,0C8.3-4.6,4.6-8.3,0-8.3z"/>
</g>
<g transform="translate(543.8636,198.6604)">
	<circle cx="0" cy="0" r="7.1"/>
</g>
<g transform="translate(543.8636,198.6604)">
	<path d="M0-5.8c3.2,0,5.8,2.6,5.8,5.8l0,0c0,3.2-2.6,5.8-5.8,5.8S-5.8,3.2-5.8,0S-3.2-5.8,0-5.8z M0-8.3c-4.6,0-8.3,3.7-8.3,8.3
		S-4.6,8.3,0,8.3S8.3,4.6,8.3,0l0,0C8.3-4.6,4.6-8.3,0-8.3z"/>
	<line class="st8" x1="-380.9" y1="239.3" x2="18.1" y2="239.3"/>
	<line class="st8" x1="-362.7" y1="239.3" x2="-362.7" y2="249.3"/>
	<line class="st8" x1="-281.5" y1="239.3" x2="-281.5" y2="249.3"/>
	<line class="st8" x1="-181.4" y1="239.3" x2="-181.4" y2="249.3"/>
	<line class="st8" x1="-81.2" y1="239.3" x2="-81.2" y2="249.3"/>
	<line class="st8" x1="0" y1="239.3" x2="0" y2="249.3"/>
</g>
<g transform="translate(181.1364,455.2833)">
	<path d="M-13.9,16.7v-1.8h5.4v1.8H-13.9z M2.1,10.2l-1.8,0.1C0.2,9.6,0,9.1-0.3,8.8c-0.5-0.5-1.1-0.8-1.8-0.8
		c-0.6,0-1.1,0.2-1.5,0.5c-0.6,0.4-1,1-1.3,1.8c-0.3,0.8-0.5,1.9-0.5,3.3c0.4-0.6,0.9-1.1,1.6-1.4c0.6-0.3,1.3-0.5,1.9-0.5
		c1.2,0,2.2,0.4,3,1.3c0.8,0.9,1.2,2,1.2,3.3c0,0.9-0.2,1.7-0.6,2.5c-0.4,0.8-0.9,1.4-1.6,1.8c-0.7,0.4-1.4,0.6-2.3,0.6
		c-1.5,0-2.7-0.5-3.6-1.6s-1.4-2.9-1.4-5.3c0-2.8,0.5-4.8,1.5-6c0.9-1.1,2.1-1.6,3.6-1.6c1.1,0,2,0.3,2.8,0.9
		C1.5,8.2,2,9.1,2.1,10.2z M-5.1,16.4c0,0.6,0.1,1.2,0.4,1.7c0.3,0.6,0.6,1,1.1,1.3c0.5,0.3,0.9,0.4,1.4,0.4c0.8,0,1.4-0.3,1.9-0.9
		c0.5-0.6,0.8-1.4,0.8-2.4c0-1-0.3-1.8-0.8-2.3c-0.5-0.6-1.2-0.9-2-0.9c-0.8,0-1.5,0.3-2,0.9C-4.8,14.7-5.1,15.4-5.1,16.4z M4.2,8.6
		V6.9h9.3v1.4c-0.9,1-1.8,2.3-2.7,3.9c-0.9,1.6-1.6,3.3-2.1,5C8.4,18.3,8.1,19.6,8,21H6.2c0-1.1,0.2-2.5,0.7-4.1
		c0.4-1.6,1-3.1,1.8-4.6c0.8-1.5,1.6-2.7,2.5-3.7H4.2z"/>
</g>
<g transform="translate(543.8636,455.2833)">
	<path d="M-1.5,10.2l-1.8,0.1C-3.5,9.6-3.7,9.1-4,8.8C-4.4,8.3-5,8.1-5.7,8.1c-0.6,0-1.1,0.2-1.5,0.5c-0.6,0.4-1,1-1.3,1.8
		C-8.8,11.1-9,12.2-9,13.6c0.4-0.6,0.9-1.1,1.6-1.4s1.3-0.5,1.9-0.5c1.2,0,2.2,0.4,3,1.3c0.8,0.9,1.2,2,1.2,3.3
		c0,0.9-0.2,1.7-0.6,2.5c-0.4,0.8-0.9,1.4-1.6,1.8c-0.7,0.4-1.4,0.6-2.3,0.6c-1.5,0-2.7-0.5-3.6-1.6c-0.9-1.1-1.4-2.9-1.4-5.3
		c0-2.8,0.5-4.8,1.5-6c0.9-1.1,2.1-1.6,3.6-1.6c1.1,0,2,0.3,2.8,0.9C-2.1,8.2-1.7,9.1-1.5,10.2z M-8.7,16.4c0,0.6,0.1,1.2,0.4,1.7
		c0.3,0.6,0.6,1,1.1,1.3c0.5,0.3,0.9,0.4,1.4,0.4c0.8,0,1.4-0.3,1.9-0.9c0.5-0.6,0.8-1.4,0.8-2.4c0-1-0.3-1.8-0.8-2.3
		c-0.5-0.6-1.2-0.9-2-0.9c-0.8,0-1.5,0.3-2,0.9C-8.4,14.7-8.7,15.4-8.7,16.4z M0.6,8.6V6.9h9.3v1.4c-0.9,1-1.8,2.3-2.7,3.9
		c-0.9,1.6-1.6,3.3-2.1,5c-0.4,1.2-0.6,2.5-0.7,3.9H2.6c0-1.1,0.2-2.5,0.7-4.1c0.4-1.6,1-3.1,1.8-4.6c0.8-1.5,1.6-2.7,2.5-3.7H0.6z"
		/>
</g>
<g transform="translate(290,510)">
	<path d="M2,0v-15.8h2.1V0H2z"/>
</g>
<g transform="translate(297,520)">
	<path d="M9.1-1.5V0H0.5c0-0.4,0.1-0.8,0.2-1.1c0.2-0.6,0.6-1.2,1-1.7c0.5-0.6,1.2-1.2,2.1-2c1.4-1.1,2.3-2.1,2.8-2.7
		s0.7-1.3,0.7-1.9c0-0.6-0.2-1.2-0.7-1.6c-0.4-0.4-1-0.6-1.8-0.6c-0.8,0-1.4,0.2-1.8,0.7S2.5-9.8,2.5-9L0.8-9.2
		C1-10.4,1.4-11.3,2.1-12c0.7-0.6,1.7-1,2.9-1c1.2,0,2.2,0.3,2.9,1C8.7-11.2,9-10.4,9-9.4c0,0.5-0.1,1-0.3,1.5
		c-0.2,0.5-0.6,1-1.1,1.6C7.2-5.7,6.4-5,5.2-4C4.3-3.2,3.7-2.7,3.4-2.4C3.1-2.1,2.9-1.8,2.8-1.5H9.1z"/>
</g>
<g transform="translate(307,510)">
	<path d="M6.8-4.7v-1.9h5.9v1.9H6.8z M21.6,0v-15.8h2.1V0H21.6z"/>
</g>
<g transform="translate(333,520)">
	<path d="M6.7,0H5.1v-10.1C4.7-9.7,4.2-9.4,3.6-9C3-8.6,2.5-8.4,2-8.2v-1.5c0.9-0.4,1.7-0.9,2.3-1.5c0.7-0.6,1.1-1.2,1.4-1.7h1V0z"
		/>
</g>
<g transform="translate(343,510)">
	<path d="M11.3,4.6c-1.1-1.3-2-2.9-2.7-4.7C7.8-1.9,7.4-3.8,7.4-5.7c0-1.7,0.3-3.3,0.8-4.9c0.6-1.8,1.6-3.6,3-5.4h1.4
		c-0.9,1.5-1.4,2.6-1.7,3.2c-0.4,1-0.8,2-1,3.1C9.6-8.4,9.4-7,9.4-5.7c0,3.4,1.1,6.9,3.2,10.3H11.3z M14.9,0v-11.4h1.7v1.6
		c0.4-0.6,0.8-1,1.4-1.3c0.6-0.3,1.3-0.5,2-0.5c0.8,0,1.5,0.2,2.1,0.5c0.5,0.4,0.9,0.8,1.1,1.5c0.9-1.3,2.1-2,3.5-2
		c1.1,0,2,0.3,2.6,0.9c0.6,0.6,0.9,1.6,0.9,2.9V0h-1.9v-7.2c0-0.8-0.1-1.3-0.2-1.7s-0.4-0.6-0.7-0.8c-0.3-0.2-0.7-0.3-1.2-0.3
		c-0.8,0-1.5,0.3-2,0.8c-0.5,0.5-0.8,1.4-0.8,2.6V0h-1.9v-7.4c0-0.9-0.2-1.5-0.5-1.9c-0.3-0.4-0.8-0.6-1.6-0.6c-0.5,0-1,0.1-1.5,0.4
		s-0.8,0.7-1,1.3c-0.2,0.5-0.3,1.3-0.3,2.4V0H14.9z M33.2,0v-11.4H35v1.6c0.4-0.6,0.8-1,1.4-1.3c0.6-0.3,1.3-0.5,2-0.5
		c0.8,0,1.5,0.2,2.1,0.5c0.5,0.4,0.9,0.8,1.1,1.5c0.9-1.3,2.1-2,3.5-2c1.1,0,2,0.3,2.6,0.9c0.6,0.6,0.9,1.6,0.9,2.9V0h-1.9v-7.2
		c0-0.8-0.1-1.3-0.2-1.7c-0.1-0.3-0.4-0.6-0.7-0.8c-0.3-0.2-0.7-0.3-1.2-0.3c-0.8,0-1.5,0.3-2,0.8c-0.5,0.5-0.8,1.4-0.8,2.6V0H40
		v-7.4c0-0.9-0.2-1.5-0.5-1.9C39.2-9.8,38.7-10,38-10c-0.5,0-1,0.1-1.5,0.4c-0.5,0.3-0.8,0.7-1,1.3c-0.2,0.5-0.3,1.3-0.3,2.4V0H33.2
		z M52.1,0v-2.2h2.2V0H52.1z M56.9-3.4l1.9-0.3c0.1,0.8,0.4,1.3,0.9,1.8s1.2,0.6,2.1,0.6s1.5-0.2,2-0.5c0.4-0.4,0.6-0.8,0.6-1.3
		c0-0.4-0.2-0.8-0.6-1c-0.3-0.2-0.9-0.4-2-0.7c-1.4-0.4-2.4-0.7-3-0.9c-0.5-0.3-1-0.6-1.2-1.1c-0.3-0.5-0.4-1-0.4-1.5
		c0-0.5,0.1-1,0.4-1.4c0.2-0.4,0.5-0.8,0.9-1.1c0.3-0.2,0.7-0.4,1.2-0.6c0.5-0.2,1.1-0.2,1.7-0.2c0.9,0,1.7,0.1,2.4,0.4
		c0.7,0.3,1.2,0.6,1.5,1c0.3,0.4,0.5,1,0.7,1.8L64-8.2c-0.1-0.6-0.3-1.1-0.7-1.4c-0.4-0.3-1-0.5-1.7-0.5c-0.9,0-1.5,0.1-1.9,0.4
		s-0.6,0.6-0.6,1c0,0.3,0.1,0.5,0.2,0.7c0.2,0.2,0.4,0.4,0.7,0.5c0.2,0.1,0.8,0.2,1.7,0.5c1.4,0.4,2.3,0.7,2.9,0.9
		c0.5,0.2,1,0.6,1.3,1c0.3,0.4,0.5,1,0.5,1.6c0,0.6-0.2,1.3-0.6,1.8c-0.4,0.6-0.9,1-1.6,1.3c-0.7,0.3-1.5,0.5-2.4,0.5
		c-1.5,0-2.6-0.3-3.4-0.9C57.6-1.3,57.1-2.2,56.9-3.4z"/>
</g>
<g transform="translate(411,500)">
	<path d="M0.6-3.9v-1.6h4.9v1.6H0.6z M12.6,0H11v-10.1C10.6-9.7,10.1-9.4,9.5-9C8.9-8.6,8.3-8.4,7.8-8.2v-1.5
		c0.9-0.4,1.7-0.9,2.3-1.5c0.7-0.6,1.1-1.2,1.4-1.7h1V0z"/>
</g>
<g transform="translate(427,510)">
	<path d="M2.7,4.6H1.3C3.5,1.2,4.5-2.2,4.5-5.7c0-1.4-0.2-2.7-0.5-4c-0.2-1.1-0.6-2.1-1-3.1c-0.3-0.6-0.9-1.7-1.7-3.2h1.4
		c1.3,1.8,2.3,3.6,3,5.4C6.3-9,6.5-7.4,6.5-5.7c0,1.9-0.4,3.8-1.1,5.6C4.7,1.7,3.8,3.3,2.7,4.6z"/>
</g>
<g>
	<line class="st8" x1="163" y1="438" x2="163" y2="39"/>
	<line class="st8" x1="163" y1="419.9" x2="153.1" y2="419.9"/>
	<line class="st8" x1="163" y1="329.2" x2="153.1" y2="329.2"/>
	<line class="st8" x1="163" y1="238.5" x2="153.1" y2="238.5"/>
	<line class="st8" x1="163" y1="147.8" x2="153.1" y2="147.8"/>
	<line class="st8" x1="163" y1="57.1" x2="153.1" y2="57.1"/>
</g>
<g transform="translate(145.7167,419.8636)">
	<path d="M-11.2,0.9c0-1.7,0.2-3,0.5-4.1c0.3-1,0.9-1.8,1.6-2.4c0.7-0.6,1.6-0.8,2.6-0.8c0.8,0,1.4,0.2,2,0.5
		C-3.9-5.6-3.4-5.2-3-4.6s0.7,1.3,0.9,2.1c0.2,0.8,0.3,2,0.3,3.4C-1.8,2.6-2,4-2.4,5c-0.3,1-0.9,1.8-1.5,2.4C-4.6,8-5.4,8.3-6.5,8.3
		c-1.4,0-2.5-0.5-3.3-1.5C-10.7,5.6-11.2,3.6-11.2,0.9z M-9.4,0.9c0,2.4,0.3,3.9,0.8,4.7c0.5,0.8,1.2,1.2,2,1.2c0.8,0,1.5-0.4,2-1.2
		c0.6-0.8,0.8-2.3,0.8-4.7c0-2.4-0.3-3.9-0.8-4.7c-0.6-0.8-1.2-1.2-2-1.2c-0.8,0-1.5,0.3-1.9,1C-9.1-3-9.4-1.4-9.4,0.9z"/>
</g>
<g transform="translate(145.7167,57.1364)">
	<path d="M-4.5,8h-1.8V-3.2C-6.7-2.8-7.3-2.4-8-2c-0.7,0.4-1.3,0.7-1.9,0.9v-1.7c1-0.5,1.9-1,2.6-1.7C-6.5-5.1-6-5.8-5.7-6.4h1.1V8z
		"/>
</g>
<g transform="translate(115,290) rotate(-90)">
	<path d="M1.7,0v-15.8h5.9c1,0,1.8,0.1,2.4,0.2c0.8,0.1,1.4,0.4,1.9,0.7c0.5,0.4,0.9,0.9,1.3,1.5c0.3,0.7,0.5,1.4,0.5,2.1
		c0,1.3-0.4,2.5-1.3,3.4C11.6-6.9,10-6.4,7.8-6.4h-4V0H1.7z M3.8-8.3h4.1c1.3,0,2.3-0.3,2.9-0.8c0.6-0.5,0.8-1.2,0.8-2.1
		c0-0.7-0.2-1.2-0.5-1.7c-0.3-0.5-0.8-0.8-1.3-0.9c-0.3-0.1-1-0.1-1.9-0.1h-4V-8.3z M19.8,4.6c-1.1-1.3-2-2.9-2.7-4.7
		C16.4-1.9,16-3.8,16-5.7c0-1.7,0.3-3.3,0.8-4.9c0.6-1.8,1.6-3.6,3-5.4h1.4c-0.9,1.5-1.4,2.6-1.7,3.2c-0.4,1-0.8,2-1,3.1
		C18.1-8.4,18-7,18-5.7c0,3.4,1.1,6.9,3.2,10.3H19.8z M27.7,0v-13.9h-5.2v-1.9H35v1.9h-5.2V0H27.7z"/>
</g>
<g transform="translate(125,254) rotate(-90)">
	<path d="M9.1-1.5V0H0.5c0-0.4,0.1-0.8,0.2-1.1c0.2-0.6,0.6-1.2,1-1.7c0.5-0.6,1.2-1.2,2.1-2c1.4-1.1,2.3-2.1,2.8-2.7
		s0.7-1.3,0.7-1.9c0-0.6-0.2-1.2-0.7-1.6c-0.4-0.4-1-0.6-1.8-0.6c-0.8,0-1.4,0.2-1.8,0.7S2.5-9.8,2.5-9L0.8-9.2
		C1-10.4,1.4-11.3,2.1-12c0.7-0.6,1.7-1,2.9-1c1.2,0,2.2,0.3,2.9,1C8.7-11.2,9-10.4,9-9.4c0,0.5-0.1,1-0.3,1.5
		c-0.2,0.5-0.6,1-1.1,1.6C7.2-5.7,6.4-5,5.2-4C4.3-3.2,3.7-2.7,3.4-2.4C3.1-2.1,2.9-1.8,2.8-1.5H9.1z"/>
</g>
<g transform="translate(115,244) rotate(-90)">
	<path d="M17.8-6.9L7.3-2.4v-1.9l8.3-3.4l-8.3-3.4v-1.9l10.4,4.4V-6.9z M30.8,0v-13.9h-5.2v-1.9h12.5v1.9h-5.2V0H30.8z"/>
</g>
<g transform="translate(125,205) rotate(-90)">
	<path d="M6.7,0H5.1v-10.1C4.7-9.7,4.2-9.4,3.6-9C3-8.6,2.5-8.4,2-8.2v-1.5c0.9-0.4,1.7-0.9,2.3-1.5c0.7-0.6,1.1-1.2,1.4-1.7h1V0z"
		/>
</g>
<g transform="translate(115,195) rotate(-90)">
	<path d="M2.7,4.6H1.3C3.5,1.2,4.5-2.2,4.5-5.7c0-1.4-0.2-2.7-0.5-4c-0.2-1.1-0.6-2.1-1-3.1c-0.3-0.6-0.9-1.7-1.7-3.2h1.4
		c1.3,1.8,2.3,3.6,3,5.4C6.3-9,6.5-7.4,6.5-5.7c0,1.9-0.4,3.8-1.1,5.6C4.7,1.7,3.8,3.3,2.7,4.6z"/>
</g>
</svg>
