<?xml version="1.0" encoding="utf-8"?>
<!-- Generator: Adobe Illustrator 24.0.1, SVG Export Plug-In . SVG Version: 6.00 Build 0)  -->
<svg version="1.1" id="Layer_1" xmlns="http://www.w3.org/2000/svg" xmlns:xlink="http://www.w3.org/1999/xlink" x="0px" y="0px"
	 viewBox="0 0 700 516" style="enable-background:new 0 0 700 516;" xml:space="preserve">
<style type="text/css">
	.st0{fill:none;stroke:#000000;stroke-width:3.333;stroke-linecap:square;stroke-miterlimit:10;}
	.st1{fill:none;stroke:#000000;stroke-width:3.3333;stroke-linecap:square;stroke-linejoin:round;stroke-miterlimit:10;}
	.st2{fill:none;stroke:#000000;stroke-width:2.5;stroke-linejoin:round;stroke-miterlimit:10;}
	.st3{fill:#D90D40;}
	.st4{fill:#262626;}
	.st5{fill:none;stroke:#000000;stroke-width:0.8333;stroke-linejoin:bevel;stroke-miterlimit:1;stroke-dasharray:1,3;}
</style>
<path class="st0" d="M326.6,453.1V443c22.7,0,49.1,0,71.8,0c0,0,0,10.1,0,10.1"/>
<path d="M315,476.8l1.8-0.2c0.1,0.7,0.3,1.3,0.6,1.8c0.3,0.5,0.8,0.8,1.4,1.1c0.7,0.3,1.4,0.4,2.2,0.4c0.7,0,1.4-0.1,1.9-0.3
	c0.6-0.2,1-0.5,1.2-0.9c0.3-0.4,0.4-0.8,0.4-1.2c0-0.4-0.1-0.8-0.4-1.2c-0.3-0.3-0.7-0.6-1.3-0.8c-0.4-0.2-1.2-0.4-2.6-0.7
	c-1.3-0.3-2.2-0.6-2.8-0.9c-0.7-0.4-1.2-0.8-1.5-1.3c-0.3-0.5-0.5-1.1-0.5-1.8c0-0.7,0.2-1.4,0.6-2s1-1.1,1.8-1.4
	c0.8-0.3,1.7-0.5,2.6-0.5c1.1,0,2,0.2,2.8,0.5c0.8,0.3,1.4,0.8,1.9,1.5c0.4,0.7,0.7,1.4,0.7,2.3l-1.8,0.1c-0.1-0.9-0.4-1.6-1-2.1
	s-1.4-0.7-2.5-0.7c-1.1,0-2,0.2-2.5,0.6c-0.5,0.4-0.8,0.9-0.8,1.5c0,0.5,0.2,0.9,0.6,1.3c0.4,0.3,1.3,0.7,2.9,1
	c1.5,0.3,2.6,0.6,3.2,0.9c0.8,0.4,1.4,0.9,1.8,1.5c0.4,0.6,0.6,1.3,0.6,2c0,0.8-0.2,1.5-0.7,2.2c-0.4,0.7-1.1,1.2-1.9,1.6
	c-0.8,0.4-1.7,0.6-2.8,0.6c-1.3,0-2.4-0.2-3.3-0.6c-0.9-0.4-1.6-1-2.1-1.7C315.3,478.6,315,477.8,315,476.8z M334.9,481.4h-1.8
	v-11.2c-0.4,0.4-1,0.8-1.7,1.2c-0.7,0.4-1.3,0.7-1.9,0.9v-1.7c1-0.5,1.9-1,2.6-1.7c0.7-0.7,1.3-1.3,1.6-1.9h1.1V481.4z"/>
<path d="M386.8,476.8l1.8-0.2c0.1,0.7,0.3,1.3,0.6,1.8c0.3,0.5,0.8,0.8,1.4,1.1c0.7,0.3,1.4,0.4,2.2,0.4c0.7,0,1.4-0.1,1.9-0.3
	c0.6-0.2,1-0.5,1.2-0.9c0.3-0.4,0.4-0.8,0.4-1.2c0-0.4-0.1-0.8-0.4-1.2c-0.3-0.3-0.7-0.6-1.3-0.8c-0.4-0.2-1.2-0.4-2.6-0.7
	c-1.3-0.3-2.2-0.6-2.8-0.9c-0.7-0.4-1.2-0.8-1.5-1.3c-0.3-0.5-0.5-1.1-0.5-1.8c0-0.7,0.2-1.4,0.6-2s1-1.1,1.8-1.4
	c0.8-0.3,1.7-0.5,2.6-0.5c1.1,0,2,0.2,2.8,0.5c0.8,0.3,1.4,0.8,1.9,1.5c0.4,0.7,0.7,1.4,0.7,2.3l-1.8,0.1c-0.1-0.9-0.4-1.6-1-2.1
	s-1.4-0.7-2.5-0.7c-1.1,0-2,0.2-2.5,0.6c-0.5,0.4-0.8,0.9-0.8,1.5c0,0.5,0.2,0.9,0.6,1.3c0.4,0.3,1.3,0.7,2.9,1
	c1.5,0.3,2.6,0.6,3.2,0.9c0.8,0.4,1.4,0.9,1.8,1.5c0.4,0.6,0.6,1.3,0.6,2c0,0.8-0.2,1.5-0.7,2.2c-0.4,0.7-1.1,1.2-1.9,1.6
	c-0.8,0.4-1.7,0.6-2.8,0.6c-1.3,0-2.4-0.2-3.3-0.6c-0.9-0.4-1.6-1-2.1-1.7C387.1,478.6,386.8,477.8,386.8,476.8z M409.3,479.7v1.7
	h-9.5c0-0.4,0.1-0.8,0.2-1.2c0.2-0.6,0.6-1.3,1.2-1.9c0.5-0.6,1.3-1.3,2.3-2.2c1.6-1.3,2.6-2.3,3.2-3c0.5-0.7,0.8-1.5,0.8-2.1
	c0-0.7-0.3-1.3-0.8-1.8c-0.5-0.5-1.2-0.7-2-0.7c-0.8,0-1.5,0.3-2,0.8c-0.5,0.5-0.8,1.2-0.8,2.1l-1.8-0.2c0.1-1.3,0.6-2.4,1.4-3.1
	c0.8-0.7,1.9-1.1,3.3-1.1s2.4,0.4,3.3,1.1s1.2,1.7,1.2,2.8c0,0.6-0.1,1.1-0.4,1.7c-0.2,0.6-0.6,1.1-1.2,1.8
	c-0.5,0.6-1.4,1.5-2.7,2.5c-1.1,0.9-1.7,1.5-2,1.8c-0.3,0.3-0.5,0.6-0.7,1H409.3z"/>
<path d="M287.5,505l2-0.2c0.1,0.8,0.3,1.4,0.6,1.9c0.3,0.5,0.9,0.9,1.6,1.2s1.5,0.5,2.4,0.5c0.8,0,1.5-0.1,2.1-0.4
	c0.6-0.2,1.1-0.6,1.4-1c0.3-0.4,0.4-0.9,0.4-1.4c0-0.5-0.1-0.9-0.4-1.3c-0.3-0.4-0.8-0.7-1.4-0.9c-0.4-0.2-1.4-0.4-2.8-0.8
	c-1.4-0.3-2.5-0.7-3-1c-0.8-0.4-1.3-0.9-1.7-1.5c-0.4-0.6-0.6-1.2-0.6-2c0-0.8,0.2-1.5,0.7-2.2c0.4-0.7,1.1-1.2,2-1.6
	c0.9-0.4,1.8-0.5,2.9-0.5c1.2,0,2.2,0.2,3.1,0.6c0.9,0.4,1.6,0.9,2.1,1.7c0.5,0.7,0.7,1.6,0.8,2.5l-2,0.2c-0.1-1-0.5-1.8-1.1-2.3
	c-0.6-0.5-1.5-0.8-2.7-0.8c-1.3,0-2.2,0.2-2.8,0.7c-0.6,0.5-0.9,1-0.9,1.7c0,0.6,0.2,1,0.6,1.4c0.4,0.4,1.4,0.7,3.1,1.1
	c1.7,0.4,2.9,0.7,3.5,1c0.9,0.4,1.6,1,2,1.6s0.7,1.4,0.7,2.2c0,0.8-0.2,1.6-0.7,2.4c-0.5,0.7-1.2,1.3-2.1,1.7
	c-0.9,0.4-1.9,0.6-3,0.6c-1.4,0-2.6-0.2-3.6-0.6c-1-0.4-1.7-1-2.3-1.9C287.8,507,287.5,506.1,287.5,505z M306.8,508.3l0.3,1.7
	c-0.5,0.1-1,0.2-1.5,0.2c-0.7,0-1.2-0.1-1.6-0.3c-0.4-0.2-0.7-0.5-0.8-0.9c-0.2-0.4-0.2-1.1-0.2-2.3v-6.6h-1.4v-1.5h1.4v-2.8
	l1.9-1.2v4h1.9v1.5h-1.9v6.7c0,0.6,0,0.9,0.1,1.1c0.1,0.2,0.2,0.3,0.3,0.4c0.2,0.1,0.4,0.1,0.7,0.1
	C306.2,508.4,306.5,508.4,306.8,508.3z M308.8,496.5v-2.2h1.9v2.2H308.8z M308.8,510.1v-11.4h1.9v11.4H308.8z M313.6,510.1v-11.4
	h1.7v1.6c0.4-0.6,0.8-1,1.4-1.3c0.6-0.3,1.3-0.5,2-0.5c0.8,0,1.5,0.2,2.1,0.5c0.5,0.4,0.9,0.8,1.1,1.5c0.9-1.3,2.1-2,3.5-2
	c1.1,0,2,0.3,2.6,0.9c0.6,0.6,0.9,1.6,0.9,2.9v7.8h-1.9v-7.2c0-0.8-0.1-1.3-0.2-1.7c-0.1-0.3-0.4-0.6-0.7-0.8
	c-0.3-0.2-0.7-0.3-1.2-0.3c-0.8,0-1.5,0.3-2,0.8c-0.5,0.5-0.8,1.4-0.8,2.6v6.6h-1.9v-7.4c0-0.9-0.2-1.5-0.5-1.9
	c-0.3-0.4-0.8-0.6-1.6-0.6c-0.5,0-1,0.1-1.5,0.4c-0.5,0.3-0.8,0.7-1,1.3c-0.2,0.5-0.3,1.3-0.3,2.4v5.9H313.6z M339.4,510.1v-1.7
	c-0.9,1.3-2.1,1.9-3.6,1.9c-0.7,0-1.3-0.1-1.9-0.4c-0.6-0.3-1-0.6-1.3-1c-0.3-0.4-0.5-0.9-0.6-1.4c-0.1-0.4-0.1-1-0.1-1.8v-7.1h1.9
	v6.3c0,1,0,1.7,0.1,2c0.1,0.5,0.4,0.9,0.8,1.2c0.4,0.3,0.9,0.4,1.5,0.4c0.6,0,1.1-0.1,1.6-0.4c0.5-0.3,0.9-0.7,1.1-1.2
	c0.2-0.5,0.3-1.3,0.3-2.2v-6.1h1.9v11.4H339.4z M344.1,510.1v-15.8h1.9v15.8H344.1z M356.5,510.1v-1.7c-0.9,1.3-2.1,1.9-3.6,1.9
	c-0.7,0-1.3-0.1-1.9-0.4c-0.6-0.3-1-0.6-1.3-1c-0.3-0.4-0.5-0.9-0.6-1.4c-0.1-0.4-0.1-1-0.1-1.8v-7.1h1.9v6.3c0,1,0,1.7,0.1,2
	c0.1,0.5,0.4,0.9,0.8,1.2c0.4,0.3,0.9,0.4,1.5,0.4c0.6,0,1.1-0.1,1.6-0.4c0.5-0.3,0.9-0.7,1.1-1.2s0.3-1.3,0.3-2.2v-6.1h1.9v11.4
	H356.5z M360.5,506.7l1.9-0.3c0.1,0.8,0.4,1.3,0.9,1.8c0.5,0.4,1.2,0.6,2.1,0.6c0.9,0,1.5-0.2,2-0.5c0.4-0.4,0.6-0.8,0.6-1.3
	c0-0.4-0.2-0.8-0.6-1c-0.3-0.2-0.9-0.4-2-0.7c-1.4-0.4-2.4-0.7-3-0.9c-0.5-0.3-1-0.6-1.2-1.1c-0.3-0.5-0.4-1-0.4-1.5
	c0-0.5,0.1-1,0.4-1.4c0.2-0.4,0.5-0.8,0.9-1.1c0.3-0.2,0.7-0.4,1.2-0.6c0.5-0.2,1.1-0.2,1.7-0.2c0.9,0,1.7,0.1,2.4,0.4
	c0.7,0.3,1.2,0.6,1.5,1c0.3,0.4,0.5,1,0.7,1.8l-1.9,0.3c-0.1-0.6-0.3-1.1-0.7-1.4c-0.4-0.3-1-0.5-1.7-0.5c-0.9,0-1.5,0.1-1.9,0.4
	s-0.6,0.6-0.6,1c0,0.3,0.1,0.5,0.2,0.7c0.2,0.2,0.4,0.4,0.7,0.5c0.2,0.1,0.8,0.2,1.7,0.5c1.4,0.4,2.3,0.7,2.9,0.9
	c0.5,0.2,1,0.6,1.3,1c0.3,0.4,0.5,1,0.5,1.6c0,0.6-0.2,1.3-0.6,1.8c-0.4,0.6-0.9,1-1.6,1.3c-0.7,0.3-1.5,0.5-2.4,0.5
	c-1.5,0-2.6-0.3-3.4-0.9C361.2,508.8,360.7,507.9,360.5,506.7z M378.4,514.5v-15.8h1.8v1.5c0.4-0.6,0.9-1,1.4-1.3
	c0.5-0.3,1.2-0.4,1.9-0.4c1,0,1.8,0.3,2.6,0.8c0.7,0.5,1.3,1.2,1.7,2.1c0.4,0.9,0.6,1.9,0.6,3c0,1.2-0.2,2.2-0.6,3.2
	c-0.4,0.9-1,1.7-1.8,2.2c-0.8,0.5-1.6,0.8-2.5,0.8c-0.6,0-1.2-0.1-1.7-0.4c-0.5-0.3-0.9-0.6-1.3-1v5.6H378.4z M380.2,504.4
	c0,1.5,0.3,2.6,0.9,3.3c0.6,0.7,1.3,1.1,2.2,1.1c0.9,0,1.6-0.4,2.2-1.1c0.6-0.7,0.9-1.9,0.9-3.4c0-1.5-0.3-2.5-0.9-3.3
	c-0.6-0.7-1.3-1.1-2.1-1.1c-0.8,0-1.6,0.4-2.2,1.2C380.5,501.8,380.2,503,380.2,504.4z M398.5,506.4l2,0.3c-0.3,1.2-0.9,2.1-1.8,2.7
	c-0.8,0.6-1.9,1-3.3,1c-1.7,0-3-0.5-4-1.5c-1-1-1.5-2.5-1.5-4.3c0-1.9,0.5-3.4,1.5-4.5c1-1.1,2.3-1.6,3.9-1.6c1.5,0,2.8,0.5,3.7,1.6
	c1,1,1.5,2.5,1.5,4.4c0,0.1,0,0.3,0,0.5H392c0.1,1.3,0.4,2.2,1.1,2.9c0.6,0.7,1.4,1,2.4,1c0.7,0,1.3-0.2,1.8-0.6
	S398.2,507.2,398.5,506.4z M392.1,503.3h6.4c-0.1-1-0.3-1.7-0.7-2.2c-0.6-0.8-1.4-1.1-2.4-1.1c-0.9,0-1.6,0.3-2.2,0.9
	C392.5,501.5,392.2,502.3,392.1,503.3z M402.9,510.1v-11.4h1.8v1.7c0.4-0.8,0.8-1.3,1.2-1.6c0.4-0.3,0.8-0.4,1.2-0.4
	c0.7,0,1.3,0.2,2,0.6l-0.7,1.8c-0.5-0.3-1-0.4-1.4-0.4c-0.4,0-0.8,0.1-1.1,0.4c-0.3,0.3-0.6,0.6-0.7,1.1c-0.2,0.7-0.3,1.4-0.3,2.3v6
	H402.9z M410.2,496.5v-2.2h1.9v2.2H410.2z M410.2,510.1v-11.4h1.9v11.4H410.2z M414.4,504.4c0-2.1,0.6-3.7,1.8-4.7
	c1-0.8,2.2-1.3,3.6-1.3c1.6,0,2.9,0.5,3.9,1.5c1,1,1.5,2.5,1.5,4.3c0,1.5-0.2,2.6-0.7,3.5c-0.4,0.8-1.1,1.5-1.9,2s-1.8,0.7-2.8,0.7
	c-1.6,0-2.9-0.5-3.9-1.5C414.9,507.8,414.4,506.3,414.4,504.4z M416.4,504.4c0,1.5,0.3,2.6,1,3.3c0.6,0.7,1.4,1.1,2.4,1.1
	c1,0,1.8-0.4,2.4-1.1c0.6-0.7,1-1.8,1-3.3c0-1.4-0.3-2.5-1-3.2c-0.6-0.7-1.4-1.1-2.4-1.1c-1,0-1.8,0.4-2.4,1.1
	C416.7,501.8,416.4,502.9,416.4,504.4z M434.8,510.1v-1.4c-0.7,1.1-1.8,1.7-3.2,1.7c-0.9,0-1.7-0.3-2.5-0.8
	c-0.8-0.5-1.4-1.2-1.8-2.1c-0.4-0.9-0.6-1.9-0.6-3.1c0-1.1,0.2-2.2,0.6-3.1c0.4-0.9,1-1.6,1.7-2.1c0.8-0.5,1.6-0.7,2.5-0.7
	c0.7,0,1.3,0.1,1.8,0.4c0.5,0.3,1,0.7,1.3,1.1v-5.7h1.9v15.8H434.8z M428.6,504.4c0,1.5,0.3,2.5,0.9,3.3c0.6,0.7,1.3,1.1,2.2,1.1
	c0.8,0,1.6-0.3,2.2-1c0.6-0.7,0.9-1.7,0.9-3.2c0-1.6-0.3-2.7-0.9-3.4c-0.6-0.7-1.3-1.1-2.2-1.1c-0.9,0-1.6,0.4-2.2,1.1
	C428.9,501.8,428.6,502.9,428.6,504.4z"/>
<path class="st0" d="M462.4,424.6h-10.1c0-67.3,0-300,0-367.3h10.1"/>
<line class="st1" x1="452.3" y1="391.2" x2="462.4" y2="391.2"/>
<path d="M470.5,392.2c0-1.7,0.2-3,0.5-4.1c0.3-1,0.9-1.8,1.6-2.4c0.7-0.6,1.6-0.8,2.6-0.8c0.8,0,1.4,0.2,2,0.5
	c0.6,0.3,1.1,0.8,1.4,1.3c0.4,0.6,0.7,1.3,0.9,2.1c0.2,0.8,0.3,2,0.3,3.4c0,1.7-0.2,3-0.5,4.1c-0.3,1-0.9,1.8-1.5,2.4
	c-0.7,0.6-1.5,0.9-2.6,0.9c-1.4,0-2.5-0.5-3.3-1.5C471,396.8,470.5,394.9,470.5,392.2z M472.3,392.2c0,2.4,0.3,3.9,0.8,4.7
	c0.5,0.8,1.2,1.2,2,1.2c0.8,0,1.5-0.4,2-1.2c0.6-0.8,0.8-2.3,0.8-4.7c0-2.4-0.3-3.9-0.8-4.7c-0.6-0.8-1.2-1.2-2-1.2
	c-0.8,0-1.5,0.3-1.9,1C472.6,388.2,472.3,389.8,472.3,392.2z"/>
<path d="M477.1,65.4h-1.8V54.2c-0.4,0.4-1,0.8-1.7,1.2c-0.7,0.4-1.3,0.7-1.9,0.9v-1.7c1-0.5,1.9-1,2.6-1.7c0.7-0.7,1.3-1.3,1.6-1.9
	h1.1V65.4z"/>
<path d="M496.5,136.5l0.2,2c-0.8,0.1-1.4,0.3-1.9,0.6c-0.5,0.3-0.9,0.9-1.2,1.6s-0.5,1.5-0.5,2.4c0,0.8,0.1,1.5,0.4,2.1
	c0.2,0.6,0.6,1.1,1,1.4c0.4,0.3,0.9,0.4,1.4,0.4c0.5,0,0.9-0.1,1.3-0.4c0.4-0.3,0.7-0.8,0.9-1.4c0.2-0.4,0.4-1.4,0.8-2.8
	c0.3-1.4,0.7-2.5,1-3c0.4-0.8,0.9-1.3,1.5-1.7c0.6-0.4,1.2-0.6,2-0.6c0.8,0,1.5,0.2,2.2,0.7c0.7,0.4,1.2,1.1,1.6,2
	c0.4,0.9,0.5,1.8,0.5,2.9c0,1.2-0.2,2.2-0.6,3.1c-0.4,0.9-0.9,1.6-1.7,2.1c-0.7,0.5-1.6,0.7-2.5,0.8l-0.2-2c1-0.1,1.8-0.5,2.3-1.1
	c0.5-0.6,0.8-1.5,0.8-2.7c0-1.3-0.2-2.2-0.7-2.8c-0.5-0.6-1-0.9-1.7-0.9c-0.6,0-1,0.2-1.4,0.6c-0.4,0.4-0.7,1.4-1.1,3.1
	c-0.4,1.7-0.7,2.9-1,3.5c-0.4,0.9-1,1.6-1.6,2s-1.4,0.7-2.2,0.7c-0.8,0-1.6-0.2-2.4-0.7c-0.7-0.5-1.3-1.2-1.7-2.1
	c-0.4-0.9-0.6-1.9-0.6-3c0-1.4,0.2-2.6,0.6-3.6c0.4-1,1-1.7,1.9-2.3C494.5,136.8,495.5,136.5,496.5,136.5z M493.2,155.8l-1.7,0.3
	c-0.1-0.5-0.2-1-0.2-1.5c0-0.7,0.1-1.2,0.3-1.6c0.2-0.4,0.5-0.7,0.9-0.8c0.4-0.2,1.1-0.2,2.3-0.2h6.6v-1.4h1.5v1.4h2.8l1.2,1.9h-4
	v1.9h-1.5v-1.9h-6.7c-0.6,0-0.9,0-1.1,0.1c-0.2,0.1-0.3,0.2-0.4,0.3c-0.1,0.2-0.1,0.4-0.1,0.7C493.1,155.2,493.1,155.5,493.2,155.8z
	 M495.1,165.6l-0.3,2c-1.2-0.3-2.1-0.9-2.7-1.8c-0.6-0.8-1-1.9-1-3.3c0-1.7,0.5-3,1.5-4c1-1,2.5-1.5,4.3-1.5c1.9,0,3.4,0.5,4.5,1.5
	c1.1,1,1.6,2.3,1.6,3.9c0,1.5-0.5,2.8-1.6,3.7c-1,1-2.5,1.5-4.4,1.5c-0.1,0-0.3,0-0.5,0v-8.5c-1.3,0.1-2.2,0.4-2.9,1.1
	c-0.7,0.6-1,1.4-1,2.4c0,0.7,0.2,1.3,0.6,1.8S494.3,165.2,495.1,165.6z M498.3,159.2v6.4c1-0.1,1.7-0.3,2.2-0.7
	c0.8-0.6,1.1-1.4,1.1-2.4c0-0.9-0.3-1.6-0.9-2.2C500.1,159.6,499.3,159.3,498.3,159.2z M491.5,169.9h11.4v1.8h-1.7
	c0.8,0.4,1.3,0.8,1.6,1.2c0.3,0.4,0.4,0.8,0.4,1.2c0,0.7-0.2,1.3-0.6,2l-1.8-0.7c0.3-0.5,0.4-1,0.4-1.4c0-0.4-0.1-0.8-0.4-1.1
	c-0.3-0.3-0.6-0.6-1.1-0.7c-0.7-0.2-1.4-0.3-2.3-0.3h-6V169.9z M495.1,185.1l-0.3,2c-1.2-0.3-2.1-0.9-2.7-1.8c-0.6-0.8-1-1.9-1-3.3
	c0-1.7,0.5-3,1.5-4c1-1,2.5-1.5,4.3-1.5c1.9,0,3.4,0.5,4.5,1.5c1.1,1,1.6,2.3,1.6,3.9c0,1.5-0.5,2.8-1.6,3.7c-1,1-2.5,1.5-4.4,1.5
	c-0.1,0-0.3,0-0.5,0v-8.5c-1.3,0.1-2.2,0.4-2.9,1.1c-0.7,0.6-1,1.4-1,2.4c0,0.7,0.2,1.3,0.6,1.8S494.3,184.8,495.1,185.1z
	 M498.3,178.8v6.4c1-0.1,1.7-0.3,2.2-0.7c0.8-0.6,1.1-1.4,1.1-2.4c0-0.9-0.3-1.6-0.9-2.2C500.1,179.2,499.3,178.8,498.3,178.8z
	 M497.2,188.8c2.1,0,3.7,0.6,4.7,1.8c0.8,1,1.3,2.2,1.3,3.6c0,1.6-0.5,2.9-1.5,3.9c-1,1-2.5,1.5-4.3,1.5c-1.5,0-2.6-0.2-3.5-0.7
	c-0.8-0.4-1.5-1.1-2-1.9c-0.5-0.8-0.7-1.8-0.7-2.8c0-1.6,0.5-2.9,1.5-3.9C493.8,189.3,495.2,188.8,497.2,188.8z M497.2,190.8
	c-1.5,0-2.6,0.3-3.3,1c-0.7,0.6-1.1,1.4-1.1,2.4c0,1,0.4,1.8,1.1,2.4c0.7,0.6,1.8,1,3.3,1c1.4,0,2.5-0.3,3.2-1
	c0.7-0.6,1.1-1.4,1.1-2.4c0-1-0.4-1.8-1.1-2.4C499.7,191.1,498.6,190.8,497.2,190.8z M493.2,206l-1.7,0.3c-0.1-0.5-0.2-1-0.2-1.5
	c0-0.7,0.1-1.2,0.3-1.6c0.2-0.4,0.5-0.7,0.9-0.8c0.4-0.2,1.1-0.2,2.3-0.2h6.6v-1.4h1.5v1.4h2.8l1.2,1.9h-4v1.9h-1.5v-1.9h-6.7
	c-0.6,0-0.9,0-1.1,0.1c-0.2,0.1-0.3,0.2-0.4,0.3c-0.1,0.2-0.1,0.4-0.1,0.7C493.1,205.4,493.1,205.6,493.2,206z M487.1,207.8l1.8-0.2
	c-0.1,0.4-0.2,0.8-0.2,1.1c0,0.4,0.1,0.8,0.2,1c0.1,0.3,0.3,0.5,0.6,0.6c0.2,0.1,0.7,0.3,1.4,0.6c0.1,0,0.3,0.1,0.5,0.2l11.4-4.3
	v2.1l-6.6,2.4c-0.8,0.3-1.7,0.6-2.6,0.8c0.9,0.2,1.8,0.5,2.6,0.8l6.6,2.4v1.9l-11.6-4.3c-1.3-0.5-2.1-0.8-2.6-1.1
	c-0.6-0.3-1.1-0.7-1.4-1.2c-0.3-0.4-0.4-1-0.4-1.6C486.8,208.7,486.9,208.2,487.1,207.8z M487.1,218.9h15.8v1.8h-1.5
	c0.6,0.4,1,0.9,1.3,1.4c0.3,0.5,0.4,1.2,0.4,1.9c0,1-0.3,1.8-0.8,2.6c-0.5,0.7-1.2,1.3-2.1,1.7c-0.9,0.4-1.9,0.6-3,0.6
	c-1.2,0-2.2-0.2-3.2-0.6c-0.9-0.4-1.7-1-2.2-1.8c-0.5-0.8-0.8-1.6-0.8-2.5c0-0.6,0.1-1.2,0.4-1.7c0.3-0.5,0.6-0.9,1-1.3h-5.6V218.9z
	 M497.1,220.6c-1.5,0-2.6,0.3-3.3,0.9c-0.7,0.6-1.1,1.3-1.1,2.2c0,0.9,0.4,1.6,1.1,2.2c0.7,0.6,1.9,0.9,3.4,0.9
	c1.5,0,2.5-0.3,3.3-0.9c0.7-0.6,1.1-1.3,1.1-2.1s-0.4-1.6-1.2-2.2S498.6,220.6,497.1,220.6z M487.1,231l1.8-0.2
	c-0.1,0.4-0.2,0.8-0.2,1.1c0,0.4,0.1,0.8,0.2,1c0.1,0.3,0.3,0.5,0.6,0.6c0.2,0.1,0.7,0.3,1.4,0.6c0.1,0,0.3,0.1,0.5,0.2l11.4-4.3
	v2.1l-6.6,2.4c-0.8,0.3-1.7,0.6-2.6,0.8c0.9,0.2,1.8,0.5,2.6,0.8l6.6,2.4v1.9l-11.6-4.3c-1.3-0.5-2.1-0.8-2.6-1.1
	c-0.6-0.3-1.1-0.7-1.4-1.2c-0.3-0.4-0.4-1-0.4-1.6C486.8,231.9,486.9,231.5,487.1,231z M495.6,255.7l-0.2,1.9
	c-1.3-0.2-2.3-0.7-3.1-1.6c-0.7-0.9-1.1-1.9-1.1-3.2c0-1.6,0.5-2.8,1.5-3.8c1-0.9,2.5-1.4,4.4-1.4c1.2,0,2.3,0.2,3.2,0.6
	c0.9,0.4,1.6,1,2.1,1.9c0.5,0.8,0.7,1.7,0.7,2.7c0,1.2-0.3,2.3-0.9,3c-0.6,0.8-1.5,1.3-2.7,1.5l-0.3-1.9c0.8-0.2,1.3-0.5,1.7-1
	s0.6-1,0.6-1.6c0-1-0.3-1.8-1-2.4c-0.7-0.6-1.8-0.9-3.3-0.9c-1.5,0-2.6,0.3-3.3,0.9s-1,1.4-1,2.3c0,0.8,0.2,1.4,0.7,1.9
	C494,255.2,494.7,255.5,495.6,255.7z M497.2,258.5c2.1,0,3.7,0.6,4.7,1.8c0.8,1,1.3,2.2,1.3,3.6c0,1.6-0.5,2.9-1.5,3.9
	c-1,1-2.5,1.5-4.3,1.5c-1.5,0-2.6-0.2-3.5-0.7c-0.8-0.4-1.5-1.1-2-1.9c-0.5-0.8-0.7-1.8-0.7-2.8c0-1.6,0.5-2.9,1.5-3.9
	C493.8,259,495.2,258.5,497.2,258.5z M497.2,260.5c-1.5,0-2.6,0.3-3.3,1c-0.7,0.6-1.1,1.4-1.1,2.4c0,1,0.4,1.8,1.1,2.4
	c0.7,0.6,1.8,1,3.3,1c1.4,0,2.5-0.3,3.2-1c0.7-0.6,1.1-1.4,1.1-2.4c0-1-0.4-1.8-1.1-2.4C499.7,260.8,498.6,260.5,497.2,260.5z
	 M495.1,279.3l-0.3,2c-1.2-0.3-2.1-0.9-2.7-1.8c-0.6-0.8-1-1.9-1-3.3c0-1.7,0.5-3,1.5-4c1-1,2.5-1.5,4.3-1.5c1.9,0,3.4,0.5,4.5,1.5
	c1.1,1,1.6,2.3,1.6,3.9c0,1.5-0.5,2.8-1.6,3.7c-1,1-2.5,1.5-4.4,1.5c-0.1,0-0.3,0-0.5,0v-8.5c-1.3,0.1-2.2,0.4-2.9,1.1
	c-0.7,0.6-1,1.4-1,2.4c0,0.7,0.2,1.3,0.6,1.8S494.3,279,495.1,279.3z M498.3,272.9v6.4c1-0.1,1.7-0.3,2.2-0.7
	c0.8-0.6,1.1-1.4,1.1-2.4c0-0.9-0.3-1.6-0.9-2.2C500.1,273.3,499.3,273,498.3,272.9z M491.5,284.2h9.9v-1.7h1.5v1.7h1.2
	c0.8,0,1.3,0.1,1.7,0.2c0.5,0.2,0.9,0.5,1.2,1c0.3,0.5,0.5,1.1,0.5,2c0,0.5-0.1,1.1-0.2,1.8l-1.7-0.3c0.1-0.4,0.1-0.8,0.1-1.1
	c0-0.6-0.1-1-0.4-1.3c-0.3-0.2-0.7-0.4-1.4-0.4h-1.1v2.2h-1.5v-2.2h-9.9V284.2z M491.5,290.3h9.9v-1.7h1.5v1.7h1.2
	c0.8,0,1.3,0.1,1.7,0.2c0.5,0.2,0.9,0.5,1.2,1c0.3,0.5,0.5,1.1,0.5,2c0,0.5-0.1,1.1-0.2,1.8l-1.7-0.3c0.1-0.4,0.1-0.8,0.1-1.1
	c0-0.6-0.1-1-0.4-1.3c-0.3-0.2-0.7-0.4-1.4-0.4h-1.1v2.2h-1.5v-2.2h-9.9V290.3z M505,295.9h2.2v1.9H505V295.9z M491.5,295.9h11.4
	v1.9h-11.4V295.9z M495.6,308.3l-0.2,1.9c-1.3-0.2-2.3-0.7-3.1-1.6c-0.7-0.9-1.1-1.9-1.1-3.2c0-1.6,0.5-2.8,1.5-3.8
	c1-0.9,2.5-1.4,4.4-1.4c1.2,0,2.3,0.2,3.2,0.6c0.9,0.4,1.6,1,2.1,1.9c0.5,0.8,0.7,1.7,0.7,2.7c0,1.2-0.3,2.3-0.9,3
	c-0.6,0.8-1.5,1.3-2.7,1.5l-0.3-1.9c0.8-0.2,1.3-0.5,1.7-1c0.4-0.5,0.6-1,0.6-1.6c0-1-0.3-1.8-1-2.4c-0.7-0.6-1.8-0.9-3.3-0.9
	c-1.5,0-2.6,0.3-3.3,0.9s-1,1.4-1,2.3c0,0.8,0.2,1.4,0.7,1.9C494,307.8,494.7,308.1,495.6,308.3z M505,311.8h2.2v1.9H505V311.8z
	 M491.5,311.8h11.4v1.9h-11.4V311.8z M495.1,324.5l-0.3,2c-1.2-0.3-2.1-0.9-2.7-1.8c-0.6-0.8-1-1.9-1-3.3c0-1.7,0.5-3,1.5-4
	c1-1,2.5-1.5,4.3-1.5c1.9,0,3.4,0.5,4.5,1.5c1.1,1,1.6,2.3,1.6,3.9c0,1.5-0.5,2.8-1.6,3.7c-1,1-2.5,1.5-4.4,1.5c-0.1,0-0.3,0-0.5,0
	V318c-1.3,0.1-2.2,0.4-2.9,1.1c-0.7,0.6-1,1.4-1,2.4c0,0.7,0.2,1.3,0.6,1.8S494.3,324.2,495.1,324.5z M498.3,318.2v6.4
	c1-0.1,1.7-0.3,2.2-0.7c0.8-0.6,1.1-1.4,1.1-2.4c0-0.9-0.3-1.6-0.9-2.2C500.1,318.6,499.3,318.2,498.3,318.2z M491.5,328.9h11.4v1.7
	h-1.6c1.3,0.8,1.9,2.1,1.9,3.6c0,0.7-0.1,1.3-0.4,1.9c-0.3,0.6-0.6,1-1,1.3c-0.4,0.3-0.9,0.5-1.4,0.6c-0.4,0.1-1,0.1-1.9,0.1h-7
	v-1.9h6.9c0.8,0,1.4-0.1,1.8-0.2c0.4-0.1,0.7-0.4,0.9-0.8c0.2-0.4,0.3-0.8,0.3-1.4c0-0.8-0.3-1.5-0.8-2.1c-0.5-0.6-1.5-0.9-3-0.9
	h-6.2V328.9z M493.2,345.4l-1.7,0.3c-0.1-0.5-0.2-1-0.2-1.5c0-0.7,0.1-1.2,0.3-1.6c0.2-0.4,0.5-0.7,0.9-0.8c0.4-0.2,1.1-0.2,2.3-0.2
	h6.6v-1.4h1.5v1.4h2.8l1.2,1.9h-4v1.9h-1.5v-1.9h-6.7c-0.6,0-0.9,0-1.1,0.1c-0.2,0.1-0.3,0.2-0.4,0.3c-0.1,0.2-0.1,0.4-0.1,0.7
	C493.1,344.8,493.1,345,493.2,345.4z"/>
<line class="st2" x1="308.6" y1="246" x2="344.5" y2="343"/>
<line class="st2" x1="308.6" y1="246" x2="308.6" y2="331.1"/>
<line class="st2" x1="308.6" y1="246" x2="308.6" y2="171.1"/>
<circle class="st3" cx="308.6" cy="246" r="6.3"/>
<path d="M308.6,241c2.8,0,5,2.2,5,5l0,0c0,2.8-2.2,5-5,5s-5-2.2-5-5S305.9,241,308.6,241z M308.6,238.5c-4.1,0-7.5,3.4-7.5,7.5
	s3.4,7.5,7.5,7.5s7.5-3.4,7.5-7.5l0,0C316.1,241.9,312.8,238.5,308.6,238.5z"/>
<line class="st2" x1="344.5" y1="343" x2="344.5" y2="420.1"/>
<line class="st2" x1="344.5" y1="343" x2="344.5" y2="269.7"/>
<circle class="st4" cx="344.5" cy="343" r="6.3"/>
<path d="M344.5,338c2.8,0,5,2.2,5,5l0,0c0,2.8-2.2,5-5,5s-5-2.2-5-5S341.8,338,344.5,338z M344.5,335.5c-4.1,0-7.5,3.4-7.5,7.5
	s3.4,7.5,7.5,7.5s7.5-3.4,7.5-7.5l0,0C352,338.8,348.7,335.5,344.5,335.5z"/>
<line class="st2" x1="380.5" y1="154.2" x2="416.4" y2="278.8"/>
<line class="st2" x1="380.5" y1="154.2" x2="380.5" y2="228.1"/>
<line class="st2" x1="380.5" y1="154.2" x2="380.5" y2="124.9"/>
<circle class="st3" cx="380.5" cy="154.2" r="6.3"/>
<path d="M380.5,149.2c2.8,0,5,2.2,5,5l0,0c0,2.8-2.2,5-5,5s-5-2.2-5-5S377.7,149.2,380.5,149.2z M380.5,146.7
	c-4.1,0-7.5,3.4-7.5,7.5s3.4,7.5,7.5,7.5s7.5-3.4,7.5-7.5l0,0C388,150,384.6,146.7,380.5,146.7z"/>
<line class="st2" x1="416.4" y1="278.8" x2="416.4" y2="366.5"/>
<line class="st2" x1="416.4" y1="278.8" x2="416.4" y2="201.6"/>
<circle class="st4" cx="416.4" cy="278.8" r="6.3"/>
<path d="M416.4,273.8c2.8,0,5,2.2,5,5l0,0c0,2.8-2.2,5-5,5s-5-2.2-5-5S413.6,273.8,416.4,273.8z M416.4,271.3
	c-4.1,0-7.5,3.4-7.5,7.5s3.4,7.5,7.5,7.5s7.5-3.4,7.5-7.5l0,0C423.9,274.6,420.5,271.3,416.4,271.3z"/>
<line class="st5" x1="272.7" y1="391.2" x2="452.3" y2="391.2"/>
<line class="st5" x1="326.6" y1="443" x2="326.6" y2="57.4"/>
<line class="st2" x1="314.6" y1="57.4" x2="338.6" y2="57.4"/>
<path d="M316.9,45.7l0.6-1.9c1.4,0.5,2.4,0.9,3,1.3c-0.2-1.6-0.3-2.7-0.3-3.3h1.9c0,0.9-0.1,2-0.3,3.3c0.9-0.5,1.9-0.9,3.1-1.3
	l0.6,1.9c-1.1,0.4-2.2,0.6-3.3,0.7c0.5,0.5,1.3,1.3,2.3,2.5l-1.6,1.1c-0.5-0.7-1.1-1.6-1.8-2.8c-0.7,1.2-1.2,2.2-1.7,2.8l-1.5-1.1
	c1-1.3,1.8-2.1,2.2-2.5C319,46.2,318,46,316.9,45.7z M327.3,45.7l0.6-1.9c1.4,0.5,2.4,0.9,3,1.3c-0.2-1.6-0.3-2.7-0.3-3.3h1.9
	c0,0.9-0.1,2-0.3,3.3c0.9-0.5,1.9-0.9,3.1-1.3l0.6,1.9c-1.1,0.4-2.2,0.6-3.3,0.7c0.5,0.5,1.3,1.3,2.3,2.5l-1.6,1.1
	c-0.5-0.7-1.1-1.6-1.8-2.8c-0.7,1.2-1.2,2.2-1.7,2.8l-1.5-1.1c1-1.3,1.7-2.1,2.2-2.5C329.4,46.2,328.3,46,327.3,45.7z"/>
<line class="st5" x1="398.4" y1="443" x2="398.4" y2="57.4"/>
<line class="st2" x1="386.4" y1="57.4" x2="410.4" y2="57.4"/>
<path d="M388.8,45.7l0.6-1.9c1.4,0.5,2.4,0.9,3,1.3c-0.2-1.6-0.3-2.7-0.3-3.3h1.9c0,0.9-0.1,2-0.3,3.3c0.9-0.5,1.9-0.9,3.1-1.3
	l0.6,1.9c-1.1,0.4-2.2,0.6-3.3,0.7c0.5,0.5,1.3,1.3,2.3,2.5l-1.6,1.1c-0.5-0.7-1.1-1.6-1.8-2.8c-0.7,1.2-1.2,2.2-1.7,2.8l-1.5-1.1
	c1-1.3,1.8-2.1,2.2-2.5C390.9,46.2,389.8,46,388.8,45.7z M399.1,45.7l0.6-1.9c1.4,0.5,2.4,0.9,3,1.3c-0.2-1.6-0.3-2.7-0.3-3.3h1.9
	c0,0.9-0.1,2-0.3,3.3c0.9-0.5,1.9-0.9,3.1-1.3l0.6,1.9c-1.1,0.4-2.2,0.6-3.3,0.7c0.5,0.5,1.3,1.3,2.3,2.5l-1.6,1.1
	c-0.5-0.7-1.1-1.6-1.8-2.8c-0.7,1.2-1.2,2.2-1.7,2.8l-1.5-1.1c1-1.3,1.7-2.1,2.2-2.5C401.2,46.2,400.1,46,399.1,45.7z"/>
</svg>
