<?xml version="1.0" encoding="utf-8"?>
<!-- Generator: Adobe Illustrator 24.0.1, SVG Export Plug-In . SVG Version: 6.00 Build 0)  -->
<svg version="1.1" id="Layer_1" xmlns="http://www.w3.org/2000/svg" xmlns:xlink="http://www.w3.org/1999/xlink" x="0px" y="0px"
	 viewBox="0 0 700 525" style="enable-background:new 0 0 700 525;" xml:space="preserve">
<style type="text/css">
	.st0{fill:#262626;}
	.st1{fill:#D90D40;}
	.st2{fill:none;stroke:#000000;stroke-width:3.3333;stroke-linecap:square;stroke-linejoin:round;stroke-miterlimit:10;}
</style>
<path d="M201.8,25.6l3.1-0.3c0.2,1,0.6,1.8,1.1,2.3c0.6,0.5,1.3,0.7,2.3,0.7c1,0,1.8-0.2,2.3-0.6c0.5-0.4,0.8-0.9,0.8-1.5
	c0-0.4-0.1-0.7-0.3-1c-0.2-0.3-0.6-0.5-1.1-0.7c-0.4-0.1-1.2-0.4-2.5-0.7c-1.7-0.4-2.9-0.9-3.6-1.6c-1-0.9-1.5-1.9-1.5-3.2
	c0-0.8,0.2-1.6,0.7-2.3c0.5-0.7,1.1-1.2,2-1.6c0.9-0.4,1.9-0.5,3.1-0.5c2,0,3.5,0.4,4.5,1.3c1,0.9,1.5,2,1.6,3.5l-3.2,0.1
	c-0.1-0.8-0.4-1.4-0.9-1.8c-0.4-0.4-1.1-0.5-2-0.5c-0.9,0-1.7,0.2-2.2,0.6c-0.3,0.2-0.5,0.6-0.5,1c0,0.4,0.2,0.7,0.5,1
	c0.4,0.3,1.4,0.7,2.9,1s2.7,0.7,3.4,1.1c0.7,0.4,1.3,0.9,1.7,1.6c0.4,0.7,0.6,1.5,0.6,2.5c0,0.9-0.3,1.8-0.8,2.5s-1.2,1.4-2.1,1.8
	c-0.9,0.4-2.1,0.6-3.4,0.6c-2,0-3.5-0.5-4.6-1.4C202.6,28.7,202,27.3,201.8,25.6z M217.3,17.7v-2.8h3v2.8H217.3z M217.3,30.7V19.3h3
	v11.4H217.3z M223.1,19.3h2.8v1.6c1-1.2,2.2-1.8,3.5-1.8c0.7,0,1.4,0.2,1.9,0.5c0.5,0.3,1,0.8,1.3,1.4c0.5-0.6,1-1.1,1.6-1.4
	c0.6-0.3,1.2-0.5,1.9-0.5c0.8,0,1.6,0.2,2.1,0.5c0.6,0.3,1,0.8,1.3,1.5c0.2,0.5,0.3,1.3,0.3,2.4v7.3h-3v-6.5c0-1.1-0.1-1.9-0.3-2.2
	c-0.3-0.4-0.7-0.6-1.3-0.6c-0.4,0-0.8,0.1-1.2,0.4c-0.4,0.3-0.6,0.6-0.8,1.1c-0.2,0.5-0.3,1.3-0.3,2.4v5.5h-3v-6.3
	c0-1.1-0.1-1.8-0.2-2.2c-0.1-0.3-0.3-0.6-0.5-0.7c-0.2-0.2-0.5-0.2-0.9-0.2c-0.5,0-0.9,0.1-1.3,0.4c-0.4,0.2-0.6,0.6-0.8,1.1
	c-0.2,0.5-0.2,1.3-0.2,2.4v5.5h-3V19.3z M250.4,30.7V29c-0.4,0.6-1,1.1-1.6,1.4c-0.7,0.4-1.4,0.5-2.1,0.5c-0.8,0-1.5-0.2-2.1-0.5
	c-0.6-0.3-1-0.8-1.3-1.4c-0.3-0.6-0.4-1.5-0.4-2.5v-7.2h3v5.2c0,1.6,0.1,2.6,0.2,3c0.1,0.4,0.3,0.7,0.6,0.9c0.3,0.2,0.7,0.3,1.1,0.3
	c0.5,0,1-0.1,1.4-0.4c0.4-0.3,0.7-0.6,0.8-1s0.2-1.4,0.2-3.1v-4.8h3v11.4H250.4z M256.4,30.7V14.9h3v15.8H256.4z M264.7,22.8
	l-2.7-0.5c0.3-1.1,0.8-1.9,1.6-2.5c0.8-0.5,1.9-0.8,3.3-0.8c1.4,0,2.4,0.2,3,0.5c0.7,0.3,1.1,0.7,1.4,1.2c0.3,0.5,0.4,1.4,0.4,2.7
	l0,3.5c0,1,0,1.7,0.1,2.2c0.1,0.5,0.3,1,0.5,1.5h-3c-0.1-0.2-0.2-0.5-0.3-0.9c-0.1-0.2-0.1-0.3-0.1-0.4c-0.5,0.5-1.1,0.9-1.6,1.1
	c-0.6,0.3-1.2,0.4-1.9,0.4c-1.2,0-2.1-0.3-2.8-1c-0.7-0.6-1-1.4-1-2.4c0-0.6,0.2-1.2,0.5-1.7c0.3-0.5,0.7-0.9,1.3-1.2
	s1.4-0.5,2.4-0.7c1.4-0.3,2.4-0.5,2.9-0.7v-0.3c0-0.6-0.1-1-0.4-1.2c-0.3-0.3-0.8-0.4-1.6-0.4c-0.5,0-1,0.1-1.3,0.3
	C265.2,21.9,264.9,22.2,264.7,22.8z M268.8,25.2c-0.4,0.1-1,0.3-1.8,0.5s-1.4,0.4-1.6,0.5c-0.4,0.3-0.6,0.6-0.6,1.1
	c0,0.4,0.2,0.8,0.5,1.1c0.3,0.3,0.7,0.5,1.2,0.5c0.5,0,1.1-0.2,1.5-0.5c0.4-0.3,0.6-0.6,0.7-1c0.1-0.3,0.1-0.8,0.1-1.5V25.2z
	 M279.9,19.3v2.4h-2.1v4.6c0,0.9,0,1.5,0.1,1.6c0,0.2,0.1,0.3,0.3,0.4c0.1,0.1,0.3,0.1,0.5,0.1c0.3,0,0.7-0.1,1.2-0.3l0.3,2.3
	c-0.7,0.3-1.5,0.5-2.4,0.5c-0.5,0-1-0.1-1.5-0.3c-0.4-0.2-0.8-0.4-1-0.7c-0.2-0.3-0.3-0.7-0.4-1.2c-0.1-0.3-0.1-1.1-0.1-2.1v-5h-1.4
	v-2.4h1.4V17l3-1.8v4H279.9z M288.6,27.1l3,0.5c-0.4,1.1-1,1.9-1.8,2.5c-0.8,0.6-1.9,0.9-3.1,0.9c-2,0-3.5-0.7-4.4-2
	c-0.8-1-1.1-2.4-1.1-3.9c0-1.9,0.5-3.4,1.5-4.4c1-1.1,2.2-1.6,3.8-1.6c1.7,0,3,0.6,4,1.7c1,1.1,1.5,2.8,1.4,5.2h-7.6
	c0,0.9,0.3,1.6,0.7,2.1c0.5,0.5,1,0.7,1.7,0.7c0.5,0,0.9-0.1,1.2-0.4C288.2,28.1,288.5,27.6,288.6,27.1z M288.8,24
	c0-0.9-0.2-1.5-0.7-2c-0.4-0.5-1-0.7-1.6-0.7c-0.7,0-1.2,0.2-1.6,0.7c-0.4,0.5-0.7,1.1-0.6,2H288.8z M304.7,30.7h-2.8V29
	c-0.5,0.6-1,1.1-1.6,1.5c-0.6,0.3-1.3,0.5-1.9,0.5c-1.3,0-2.4-0.5-3.4-1.6c-0.9-1.1-1.4-2.5-1.4-4.4c0-1.9,0.5-3.4,1.4-4.4
	c0.9-1,2.1-1.5,3.5-1.5c1.3,0,2.4,0.5,3.3,1.6v-5.7h3V30.7z M296.7,24.7c0,1.2,0.2,2.1,0.5,2.6c0.5,0.8,1.2,1.2,2,1.2
	c0.7,0,1.3-0.3,1.8-0.9s0.7-1.5,0.7-2.6c0-1.3-0.2-2.3-0.7-2.8c-0.5-0.6-1.1-0.9-1.8-0.9c-0.7,0-1.3,0.3-1.8,0.9
	C296.9,22.8,296.7,23.6,296.7,24.7z M313.8,30.7V14.9h5.1c1.9,0,3.2,0.1,3.8,0.2c0.9,0.2,1.7,0.8,2.3,1.5c0.6,0.8,0.9,1.8,0.9,3.1
	c0,1-0.2,1.8-0.5,2.4c-0.4,0.7-0.8,1.2-1.3,1.6s-1.1,0.6-1.6,0.7c-0.8,0.2-1.9,0.2-3.3,0.2H317v5.9H313.8z M317,17.6v4.5h1.7
	c1.3,0,2.1-0.1,2.5-0.3c0.4-0.2,0.8-0.4,1-0.8c0.2-0.3,0.4-0.8,0.4-1.2c0-0.6-0.2-1-0.5-1.4c-0.3-0.4-0.8-0.6-1.3-0.7
	c-0.4-0.1-1.2-0.1-2.3-0.1H317z M327.7,25.6l3.1-0.3c0.2,1,0.6,1.8,1.1,2.3c0.6,0.5,1.3,0.7,2.3,0.7c1,0,1.8-0.2,2.3-0.6
	c0.5-0.4,0.8-0.9,0.8-1.5c0-0.4-0.1-0.7-0.3-1c-0.2-0.3-0.6-0.5-1.1-0.7c-0.4-0.1-1.2-0.4-2.5-0.7c-1.7-0.4-2.9-0.9-3.6-1.6
	c-1-0.9-1.5-1.9-1.5-3.2c0-0.8,0.2-1.6,0.7-2.3s1.1-1.2,2-1.6c0.9-0.4,1.9-0.5,3.1-0.5c2,0,3.5,0.4,4.5,1.3c1,0.9,1.5,2,1.6,3.5
	l-3.2,0.1c-0.1-0.8-0.4-1.4-0.9-1.8c-0.4-0.4-1.1-0.5-2-0.5c-0.9,0-1.7,0.2-2.2,0.6c-0.3,0.2-0.5,0.6-0.5,1c0,0.4,0.2,0.7,0.5,1
	c0.4,0.3,1.4,0.7,2.9,1c1.5,0.4,2.7,0.7,3.4,1.1c0.7,0.4,1.3,0.9,1.7,1.6c0.4,0.7,0.6,1.5,0.6,2.5c0,0.9-0.3,1.8-0.8,2.5
	s-1.2,1.4-2.1,1.8s-2.1,0.6-3.4,0.6c-2,0-3.5-0.5-4.6-1.4C328.6,28.7,327.9,27.3,327.7,25.6z M346.7,30.7V17.6h-4.7v-2.7h12.5v2.7
	h-4.7v13.1H346.7z M356.6,30.7V14.9h3.2v6.2h6.2v-6.2h3.2v15.8H366v-6.9h-6.2v6.9H356.6z M381.5,30.7h-3V19.3h2.8v1.6
	c0.5-0.8,0.9-1.3,1.3-1.5c0.4-0.2,0.8-0.4,1.3-0.4c0.7,0,1.3,0.2,2,0.6l-0.9,2.6c-0.5-0.3-1-0.5-1.4-0.5c-0.4,0-0.8,0.1-1.1,0.3
	c-0.3,0.2-0.5,0.6-0.7,1.3c-0.2,0.6-0.3,1.9-0.3,3.8V30.7z M389.4,22.8l-2.7-0.5c0.3-1.1,0.8-1.9,1.6-2.5c0.8-0.5,1.9-0.8,3.3-0.8
	c1.4,0,2.4,0.2,3,0.5c0.7,0.3,1.1,0.7,1.4,1.2c0.3,0.5,0.4,1.4,0.4,2.7l0,3.5c0,1,0,1.7,0.1,2.2c0.1,0.5,0.3,1,0.5,1.5h-3
	c-0.1-0.2-0.2-0.5-0.3-0.9c-0.1-0.2-0.1-0.3-0.1-0.4c-0.5,0.5-1.1,0.9-1.6,1.1c-0.6,0.3-1.2,0.4-1.9,0.4c-1.2,0-2.1-0.3-2.8-1
	c-0.7-0.6-1-1.4-1-2.4c0-0.6,0.2-1.2,0.5-1.7c0.3-0.5,0.7-0.9,1.3-1.2c0.6-0.3,1.4-0.5,2.4-0.7c1.4-0.3,2.4-0.5,2.9-0.7v-0.3
	c0-0.6-0.1-1-0.4-1.2c-0.3-0.3-0.8-0.4-1.6-0.4c-0.5,0-1,0.1-1.3,0.3C389.9,21.9,389.6,22.2,389.4,22.8z M393.5,25.2
	c-0.4,0.1-1,0.3-1.8,0.5c-0.8,0.2-1.4,0.4-1.6,0.5c-0.4,0.3-0.6,0.6-0.6,1.1c0,0.4,0.2,0.8,0.5,1.1c0.3,0.3,0.7,0.5,1.2,0.5
	c0.5,0,1.1-0.2,1.5-0.5c0.4-0.3,0.6-0.6,0.7-1c0.1-0.3,0.1-0.8,0.1-1.5V25.2z M398.3,27.4l3-0.5c0.1,0.6,0.4,1,0.8,1.3
	c0.4,0.3,0.9,0.5,1.7,0.5c0.8,0,1.4-0.1,1.8-0.4c0.3-0.2,0.4-0.5,0.4-0.8c0-0.2-0.1-0.4-0.2-0.6c-0.1-0.1-0.5-0.3-1-0.4
	c-2.4-0.5-4-1-4.6-1.5c-0.9-0.6-1.3-1.5-1.3-2.6c0-1,0.4-1.8,1.2-2.5c0.8-0.7,2-1,3.6-1c1.6,0,2.7,0.3,3.5,0.8
	c0.8,0.5,1.3,1.3,1.6,2.3l-2.8,0.5c-0.1-0.4-0.4-0.8-0.7-1s-0.8-0.4-1.4-0.4c-0.8,0-1.4,0.1-1.7,0.3c-0.2,0.2-0.3,0.4-0.3,0.6
	c0,0.2,0.1,0.4,0.3,0.5c0.3,0.2,1.2,0.5,2.8,0.8c1.6,0.4,2.7,0.8,3.4,1.3c0.6,0.5,0.9,1.3,0.9,2.3c0,1-0.4,1.9-1.3,2.7
	c-0.9,0.8-2.2,1.1-3.9,1.1c-1.6,0-2.8-0.3-3.7-1C399.2,29.4,398.6,28.5,398.3,27.4z M416.9,19.3v2.4h-2.1v4.6c0,0.9,0,1.5,0.1,1.6
	c0,0.2,0.1,0.3,0.3,0.4c0.1,0.1,0.3,0.1,0.5,0.1c0.3,0,0.7-0.1,1.2-0.3l0.3,2.3c-0.7,0.3-1.5,0.5-2.4,0.5c-0.5,0-1-0.1-1.5-0.3
	c-0.4-0.2-0.8-0.4-1-0.7c-0.2-0.3-0.3-0.7-0.4-1.2c-0.1-0.3-0.1-1.1-0.1-2.1v-5h-1.4v-2.4h1.4V17l3-1.8v4H416.9z M425.6,27.1l3,0.5
	c-0.4,1.1-1,1.9-1.8,2.5c-0.8,0.6-1.9,0.9-3.1,0.9c-2,0-3.5-0.7-4.4-2c-0.8-1-1.1-2.4-1.1-3.9c0-1.9,0.5-3.4,1.5-4.4
	c1-1.1,2.2-1.6,3.8-1.6c1.7,0,3,0.6,4,1.7c1,1.1,1.5,2.8,1.4,5.2h-7.6c0,0.9,0.3,1.6,0.7,2.1c0.5,0.5,1,0.7,1.7,0.7
	c0.5,0,0.9-0.1,1.2-0.4C425.2,28.1,425.4,27.6,425.6,27.1z M425.8,24c0-0.9-0.2-1.5-0.7-2c-0.4-0.5-1-0.7-1.6-0.7
	c-0.7,0-1.2,0.2-1.6,0.7c-0.4,0.5-0.7,1.1-0.6,2H425.8z M434.1,30.7h-3V19.3h2.8v1.6c0.5-0.8,0.9-1.3,1.3-1.5
	c0.4-0.2,0.8-0.4,1.3-0.4c0.7,0,1.3,0.2,2,0.6l-0.9,2.6c-0.5-0.3-1-0.5-1.4-0.5c-0.4,0-0.8,0.1-1.1,0.3c-0.3,0.2-0.5,0.6-0.7,1.3
	c-0.2,0.6-0.3,1.9-0.3,3.8V30.7z"/>
<g>
	<defs>
		<rect id="SVGID_1_" x="117.8" y="38.6" width="404.4" height="404.8"/>
	</defs>
	<clipPath id="SVGID_2_">
		<use xlink:href="#SVGID_1_"  style="overflow:visible;"/>
	</clipPath>
	<g style="clip-path:url(#SVGID_2_);enable-background:new    ;">
		
			<image style="overflow:visible;" width="809" height="810" xlink:href="F293BC8A.png"  transform="matrix(0.4999 0 0 0.4998 117.7978 38.5826)">
		</image>
	</g>
</g>
<g>
	<circle class="st0" cx="49.8" cy="443" r="1.4"/>
	<circle class="st0" cx="49.8" cy="442.2" r="1.4"/>
	<circle class="st0" cx="49.8" cy="441.3" r="1.4"/>
	<circle class="st0" cx="49.8" cy="440.5" r="1.4"/>
	<circle class="st0" cx="49.8" cy="439.7" r="1.4"/>
	<circle class="st0" cx="49.8" cy="438.8" r="1.4"/>
	<circle class="st0" cx="49.8" cy="438" r="1.4"/>
	<circle class="st0" cx="49.8" cy="437.2" r="1.4"/>
	<circle class="st0" cx="49.8" cy="436.3" r="1.4"/>
	<circle class="st0" cx="49.8" cy="435.5" r="1.4"/>
	<circle class="st0" cx="49.8" cy="434.7" r="1.4"/>
	<circle class="st0" cx="49.8" cy="433.8" r="1.4"/>
	<circle class="st0" cx="49.8" cy="433" r="1.4"/>
	<circle class="st0" cx="49.8" cy="432.1" r="1.4"/>
	<circle class="st0" cx="49.8" cy="431.3" r="1.4"/>
	<circle class="st0" cx="49.8" cy="430.5" r="1.4"/>
	<circle class="st0" cx="49.8" cy="429.6" r="1.4"/>
	<circle class="st0" cx="49.8" cy="428.8" r="1.4"/>
	<circle class="st0" cx="49.8" cy="427.1" r="1.4"/>
	<circle class="st0" cx="49.8" cy="426.3" r="1.4"/>
	<circle class="st0" cx="49.8" cy="425.5" r="1.4"/>
	<circle class="st0" cx="49.8" cy="424.6" r="1.4"/>
	<circle class="st0" cx="49.8" cy="423.8" r="1.4"/>
	<circle class="st0" cx="49.8" cy="423" r="1.4"/>
	<circle class="st0" cx="49.8" cy="422.1" r="1.4"/>
	<circle class="st0" cx="49.8" cy="420.5" r="1.4"/>
	<circle class="st0" cx="49.8" cy="419.6" r="1.4"/>
	<circle class="st0" cx="49.8" cy="418.8" r="1.4"/>
	<circle class="st0" cx="49.8" cy="415.5" r="1.4"/>
	<circle class="st0" cx="49.8" cy="414.6" r="1.4"/>
	<circle class="st0" cx="49.8" cy="413.8" r="1.4"/>
	<circle class="st0" cx="49.8" cy="413" r="1.4"/>
	<circle class="st0" cx="49.8" cy="412.1" r="1.4"/>
	<circle class="st0" cx="49.8" cy="411.3" r="1.4"/>
	<circle class="st0" cx="49.8" cy="409.6" r="1.4"/>
	<circle class="st0" cx="49.8" cy="408.8" r="1.4"/>
	<circle class="st0" cx="49.8" cy="407.9" r="1.4"/>
	<circle class="st0" cx="49.8" cy="407.1" r="1.4"/>
	<circle class="st0" cx="49.8" cy="406.3" r="1.4"/>
	<circle class="st0" cx="49.8" cy="405.4" r="1.4"/>
	<circle class="st0" cx="49.8" cy="404.6" r="1.4"/>
	<circle class="st0" cx="49.8" cy="402.9" r="1.4"/>
	<circle class="st0" cx="49.8" cy="400.4" r="1.4"/>
	<circle class="st0" cx="49.8" cy="398.8" r="1.4"/>
	<circle class="st0" cx="49.8" cy="397.1" r="1.4"/>
	<circle class="st0" cx="49.8" cy="394.6" r="1.4"/>
	<circle class="st0" cx="49.8" cy="391.2" r="1.4"/>
	<circle class="st0" cx="49.8" cy="390.4" r="1.4"/>
	<circle class="st0" cx="49.8" cy="389.6" r="1.4"/>
	<circle class="st0" cx="49.8" cy="388.7" r="1.4"/>
	<circle class="st0" cx="49.8" cy="387.1" r="1.4"/>
	<circle class="st0" cx="49.8" cy="386.2" r="1.4"/>
	<circle class="st0" cx="49.8" cy="384.6" r="1.4"/>
	<circle class="st0" cx="49.8" cy="382.1" r="1.4"/>
	<circle class="st0" cx="49.8" cy="378.7" r="1.4"/>
	<circle class="st0" cx="49.8" cy="377.1" r="1.4"/>
	<circle class="st0" cx="49.8" cy="376.2" r="1.4"/>
	<circle class="st0" cx="49.8" cy="373.7" r="1.4"/>
	<circle class="st0" cx="49.8" cy="372.9" r="1.4"/>
	<circle class="st0" cx="49.8" cy="372" r="1.4"/>
	<circle class="st0" cx="49.8" cy="370.4" r="1.4"/>
	<circle class="st0" cx="49.8" cy="368.7" r="1.4"/>
	<circle class="st0" cx="49.8" cy="367" r="1.4"/>
	<circle class="st0" cx="49.8" cy="365.4" r="1.4"/>
	<circle class="st0" cx="49.8" cy="363.7" r="1.4"/>
	<circle class="st0" cx="49.8" cy="362.9" r="1.4"/>
	<circle class="st0" cx="49.8" cy="361.2" r="1.4"/>
	<circle class="st0" cx="49.8" cy="360.4" r="1.4"/>
	<circle class="st0" cx="49.8" cy="357.9" r="1.4"/>
	<circle class="st0" cx="49.8" cy="356.2" r="1.4"/>
	<circle class="st0" cx="49.8" cy="355.4" r="1.4"/>
	<circle class="st0" cx="49.8" cy="354.5" r="1.4"/>
	<circle class="st0" cx="49.8" cy="353.7" r="1.4"/>
	<circle class="st0" cx="49.8" cy="351.2" r="1.4"/>
	<circle class="st0" cx="49.8" cy="346.2" r="1.4"/>
	<circle class="st0" cx="49.8" cy="345.3" r="1.4"/>
	<circle class="st0" cx="49.8" cy="343.7" r="1.4"/>
	<circle class="st0" cx="49.8" cy="342.8" r="1.4"/>
	<circle class="st0" cx="49.8" cy="342" r="1.4"/>
	<circle class="st0" cx="49.8" cy="340.3" r="1.4"/>
	<circle class="st0" cx="49.8" cy="337" r="1.4"/>
	<circle class="st0" cx="49.8" cy="335.3" r="1.4"/>
	<circle class="st0" cx="49.8" cy="332.8" r="1.4"/>
	<circle class="st0" cx="49.8" cy="330.3" r="1.4"/>
	<circle class="st0" cx="49.8" cy="327.8" r="1.4"/>
	<circle class="st0" cx="49.8" cy="327" r="1.4"/>
	<circle class="st0" cx="49.8" cy="324.5" r="1.4"/>
	<circle class="st0" cx="49.8" cy="322.8" r="1.4"/>
	<circle class="st0" cx="49.8" cy="321.1" r="1.4"/>
	<circle class="st0" cx="49.8" cy="319.5" r="1.4"/>
	<circle class="st0" cx="49.8" cy="318.6" r="1.4"/>
	<circle class="st0" cx="49.8" cy="317.8" r="1.4"/>
	<circle class="st0" cx="49.8" cy="317" r="1.4"/>
	<circle class="st0" cx="49.8" cy="316.1" r="1.4"/>
	<circle class="st0" cx="49.8" cy="315.3" r="1.4"/>
	<circle class="st0" cx="49.8" cy="314.5" r="1.4"/>
	<circle class="st0" cx="49.8" cy="313.6" r="1.4"/>
	<circle class="st0" cx="49.8" cy="311.1" r="1.4"/>
	<circle class="st0" cx="49.8" cy="310.3" r="1.4"/>
	<circle class="st0" cx="49.8" cy="309.4" r="1.4"/>
	<circle class="st0" cx="49.8" cy="308.6" r="1.4"/>
	<circle class="st0" cx="49.8" cy="306.9" r="1.4"/>
	<circle class="st0" cx="49.8" cy="306.1" r="1.4"/>
	<circle class="st0" cx="49.8" cy="305.3" r="1.4"/>
	<circle class="st0" cx="49.8" cy="301.1" r="1.4"/>
	<circle class="st0" cx="49.8" cy="300.3" r="1.4"/>
	<circle class="st0" cx="49.8" cy="298.6" r="1.4"/>
	<circle class="st0" cx="49.8" cy="297.8" r="1.4"/>
	<circle class="st0" cx="49.8" cy="296.9" r="1.4"/>
	<circle class="st0" cx="49.8" cy="296.1" r="1.4"/>
	<circle class="st0" cx="49.8" cy="290.2" r="1.4"/>
	<circle class="st0" cx="49.8" cy="288.6" r="1.4"/>
	<circle class="st0" cx="49.8" cy="287.7" r="1.4"/>
	<circle class="st0" cx="49.8" cy="286.9" r="1.4"/>
	<circle class="st0" cx="49.8" cy="284.4" r="1.4"/>
	<circle class="st0" cx="49.8" cy="283.6" r="1.4"/>
	<circle class="st0" cx="49.8" cy="282.7" r="1.4"/>
	<circle class="st0" cx="49.8" cy="281.9" r="1.4"/>
	<circle class="st0" cx="49.8" cy="281.1" r="1.4"/>
	<circle class="st0" cx="49.8" cy="279.4" r="1.4"/>
	<circle class="st0" cx="49.8" cy="276.9" r="1.4"/>
	<circle class="st0" cx="49.8" cy="276.1" r="1.4"/>
	<circle class="st0" cx="49.8" cy="273.6" r="1.4"/>
	<circle class="st0" cx="49.8" cy="272.7" r="1.4"/>
	<circle class="st0" cx="49.8" cy="271.9" r="1.4"/>
	<circle class="st0" cx="49.8" cy="270.2" r="1.4"/>
	<circle class="st0" cx="49.8" cy="269.4" r="1.4"/>
	<circle class="st0" cx="49.8" cy="267.7" r="1.4"/>
	<circle class="st0" cx="49.8" cy="266.9" r="1.4"/>
	<circle class="st0" cx="49.8" cy="266" r="1.4"/>
	<circle class="st0" cx="49.8" cy="265.2" r="1.4"/>
	<circle class="st0" cx="49.8" cy="264.4" r="1.4"/>
	<circle class="st0" cx="49.8" cy="261.9" r="1.4"/>
	<circle class="st0" cx="49.8" cy="261" r="1.4"/>
	<circle class="st0" cx="49.8" cy="260.2" r="1.4"/>
	<circle class="st0" cx="49.8" cy="259.4" r="1.4"/>
	<circle class="st0" cx="49.8" cy="257.7" r="1.4"/>
	<circle class="st0" cx="49.8" cy="256" r="1.4"/>
	<circle class="st0" cx="49.8" cy="254.4" r="1.4"/>
	<circle class="st0" cx="49.8" cy="253.5" r="1.4"/>
	<circle class="st0" cx="49.8" cy="252.7" r="1.4"/>
	<circle class="st0" cx="49.8" cy="251.9" r="1.4"/>
	<circle class="st0" cx="49.8" cy="251" r="1.4"/>
	<circle class="st0" cx="49.8" cy="250.2" r="1.4"/>
	<circle class="st0" cx="49.8" cy="249.3" r="1.4"/>
	<circle class="st0" cx="49.8" cy="248.5" r="1.4"/>
	<circle class="st0" cx="49.8" cy="247.7" r="1.4"/>
	<circle class="st0" cx="49.8" cy="246.8" r="1.4"/>
	<circle class="st0" cx="49.8" cy="246" r="1.4"/>
	<circle class="st0" cx="49.8" cy="245.2" r="1.4"/>
	<circle class="st0" cx="49.8" cy="244.3" r="1.4"/>
	<circle class="st0" cx="49.8" cy="243.5" r="1.4"/>
	<circle class="st0" cx="49.8" cy="242.7" r="1.4"/>
	<circle class="st0" cx="49.8" cy="241.8" r="1.4"/>
	<circle class="st0" cx="49.8" cy="241" r="1.4"/>
	<circle class="st0" cx="49.8" cy="240.2" r="1.4"/>
	<circle class="st0" cx="49.8" cy="239.3" r="1.4"/>
	<circle class="st0" cx="49.8" cy="238.5" r="1.4"/>
	<circle class="st0" cx="49.8" cy="237.7" r="1.4"/>
	<circle class="st0" cx="49.8" cy="236.8" r="1.4"/>
	<circle class="st0" cx="49.8" cy="236" r="1.4"/>
	<circle class="st0" cx="49.8" cy="235.2" r="1.4"/>
	<circle class="st0" cx="49.8" cy="234.3" r="1.4"/>
	<circle class="st0" cx="49.8" cy="233.5" r="1.4"/>
	<circle class="st0" cx="49.8" cy="232.7" r="1.4"/>
	<circle class="st0" cx="49.8" cy="231.8" r="1.4"/>
	<circle class="st0" cx="49.8" cy="231" r="1.4"/>
	<circle class="st0" cx="49.8" cy="230.1" r="1.4"/>
	<circle class="st0" cx="49.8" cy="229.3" r="1.4"/>
	<circle class="st0" cx="49.8" cy="228.5" r="1.4"/>
	<circle class="st0" cx="49.8" cy="227.6" r="1.4"/>
	<circle class="st0" cx="49.8" cy="226.8" r="1.4"/>
	<circle class="st0" cx="49.8" cy="226" r="1.4"/>
	<circle class="st0" cx="49.8" cy="225.1" r="1.4"/>
	<circle class="st0" cx="49.8" cy="224.3" r="1.4"/>
	<circle class="st0" cx="49.8" cy="222.6" r="1.4"/>
	<circle class="st0" cx="49.8" cy="221.8" r="1.4"/>
	<circle class="st0" cx="49.8" cy="221" r="1.4"/>
	<circle class="st0" cx="49.8" cy="220.1" r="1.4"/>
	<circle class="st0" cx="49.8" cy="219.3" r="1.4"/>
	<circle class="st0" cx="49.8" cy="218.5" r="1.4"/>
	<circle class="st0" cx="49.8" cy="217.6" r="1.4"/>
	<circle class="st0" cx="49.8" cy="216.8" r="1.4"/>
	<circle class="st0" cx="49.8" cy="216" r="1.4"/>
	<circle class="st0" cx="49.8" cy="215.1" r="1.4"/>
	<circle class="st0" cx="49.8" cy="214.3" r="1.4"/>
	<circle class="st0" cx="49.8" cy="213.5" r="1.4"/>
	<circle class="st0" cx="49.8" cy="212.6" r="1.4"/>
	<circle class="st0" cx="49.8" cy="211.8" r="1.4"/>
	<circle class="st0" cx="49.8" cy="210.1" r="1.4"/>
	<circle class="st0" cx="49.8" cy="208.4" r="1.4"/>
	<circle class="st0" cx="49.8" cy="207.6" r="1.4"/>
	<circle class="st0" cx="49.8" cy="206.8" r="1.4"/>
	<circle class="st0" cx="49.8" cy="205.9" r="1.4"/>
	<circle class="st0" cx="49.8" cy="205.1" r="1.4"/>
	<circle class="st0" cx="49.8" cy="204.3" r="1.4"/>
	<circle class="st0" cx="49.8" cy="203.4" r="1.4"/>
	<circle class="st0" cx="49.8" cy="201.8" r="1.4"/>
	<circle class="st0" cx="49.8" cy="200.9" r="1.4"/>
	<circle class="st0" cx="49.8" cy="200.1" r="1.4"/>
	<circle class="st0" cx="49.8" cy="199.3" r="1.4"/>
	<circle class="st0" cx="49.8" cy="198.4" r="1.4"/>
	<circle class="st0" cx="49.8" cy="197.6" r="1.4"/>
	<circle class="st0" cx="49.8" cy="195.9" r="1.4"/>
	<circle class="st0" cx="49.8" cy="195.1" r="1.4"/>
	<circle class="st0" cx="49.8" cy="194.3" r="1.4"/>
	<circle class="st0" cx="49.8" cy="191.8" r="1.4"/>
	<circle class="st0" cx="49.8" cy="188.4" r="1.4"/>
	<circle class="st0" cx="49.8" cy="187.6" r="1.4"/>
	<circle class="st0" cx="49.8" cy="185.9" r="1.4"/>
	<circle class="st0" cx="49.8" cy="185.1" r="1.4"/>
	<circle class="st0" cx="49.8" cy="184.2" r="1.4"/>
	<circle class="st0" cx="49.8" cy="182.6" r="1.4"/>
	<circle class="st0" cx="49.8" cy="181.7" r="1.4"/>
	<circle class="st0" cx="49.8" cy="180.9" r="1.4"/>
	<circle class="st0" cx="49.8" cy="178.4" r="1.4"/>
	<circle class="st0" cx="49.8" cy="177.6" r="1.4"/>
	<circle class="st0" cx="49.8" cy="176.7" r="1.4"/>
	<circle class="st0" cx="49.8" cy="174.2" r="1.4"/>
	<circle class="st0" cx="49.8" cy="172.6" r="1.4"/>
	<circle class="st0" cx="49.8" cy="171.7" r="1.4"/>
	<circle class="st0" cx="49.8" cy="169.2" r="1.4"/>
	<circle class="st0" cx="49.8" cy="165.9" r="1.4"/>
	<circle class="st0" cx="49.8" cy="163.4" r="1.4"/>
	<circle class="st0" cx="49.8" cy="161.7" r="1.4"/>
	<circle class="st0" cx="49.8" cy="160.9" r="1.4"/>
	<circle class="st0" cx="49.8" cy="160" r="1.4"/>
	<circle class="st0" cx="49.8" cy="159.2" r="1.4"/>
	<circle class="st0" cx="49.8" cy="157.5" r="1.4"/>
	<circle class="st0" cx="49.8" cy="154.2" r="1.4"/>
	<circle class="st0" cx="49.8" cy="153.4" r="1.4"/>
	<circle class="st0" cx="49.8" cy="150.9" r="1.4"/>
	<circle class="st0" cx="49.8" cy="149.2" r="1.4"/>
	<circle class="st0" cx="49.8" cy="148.3" r="1.4"/>
	<circle class="st0" cx="49.8" cy="146.7" r="1.4"/>
	<circle class="st0" cx="49.8" cy="142.5" r="1.4"/>
	<circle class="st0" cx="49.8" cy="140.8" r="1.4"/>
	<circle class="st0" cx="49.8" cy="139.2" r="1.4"/>
	<circle class="st0" cx="49.8" cy="138.3" r="1.4"/>
	<circle class="st0" cx="49.8" cy="136.7" r="1.4"/>
	<circle class="st0" cx="49.8" cy="134.2" r="1.4"/>
	<circle class="st0" cx="49.8" cy="132.5" r="1.4"/>
	<circle class="st0" cx="49.8" cy="131.7" r="1.4"/>
	<circle class="st0" cx="49.8" cy="130.8" r="1.4"/>
	<circle class="st0" cx="49.8" cy="130" r="1.4"/>
	<circle class="st0" cx="49.8" cy="129.1" r="1.4"/>
	<circle class="st0" cx="49.8" cy="127.5" r="1.4"/>
	<circle class="st0" cx="49.8" cy="125.8" r="1.4"/>
	<circle class="st0" cx="49.8" cy="121.6" r="1.4"/>
	<circle class="st0" cx="49.8" cy="120.8" r="1.4"/>
	<circle class="st0" cx="49.8" cy="119.1" r="1.4"/>
	<circle class="st0" cx="49.8" cy="116.6" r="1.4"/>
	<circle class="st0" cx="49.8" cy="114.1" r="1.4"/>
	<circle class="st0" cx="49.8" cy="113.3" r="1.4"/>
	<circle class="st0" cx="49.8" cy="111.6" r="1.4"/>
	<circle class="st0" cx="49.8" cy="110" r="1.4"/>
	<circle class="st0" cx="49.8" cy="109.1" r="1.4"/>
	<circle class="st0" cx="49.8" cy="105.8" r="1.4"/>
	<circle class="st0" cx="49.8" cy="104.9" r="1.4"/>
	<circle class="st0" cx="49.8" cy="104.1" r="1.4"/>
	<circle class="st0" cx="49.8" cy="101.6" r="1.4"/>
	<circle class="st0" cx="49.8" cy="99.9" r="1.4"/>
	<circle class="st0" cx="49.8" cy="99.1" r="1.4"/>
	<circle class="st0" cx="49.8" cy="98.3" r="1.4"/>
	<circle class="st0" cx="49.8" cy="97.4" r="1.4"/>
	<circle class="st0" cx="49.8" cy="95.8" r="1.4"/>
	<circle class="st0" cx="49.8" cy="94.9" r="1.4"/>
	<circle class="st0" cx="49.8" cy="94.1" r="1.4"/>
	<circle class="st0" cx="49.8" cy="93.3" r="1.4"/>
	<circle class="st0" cx="49.8" cy="90.8" r="1.4"/>
	<circle class="st0" cx="49.8" cy="89.9" r="1.4"/>
	<circle class="st0" cx="49.8" cy="89.1" r="1.4"/>
	<circle class="st0" cx="49.8" cy="88.2" r="1.4"/>
	<circle class="st0" cx="49.8" cy="86.6" r="1.4"/>
	<circle class="st0" cx="49.8" cy="85.7" r="1.4"/>
	<circle class="st0" cx="49.8" cy="84.1" r="1.4"/>
	<circle class="st0" cx="49.8" cy="83.2" r="1.4"/>
	<circle class="st0" cx="49.8" cy="81.6" r="1.4"/>
	<circle class="st0" cx="49.8" cy="80.7" r="1.4"/>
	<circle class="st0" cx="49.8" cy="79.9" r="1.4"/>
	<circle class="st0" cx="49.8" cy="78.2" r="1.4"/>
	<circle class="st0" cx="49.8" cy="77.4" r="1.4"/>
	<circle class="st0" cx="49.8" cy="76.6" r="1.4"/>
	<circle class="st0" cx="49.8" cy="75.7" r="1.4"/>
	<circle class="st0" cx="49.8" cy="74.1" r="1.4"/>
	<circle class="st0" cx="49.8" cy="73.2" r="1.4"/>
	<circle class="st0" cx="49.8" cy="72.4" r="1.4"/>
	<circle class="st0" cx="49.8" cy="69.9" r="1.4"/>
	<circle class="st0" cx="49.8" cy="68.2" r="1.4"/>
	<circle class="st0" cx="49.8" cy="67.4" r="1.4"/>
	<circle class="st0" cx="49.8" cy="66.5" r="1.4"/>
	<circle class="st0" cx="49.8" cy="65.7" r="1.4"/>
	<circle class="st0" cx="49.8" cy="64" r="1.4"/>
	<circle class="st0" cx="49.8" cy="63.2" r="1.4"/>
	<circle class="st0" cx="49.8" cy="60.7" r="1.4"/>
	<circle class="st0" cx="49.8" cy="59.9" r="1.4"/>
	<circle class="st0" cx="49.8" cy="58.2" r="1.4"/>
	<circle class="st0" cx="49.8" cy="54.9" r="1.4"/>
	<circle class="st0" cx="49.8" cy="54" r="1.4"/>
	<circle class="st0" cx="49.8" cy="53.2" r="1.4"/>
	<circle class="st0" cx="49.8" cy="52.4" r="1.4"/>
	<circle class="st0" cx="49.8" cy="51.5" r="1.4"/>
	<circle class="st0" cx="49.8" cy="50.7" r="1.4"/>
	<circle class="st0" cx="49.8" cy="49.9" r="1.4"/>
	<circle class="st0" cx="49.8" cy="49" r="1.4"/>
	<circle class="st0" cx="49.8" cy="48.2" r="1.4"/>
	<circle class="st0" cx="49.8" cy="47.3" r="1.4"/>
	<circle class="st0" cx="49.8" cy="46.5" r="1.4"/>
	<circle class="st0" cx="49.8" cy="45.7" r="1.4"/>
	<circle class="st0" cx="49.8" cy="44.8" r="1.4"/>
	<circle class="st0" cx="49.8" cy="44" r="1.4"/>
	<circle class="st0" cx="49.8" cy="43.2" r="1.4"/>
	<circle class="st0" cx="49.8" cy="42.3" r="1.4"/>
	<circle class="st0" cx="49.8" cy="41.5" r="1.4"/>
	<circle class="st0" cx="49.8" cy="40.7" r="1.4"/>
	<circle class="st0" cx="49.8" cy="39.8" r="1.4"/>
	<circle class="st0" cx="49.8" cy="39" r="1.4"/>
	<circle class="st1" cx="55.8" cy="428" r="1.4"/>
	<circle class="st1" cx="55.8" cy="421.3" r="1.4"/>
	<circle class="st1" cx="55.8" cy="418" r="1.4"/>
	<circle class="st1" cx="55.8" cy="417.1" r="1.4"/>
	<circle class="st1" cx="55.8" cy="416.3" r="1.4"/>
	<circle class="st1" cx="55.8" cy="410.4" r="1.4"/>
	<circle class="st1" cx="55.8" cy="403.8" r="1.4"/>
	<circle class="st1" cx="55.8" cy="402.1" r="1.4"/>
	<circle class="st1" cx="55.8" cy="401.3" r="1.4"/>
	<circle class="st1" cx="55.8" cy="399.6" r="1.4"/>
	<circle class="st1" cx="55.8" cy="397.9" r="1.4"/>
	<circle class="st1" cx="55.8" cy="396.3" r="1.4"/>
	<circle class="st1" cx="55.8" cy="395.4" r="1.4"/>
	<circle class="st1" cx="55.8" cy="393.8" r="1.4"/>
	<circle class="st1" cx="55.8" cy="392.9" r="1.4"/>
	<circle class="st1" cx="55.8" cy="392.1" r="1.4"/>
	<circle class="st1" cx="55.8" cy="387.9" r="1.4"/>
	<circle class="st1" cx="55.8" cy="385.4" r="1.4"/>
	<circle class="st1" cx="55.8" cy="383.7" r="1.4"/>
	<circle class="st1" cx="55.8" cy="382.9" r="1.4"/>
	<circle class="st1" cx="55.8" cy="381.2" r="1.4"/>
	<circle class="st1" cx="55.8" cy="380.4" r="1.4"/>
	<circle class="st1" cx="55.8" cy="379.6" r="1.4"/>
	<circle class="st1" cx="55.8" cy="377.9" r="1.4"/>
	<circle class="st1" cx="55.8" cy="375.4" r="1.4"/>
	<circle class="st1" cx="55.8" cy="374.6" r="1.4"/>
	<circle class="st1" cx="55.8" cy="371.2" r="1.4"/>
	<circle class="st1" cx="55.8" cy="369.5" r="1.4"/>
	<circle class="st1" cx="55.8" cy="367.9" r="1.4"/>
	<circle class="st1" cx="55.8" cy="366.2" r="1.4"/>
	<circle class="st1" cx="55.8" cy="364.5" r="1.4"/>
	<circle class="st1" cx="55.8" cy="362" r="1.4"/>
	<circle class="st1" cx="55.8" cy="359.5" r="1.4"/>
	<circle class="st1" cx="55.8" cy="358.7" r="1.4"/>
	<circle class="st1" cx="55.8" cy="357" r="1.4"/>
	<circle class="st1" cx="55.8" cy="352.9" r="1.4"/>
	<circle class="st1" cx="55.8" cy="352" r="1.4"/>
	<circle class="st1" cx="55.8" cy="350.3" r="1.4"/>
	<circle class="st1" cx="55.8" cy="349.5" r="1.4"/>
	<circle class="st1" cx="55.8" cy="348.7" r="1.4"/>
	<circle class="st1" cx="55.8" cy="347.8" r="1.4"/>
	<circle class="st1" cx="55.8" cy="347" r="1.4"/>
	<circle class="st1" cx="55.8" cy="344.5" r="1.4"/>
	<circle class="st1" cx="55.8" cy="341.2" r="1.4"/>
	<circle class="st1" cx="55.8" cy="339.5" r="1.4"/>
	<circle class="st1" cx="55.8" cy="338.7" r="1.4"/>
	<circle class="st1" cx="55.8" cy="337.8" r="1.4"/>
	<circle class="st1" cx="55.8" cy="336.2" r="1.4"/>
	<circle class="st1" cx="55.8" cy="334.5" r="1.4"/>
	<circle class="st1" cx="55.8" cy="333.7" r="1.4"/>
	<circle class="st1" cx="55.8" cy="332" r="1.4"/>
	<circle class="st1" cx="55.8" cy="331.1" r="1.4"/>
	<circle class="st1" cx="55.8" cy="329.5" r="1.4"/>
	<circle class="st1" cx="55.8" cy="328.6" r="1.4"/>
	<circle class="st1" cx="55.8" cy="326.1" r="1.4"/>
	<circle class="st1" cx="55.8" cy="325.3" r="1.4"/>
	<circle class="st1" cx="55.8" cy="323.6" r="1.4"/>
	<circle class="st1" cx="55.8" cy="322" r="1.4"/>
	<circle class="st1" cx="55.8" cy="320.3" r="1.4"/>
	<circle class="st1" cx="55.8" cy="312.8" r="1.4"/>
	<circle class="st1" cx="55.8" cy="312" r="1.4"/>
	<circle class="st1" cx="55.8" cy="307.8" r="1.4"/>
	<circle class="st1" cx="55.8" cy="304.4" r="1.4"/>
	<circle class="st1" cx="55.8" cy="303.6" r="1.4"/>
	<circle class="st1" cx="55.8" cy="302.8" r="1.4"/>
	<circle class="st1" cx="55.8" cy="301.9" r="1.4"/>
	<circle class="st1" cx="55.8" cy="299.4" r="1.4"/>
	<circle class="st1" cx="55.8" cy="295.3" r="1.4"/>
	<circle class="st1" cx="55.8" cy="294.4" r="1.4"/>
	<circle class="st1" cx="55.8" cy="293.6" r="1.4"/>
	<circle class="st1" cx="55.8" cy="292.8" r="1.4"/>
	<circle class="st1" cx="55.8" cy="291.9" r="1.4"/>
	<circle class="st1" cx="55.8" cy="291.1" r="1.4"/>
	<circle class="st1" cx="55.8" cy="289.4" r="1.4"/>
	<circle class="st1" cx="55.8" cy="286.1" r="1.4"/>
	<circle class="st1" cx="55.8" cy="285.2" r="1.4"/>
	<circle class="st1" cx="55.8" cy="280.2" r="1.4"/>
	<circle class="st1" cx="55.8" cy="278.6" r="1.4"/>
	<circle class="st1" cx="55.8" cy="277.7" r="1.4"/>
	<circle class="st1" cx="55.8" cy="275.2" r="1.4"/>
	<circle class="st1" cx="55.8" cy="274.4" r="1.4"/>
	<circle class="st1" cx="55.8" cy="271" r="1.4"/>
	<circle class="st1" cx="55.8" cy="268.5" r="1.4"/>
	<circle class="st1" cx="55.8" cy="263.5" r="1.4"/>
	<circle class="st1" cx="55.8" cy="262.7" r="1.4"/>
	<circle class="st1" cx="55.8" cy="258.5" r="1.4"/>
	<circle class="st1" cx="55.8" cy="256.9" r="1.4"/>
	<circle class="st1" cx="55.8" cy="255.2" r="1.4"/>
	<circle class="st1" cx="55.8" cy="223.5" r="1.4"/>
	<circle class="st1" cx="55.8" cy="211" r="1.4"/>
	<circle class="st1" cx="55.8" cy="209.3" r="1.4"/>
	<circle class="st1" cx="55.8" cy="202.6" r="1.4"/>
	<circle class="st1" cx="55.8" cy="196.8" r="1.4"/>
	<circle class="st1" cx="55.8" cy="193.4" r="1.4"/>
	<circle class="st1" cx="55.8" cy="192.6" r="1.4"/>
	<circle class="st1" cx="55.8" cy="190.9" r="1.4"/>
	<circle class="st1" cx="55.8" cy="190.1" r="1.4"/>
	<circle class="st1" cx="55.8" cy="189.2" r="1.4"/>
	<circle class="st1" cx="55.8" cy="186.7" r="1.4"/>
	<circle class="st1" cx="55.8" cy="183.4" r="1.4"/>
	<circle class="st1" cx="55.8" cy="180.1" r="1.4"/>
	<circle class="st1" cx="55.8" cy="179.2" r="1.4"/>
	<circle class="st1" cx="55.8" cy="175.9" r="1.4"/>
	<circle class="st1" cx="55.8" cy="175.1" r="1.4"/>
	<circle class="st1" cx="55.8" cy="173.4" r="1.4"/>
	<circle class="st1" cx="55.8" cy="170.9" r="1.4"/>
	<circle class="st1" cx="55.8" cy="170" r="1.4"/>
	<circle class="st1" cx="55.8" cy="168.4" r="1.4"/>
	<circle class="st1" cx="55.8" cy="167.5" r="1.4"/>
	<circle class="st1" cx="55.8" cy="166.7" r="1.4"/>
	<circle class="st1" cx="55.8" cy="165" r="1.4"/>
	<circle class="st1" cx="55.8" cy="164.2" r="1.4"/>
	<circle class="st1" cx="55.8" cy="162.5" r="1.4"/>
	<circle class="st1" cx="55.8" cy="158.4" r="1.4"/>
	<circle class="st1" cx="55.8" cy="156.7" r="1.4"/>
	<circle class="st1" cx="55.8" cy="155.9" r="1.4"/>
	<circle class="st1" cx="55.8" cy="155" r="1.4"/>
	<circle class="st1" cx="55.8" cy="152.5" r="1.4"/>
	<circle class="st1" cx="55.8" cy="151.7" r="1.4"/>
	<circle class="st1" cx="55.8" cy="150" r="1.4"/>
	<circle class="st1" cx="55.8" cy="147.5" r="1.4"/>
	<circle class="st1" cx="55.8" cy="145.8" r="1.4"/>
	<circle class="st1" cx="55.8" cy="145" r="1.4"/>
	<circle class="st1" cx="55.8" cy="144.2" r="1.4"/>
	<circle class="st1" cx="55.8" cy="143.3" r="1.4"/>
	<circle class="st1" cx="55.8" cy="141.7" r="1.4"/>
	<circle class="st1" cx="55.8" cy="140" r="1.4"/>
	<circle class="st1" cx="55.8" cy="137.5" r="1.4"/>
	<circle class="st1" cx="55.8" cy="135.8" r="1.4"/>
	<circle class="st1" cx="55.8" cy="135" r="1.4"/>
	<circle class="st1" cx="55.8" cy="133.3" r="1.4"/>
	<circle class="st1" cx="55.8" cy="128.3" r="1.4"/>
	<circle class="st1" cx="55.8" cy="126.6" r="1.4"/>
	<circle class="st1" cx="55.8" cy="125" r="1.4"/>
	<circle class="st1" cx="55.8" cy="124.1" r="1.4"/>
	<circle class="st1" cx="55.8" cy="123.3" r="1.4"/>
	<circle class="st1" cx="55.8" cy="122.5" r="1.4"/>
	<circle class="st1" cx="55.8" cy="120" r="1.4"/>
	<circle class="st1" cx="55.8" cy="118.3" r="1.4"/>
	<circle class="st1" cx="55.8" cy="117.5" r="1.4"/>
	<circle class="st1" cx="55.8" cy="115.8" r="1.4"/>
	<circle class="st1" cx="55.8" cy="115" r="1.4"/>
	<circle class="st1" cx="55.8" cy="112.5" r="1.4"/>
	<circle class="st1" cx="55.8" cy="110.8" r="1.4"/>
	<circle class="st1" cx="55.8" cy="108.3" r="1.4"/>
	<circle class="st1" cx="55.8" cy="107.4" r="1.4"/>
	<circle class="st1" cx="55.8" cy="106.6" r="1.4"/>
	<circle class="st1" cx="55.8" cy="103.3" r="1.4"/>
	<circle class="st1" cx="55.8" cy="102.4" r="1.4"/>
	<circle class="st1" cx="55.8" cy="100.8" r="1.4"/>
	<circle class="st1" cx="55.8" cy="96.6" r="1.4"/>
	<circle class="st1" cx="55.8" cy="92.4" r="1.4"/>
	<circle class="st1" cx="55.8" cy="91.6" r="1.4"/>
	<circle class="st1" cx="55.8" cy="87.4" r="1.4"/>
	<circle class="st1" cx="55.8" cy="84.9" r="1.4"/>
	<circle class="st1" cx="55.8" cy="82.4" r="1.4"/>
	<circle class="st1" cx="55.8" cy="79.1" r="1.4"/>
	<circle class="st1" cx="55.8" cy="74.9" r="1.4"/>
	<circle class="st1" cx="55.8" cy="71.6" r="1.4"/>
	<circle class="st1" cx="55.8" cy="70.7" r="1.4"/>
	<circle class="st1" cx="55.8" cy="69" r="1.4"/>
	<circle class="st1" cx="55.8" cy="64.9" r="1.4"/>
	<circle class="st1" cx="55.8" cy="62.4" r="1.4"/>
	<circle class="st1" cx="55.8" cy="61.5" r="1.4"/>
	<circle class="st1" cx="55.8" cy="59" r="1.4"/>
	<circle class="st1" cx="55.8" cy="57.4" r="1.4"/>
	<circle class="st1" cx="55.8" cy="56.5" r="1.4"/>
	<circle class="st1" cx="55.8" cy="55.7" r="1.4"/>
</g>
<path class="st0" d="M103.9,435.2v8.3H118h0.4V38.6H118h-14.1v8.3v8.3h8.5v8.3h-2.8v8.3h-1.4v8.3v8.3h-1.4v8.3h2.8v8.3h1.4v8.3v8.3
	h1.4v8.3h-2.8v8.3h2.8v8.3h-2.8v8.3h1.4v8.3h2.8v8.3h-4.2v8.3v8.3h1.4v8.3h-4.2v8.3v8.3h-2.8v8.3h1.4v8.3h-1.4v8.3h1.4v8.3h-1.4v8.3
	h4.2v8.3v8.3h1.4v8.3v8.3h2.8v8.3h-2.8v8.3h-1.4v8.3h-1.4v8.3h5.7v8.3v8.3h-1.4v8.3h2.8v8.3h-4.2v8.3v8.3v8.3h4.2v8.3h-4.2v8.3h2.8
	v8.3h-5.7v8.3h2.8v8.3h-4.2v8.3v8.3H103.9z"/>
<path class="st1" d="M105.9,393.8v8.3H116v8.3h-6.1v8.3h6.1v8.3v8.3h2v8.3h0.4V38.6H118v8.3v8.3h-12.1v8.3h4v8.3h4v8.3h-2v8.3h2v8.3
	h-4v8.3h-2v8.3v8.3h-2v8.3h4v8.3h-4v8.3h4v8.3v8.3h-6.1v8.3h6.1v8.3v8.3h-2v8.3h6.1v8.3v8.3h4v8.3h-2v8.3h2v8.3v8.3v8.3h-6.1v8.3
	v8.3h-2v8.3v8.3h-4v8.3h4v8.3h2v8.3h2v8.3h-6.1v8.3h-2v8.3h2v8.3h-4v8.3h6.1v8.3v8.3v8.3h-6.1v8.3h6.1v8.3H105.9z"/>
<line class="st2" x1="118" y1="443" x2="522" y2="443"/>
<line class="st2" x1="118" y1="443" x2="118" y2="453.1"/>
<line class="st2" x1="163.2" y1="443" x2="163.2" y2="453.1"/>
<line class="st2" x1="183" y1="443" x2="183" y2="453.1"/>
<line class="st2" x1="211.7" y1="443" x2="211.7" y2="453.1"/>
<line class="st2" x1="252.9" y1="443" x2="252.9" y2="453.1"/>
<line class="st2" x1="312.3" y1="443" x2="312.3" y2="453.1"/>
<line class="st2" x1="398.4" y1="443" x2="398.4" y2="453.1"/>
<line class="st2" x1="522" y1="443" x2="522" y2="453.1"/>
<path d="M112.8,474.3c0-1.7,0.2-3,0.5-4.1c0.3-1,0.9-1.8,1.6-2.4c0.7-0.6,1.6-0.8,2.6-0.8c0.8,0,1.4,0.2,2,0.5
	c0.6,0.3,1.1,0.8,1.4,1.3c0.4,0.6,0.7,1.3,0.9,2.1c0.2,0.8,0.3,2,0.3,3.4c0,1.7-0.2,3-0.5,4.1c-0.3,1-0.9,1.8-1.5,2.4
	c-0.7,0.6-1.5,0.9-2.6,0.9c-1.4,0-2.5-0.5-3.3-1.5C113.3,479,112.8,477,112.8,474.3z M114.6,474.3c0,2.4,0.3,3.9,0.8,4.7
	c0.5,0.8,1.2,1.2,2,1.2c0.8,0,1.5-0.4,2-1.2c0.6-0.8,0.8-2.3,0.8-4.7c0-2.4-0.3-3.9-0.8-4.7c-0.6-0.8-1.2-1.2-2-1.2
	c-0.8,0-1.5,0.3-1.9,1C114.9,470.4,114.6,472,114.6,474.3z"/>
<path d="M507,481.4h-1.8v-11.2c-0.4,0.4-1,0.8-1.7,1.2c-0.7,0.4-1.3,0.7-1.9,0.9v-1.7c1-0.5,1.9-1,2.6-1.7c0.7-0.7,1.3-1.3,1.6-1.9
	h1.1V481.4z M511.5,474.3c0-1.7,0.2-3,0.5-4.1c0.3-1,0.9-1.8,1.6-2.4c0.7-0.6,1.6-0.8,2.6-0.8c0.8,0,1.4,0.2,2,0.5
	c0.6,0.3,1.1,0.8,1.4,1.3c0.4,0.6,0.7,1.3,0.9,2.1s0.3,2,0.3,3.4c0,1.7-0.2,3-0.5,4.1c-0.3,1-0.9,1.8-1.5,2.4
	c-0.7,0.6-1.5,0.9-2.6,0.9c-1.4,0-2.5-0.5-3.3-1.5C511.9,479,511.5,477,511.5,474.3z M513.3,474.3c0,2.4,0.3,3.9,0.8,4.7
	c0.5,0.8,1.2,1.2,2,1.2c0.8,0,1.5-0.4,2-1.2s0.8-2.3,0.8-4.7c0-2.4-0.3-3.9-0.8-4.7c-0.6-0.8-1.2-1.2-2-1.2s-1.5,0.3-1.9,1
	C513.6,470.4,513.3,472,513.3,474.3z M522.6,474.3c0-1.7,0.2-3,0.5-4.1c0.3-1,0.9-1.8,1.6-2.4c0.7-0.6,1.6-0.8,2.6-0.8
	c0.8,0,1.4,0.2,2,0.5c0.6,0.3,1.1,0.8,1.4,1.3c0.4,0.6,0.7,1.3,0.9,2.1c0.2,0.8,0.3,2,0.3,3.4c0,1.7-0.2,3-0.5,4.1
	c-0.3,1-0.9,1.8-1.5,2.4c-0.7,0.6-1.5,0.9-2.6,0.9c-1.4,0-2.5-0.5-3.3-1.5C523,479,522.6,477,522.6,474.3z M524.4,474.3
	c0,2.4,0.3,3.9,0.8,4.7c0.5,0.8,1.2,1.2,2,1.2c0.8,0,1.5-0.4,2-1.2c0.6-0.8,0.8-2.3,0.8-4.7c0-2.4-0.3-3.9-0.8-4.7
	c-0.6-0.8-1.2-1.2-2-1.2c-0.8,0-1.5,0.3-1.9,1C524.7,470.4,524.4,472,524.4,474.3z M533.7,474.3c0-1.7,0.2-3,0.5-4.1
	c0.3-1,0.9-1.8,1.6-2.4c0.7-0.6,1.6-0.8,2.6-0.8c0.8,0,1.4,0.2,2,0.5c0.6,0.3,1.1,0.8,1.4,1.3c0.4,0.6,0.7,1.3,0.9,2.1
	s0.3,2,0.3,3.4c0,1.7-0.2,3-0.5,4.1c-0.3,1-0.9,1.8-1.5,2.4c-0.7,0.6-1.5,0.9-2.6,0.9c-1.4,0-2.5-0.5-3.3-1.5
	C534.2,479,533.7,477,533.7,474.3z M535.5,474.3c0,2.4,0.3,3.9,0.8,4.7c0.5,0.8,1.2,1.2,2,1.2c0.8,0,1.5-0.4,2-1.2s0.8-2.3,0.8-4.7
	c0-2.4-0.3-3.9-0.8-4.7c-0.6-0.8-1.2-1.2-2-1.2s-1.5,0.3-1.9,1C535.8,470.4,535.5,472,535.5,474.3z"/>
<path d="M276.4,510v-13.9h-5.2v-1.9h12.5v1.9h-5.2V510H276.4z M285.6,496.5v-2.2h1.9v2.2H285.6z M285.6,510v-11.4h1.9V510H285.6z
	 M290.4,510v-11.4h1.7v1.6c0.4-0.6,0.8-1,1.4-1.3c0.6-0.3,1.3-0.5,2-0.5c0.8,0,1.5,0.2,2.1,0.5c0.5,0.4,0.9,0.8,1.1,1.5
	c0.9-1.3,2.1-2,3.5-2c1.1,0,2,0.3,2.6,0.9c0.6,0.6,0.9,1.6,0.9,2.9v7.8H304v-7.2c0-0.8-0.1-1.3-0.2-1.7c-0.1-0.3-0.4-0.6-0.7-0.8
	c-0.3-0.2-0.7-0.3-1.2-0.3c-0.8,0-1.5,0.3-2,0.8c-0.5,0.5-0.8,1.4-0.8,2.6v6.6h-1.9v-7.4c0-0.9-0.2-1.5-0.5-1.9
	c-0.3-0.4-0.8-0.6-1.6-0.6c-0.5,0-1,0.1-1.5,0.4s-0.8,0.7-1,1.3c-0.2,0.5-0.3,1.3-0.3,2.4v5.9H290.4z M316.6,506.3l2,0.3
	c-0.3,1.2-0.9,2.1-1.8,2.7c-0.8,0.6-1.9,1-3.3,1c-1.7,0-3-0.5-4-1.5c-1-1-1.5-2.5-1.5-4.3c0-1.9,0.5-3.4,1.5-4.5
	c1-1.1,2.3-1.6,3.9-1.6c1.5,0,2.8,0.5,3.7,1.6c1,1,1.5,2.5,1.5,4.4c0,0.1,0,0.3,0,0.5h-8.5c0.1,1.3,0.4,2.2,1.1,2.9
	c0.6,0.7,1.4,1,2.4,1c0.7,0,1.3-0.2,1.8-0.6S316.3,507.1,316.6,506.3z M310.2,503.2h6.4c-0.1-1-0.3-1.7-0.7-2.2
	c-0.6-0.8-1.4-1.1-2.4-1.1c-0.9,0-1.6,0.3-2.2,0.9C310.6,501.4,310.3,502.2,310.2,503.2z M330.8,514.6c-1.1-1.3-2-2.9-2.7-4.7
	c-0.7-1.8-1.1-3.7-1.1-5.6c0-1.7,0.3-3.3,0.8-4.9c0.6-1.8,1.6-3.6,3-5.4h1.4c-0.9,1.5-1.4,2.6-1.7,3.2c-0.4,1-0.8,2-1,3.1
	c-0.3,1.3-0.5,2.7-0.5,4c0,3.4,1.1,6.9,3.2,10.3H330.8z M334.4,510v-11.4h1.7v1.6c0.4-0.6,0.8-1,1.4-1.3c0.6-0.3,1.3-0.5,2-0.5
	c0.8,0,1.5,0.2,2.1,0.5c0.5,0.4,0.9,0.8,1.1,1.5c0.9-1.3,2.1-2,3.5-2c1.1,0,2,0.3,2.6,0.9c0.6,0.6,0.9,1.6,0.9,2.9v7.8H348v-7.2
	c0-0.8-0.1-1.3-0.2-1.7c-0.1-0.3-0.4-0.6-0.7-0.8c-0.3-0.2-0.7-0.3-1.2-0.3c-0.8,0-1.5,0.3-2,0.8c-0.5,0.5-0.8,1.4-0.8,2.6v6.6h-1.9
	v-7.4c0-0.9-0.2-1.5-0.5-1.9c-0.3-0.4-0.8-0.6-1.6-0.6c-0.5,0-1,0.1-1.5,0.4s-0.8,0.7-1,1.3c-0.2,0.5-0.3,1.3-0.3,2.4v5.9H334.4z
	 M352,506.6l1.9-0.3c0.1,0.8,0.4,1.3,0.9,1.8c0.5,0.4,1.2,0.6,2.1,0.6c0.9,0,1.5-0.2,2-0.5c0.4-0.4,0.6-0.8,0.6-1.3
	c0-0.4-0.2-0.8-0.6-1c-0.3-0.2-0.9-0.4-2-0.7c-1.4-0.4-2.4-0.7-3-0.9s-1-0.6-1.2-1.1c-0.3-0.5-0.4-1-0.4-1.5c0-0.5,0.1-1,0.4-1.4
	c0.2-0.4,0.5-0.8,0.9-1.1c0.3-0.2,0.7-0.4,1.2-0.6c0.5-0.2,1.1-0.2,1.7-0.2c0.9,0,1.7,0.1,2.4,0.4c0.7,0.3,1.2,0.6,1.5,1
	c0.3,0.4,0.5,1,0.7,1.8l-1.9,0.3c-0.1-0.6-0.3-1.1-0.7-1.4c-0.4-0.3-1-0.5-1.7-0.5c-0.9,0-1.5,0.1-1.9,0.4c-0.4,0.3-0.6,0.6-0.6,1
	c0,0.3,0.1,0.5,0.2,0.7c0.2,0.2,0.4,0.4,0.7,0.5c0.2,0.1,0.8,0.2,1.7,0.5c1.4,0.4,2.3,0.7,2.9,0.9c0.5,0.2,1,0.6,1.3,1
	c0.3,0.4,0.5,1,0.5,1.6c0,0.6-0.2,1.3-0.6,1.8c-0.4,0.6-0.9,1-1.6,1.3c-0.7,0.3-1.5,0.5-2.4,0.5c-1.5,0-2.6-0.3-3.4-0.9
	C352.7,508.7,352.2,507.8,352,506.6z M365,514.6h-1.4c2.1-3.4,3.2-6.9,3.2-10.3c0-1.4-0.2-2.7-0.5-4c-0.2-1.1-0.6-2.1-1-3.1
	c-0.3-0.6-0.9-1.7-1.7-3.2h1.4c1.3,1.8,2.3,3.6,3,5.4c0.6,1.6,0.8,3.2,0.8,4.9c0,1.9-0.4,3.8-1.1,5.6
	C367,511.7,366.1,513.3,365,514.6z"/>
<line class="st2" x1="118" y1="443" x2="118" y2="39"/>
<line class="st2" x1="118" y1="443" x2="107.9" y2="443"/>
<line class="st2" x1="118" y1="39" x2="107.9" y2="39"/>
<path d="M96,451h-1.8v-11.2c-0.4,0.4-1,0.8-1.7,1.2c-0.7,0.4-1.3,0.7-1.9,0.9v-1.7c1-0.5,1.9-1,2.6-1.7c0.7-0.7,1.3-1.3,1.6-1.9H96
	V451z"/>
<path d="M73.1,47v-3.4h-6.2V42l6.5-9.3h1.4V42h1.9v1.6h-1.9V47H73.1z M73.1,42v-6.5L68.6,42H73.1z M81.2,39.2
	c-0.7-0.3-1.3-0.7-1.6-1.1c-0.3-0.5-0.5-1.1-0.5-1.8c0-1,0.4-1.9,1.1-2.6s1.7-1.1,3-1.1c1.3,0,2.3,0.4,3,1.1
	c0.8,0.7,1.1,1.6,1.1,2.6c0,0.7-0.2,1.2-0.5,1.7c-0.3,0.5-0.9,0.9-1.6,1.1c0.9,0.3,1.6,0.8,2,1.4S88,42,88,42.9
	c0,1.2-0.4,2.3-1.3,3.1c-0.9,0.8-2,1.3-3.4,1.3c-1.4,0-2.6-0.4-3.4-1.3c-0.9-0.8-1.3-1.9-1.3-3.1c0-0.9,0.2-1.7,0.7-2.3
	C79.7,39.9,80.4,39.5,81.2,39.2z M80.9,36.3c0,0.7,0.2,1.2,0.7,1.7c0.4,0.4,1,0.6,1.7,0.6c0.7,0,1.2-0.2,1.7-0.6
	c0.4-0.4,0.7-0.9,0.7-1.6c0-0.6-0.2-1.2-0.7-1.6c-0.4-0.4-1-0.7-1.7-0.7c-0.7,0-1.2,0.2-1.7,0.6C81.1,35.1,80.9,35.7,80.9,36.3z
	 M80.3,42.9c0,0.5,0.1,1,0.4,1.5c0.2,0.5,0.6,0.8,1.1,1.1c0.5,0.3,1,0.4,1.5,0.4c0.8,0,1.5-0.3,2.1-0.8c0.5-0.5,0.8-1.2,0.8-2.1
	c0-0.8-0.3-1.5-0.8-2.1c-0.6-0.6-1.3-0.8-2.1-0.8c-0.8,0-1.5,0.3-2,0.8C80.6,41.4,80.3,42.1,80.3,42.9z M89.7,43.3l1.8-0.2
	c0.1,0.9,0.5,1.6,1,2s1.1,0.7,1.8,0.7c0.8,0,1.6-0.3,2.1-1c0.6-0.6,0.9-1.5,0.9-2.5c0-1-0.3-1.8-0.8-2.4c-0.6-0.6-1.3-0.9-2.2-0.9
	c-0.6,0-1.1,0.1-1.5,0.4c-0.5,0.3-0.8,0.6-1.1,1L90,40.2l1.4-7.4h7.1v1.7h-5.7L92,38.4c0.9-0.6,1.8-0.9,2.7-0.9
	c1.3,0,2.3,0.4,3.2,1.3c0.9,0.9,1.3,2,1.3,3.3c0,1.3-0.4,2.4-1.1,3.4c-0.9,1.2-2.2,1.8-3.8,1.8c-1.3,0-2.4-0.4-3.2-1.1
	C90.3,45.4,89.8,44.5,89.7,43.3z"/>
<path d="M29.1,284.8H13.3v-2.1l12.4-8.3H13.3v-2h15.8v2.1l-12.4,8.3h12.4V284.8z M25.4,261.3l0.3-2c1.2,0.3,2.1,0.9,2.7,1.8
	c0.6,0.8,1,1.9,1,3.3c0,1.7-0.5,3-1.5,4c-1,1-2.5,1.5-4.3,1.5c-1.9,0-3.4-0.5-4.5-1.5c-1.1-1-1.6-2.3-1.6-3.9c0-1.5,0.5-2.8,1.6-3.7
	c1-1,2.5-1.5,4.4-1.5c0.1,0,0.3,0,0.5,0v8.5c1.3-0.1,2.2-0.4,2.9-1.1c0.7-0.6,1-1.4,1-2.4c0-0.7-0.2-1.3-0.6-1.8
	S26.2,261.6,25.4,261.3z M22.3,267.7v-6.4c-1,0.1-1.7,0.3-2.2,0.7c-0.8,0.6-1.1,1.4-1.1,2.4c0,0.9,0.3,1.6,0.9,2.2
	C20.5,267.3,21.3,267.6,22.3,267.7z M29.1,249.5h-1.7c1.3,0.9,1.9,2.1,1.9,3.6c0,0.7-0.1,1.3-0.4,1.9c-0.3,0.6-0.6,1-1,1.3
	c-0.4,0.3-0.9,0.5-1.4,0.6c-0.4,0.1-1,0.1-1.8,0.1h-7.1V255H24c1,0,1.7,0,2-0.1c0.5-0.1,0.9-0.4,1.2-0.8c0.3-0.4,0.4-0.9,0.4-1.5
	c0-0.6-0.1-1.1-0.4-1.6c-0.3-0.5-0.7-0.9-1.2-1.1s-1.3-0.3-2.2-0.3h-6.1v-1.9h11.4V249.5z M29.1,244.7H17.7V243h1.7
	c-0.8-0.4-1.3-0.8-1.6-1.2c-0.3-0.4-0.4-0.8-0.4-1.2c0-0.7,0.2-1.3,0.6-2l1.8,0.7c-0.3,0.5-0.4,1-0.4,1.4c0,0.4,0.1,0.8,0.4,1.1
	c0.3,0.3,0.6,0.6,1.1,0.7c0.7,0.2,1.4,0.3,2.3,0.3h6V244.7z M23.4,238.1c-2.1,0-3.7-0.6-4.7-1.8c-0.8-1-1.3-2.2-1.3-3.6
	c0-1.6,0.5-2.9,1.5-3.9c1-1,2.5-1.5,4.3-1.5c1.5,0,2.6,0.2,3.5,0.7c0.8,0.4,1.5,1.1,2,1.9c0.5,0.8,0.7,1.8,0.7,2.8
	c0,1.6-0.5,2.9-1.5,3.9C26.8,237.6,25.3,238.1,23.4,238.1z M23.4,236.1c1.5,0,2.6-0.3,3.3-1c0.7-0.6,1.1-1.4,1.1-2.4
	c0-1-0.4-1.8-1.1-2.4c-0.7-0.6-1.8-1-3.3-1c-1.4,0-2.5,0.3-3.2,1c-0.7,0.6-1.1,1.4-1.1,2.4c0,1,0.4,1.8,1.1,2.4
	C20.8,235.8,21.9,236.1,23.4,236.1z M29.1,225.1H17.7v-1.7h1.6c-1.3-0.8-1.9-2.1-1.9-3.6c0-0.7,0.1-1.3,0.4-1.9c0.3-0.6,0.6-1,1-1.3
	c0.4-0.3,0.9-0.5,1.4-0.6c0.4-0.1,1-0.1,1.9-0.1h7v1.9h-6.9c-0.8,0-1.4,0.1-1.8,0.2c-0.4,0.1-0.7,0.4-0.9,0.8
	c-0.2,0.4-0.3,0.8-0.3,1.4c0,0.8,0.3,1.5,0.8,2.1c0.5,0.6,1.5,0.9,3,0.9h6.2V225.1z M29.4,207.1l-4.6-0.9v1.8h-1.6v-2.1l-3.9-0.8
	v2.9h-1.6v-3.3l-4.6-0.9v-1.6l4.6,0.9v-3.4l-4.6-0.9v-1.6l4.6,0.9v-1.9h1.6v2.2l3.9,0.8v-3h1.6v3.3l4.6,0.9v1.6l-4.6-0.9v3.4
	l4.6,0.9V207.1z M23.2,204.3v-3.4l-3.9-0.8v3.4L23.2,204.3z"/>
</svg>
