<?xml version="1.0" encoding="utf-8"?>
<!-- Generator: Adobe Illustrator 24.0.1, SVG Export Plug-In . SVG Version: 6.00 Build 0)  -->
<svg version="1.1" id="Layer_1" xmlns="http://www.w3.org/2000/svg" xmlns:xlink="http://www.w3.org/1999/xlink" x="0px" y="0px"
	 viewBox="0 0 800 625" style="enable-background:new 0 0 800 625;" xml:space="preserve">
<style type="text/css">
	.st0{fill:none;stroke:#000000;stroke-width:3.333;stroke-linecap:square;stroke-miterlimit:10;}
	.st1{fill:none;stroke:#000000;stroke-width:3.3333;stroke-linecap:square;stroke-linejoin:round;stroke-miterlimit:10;}
	.st2{fill:#674129;}
	.st3{fill:#9F643F;}
	.st4{fill:none;stroke:#000000;stroke-width:3.3333;stroke-linecap:round;stroke-linejoin:round;stroke-miterlimit:10;}
</style>
<g>
	<g transform="matrix(0.4995,0,0,0.4988,292.9023,98.9836)">
		<g>
			<defs>
				<path id="SVGID_1_" d="M112.2,12.8v12.4l98.4,56V68.8L218,56L119.7,0L112.2,12.8z M104.1,19.5V39l98.4,56V75.5l8-13.7l-98.4-56
					L104.1,19.5z M210.5,54.8v26.4l57.5,32.8V87.6l7.5-12.8L218,42L210.5,54.8z M260.1,54.6l-57.5-32.8V95l57.5,32.8l8-13.7
					l40.8,23.2l7.5-12.8V25.7l-7.5,12.8l-40.8-23.2V114V40.9L260.1,54.6z M64.1,106.6v0.8l98.4,56v-0.8l8-13.7l-98.4-56L64.1,106.6z
					 M56.1,111v10.1l98.4,56V167l8-13.7l-98.4-56L56.1,111z M260.1,59.3v68.4l40.8,23.2V82.5l8-13.7l-40.8-23.2L260.1,59.3z
					 M308.9,63.4v73.9l31.7,18l7.5-12.8V68.6l-31.7-18L308.9,63.4z M300.9,81v70l31.7,18V99l8-13.7l-31.7-18L300.9,81z M373.9,155.7
					l-25.9-14.7l-7.5,12.8v1.6l25.9,14.7v-45.9l7.5-12.8l-25.9-14.7l-7.5,12.8v45.9l25.9,14.7l7.5-12.8V155.7z M162.5,126.8v36.6
					l57.5,32.8l40.8,23.2v-36.6l8-13.7L228,145.9l-57.5-32.8L162.5,126.8z M358.4,106.7L332.5,92v77l25.9,14.7l8-13.7v-77
					L358.4,106.7z M395.8,93.5l-7.5,12.8l-21.9-12.5v76.2l21.9,12.5l7.5-12.8V93.5z M154.4,153.7v23.3l57.5,32.8v-23.3l8-13.7
					l-57.5-32.8L154.4,153.7z M407.3,193.3l7.5-12.8v-3.1l-19-10.8l-7.5,12.8v3.1L407.3,193.3z M407.3,193.3l7.5-12.8v-59.9
					l-19-10.8l-7.5,12.8v59.9L407.3,193.3z M380.3,139.4l8-13.7l-21.9-12.5l-8,13.7v56.8l21.9,12.5V139.4z M16,187.9v1.6l98.4,56
					v-1.6l8-13.7l-98.4-56L16,187.9z M424,200.5l7.5-12.8l-16.7-9.5l-7.5,12.8v2.3l16.7,9.5v-18.7l7.5-12.8l-16.7-9.5l-7.5,12.8
					v18.7v-75.4l-8,13.7l-19-10.8v75.4l19,10.8l8-13.7l16.7,9.5V200.5z M438.9,189.6l7.5-12.8l-15-8.5L424,181v21.8l15,8.5l7.5-12.8
					v-28l-15-8.5l-7.5,12.8v28v-9.3l-8,13.7l-16.7-9.5v9.3l16.7,9.5l8-13.7l15,8.5V189.6z M460,198.4l-13.5-7.7l-7.5,12.8v7.8
					l13.5,7.7l7.5-12.8V198.4z M452.5,189.5l7.5-12.8l-13.5-7.7l-7.5,12.8v29.6l13.5,7.7V189.5z M212,138.3v71.6l40.8,23.2v-71.6
					l8-13.7L220,124.6L212,138.3z M438.9,202.8l-8,13.7l-15-8.5v8.6l15,8.5l8-13.7V202.8z M464.8,221.4l7.5-12.8l-12.3-7l-7.5,12.8
					v4.7l12.3,7l7.5-12.8v-45.9l-7.5,12.8l-12.3-7V219l12.3,7V221.4z M0,215.3v1.6l98.4,56v-1.6l8-13.7L8,201.6L0,215.3z
					 M292.5,175.2l8-13.7l-31.7-18l-8,13.7v62.2l31.7,18V175.2z M476.2,224.8l7.5-12.8l-11.4-6.5l-7.5,12.8v7.8l11.4,6.5l7.5-12.8
					v-10.1l-11.4-6.5l-7.5,12.8v10.1l11.4,6.5V224.8z M494.2,187.6l-7.5,12.8l-10.5-6v38.1l10.5,6l7.5-12.8V187.6z M504,193.9
					l-7.5,12.8l-9.8-5.6v37.3l9.8,5.6l7.5-12.8V193.9z M468.1,246.2l8-13.7v-3.1l-11.4-6.5l-12.3-7l-8,13.7v3.1l12.3,7L468.1,246.2z
					 M284.5,163.2l-31.7-18v87.9l31.7,18l8-13.7l25.9,14.7l8-13.7V123.4l-8,13.7l-25.9-14.7v115.1v-87.9L284.5,163.2z M513.1,202.3
					l-7.5,12.8l-9.2-5.2v34.2l9.2,5.2l7.5-12.8V202.3z M488.5,257.8l8-13.7V241l-9.8-5.6l-8,13.7v3.1L488.5,257.8z M114.4,240.1v5.4
					l57.5,32.8v-5.4l8-13.7l-57.5-32.8L114.4,240.1z M522.3,236.3l7.5-12.8l-8.1-4.6l-7.5,12.8l-8.6-4.9v22.6l8.6,4.9l8.1,4.6V236.3
					z M537.5,204.5l-7.5,12.8l-7.7-4.4v45.9l7.7,4.4l7.5-12.8V204.5z M340.2,221.1l8-13.7l-21.9-12.5l-8,13.7v43.6l21.9,12.5V221.1z
					 M284.5,209.9v41.2l25.9,14.7v-41.2l8-13.7l-25.9-14.7L284.5,209.9z M544.8,225l-7.5,12.8l-7.3-4.1v29.6l7.3,4.1l7.5-12.8V225z
					 M544.2,255.7l7.5-12.8l-6.9-3.9l-7.5,12.8v15.6l6.9,3.9V255.7z M367.2,213.5l-8,13.7l-19-10.8v48.2v-69.2l-8,13.7l-21.9-12.5
					v69.2l21.9,12.5l8-13.7l19,10.8l8-13.7V213.5z M550.8,258.7l7.5-12.8l-6.6-3.8l-7.5,12.8v16.3l6.6,3.8V258.7z M564.6,231.6
					l-7.5,12.8l-6.3-3.6V275l6.3,3.6l7.5-12.8V231.6z M563.2,269.6l7.5-12.8l-6-3.4l-7.5,12.8v12.4l6,3.4V269.6z M375.9,260.8
					l8-13.7l-16.7-9.5l-8,13.7l-19-10.8l-8,13.7v24.1l19,10.8l8-13.7v-3.1l-19-10.8l-8,13.7v3.1l19,10.8V265l8-13.7v24.1l16.7,9.5
					V260.8z M576.5,250l-7.5,12.8l-5.8-3.3v22.6l5.8,3.3l7.5-12.8V250z M155.9,292.4l-57.5-32.8v13.2l57.5,32.8l8-13.7v-13.2
					L155.9,292.4z M582,262.5l-7.5,12.8l-5.6-3.2v13.2l5.6,3.2l7.5-12.8V262.5z M171.9,259.6v18.7l40.8,23.2v-18.7l8-13.7
					l-40.8-23.2L171.9,259.6z M587.4,270.2l-7.5,12.8l-5.4-3v8.6l5.4,3l7.5-12.8V270.2z M398.9,233.9l-8,13.7l-15-8.5v45.9l15,8.5
					l8-13.7V233.9z M367.9,298.6l8-13.7v-2.3l-16.7-9.5l-8,13.7v2.3L367.9,298.6z M367.9,261.3l8-13.7l-16.7-9.5l-8,13.7v37.3
					l16.7,9.5V261.3z M412.4,250.9l-8,13.7l-13.5-7.7v36.6l13.5,7.7l8-13.7V250.9z M607,287.6l-7.5,12.8l-4.7-2.6v2.3l4.7,2.6
					l7.5-12.8V287.6z M390.9,249.9l-8,13.7l-15-8.5v43.6l15,8.5l8-13.7V249.9z M416.7,308.2l8-13.7v-14l-12.3-7l-8,13.7l-13.5-7.7
					l-8,13.7v14l13.5,7.7l8-13.7v-21l-13.5-7.7l-8,13.7v21l13.5,7.7v-14l8-13.7v14L416.7,308.2z M428.1,314.6l8-13.7v-2.3l-11.4-6.5
					l-8,13.7v2.3L428.1,314.6z M244.4,297.8l-31.7-18v21.8l31.7,18l8-13.7v-21.8L244.4,297.8z M155.9,297.1v8.6l40.8,23.2v-8.6
					l8-13.7l-40.8-23.2L155.9,297.1z M408.7,318.7l8-13.7l-12.3-7l-8,13.7v3.1l12.3,7v-23.3l8-13.7l-12.3-7l-8,13.7v23.3l12.3,7
					V318.7z M420.1,328.3l8-13.7v-26.4l-11.4-6.5l-8,13.7v26.4L420.1,328.3z M428.1,287.4l-8,13.7l-11.4-6.5v27.2l11.4,6.5l8-13.7
					V287.4z M457.6,331.4l8-13.7V317l-9.2-5.2l-9.8-5.6l-8,13.7v0.8l9.8,5.6v-4.7l-9.8-5.6l-8,13.7v4.7l8-13.7v-19.4l-8,13.7
					l-10.5-6v19.4l10.5,6v-3.1l8-13.7l-10.5-6l-8,13.7v3.1l10.5,6l9.8,5.6l8-13.7L457.6,331.4z M244.4,298.5v21l25.9,14.7v-21
					l8-13.7l-25.9-14.7L244.4,298.5z M440.4,325.9l8-13.7l-9.8-5.6l-8,13.7v14l9.8,5.6V325.9z M196.7,314.9v14l31.7,18v-14l8-13.7
					l-31.7-18L196.7,314.9z M449.5,321.8l8-13.7l-9.2-5.2l-8,13.7v23.3l9.2,5.2V321.8z M300.2,287.1l-8,13.7l-21.9-12.5v45.9
					l21.9,12.5l8-13.7V287.1z M466.2,306l-8,13.7V350l8-13.7V306z M466.3,333.6l8-13.7l-8.1-4.6l-8,13.7L466.3,333.6z"/>
			</defs>
			<clipPath id="SVGID_2_">
				<use xlink:href="#SVGID_1_"  style="overflow:visible;"/>
			</clipPath>
			<g style="clip-path:url(#SVGID_2_);enable-background:new    ;">
				
					<image style="overflow:visible;" width="607" height="350" xlink:href="15D9E16C.png"  transform="matrix(1 0 0 1 0 -1.774044e-05)">
				</image>
			</g>
		</g>
	</g>
	<g>
		<path class="st0" d="M491.3,545.2l-7.3-4.1c28.9-49.3,121.1-206.6,150.1-255.9c0,0,7.3,4.1,7.3,4.1"/>
	</g>
	<g transform="matrix(0.4995,0,0,0.4977,248.8883,235.9875)">
		<g>
			<defs>
				<path id="SVGID_3_" d="M399.2,73.6l8-13.7l-18.9-10.8l-8,13.7v9.4L399.2,83V73.6z M546.2,45.1l-8.6-4.9v30.4l8.6,4.9V45.1z
					 M562,84.5l8-13.7V44.3l-7.7-4.4l-8,13.7v26.5V59l-8.1-4.6v21l8.1,4.6L562,84.5z M342.3,48.9l-25.9-14.8v38.2l25.9,14.8l8-13.7
					V35.2L342.3,48.9z M569.2,62.9l8-13.7L570,45l-8,13.7v25.7l7.3,4.2V62.9z M415.9,69.1l8-13.7l-16.7-9.5l-8,13.7V83l16.7,9.5
					V69.1z M584.2,29l-8,13.7l-6.9-4v49.9l6.9,4l8-13.7V29z M582.8,96.3l8-13.7V56.9l-6.6-3.8l-8,13.7v25.7L582.8,96.3z M380.2,26.2
					l8-13.7L366.4,0l-8,13.7L380.2,26.2z M364.2,79.3l8-13.7l-21.9-12.5l-8,13.7v20.3l21.9,12.5V79.3z M589.1,85.9l8-13.7l-6.3-3.6
					l-8,13.7v14l6.3,3.6V85.9z M430.8,61.3l8-13.7l-14.9-8.5l-8,13.7v39.7l14.9,8.5V61.3z M687.5,25.8l7.5-12.9l-4.7-2.7l-7.5,12.9
					L687.5,25.8z M603.1,45.2l-8,13.7v44.4l8-13.7V45.2z M98.4,144.3L0,88.2v4.7L98.4,149V144.3z M608.9,81.3l-8,13.7v11.7l8-13.7
					V81.3z M452.4,39.7l-8,13.7v55.3l8-13.7V39.7z M614.5,87.6l-8,13.7v8.6l8-13.7V87.6z M391.2,31.2l-8,13.7v65.5l8-13.7V31.2z"/>
			</defs>
			<clipPath id="SVGID_4_">
				<use xlink:href="#SVGID_3_"  style="overflow:visible;"/>
			</clipPath>
			<g style="clip-path:url(#SVGID_4_);enable-background:new    ;">
				
					<image style="overflow:visible;" width="695" height="149" xlink:href="15D9E16C.png"  transform="matrix(1 0 0 1 0 -1.727734e-05)">
				</image>
			</g>
		</g>
	</g>
	<g transform="matrix(0.4995,0,0,0.4961,244.8871,252.9769)">
		<g>
			<defs>
				<path id="SVGID_5_" d="M619.9,77.5l8-13.8l-5.4-3.1l-8,13.8V76v-8.6l-5.6-3.2v8.6V61.1l-5.8-3.3v11.7V24.9l-6-3.5V66l6,3.5
					l5.8,3.3l5.6,3.2l5.4,3.1V77.5z M391.2,10.8L372.3,0v65.7l18.9,10.8V10.8z M452.4,19.4l-13.5-7.7v55.5l13.5,7.7V19.4z M464.8,46
					l8-13.8l-12.3-7.1l-8,13.8v36l12.3,7.1V46z M633.1,58.1l-8,13.8l-5.2-3V79l5.2,3l8-13.8V58.1z M638,62.5l-8,13.8v8.6l8-13.8
					V62.5z M407.9,60.3l8-13.8L399.2,37l-8,13.8v25.8l16.7,9.6V60.3z M98.4,128.2L0,71.9v0.8L98.4,129V128.2z M634.8,80.6l8-13.8
					l-4.8-2.8l-8,13.8L634.8,80.6z M484.1,16.1l-8,13.8v58.6l8-13.8V16.1z M452.4,67.8l-8,13.8v7l8-13.8V67.8z M647.5,64l-8,13.8
					v12.5l8-13.8V64z M652,70.5l-8,13.8v8.6l8-13.8V70.5z M244.8,83.2L204,59.8v19.5l40.8,23.4V83.2z"/>
			</defs>
			<clipPath id="SVGID_6_">
				<use xlink:href="#SVGID_5_"  style="overflow:visible;"/>
			</clipPath>
			<g style="clip-path:url(#SVGID_6_);enable-background:new    ;">
				
					<image style="overflow:visible;" width="652" height="129" xlink:href="15D9E16C.png"  transform="matrix(1 0 0 1 0 -1.704763e-05)">
				</image>
			</g>
		</g>
	</g>
	<g transform="translate(647.7593,292.8781)">
		<path d="M7.5,21H5.7V9.8c-0.4,0.4-1,0.8-1.7,1.2c-0.7,0.4-1.3,0.7-1.9,0.9v-1.7c1-0.5,1.9-1,2.6-1.7C5.5,7.9,6,7.2,6.3,6.6h1.1V21
			z M12,13.9c0-1.7,0.2-3,0.5-4.1c0.3-1,0.9-1.8,1.6-2.4c0.7-0.6,1.6-0.8,2.6-0.8c0.8,0,1.4,0.2,2,0.5c0.6,0.3,1.1,0.8,1.4,1.3
			c0.4,0.6,0.7,1.3,0.9,2.1s0.3,2,0.3,3.4c0,1.7-0.2,3-0.5,4.1c-0.3,1-0.9,1.8-1.5,2.4c-0.7,0.6-1.5,0.9-2.6,0.9
			c-1.4,0-2.5-0.5-3.2-1.5C12.4,18.6,12,16.6,12,13.9z M13.8,13.9c0,2.4,0.3,3.9,0.8,4.7c0.5,0.8,1.2,1.2,2,1.2c0.8,0,1.5-0.4,2-1.2
			s0.8-2.3,0.8-4.7c0-2.4-0.3-3.9-0.8-4.7c-0.6-0.8-1.2-1.2-2-1.2c-0.8,0-1.5,0.3-1.9,1C14.1,10,13.8,11.6,13.8,13.9z M23.1,13.9
			c0-1.7,0.2-3,0.5-4.1c0.3-1,0.9-1.8,1.6-2.4c0.7-0.6,1.6-0.8,2.6-0.8c0.8,0,1.4,0.2,2,0.5c0.6,0.3,1.1,0.8,1.4,1.3
			c0.4,0.6,0.7,1.3,0.9,2.1c0.2,0.8,0.3,2,0.3,3.4c0,1.7-0.2,3-0.5,4.1c-0.3,1-0.9,1.8-1.5,2.4c-0.7,0.6-1.5,0.9-2.6,0.9
			c-1.4,0-2.5-0.5-3.3-1.5C23.5,18.6,23.1,16.6,23.1,13.9z M24.9,13.9c0,2.4,0.3,3.9,0.8,4.7c0.5,0.8,1.2,1.2,2,1.2
			c0.8,0,1.5-0.4,2-1.2c0.6-0.8,0.8-2.3,0.8-4.7c0-2.4-0.3-3.9-0.8-4.7c-0.6-0.8-1.2-1.2-2-1.2c-0.8,0-1.5,0.3-1.9,1
			C25.2,10,24.9,11.6,24.9,13.9z M34.2,13.9c0-1.7,0.2-3,0.5-4.1c0.3-1,0.9-1.8,1.6-2.4c0.7-0.6,1.6-0.8,2.6-0.8
			c0.8,0,1.4,0.2,2,0.5c0.6,0.3,1.1,0.8,1.4,1.3c0.4,0.6,0.7,1.3,0.9,2.1s0.3,2,0.3,3.4c0,1.7-0.2,3-0.5,4.1c-0.3,1-0.9,1.8-1.5,2.4
			c-0.7,0.6-1.5,0.9-2.6,0.9c-1.4,0-2.5-0.5-3.3-1.5C34.7,18.6,34.2,16.6,34.2,13.9z M36,13.9c0,2.4,0.3,3.9,0.8,4.7
			c0.5,0.8,1.2,1.2,2,1.2c0.8,0,1.5-0.4,2-1.2s0.8-2.3,0.8-4.7c0-2.4-0.3-3.9-0.8-4.7c-0.6-0.8-1.2-1.2-2-1.2c-0.8,0-1.5,0.3-1.9,1
			C36.3,10,36,11.6,36,13.9z"/>
	</g>
	<g transform="matrix(0.4997,0,0,0.5,224.8807,251.6037)">
		<g>
			<defs>
				<path id="SVGID_7_" d="M526.5,92.6l8-13.7L524,73l-8,13.7l-11.4-6.5l-8,13.7v3.9v-0.8l8-13.7l-12.3-7l-8,13.7v0.8v-7l8-13.7
					l-13.5-7.7l-8,13.7v7l13.5,7.7l12.3,7l11.4,6.5v-3.9l8-13.7v3.9V32.3l-11.4-6.5v58.2l11.4,6.5l10.5,6V92.6z M470.8,0l-8,13.7
					l-14.9-8.5v83l14.9,8.5l8-13.7V0z M683.8,86.3l8-13.7l-4.5-2.6l-8,13.7v8.5V79.9l-4.7-2.6v12.4v-7l-4.8-2.7v7v-8.5l-5-2.8v8.5
					l5,2.8l4.8,2.7l4.7,2.6l4.5,2.6V86.3z M700.4,58.2l-8,13.7l-4.2-2.4v27.9l4.2,2.4l8-13.7V58.2z M138.4,130l8-13.7L48,60.5
					l-8,13.7L138.4,130z M536.3,84.2l8-13.7l-9.8-5.6l-8,13.7v17.8l9.8,5.6V84.2z M476.3,77.2l8-13.7l-13.5-7.7l-8,13.7v27.2
					l13.5,7.7V77.2z M292.8,71.7l-8,13.7v19.4l8-13.7V71.7z M712.4,89.8l-8,13.7l-3.9-2.2v3.1l3.9,2.2l8-13.7V89.8z M545.5,77.8
					l8-13.7l-9.2-5.2l-8,13.7v29.5l9.2,5.2V77.8z M518.5,105.5l8-13.7l-10.5-6l-8,13.7v4.7l10.5,6V105.5z M562.1,64.4l-8,13.7
					l-8.6-4.9v34.1l8.6,4.9l8-13.7V64.4z M727,97.3l-8,13.7l-3.5-2v3.9l3.5,2l8-13.7V97.3z M528.3,115.7l8-13.7V91.2l-9.8-5.6
					l-8,13.7v10.9L528.3,115.7z M562.2,116.7l8-13.7V93l-8.1-4.6l-8,13.7v10.1L562.2,116.7z M154.4,98.8l-8,13.7v4.7l8-13.7V98.8z
					 M508,63.8l-8,13.7L488.6,71l-12.3-7v40.3l12.3,7l11.4,6.5l8-13.7V63.8z M569.8,121.1l8-13.7v-4.7l-7.7-4.4l-8,13.7v4.7v-12.4
					l-8.1-4.6l-8,13.7v12.4v-3.1l8-13.7l-8.6-4.9l-9.2-5.2l-8,13.7v3.1l9.2,5.2l8.6,4.9l8.1,4.6l8-13.7L569.8,121.1z M358.3,87.6
					l-25.9-14.7l-8,13.7v22.5l25.9,14.7l8-13.7V87.6z M518.5,91.5l-8,13.7l-10.5-6v18.6l10.5,6l8-13.7V91.5z M592,89.1l-8,13.7
					l-6.9-3.9v26.4l6.9,3.9l8-13.7V89.1z M520.3,121.6l8-13.7l-9.8-5.6l-8,13.7v7.8l9.8,5.6V121.6z M590.6,132.9l8-13.7v-4.7
					l-6.6-3.7l-8,13.7v4.7L590.6,132.9z M537.5,97.6l-8,13.7l-9.2-5.2v23.3l9.2,5.2l8-13.7V97.6z M569.8,114.1l-8,13.7l-7.7-4.4v7
					v-24.8l-8,13.7l-8.1-4.6v24.8l8.1,4.6l8-13.7l7.7,4.4l8-13.7V114.1z M372.1,116l8-13.7l-21.9-12.4l-8,13.7v20.2l21.9,12.4V116z
					 M342.3,112.6l-25.9-14.7v24.8l25.9,14.7l8-13.7V98.9L342.3,112.6z M569.1,138.1l8-13.7l-7.3-4.1l-8,13.7v0.8v-2.3l-8,13.7
					l-7.7-4.4v2.3l7.7,4.4l8-13.7l7.3,4.1V138.1z M584,115.2l-8,13.7l-6.9-3.9v14l6.9,3.9l8-13.7V115.2z M138.4,128.4v2.3l57.5,32.7
					v-2.3l8-13.7l-57.5-32.7L138.4,128.4z M582.6,143.5l8-13.7l-6.6-3.7l-8,13.7v3.1v-7.8l-8,13.7v7.8l8-13.7l6.6,3.7V143.5z
					 M391.1,108.1l8-13.7l-18.9-10.8l-8,13.7v38.8l18.9,10.8V108.1z M364.1,130.4l8-13.7l-21.9-12.4l-8,13.7v19.4l21.9,12.4V130.4z
					 M588.9,143.9l8-13.7l-6.3-3.6l-8,13.7v6.2l6.3,3.6V143.9z M595,138.8l8-13.7l-6-3.4l-8,13.7v14.7l6,3.4V138.8z M407.8,114.5
					l8-13.7l-16.7-9.5l-8,13.7v41.9l16.7,9.5V114.5z M0,136.1v7L98.3,199v-7l8-13.7L8,122.5L0,136.1z M608.8,109.1l-8,13.7v34.1
					l8-13.7V109.1z M606.3,143.7l8-13.7l-5.6-3.2l-8,13.7L606.3,143.7z M582.6,141.9l-8,13.7v4.7l8-13.7V141.9z M391.1,106.6
					l-8,13.7l-18.9-10.8v40.3l18.9,10.8l8-13.7V106.6z M619.7,117.6l-8,13.7v31.8l8-13.7V117.6z M244.7,157.5l-40.8-23.2v15.5
					l40.8,23.2V157.5z M430.7,101.6l-8,13.7v49.7l8-13.7V101.6z M624.9,133.7l-8,13.7V166l8-13.7V133.7z"/>
			</defs>
			<clipPath id="SVGID_8_">
				<use xlink:href="#SVGID_7_"  style="overflow:visible;"/>
			</clipPath>
			<g style="clip-path:url(#SVGID_8_);enable-background:new    ;">
				
					<image style="overflow:visible;" width="727" height="199" xlink:href="15D9E174.png"  transform="matrix(1 0 0 1 0 -1.784044e-05)">
				</image>
			</g>
		</g>
	</g>
	<g>
		<line class="st1" x1="609.1" y1="327.8" x2="616.4" y2="331.9"/>
	</g>
	<g transform="matrix(0.4998,0,0,0.498,220.8794,298.1644)">
		<g>
			<defs>
				<path id="SVGID_9_" d="M575.9,55.8l-6.9-3.9v7.8l6.9,3.9V55.8z M608.6,29.7l-5.8-3.3v34.3l5.8,3.3V29.7z M415.7,13.7v49.9
					l14.9,8.5V22.2l8-13.7L423.7,0L415.7,13.7z M407.7,49.2l8-13.7L399,26l-8,13.7v28l16.7,9.5V49.2z M582.5,62.7l-6.6-3.8v4.7
					l6.6,3.8V62.7z M98.3,106.8L0,50.7v13.2L98.3,120V106.8z M614.2,50.8l-5.6-3.2V64l5.6,3.2V50.8z M444.2,79.8l8-13.7V43.5
					l-13.5-7.7l-8,13.7v22.6V10.5l-8,13.7v61.5l8-13.7L444.2,79.8z M260.7,50.9l-8,13.7v15.6l8-13.7V50.9z M619.5,38.3l-5.4-3.1
					v31.9l5.4,3.1V38.3z M642.5,53.4l-4.8-2.7l-8,13.7l4.8,2.7l4.7,2.7l8-13.7L642.5,53.4z M624.7,54.5l-5.2-2.9v18.7l5.2,2.9V54.5z
					 M651.6,46.1l-8,13.7V84l8-13.7V46.1z M244.6,79.8l-40.8-23.3v14l40.8,23.3V79.8z M656,61.9l-8,13.7v10.9l8-13.7V61.9z
					 M456.5,66.6l8-13.7l-12.3-7l-8,13.7L456.5,66.6z M629.7,64.3l-5-2.8v11.7l5,2.8V64.3z"/>
			</defs>
			<clipPath id="SVGID_10_">
				<use xlink:href="#SVGID_9_"  style="overflow:visible;"/>
			</clipPath>
			<g style="clip-path:url(#SVGID_10_);enable-background:new    ;">
				
					<image style="overflow:visible;" width="656" height="120" xlink:href="15D9E174.png"  transform="matrix(1 0 0 1 0 -1.698259e-05)">
				</image>
			</g>
		</g>
	</g>
	<g transform="translate(622.7514,335.5351)">
		<path d="M10,10.2l-1.8,0.1C8,9.6,7.8,9.1,7.5,8.8C7.1,8.3,6.5,8.1,5.8,8.1c-0.6,0-1.1,0.2-1.5,0.5c-0.6,0.4-1,1-1.3,1.8
			c-0.3,0.8-0.5,1.9-0.5,3.3c0.4-0.6,0.9-1.1,1.6-1.4s1.3-0.5,1.9-0.5c1.2,0,2.2,0.4,3,1.3c0.8,0.9,1.2,2,1.2,3.3
			c0,0.9-0.2,1.7-0.6,2.5c-0.4,0.8-0.9,1.4-1.6,1.8c-0.7,0.4-1.4,0.6-2.3,0.6c-1.5,0-2.7-0.5-3.6-1.6s-1.4-2.9-1.4-5.3
			c0-2.8,0.5-4.8,1.5-6c0.9-1.1,2.1-1.6,3.6-1.6c1.1,0,2,0.3,2.8,0.9C9.4,8.2,9.8,9.1,10,10.2z M2.8,16.4c0,0.6,0.1,1.2,0.4,1.7
			c0.3,0.6,0.6,1,1.1,1.3c0.5,0.3,0.9,0.4,1.4,0.4c0.8,0,1.4-0.3,1.9-0.9c0.5-0.6,0.8-1.4,0.8-2.4c0-1-0.3-1.8-0.8-2.3
			c-0.5-0.6-1.2-0.9-2-0.9c-0.8,0-1.5,0.3-2,0.9C3.1,14.7,2.8,15.4,2.8,16.4z M12.2,17.7l1.7-0.2c0.1,0.8,0.4,1.4,0.8,1.7
			c0.4,0.4,0.9,0.5,1.6,0.5c0.5,0,1-0.1,1.4-0.4c0.4-0.2,0.7-0.6,1-1c0.3-0.4,0.5-1,0.7-1.7s0.3-1.4,0.3-2.1c0-0.1,0-0.2,0-0.3
			c-0.4,0.6-0.8,1-1.4,1.4c-0.6,0.3-1.3,0.5-2,0.5c-1.2,0-2.2-0.4-3-1.3c-0.8-0.9-1.2-2-1.2-3.4c0-1.4,0.4-2.6,1.3-3.5
			c0.9-0.9,1.9-1.3,3.2-1.3c0.9,0,1.8,0.3,2.6,0.8c0.8,0.5,1.4,1.2,1.8,2.1c0.4,0.9,0.6,2.3,0.6,4c0,1.8-0.2,3.3-0.6,4.4
			c-0.4,1.1-1,1.9-1.8,2.5c-0.8,0.6-1.7,0.9-2.8,0.9c-1.1,0-2-0.3-2.7-0.9C12.8,19.7,12.4,18.8,12.2,17.7z M19.4,11.4
			c0-1-0.3-1.8-0.8-2.4c-0.5-0.6-1.2-0.9-1.9-0.9c-0.8,0-1.5,0.3-2,1c-0.6,0.6-0.9,1.5-0.9,2.5c0,0.9,0.3,1.7,0.8,2.2
			c0.5,0.6,1.2,0.9,2,0.9c0.8,0,1.5-0.3,2-0.9C19.2,13.2,19.4,12.4,19.4,11.4z M28.7,21v-3.4h-6.2V16L29,6.7h1.4V16h1.9v1.6h-1.9V21
			H28.7z M28.7,16V9.5L24.2,16H28.7z"/>
	</g>
	<g transform="matrix(0.4997,0,0,0.4995,200.8731,190.7382)">
		<g>
			<defs>
				<path id="SVGID_11_" d="M692.4,298.2l8-13.7l-4.2-2.4l-8,13.7v5.4v-10.9l-4.4-2.5v10.9v-24.1l-4.5-2.6v24.1v-11.6l-4.7-2.6
					l-4.8-2.7v11.6l4.8,2.7l4.7,2.6l4.5,2.6l4.4,2.5l4.2,2.4V298.2z M462.7,239.2l-14.9-8.5v61.4l14.9,8.5V239.2z M696.5,297.5
					l8-13.7l-4.1-2.3l-8,13.7v8.5l4.1,2.3V297.5z M614.9,32.4l8-13.7L608,10.3l-8,13.7L614.9,32.4z M508,308.1l8-13.7v-50.5
					l-11.4-6.5l-8,13.7v50.5v-20.2l-12.3-7v20.2l12.3,7L508,308.1z M476.3,285l8-13.7l-13.5-7.7l-8,13.7v23.3l13.5,7.7V285z
					 M700.5,308.3l8-13.7v-28.7l-4-2.3l-8,13.7V306L700.5,308.3z M292.7,289.5v5.4l31.7,18v-5.4l8-13.7l-31.7-18L292.7,289.5z
					 M292.7,281l-8,13.7v14l8-13.7V281z M704.4,290.3l8-13.7l-3.9-2.2l-8,13.7v20.2l3.9,2.2V290.3z M716.2,257l-8,13.7l-3.8-2.2
					v41.9l3.8,2.2l8-13.7V257z M518.5,314.1l8-13.7v-35.7l-10.5-6l-8,13.7v35.7L518.5,314.1z M711.9,314.7l8-13.7v-12.4l-3.7-2.1
					l-8,13.7v12.4L711.9,314.7z M488.6,286.6l8-13.7l-12.3-7l-8,13.7v28.7l12.3,7V286.6z M715.4,312.9l8-13.7l-3.6-2l-8,13.7v3.9
					l3.6,2V312.9z M727,277.2l-8,13.7l-3.5-2v28l3.5,2l8-13.7V277.2z M528.3,319.6l8-13.7v-24.9l-9.8-5.6l-8,13.7v24.9L528.3,319.6z
					 M722.4,320.7l8-13.7v-9.3l-3.4-1.9l-8,13.7v9.3L722.4,320.7z M500,277.5l8-13.7l-11.4-6.5l-8,13.7v44.3l11.4,6.5V277.5z
					 M284.7,300.1v8.5l31.7,18v-8.5l8-13.7l-31.7-18L284.7,300.1z M599.9,23.2l8-13.7L591.2,0l-8,13.7L599.9,23.2z M737,279l-8,13.7
					l-3.3-1.9v31.8l3.3,1.9l8-13.7V279z M537.4,313.2l8-13.7l-9.2-5.2l-8,13.7v11.6l9.2,5.2V313.2z M752.4,225.4l8-13.7l-3.9-2.2
					l-8,13.7L752.4,225.4z M324.4,278V313l25.9,14.7v-34.9l8-13.7l-25.9-14.7L324.4,278z M518.5,259.7l-8,13.7l-10.5-6v54.4l10.5,6
					l8-13.7V259.7z M743.3,309.7l-8,13.7l-3.1-1.8v4.7l3.1,1.8l8-13.7V309.7z M546,313.4l8-13.7l-8.6-4.9l-8,13.7v16.3v-18.6
					l-8,13.7l-9.2-5.2v18.6l8-13.7v-44.3l-8,13.7l-9.8-5.6v44.3l9.8,5.6l9.2,5.2l8-13.7l8.6,4.9V313.4z M194.4,234.4l8-13.7
					l-98.3-55.9l-8,13.7L194.4,234.4z M752.2,314.8l-8,13.7l-2.9-1.7v4.7l2.9,1.7l8-13.7V314.8z M562.1,295.8l-8,13.7l-8.1-4.6v24.9
					l8.1,4.6l8-13.7V295.8z M146.4,273.7V321l57.5,32.7l40.8,23.2v-47.4l8-13.7l-40.8-23.2L154.4,260L146.4,273.7z M138.4,321.5
					l8-13.7L48,251.9l-8,13.7L138.4,321.5z M569.8,314.2l-7.7-4.4l-8,13.7v10.9v-11.6l-8,13.7l-8.1-4.6v11.6v-6.2l8-13.7l-8.6-4.9
					l-8,13.7v6.2l8.6,4.9l8.1,4.6l8-13.7l7.7,4.4l8-13.7v-14l-8,13.7l-7.7-4.4v14l7.7,4.4l8-13.7V314.2z M372.1,340.1l8-13.7v-45.8
					l-21.9-12.4l-8,13.7v45.8L372.1,340.1z M316.4,309.5v17.1l25.9,14.7v-17.1l8-13.7l-25.9-14.7L316.4,309.5z M601.8,268.1l8-13.7
					l-7.7-4.4l-8,13.7L601.8,268.1z M569.1,340.5l8-13.7l-7.3-4.1l-8,13.7v2.3l7.3,4.1l8-13.7v-4.7l-7.3-4.1l-8,13.7v4.7l7.3,4.1
					V340.5z M576,345.2l8-13.7l-6.9-3.9l-8,13.7v1.6l6.9,3.9l8-13.7v-21l-6.9-3.9l-8,13.7v21v-4.7l-7.3-4.1l-8,13.7v4.7v-1.6l8-13.7
					l-7.7-4.4l-8,13.7v1.6l7.7,4.4l7.3,4.1l8-13.7l6.9,3.9V345.2z M138.4,302.8v31.8l57.5,32.7v-31.8l8-13.7l-57.5-32.7L138.4,302.8
					z M582.6,338.9l8-13.7l-6.6-3.8l-8,13.7v11.6l6.6,3.8l8-13.7v-30.3l-8,13.7l-6.6-3.8v30.3l6.6,3.8V338.9z M391.1,322.2l8-13.7
					l-18.9-10.8l-8,13.7v28.7v-65.2l-8,13.7l-21.9-12.4v65.2l21.9,12.4l8-13.7l18.9,10.8V322.2z M596.9,324.9l-6.3-3.6l-8,13.7v15.5
					l6.3,3.6l8-13.7v-27.2l-8,13.7l-6.3-3.6v27.2v-26.4l-8,13.7v26.4l8-13.7l6.3,3.6l8-13.7V324.9z M767,232.9l8-13.7l-3.5-2
					l-8,13.7L767,232.9z M407.8,313.8l8-13.7l-16.7-9.5l-8,13.7v46.6l16.7,9.5V313.8z M98.3,376.6L0,320.7v26.4L98.3,403V376.6z
					 M600.7,360.1l8-13.7l-5.8-3.3l-8,13.7v0.8l5.8,3.3l8-13.7v-11.6l-5.8-3.3l-8,13.7v11.6v-3.1l-8,13.7v3.1l8-13.7l5.8,3.3V360.1z
					 M614.3,334l-8,13.7V364l8-13.7V334z M383,339.7l8-13.7l-18.9-10.8l-8,13.7v24.9l18.9,10.8V339.7z M619.7,343.3l-8,13.7V367
					l8-13.7V343.3z M422.7,318.4l8-13.7l-14.9-8.5l-8,13.7L422.7,318.4z M616.8,366.9l8-13.7l-5.2-2.9l-8,13.7L616.8,366.9z
					 M629.8,339l-8,13.7v20.2l8-13.7V339z"/>
			</defs>
			<clipPath id="SVGID_12_">
				<use xlink:href="#SVGID_11_"  style="overflow:visible;"/>
			</clipPath>
			<g style="clip-path:url(#SVGID_12_);enable-background:new    ;">
				
					<image style="overflow:visible;" width="775" height="403" xlink:href="15D9E174.png"  transform="matrix(1 0 0 1 0 -1.740667e-05)">
				</image>
			</g>
		</g>
	</g>
	<g>
		<line class="st1" x1="584.1" y1="370.4" x2="591.4" y2="374.6"/>
	</g>
	<g transform="matrix(0.4999,0,0,0.4999,192.8705,232.229)">
		<g>
			<defs>
				<path id="SVGID_13_" d="M438.6,235.2l-14.9-8.5v50.4l14.9,8.5V235.2z M415.6,256.6l8-13.7l-16.7-9.5l-8,13.7v34.1l16.7,9.5
					V256.6z M590.4,254.5l-6.6-3.8v26.4l6.6,3.8V254.5z M622.1,264.4l-5.6-3.2v16.3l5.6,3.2V264.4z M650.4,264.6l-8,13.7l-4.8-2.7
					v14v-20.2l-5-2.8v20.2v-3.1l-5.2-2.9v3.1v-10.1l-5.4-3v10.1v-2.3l-8,13.7l-5.6-3.2v2.3l5.6,3.2l8-13.7l5.4,3l5.2,2.9l5,2.8
					l4.8,2.7l8-13.7V264.6z M460.1,227.7l-8,13.7l-13.5-7.7v52l13.5,7.7l8-13.7V227.7z M655,268.8l-8,13.7v12.4l8-13.7V268.8z
					 M779.5,15.8L787,3l-5.4-3l-7.5,12.8L779.5,15.8z M651.5,295.9l8-13.7l-4.5-2.6l-8,13.7L651.5,295.9z M252.6,235.1L211.8,212
					v72.2l40.8,23.2V235.1z M602.7,284.8l-6-3.4v3.1l6,3.4V284.8z M438.6,240.6l-8,13.7l-14.9-8.5v45l14.9,8.5l8-13.7V240.6z
					 M663.9,271.6l-8,13.7v14.7l8-13.7V271.6z M472.4,255.6l-8,13.7v31l8-13.7V255.6z M632.6,282.8l-8,13.7v3.9l8-13.7V282.8z
					 M660.1,298.5l8-13.7l-4.2-2.4l-8,13.7L660.1,298.5z M664.2,303.9v0.8l8-13.7v-0.8l-4.1-2.3l-8,13.7L664.2,303.9z M664.2,293.8
					l8-13.7l-4.1-2.3l-8,13.7L664.2,293.8z M98.3,317.5L0,261.6v29.5L98.3,347V317.5z"/>
			</defs>
			<clipPath id="SVGID_14_">
				<use xlink:href="#SVGID_13_"  style="overflow:visible;"/>
			</clipPath>
			<g style="clip-path:url(#SVGID_14_);enable-background:new    ;">
				
					<image style="overflow:visible;" width="787" height="347" xlink:href="15D9E174.png"  transform="matrix(1 0 0 1 0 -1.749237e-05)">
				</image>
			</g>
		</g>
	</g>
	<g transform="translate(597.7435,378.192)">
		<path d="M6.5,21v-3.4H0.3V16l6.5-9.3h1.4V16h1.9v1.6H8.2V21H6.5z M6.5,16V9.5L2,16H6.5z M14.7,13.2c-0.7-0.3-1.3-0.7-1.6-1.1
			c-0.3-0.5-0.5-1.1-0.5-1.8c0-1,0.4-1.9,1.1-2.6s1.7-1.1,3-1.1c1.3,0,2.3,0.4,3,1.1c0.8,0.7,1.1,1.6,1.1,2.6c0,0.7-0.2,1.2-0.5,1.7
			c-0.3,0.5-0.9,0.9-1.6,1.1c0.9,0.3,1.6,0.8,2,1.4c0.5,0.6,0.7,1.4,0.7,2.3c0,1.2-0.4,2.3-1.3,3.1c-0.9,0.8-2,1.3-3.4,1.3
			c-1.4,0-2.6-0.4-3.4-1.3c-0.9-0.8-1.3-1.9-1.3-3.1c0-0.9,0.2-1.7,0.7-2.3C13.1,13.9,13.8,13.5,14.7,13.2z M14.3,10.2
			c0,0.7,0.2,1.2,0.7,1.7c0.4,0.4,1,0.6,1.7,0.6c0.7,0,1.2-0.2,1.7-0.6c0.4-0.4,0.7-0.9,0.7-1.6c0-0.6-0.2-1.2-0.7-1.6
			c-0.4-0.4-1-0.7-1.7-0.7c-0.7,0-1.2,0.2-1.7,0.6C14.5,9.1,14.3,9.7,14.3,10.2z M13.7,16.9c0,0.5,0.1,1,0.4,1.5
			c0.2,0.5,0.6,0.8,1.1,1.1c0.5,0.3,1,0.4,1.5,0.4c0.8,0,1.5-0.3,2.1-0.8c0.5-0.5,0.8-1.2,0.8-2.1c0-0.8-0.3-1.5-0.8-2.1
			c-0.6-0.6-1.3-0.8-2.1-0.8c-0.8,0-1.5,0.3-2,0.8C14,15.4,13.7,16.1,13.7,16.9z M29.7,21h-1.8V9.8c-0.4,0.4-1,0.8-1.7,1.2
			c-0.7,0.4-1.3,0.7-1.9,0.9v-1.7c1-0.5,1.9-1,2.6-1.7c0.7-0.7,1.3-1.3,1.6-1.9h1.1V21z"/>
	</g>
	<g transform="matrix(0.4994,0,0,0.4969,319.1412,340.2435)">
		<g>
			<defs>
				<path id="SVGID_15_" d="M394.8,66.8l-4.7-2.7v12.5l4.7,2.7V66.8z M231.4,73.6L220,67.1l-8,13.7v3.9V53.5l8-13.7l-12.4-7.1
					l-8,13.7v31.2l12.4,7.1V21.5l-8,13.7v63.2l8-13.7l11.4,6.5l8-13.7V54.1l-8,13.7L212,61.3v23.4l11.4,6.5l8-13.7V73.6z
					 M191.7,48.5l8-13.7L186.1,27l-8,13.7v42.9l13.5,7.7V48.5z M199.7,25.4l8-13.7l-13.5-7.7l-8,13.7L199.7,25.4z M424,50.4l-8,13.7
					v27.3l8-13.7V50.4z M39.7,18.1L8,0v78.1l31.7,18.1l8-13.7V4.4L39.7,18.1z M8,5.5L0,19.2v72.6l8-13.7V5.5z M399.3,80.3l-4.5-2.6
					v1.6l4.5,2.6V80.3z M419.9,89.8l8-13.7l-3.9-2.2l-8,13.7L419.9,89.8z M372.3,80.9l-5.2-2.9v3.9l5.2,2.9V80.9z M403.7,69.6
					l-4.4-2.5v14.8l4.4,2.5V69.6z M423.7,86.5v9.4l8-13.7v-9.4l-3.8-2.2l-8,13.7L423.7,86.5z M233.9,96.5v0.8l8-13.7v-0.8l-10.5-6
					l-8,13.7L233.9,96.5z M241.9,65.6l-8,13.7v18l8-13.7V65.6z M427.4,95.6l8-13.7l-3.7-2.1l-8,13.7L427.4,95.6z M407.9,82.9
					l-4.2-2.4v3.9l4.2,2.4V82.9z M439,59.7l-8,13.7V100l8-13.7V59.7z"/>
			</defs>
			<clipPath id="SVGID_16_">
				<use xlink:href="#SVGID_15_"  style="overflow:visible;"/>
			</clipPath>
			<g style="clip-path:url(#SVGID_16_);enable-background:new    ;">
				
					<image style="overflow:visible;" width="439" height="100" xlink:href="15D9E17C.png"  transform="matrix(1 0 0 1 0 -1.790064e-05)">
				</image>
			</g>
		</g>
	</g>
	<g transform="translate(171.4879,383.2425)">
		<path d="M-11.2,0.9c0-1.7,0.2-3,0.5-4.1c0.3-1,0.9-1.8,1.6-2.4c0.7-0.6,1.6-0.8,2.6-0.8c0.8,0,1.4,0.2,2,0.5
			C-3.9-5.6-3.4-5.2-3-4.6s0.7,1.3,0.9,2.1c0.2,0.8,0.3,2,0.3,3.4C-1.8,2.6-2,4-2.4,5c-0.3,1-0.9,1.8-1.5,2.4
			C-4.6,8-5.4,8.2-6.5,8.2c-1.4,0-2.5-0.5-3.3-1.5C-10.7,5.6-11.2,3.6-11.2,0.9z M-9.4,0.9c0,2.4,0.3,3.9,0.8,4.7
			c0.5,0.8,1.2,1.2,2,1.2c0.8,0,1.5-0.4,2-1.2c0.6-0.8,0.8-2.3,0.8-4.7c0-2.4-0.3-3.9-0.8-4.7c-0.6-0.8-1.2-1.2-2-1.2
			c-0.8,0-1.5,0.3-1.9,1C-9.1-3-9.4-1.4-9.4,0.9z"/>
	</g>
	<g transform="matrix(0.4994,0,0,0.4976,200.8731,344.1034)">
		<g>
			<defs>
				<path id="SVGID_17_" d="M648.8,80.5l-4.1-2.3v0.8l4.1,2.3V80.5z M648.8,70.4l-4.1-2.3v10.9l4.1,2.3V70.4z M671.2,91.8v2.3
					l8-13.7v-2.3l-3.5-2l-8,13.7L671.2,91.8z M480.5,84.8l8-13.7l-9.8-5.6l-8,13.7L480.5,84.8z M652.8,56.3l-4-2.3v27.3l4,2.3V56.3z
					 M98.4,69.9l8-13.7L8,0L0,13.7L98.4,69.9z M470.7,88.6l-10.5-6v0.8l10.5,6V88.6z M470.7,71.4l8-13.7l-10.5-6l-8,13.7v17.9
					l10.5,6V71.4z M452.1,78.4l8-13.7l-11.4-6.5l-8,13.7L452.1,78.4z M440.8,27.5l-12.3-7v63.2l12.3,7V27.5z M656.7,81.9l-3.9-2.2
					v3.9l3.9,2.2V81.9z M268.5,30.3l-31.7-18.1v71.7l31.7,18.1V30.3z M678,84.7l8-13.7l-3.3-1.9l-8,13.7L678,84.7z M660.4,78.6
					l-3.8-2.2v9.4l3.8,2.2V78.6z"/>
			</defs>
			<clipPath id="SVGID_18_">
				<use xlink:href="#SVGID_17_"  style="overflow:visible;"/>
			</clipPath>
			<g style="clip-path:url(#SVGID_18_);enable-background:new    ;">
				
					<image style="overflow:visible;" width="686" height="102" xlink:href="15D9E17C.png"  transform="matrix(1 0 0 1 0 -1.827974e-05)">
				</image>
			</g>
		</g>
	</g>
	<g>
		<line class="st1" x1="185.1" y1="391" x2="177.9" y2="386.9"/>
	</g>
	<g transform="matrix(0.4996,0,0,0.498,334.9578,349.6245)">
		<g>
			<defs>
				<path id="SVGID_19_" d="M420.7,32.1l-8,13.7v42.8l8-13.7V32.1z M221.1,81.2V89l8-13.7v-7.8l-9.2-5.2l-8,13.7L221.1,81.2z
					 M229.1,55.1l-8,13.7V89l8-13.7V55.1z M415.8,86.6l8-13.7l-3.2-1.8l-8,13.7L415.8,86.6z M395.5,76.6l-3.7-2.1v2.3l3.7,2.1V76.6z
					 M8,5.5L0,19.2v71.7l8-13.7V5.5z M33.9,14.8L8,0v77.1l25.9,14.8l8-13.7V1L33.9,14.8z M194.1,70.9l8-13.7l-10.5-6l-8,13.7
					L194.1,70.9z M211.9,73.7l-9.8-5.6v10.1l9.8,5.6V73.7z M419,79v13.2l8-13.7V65.3l-3.1-1.8l-8,13.7L419,79z M399.1,54.5l-3.6-2
					v26.5l3.6,2V54.5z M183.6,67.2l-11.4-6.5v18.7l11.4,6.5V67.2z M229.7,90l8-13.7l-8.6-4.9l-8,13.7L229.7,90z M229.7,86.9l8-13.7
					l-8.6-4.9l-8,13.7L229.7,86.9z M422,82.3V94l8-13.7V68.6l-3.1-1.7l-8,13.7L422,82.3z M402.6,80.6l-3.5-2v2.3l3.5,2V80.6z
					 M425,86.4l8-13.7l-3-1.7l-8,13.7L425,86.4z"/>
			</defs>
			<clipPath id="SVGID_20_">
				<use xlink:href="#SVGID_19_"  style="overflow:visible;"/>
			</clipPath>
			<g style="clip-path:url(#SVGID_20_);enable-background:new    ;">
				
					<image style="overflow:visible;" width="433" height="94" xlink:href="287D94FB.png"  transform="matrix(1 0 0 1 0 -1.793562e-05)">
				</image>
			</g>
		</g>
	</g>
	<g>
		<line class="st0" x1="185.1" y1="391" x2="180.9" y2="398.2"/>
		<line class="st0" x1="185.1" y1="391" x2="183" y2="394.6"/>
		<path class="st0" d="M185.1,391c0,0,221,125.7,277.3,157.7l-4.2,7.2"/>
		<line class="st0" x1="185.1" y1="391" x2="185.1" y2="332.8"/>
	</g>
	<g transform="matrix(0.4997,0,0,0.4975,192.8705,320.6864)">
		<g>
			<defs>
				<path id="SVGID_21_" d="M720.1,93.6l-8,13.7l-2.9-1.7v48.3v-9.4l-3-1.7v9.4v-11.7l-3.1-1.7v11.7v-13.3l-3.1-1.8v13.3v-3.9
					l-3.2-1.8v3.9V104l-3.3-1.9V145v-13.3l-3.3-1.9v13.3l3.3,1.9l3.3,1.9l3.2,1.8l3.1,1.8l3.1,1.7l3,1.7l2.9,1.7l8-13.7V93.6z
					 M496.2,121.8V142l9.2,5.2V127l8-13.7l-9.2-5.2L496.2,121.8z M496.2,110.1l-8,13.7l-9.8-5.6v32v-21.1l-10.5-6v21.1l10.5,6
					l9.8,5.6l8-13.7V110.1z M505.3,139.5l-9.2-5.2v7.8l9.2,5.2V139.5z M522,156.8l8-13.7v-14l-8.1-4.6l-8,13.7v14v-7l-8.6-4.9v7
					l8.6,4.9v-3.9l-8.6-4.9v3.9l8.6,4.9L522,156.8z M530.1,108.8l-8,13.7l-8.1-4.6v34.3l8.1,4.6l8-13.7V108.8z M114.3,96.7v46.8
					l57.5,32.8v-46.8l8-13.7l-57.5-32.8L114.3,96.7z M723,138.1l-8,13.7l-2.9-1.6v5.5l2.9,1.6l8-13.7V138.1z M497.3,152.4l8-13.7
					l-9.2-5.2l-8,13.7v8.6l9.2,5.2V152.4z M529.7,156.5l8-13.7l-7.7-4.4l-8,13.7v4.7l7.7,4.4l8-13.7v-10.1l-7.7-4.4l-8,13.7v10.1
					l7.7,4.4V156.5z M340.1,162.6l8-13.7V95.1l-21.9-12.5l-8,13.7v53.8L340.1,162.6z M284.3,92.9v56.1l25.9,14.8v-56.1l8-13.7
					l-25.9-14.8L284.3,92.9z M537,161.4l8-13.7l-7.3-4.2l-8,13.7v3.9l7.3,4.2l8-13.7v-17.2l-7.3-4.2l-8,13.7v17.2l7.3,4.2V161.4z
					 M513.9,129.6l-8,13.7l-8.6-4.9V161l8.6,4.9l8-13.7V129.6z M638.6,17.5l8-13.7L640,0l-8,13.7L638.6,17.5z M543.9,168.5l8-13.7
					l-6.9-4l-8,13.7v0.8l6.9,4l8-13.7v-21.1l-8,13.7l-6.9-4l-8,13.7v21.1l8-13.7l6.9,4V168.5z M106.3,156.4v0.8l57.5,32.8v-0.8
					l8-13.7l-57.5-32.8L106.3,156.4z M98.3,141.2l8-13.7L8,71.4L0,85.1L98.3,141.2z M558.5,155.4l-8,13.7v3.9l8-13.7V155.4z
					 M359,150.8l8-13.7l-18.9-10.8l-8,13.7v22.6l18.9,10.8V150.8z M521.7,172.6l8-13.7l-7.7-4.4l-8,13.7L521.7,172.6z M340.1,99.5
					l-8,13.7l-21.9-12.5v63.2l21.9,12.5l8-13.7V99.5z M556.8,173.5l8-13.7l-6.3-3.6l-8,13.7L556.8,173.5z M562.9,174.6l8-13.7
					l-6-3.4l-8,13.7L562.9,174.6z"/>
			</defs>
			<clipPath id="SVGID_22_">
				<use xlink:href="#SVGID_21_"  style="overflow:visible;"/>
			</clipPath>
			<g style="clip-path:url(#SVGID_22_);enable-background:new    ;">
				
					<image style="overflow:visible;" width="723" height="190" xlink:href="287D94F9.png"  transform="matrix(1 0 0 1 0 -1.665025e-05)">
				</image>
			</g>
		</g>
	</g>
	<g transform="translate(177.1882,404.5186)">
		<path d="M-4.5,21h-1.8V9.8c-0.4,0.4-1,0.8-1.7,1.2c-0.7,0.4-1.3,0.7-1.9,0.9v-1.7c1-0.5,1.9-1,2.6-1.7C-6.5,7.9-6,7.2-5.7,6.6h1.1
			V21z"/>
	</g>
	<g transform="matrix(0.4997,0,0,0.4973,242.0014,369.8276)">
		<g>
			<defs>
				<path id="SVGID_23_" d="M277.4,84.2l8-13.7V30.7l-16.7-9.5l-8,13.7v39.8L277.4,84.2z M445.7,66.7v3.9l6.6,3.8v-3.9l8-13.7
					l-6.6-3.8L445.7,66.7z M445.7,61.2l-8,13.7l-6.9-4v9.4V59.3l-7.3-4.2v21.1v-2.3l-7.7-4.4v2.3l7.7,4.4l7.3,4.2l6.9,4l8-13.7V61.2
					z M478.4,46l-8,13.7l-5.8-3.3v25v-5.5l-6-3.4v5.5v-3.1l-6.3-3.6v3.1l6.3,3.6l6,3.4l5.8,3.3l8-13.7V46z M57.5,70.7L0,37.8v34.3
					L57.5,105V70.7z M476,78.5l8-13.7l-5.6-3.2l-8,13.7v9.4l5.6,3.2V78.5z M252.7,54.9l8-13.7l-18.9-10.8l-8,13.7v33.5l18.9,10.8
					V54.9z M481.3,58.9l8-13.7l-5.4-3.1l-8,13.7L481.3,58.9z M73.5,76.8l-8,13.7v0.8l8-13.7V76.8z M114.3,43.9L73.5,20.6v56.9
					l40.8,23.3V43.9z M516,16.9l8-13.7L518.4,0l-8,13.7L516,16.9z M458.6,63.9l-8,13.7v14l8-13.7V63.9z M300.4,45.5l-8,13.7
					l-14.9-8.5v33.5V28.9l-8,13.7V98l8-13.7l14.9,8.5l8-13.7V45.5z M494.5,38l-8,13.7v42.1l8-13.7V38z M491.4,92.8l8-13.7l-5-2.8
					l-8,13.7L491.4,92.8z M504.3,53l-8,13.7v32.8l8-13.7V53z M305.9,79.4l8-13.7L300.4,58l-8,13.7L305.9,79.4z"/>
			</defs>
			<clipPath id="SVGID_24_">
				<use xlink:href="#SVGID_23_"  style="overflow:visible;"/>
			</clipPath>
			<g style="clip-path:url(#SVGID_24_);enable-background:new    ;">
				
					<image style="overflow:visible;" width="524" height="105" xlink:href="287D94FF.png"  transform="matrix(1 0 0 1 0 -1.699078e-05)">
				</image>
			</g>
		</g>
	</g>
	<g>
		<line class="st1" x1="559.1" y1="413.1" x2="566.4" y2="417.2"/>
	</g>
	<g transform="translate(594.563,518.8956) rotate(-60)">
		<path d="M16-9.4l12-6.9l-2.6-4.5l1.6-0.9L33.2-11l-1.6,0.9L29-14.6L17-7.6L16-9.4z M27,5.9l-1.6,0.9l-5.2-9
			c0.4-0.3,0.8-0.4,1.3-0.5c0.7-0.1,1.6-0.1,2.5,0.1c0.9,0.2,2,0.5,3.3,1c2.1,0.8,3.6,1.2,4.6,1.3c1,0.1,1.8,0,2.5-0.4
			C35-1,35.4-1.6,35.6-2.3c0.2-0.7,0.1-1.5-0.4-2.2c-0.5-0.8-1.1-1.3-1.9-1.5c-0.8-0.2-1.6-0.1-2.4,0.4l-0.8-1.8
			c1.3-0.6,2.6-0.7,3.7-0.4c1.1,0.4,2,1.2,2.8,2.5c0.8,1.3,1,2.6,0.7,3.7c-0.3,1.2-1,2.1-2,2.7c-0.5,0.3-1.1,0.5-1.8,0.6
			c-0.7,0.1-1.4,0-2.3-0.1C30.3,1.4,29,1,27.3,0.4c-1.4-0.5-2.4-0.8-2.8-0.9c-0.5-0.1-0.9-0.2-1.3-0.2L27,5.9z M27.6,19.9
			c0.6-1.6,1.5-3.2,2.7-4.7c1.2-1.5,2.6-2.8,4.3-3.8c1.5-0.9,3-1.4,4.7-1.7c1.9-0.3,4-0.4,6.2-0.1l0.7,1.2c-1.7,0-2.9,0-3.6,0.1
			c-1.1,0.1-2.1,0.3-3.2,0.7c-1.3,0.4-2.6,0.9-3.7,1.6c-3,1.7-5.4,4.4-7.3,7.9L27.6,19.9z M33.4,20.8l9.9-5.7l0.9,1.5l-1.4,0.8
			c0.7,0,1.3,0.2,1.9,0.6c0.6,0.3,1.1,0.8,1.5,1.5c0.4,0.7,0.6,1.4,0.6,2.1c0,0.6-0.3,1.2-0.7,1.7c1.6,0.1,2.8,0.8,3.5,2.1
			c0.6,1,0.7,1.9,0.5,2.7c-0.2,0.8-0.9,1.6-2.1,2.2l-6.8,3.9l-1-1.7l6.2-3.6c0.7-0.4,1.1-0.7,1.4-1c0.2-0.3,0.4-0.6,0.4-1
			c0-0.4-0.1-0.8-0.3-1.2c-0.4-0.7-1-1.1-1.7-1.3c-0.7-0.2-1.6,0-2.6,0.6l-5.7,3.3l-1-1.7l6.4-3.7c0.7-0.4,1.2-0.9,1.4-1.4
			c0.2-0.5,0.1-1-0.2-1.7c-0.3-0.5-0.6-0.8-1.1-1.1c-0.5-0.3-1-0.3-1.6-0.2c-0.6,0.1-1.3,0.4-2.2,0.9l-5.1,3L33.4,20.8z M45.1,34.2
			l1.2,1.5c-0.6,0.5-1,1-1.1,1.7c-0.1,0.6,0.1,1.3,0.5,2.1c0.4,0.8,0.9,1.2,1.5,1.4c0.5,0.2,1,0.2,1.4-0.1c0.4-0.2,0.6-0.6,0.6-1
			c0-0.3-0.1-1-0.4-2c-0.4-1.4-0.6-2.4-0.7-3c0-0.6,0.1-1.1,0.3-1.6c0.3-0.5,0.6-0.9,1.1-1.1c0.4-0.3,0.9-0.4,1.4-0.4
			c0.5,0,1,0.1,1.4,0.3c0.3,0.2,0.7,0.4,1.1,0.8c0.4,0.4,0.7,0.8,1,1.3c0.4,0.8,0.7,1.5,0.8,2.2c0.1,0.7,0.1,1.3-0.2,1.8
			c-0.2,0.5-0.6,1-1.2,1.5L52.8,38c0.5-0.4,0.7-0.8,0.8-1.3c0.1-0.5-0.1-1.1-0.4-1.8c-0.4-0.8-0.9-1.3-1.3-1.4
			c-0.4-0.2-0.8-0.2-1.2,0c-0.2,0.1-0.4,0.3-0.5,0.5c-0.1,0.2-0.1,0.5-0.1,0.9c0,0.2,0.2,0.8,0.4,1.7c0.4,1.4,0.6,2.4,0.7,2.9
			c0.1,0.6,0,1.1-0.2,1.6c-0.2,0.5-0.6,0.9-1.2,1.2c-0.6,0.3-1.2,0.5-1.9,0.4c-0.7,0-1.3-0.3-2-0.8c-0.6-0.5-1.2-1.1-1.6-1.9
			c-0.7-1.3-1-2.4-0.9-3.4C43.6,35.9,44.2,35,45.1,34.2z M44.7,49.6L44,48.4c4,0.1,7.6-0.6,10.5-2.4c1.2-0.7,2.3-1.5,3.2-2.4
			c0.8-0.7,1.5-1.6,2.2-2.4c0.4-0.6,1.1-1.6,1.9-3.1l0.7,1.2c-0.9,2.1-1.9,3.8-3.2,5.3c-1.1,1.3-2.4,2.3-3.8,3.2
			c-1.7,1-3.5,1.6-5.4,1.8C48.2,49.8,46.4,49.8,44.7,49.6z"/>
	</g>
	<g transform="matrix(0.4993,0,0,0.4994,270.7411,366.0793)">
		<g>
			<defs>
				<path id="SVGID_25_" d="M56.9,51.2l8-13.7L24,14.4L16,28L56.9,51.2z M424.1,66.2l-5.4-3V95l5.4,3V66.2z M393.4,84.8l-6.3-3.6v14
					l6.3,3.6V84.8z M443.8,96v13.2l8-13.7V82.3l-4.7-2.6l-8,13.7L443.8,96z M212.1,49.9l-16.7-9.5v55.2l16.7,9.5V49.9z M429.3,59
					l-5.2-2.9v42l5.2,2.9V59z M448.3,110.2l8-13.7l-4.5-2.6l-8,13.7L448.3,110.2z M8,64.2L0,77.9v34.2l8-13.7V64.2z M235,73.5
					l-15-8.5l-8,13.7v26.4l15,8.5l8-13.7V69.6l-8,13.7l-15-8.5v30.3l15,8.5l8-13.7V73.5z M248.6,86.6L235,78.9v21l13.5,7.7V86.6z
					 M460.6,57.9l-8,13.7v42.7l8-13.7V57.9z M268.9,70.6l-8,13.7v30.3l8-13.7V70.6z M434.3,99.9l-5-2.8v3.9l5,2.8V99.9z M456.9,99.6
					l8-13.7l-4.2-2.4l-8,13.7L456.9,99.6z M447.5,17.1l8-13.7l-6-3.4l-8,13.7L447.5,17.1z M439.1,73.9l-4.8-2.7v32.6l4.8,2.7V73.9z
					 M469,85.1l-8,13.7V119l8-13.7V85.1z"/>
			</defs>
			<clipPath id="SVGID_26_">
				<use xlink:href="#SVGID_25_"  style="overflow:visible;"/>
			</clipPath>
			<g style="clip-path:url(#SVGID_26_);enable-background:new    ;">
				
					<image style="overflow:visible;" width="469" height="119" xlink:href="287D94F9.png"  transform="matrix(1 0 0 1 0 -1.695062e-05)">
				</image>
			</g>
		</g>
	</g>
	<g>
		<line class="st1" x1="234.2" y1="418.9" x2="230" y2="426.1"/>
		<line class="st1" x1="234.2" y1="418.9" x2="232.1" y2="422.5"/>
	</g>
	<g transform="matrix(0.4994,0,0,0.4999,299.1348,277.9977)">
		<g>
			<defs>
				<path id="SVGID_27_" d="M386.7,272.1l-4.7-2.6v13.2l4.7,2.6V272.1z M506,16.8l8-13.7L508.4,0l-8,13.7L506,16.8z M223.4,282.7
					l-8,13.7v0.8l8-13.7V282.7z M204,260.4l-12.3-7v30.3l12.3,7V260.4z M191.6,268.1l-13.5-7.7l-8,13.7l13.5,7.7v15.5l8-13.7V268.1z
					 M183.6,281l8-13.7l-13.5-7.7l-8,13.7L183.6,281z M408,293.4l8-13.7l-4-2.3l-8,13.7L408,293.4z M404,274.9l8-13.7l-4.1-2.3
					l-8,13.7L404,274.9z M31.7,239.1L0,221.2V284l31.7,18V239.1z M391.3,286.3l-4.5-2.6v1.6l4.5,2.6V286.3z"/>
			</defs>
			<clipPath id="SVGID_28_">
				<use xlink:href="#SVGID_27_"  style="overflow:visible;"/>
			</clipPath>
			<g style="clip-path:url(#SVGID_28_);enable-background:new    ;">
				
					<image style="overflow:visible;" width="514" height="302" xlink:href="287D94FB.png"  transform="matrix(1 0 0 1 0 -1.694148e-05)">
				</image>
			</g>
		</g>
	</g>
	<g transform="translate(572.7355,420.849)">
		<path d="M0.8,17.2L2.6,17c0.2,1,0.6,1.7,1,2.2c0.5,0.4,1.1,0.7,1.8,0.7c0.8,0,1.5-0.3,2.1-0.9s0.9-1.3,0.9-2.1
			c0-0.8-0.3-1.5-0.8-2S6.4,14,5.5,14c-0.3,0-0.7,0.1-1.2,0.2l0.2-1.5c0.1,0,0.2,0,0.3,0c0.8,0,1.4-0.2,2-0.6c0.6-0.4,0.9-1,0.9-1.8
			c0-0.6-0.2-1.2-0.7-1.6C6.6,8.3,6,8.1,5.4,8.1c-0.7,0-1.2,0.2-1.7,0.6c-0.5,0.4-0.7,1.1-0.9,1.9L1,10.3c0.2-1.2,0.7-2.1,1.5-2.7
			c0.8-0.6,1.7-1,2.8-1c0.8,0,1.5,0.2,2.2,0.5S8.6,7.9,9,8.5c0.3,0.6,0.5,1.2,0.5,1.8C9.5,11,9.3,11.5,9,12
			c-0.3,0.5-0.8,0.9-1.5,1.2c0.8,0.2,1.5,0.6,2,1.2c0.5,0.6,0.7,1.4,0.7,2.3c0,1.3-0.5,2.3-1.4,3.2c-0.9,0.9-2.1,1.3-3.5,1.3
			c-1.3,0-2.3-0.4-3.1-1.1S1,18.4,0.8,17.2z M12,17.2l1.8-0.2c0.2,1,0.6,1.7,1,2.2c0.5,0.4,1.1,0.7,1.8,0.7c0.8,0,1.5-0.3,2.1-0.9
			c0.6-0.6,0.9-1.3,0.9-2.1c0-0.8-0.3-1.5-0.8-2c-0.5-0.5-1.2-0.8-2-0.8c-0.3,0-0.7,0.1-1.2,0.2l0.2-1.5c0.1,0,0.2,0,0.3,0
			c0.8,0,1.4-0.2,2-0.6c0.6-0.4,0.9-1,0.9-1.8c0-0.6-0.2-1.2-0.7-1.6c-0.4-0.4-1-0.6-1.7-0.6c-0.7,0-1.2,0.2-1.7,0.6
			c-0.5,0.4-0.8,1.1-0.9,1.9l-1.8-0.3c0.2-1.2,0.7-2.1,1.5-2.7c0.8-0.6,1.7-1,2.8-1c0.8,0,1.5,0.2,2.2,0.5c0.7,0.3,1.2,0.8,1.5,1.4
			c0.3,0.6,0.5,1.2,0.5,1.8c0,0.6-0.2,1.2-0.5,1.7c-0.3,0.5-0.8,0.9-1.5,1.2c0.8,0.2,1.5,0.6,2,1.2c0.5,0.6,0.7,1.4,0.7,2.3
			c0,1.3-0.5,2.3-1.4,3.2c-0.9,0.9-2.1,1.3-3.5,1.3c-1.3,0-2.3-0.4-3.1-1.1C12.6,19.4,12.1,18.4,12,17.2z M28.7,21v-3.4h-6.2V16
			L29,6.7h1.4V16h1.9v1.6h-1.9V21H28.7z M28.7,16V9.5L24.2,16H28.7z"/>
	</g>
	<g transform="matrix(0.4992,0,0,0.4993,270.7411,282.5649)">
		<g>
			<defs>
				<path id="SVGID_29_" d="M476.9,232l-8,13.7l-3.9-2.2v45.1v-3.9l-4-2.3v3.9v-20.2l-4.1-2.3v20.2v-17.1l-4.2-2.4v17.1v-42.7
					l-4.4-2.5V279l4.4,2.5l4.2,2.4l4.1,2.3l4,2.3l3.9,2.2l8-13.7V232z M596,139.6l8-13.7l-3.1-1.8l-8,13.7L596,139.6z M0,249.8v29.5
					l40.8,23.2v-29.5l8-13.7L8,236.2L0,249.8z M88.6,230.3l8-13.7l-31.7-18l-8,13.7L88.6,230.3z M470.5,65.9l8-13.7l-7.7-4.4
					l-8,13.7L470.5,65.9z M240.6,272.2l-13.5-7.7v16.3l13.5,7.7V272.2z M240.6,273l-13.5-7.7v15.5l13.5,7.7V273z M480.7,274.6
					l-3.8-2.2l-8,13.7v4.7l3.8,2.2l3.7,2.1v-4.7l8-13.7L480.7,274.6z M252.9,290.1l8-13.7l-12.4-7l-8,13.7v5.4l12.4,7l8-13.7
					l11.4,6.5v-0.8l8-13.7l-11.4-6.5l-8,13.7v0.8v-21l-12.4-7l-8,13.7v21l12.4,7V290.1z M480,279.2l8-13.7l-3.6-2l-8,13.7V295l3.6,2
					V279.2z M578.6,16.5l8-13.7l-5-2.8l-8,13.7L578.6,16.5z M605,144.7l8-13.7l-2.9-1.7l-8,13.7L605,144.7z M491.5,266l-8,13.7
					l-3.5-2v19.4l3.5,2l8-13.7V266z M292.6,299.9l8-13.7v-5.4l-9.8-5.6l-8,13.7v5.4L292.6,299.9z M494.9,279.6l-8,13.7l-3.4-1.9v7.8
					l3.4,1.9l8-13.7V279.6z M264.3,298.1l8-13.7L261,278l-8,13.7v3.9l11.4,6.5l8-13.7V265l-11.4-6.5l-8,13.7v23.3l11.4,6.5V298.1z
					 M490.3,298.2l8-13.7l-3.3-1.9l-8,13.7L490.3,298.2z M501.5,281.8l-8,13.7v9.3l8-13.7V281.8z M301.8,305.1l8-13.7v-3.9l-9.2-5.2
					l-8,13.7v3.9L301.8,305.1z M504.7,285.9l-8,13.7v7l8-13.7V285.9z M114.4,230.3l-25.9-14.7v77.7l25.9,14.7l8-13.7v-77.7
					L114.4,230.3z M282.8,249.3l-8,13.7V308l8-13.7V249.3z M502.9,307.7v2.3l8-13.7v-2.3l-3.1-1.7l-8,13.7L502.9,307.7z M505.9,311
					l8-13.7l-3-1.7l-8,13.7L505.9,311z M508.8,306.4l8-13.7l-2.9-1.7l-8,13.7L508.8,306.4z M284.6,295.7l8-13.7l-9.8-5.6l-8,13.7
					L284.6,295.7z"/>
			</defs>
			<clipPath id="SVGID_30_">
				<use xlink:href="#SVGID_29_"  style="overflow:visible;"/>
			</clipPath>
			<g style="clip-path:url(#SVGID_30_);enable-background:new    ;">
				
					<image style="overflow:visible;" width="613" height="311" xlink:href="287D94F9.png"  transform="matrix(1 0 0 1 0 -1.754860e-05)">
				</image>
			</g>
		</g>
	</g>
	<g transform="translate(226.3191,432.4533)">
		<path d="M-1.9,19.3V21h-9.5c0-0.4,0.1-0.8,0.2-1.2c0.2-0.6,0.6-1.3,1.2-1.9c0.5-0.6,1.3-1.3,2.3-2.2c1.6-1.3,2.6-2.3,3.2-3
			c0.5-0.7,0.8-1.5,0.8-2.1c0-0.7-0.3-1.3-0.8-1.8c-0.5-0.5-1.2-0.7-2-0.7c-0.8,0-1.5,0.3-2,0.8C-9,9.4-9.3,10.1-9.3,11l-1.8-0.2
			c0.1-1.3,0.6-2.4,1.4-3.1C-8.9,7-7.8,6.6-6.4,6.6C-5,6.6-4,7-3.2,7.8C-2.4,8.5-2,9.5-2,10.6c0,0.6-0.1,1.1-0.4,1.7
			c-0.2,0.6-0.6,1.1-1.2,1.8c-0.5,0.6-1.4,1.5-2.7,2.5c-1.1,0.9-1.7,1.5-2,1.8c-0.3,0.3-0.5,0.6-0.7,1H-1.9z"/>
	</g>
	<g transform="matrix(0.499,0,0,0.4977,291.1323,398.3359)">
		<g>
			<defs>
				<path id="SVGID_31_" d="M449.6,66.6l-3.3-1.9v4.7l3.3,1.9V66.6z M479,45.6l-8,13.7v24.2l8-13.7V45.6z M234.1,31.2l-10.5-6v45.2
					l10.5,6V31.2z M31.7,18.1L0,0v70.9L31.7,89V18.1z M452.8,63.8l-3.3-1.9v9.4l3.3,1.9V63.8z M456,67.9l-3.2-1.8v7l3.2,1.8V67.9z
					 M261,29.8l-8,13.7v43.6l8-13.7V29.8z"/>
			</defs>
			<clipPath id="SVGID_32_">
				<use xlink:href="#SVGID_31_"  style="overflow:visible;"/>
			</clipPath>
			<g style="clip-path:url(#SVGID_32_);enable-background:new    ;">
				
					<image style="overflow:visible;" width="479" height="89" xlink:href="287D94E7.png"  transform="matrix(1 0 0 1 0 -1.741665e-05)">
				</image>
			</g>
		</g>
	</g>
	<g>
		<line class="st1" x1="263" y1="435.3" x2="260.9" y2="438.9"/>
		<line class="st1" x1="263" y1="435.3" x2="258.8" y2="442.5"/>
	</g>
	<g transform="matrix(0.499,0,0,0.499,291.1323,221.6555)">
		<g>
			<defs>
				<path id="SVGID_33_" d="M95.5,410l8-13.7l-21.9-12.5l-8,13.7v32.7v-3.9l-25.9-14.7l-8,13.7v3.9l25.9,14.7l8-13.7l21.9,12.4V410z
					 M31.7,372.1l8-13.7L8,340.4l-8,13.7L31.7,372.1z M73.6,352.5l8-13.7l-25.9-14.7l-8,13.7L73.6,352.5z M243.9,417.9l-9.8-5.6
					v17.9l9.8,5.6V417.9z M428.7,318.2l8-13.7l-5.2-2.9l-8,13.7L428.7,318.2z M462.2,430l-3.1-1.7v2.3l3.1,1.7V430z M269.7,398
					l-8,13.7l-8.6-4.9V441v-43.5l-9.2-5.2v43.5l9.2,5.2l8.6,4.9l8-13.7V398z M465.2,433.2l-3-1.7v0.8l3,1.7V433.2z M468.1,428.7
					l-2.9-1.7v7l2.9,1.7V428.7z M471,413.2l-2.9-1.6v24.1l2.9,1.6V413.2z M269.8,427.2l8-13.7l-8.1-4.6l-8,13.7v23.3l8.1,4.6V427.2z
					 M159.6,46.4l8-13.7L110,0l-8,13.7L159.6,46.4z M114.5,408.4l8-13.7l-19-10.8l-8,13.7v45.1l19,10.8V408.4z M285.5,415.6l-8,13.7
					l-7.7-4.4v25.7l7.7,4.4l8-13.7V415.6z M57.6,357.3l-25.9-14.7v100.3l25.9,14.7l8-13.7V343.6L57.6,357.3z M284.7,442l8-13.7
					l-7.3-4.1l-8,13.7L284.7,442z M436,209l8-13.7l-6.9-3.9l-8,13.7L436,209z M139.2,381.6l-8,13.7V463l8-13.7V381.6z M299.7,424.4
					l-8,13.7V463l8-13.7V424.4z"/>
			</defs>
			<clipPath id="SVGID_34_">
				<use xlink:href="#SVGID_33_"  style="overflow:visible;"/>
			</clipPath>
			<g style="clip-path:url(#SVGID_34_);enable-background:new    ;">
				
					<image style="overflow:visible;" width="471" height="463" xlink:href="287D94E9.png"  transform="matrix(1 0 0 1 0 -1.669610e-05)">
				</image>
			</g>
		</g>
	</g>
	<g>
		<line class="st1" x1="283.4" y1="446.9" x2="281.3" y2="450.5"/>
	</g>
	<g transform="matrix(0.4997,0,0,0.4998,344.2644,228.3208)">
		<g>
			<defs>
				<path id="SVGID_35_" d="M471.5,16L479,3.2L473.4,0l-7.5,12.8L471.5,16z M426,120.6l8-13.7l-5.2-2.9l-8,13.7L426,120.6z
					 M191.5,437.9l8-13.7l-6.6-3.8l-8,13.7L191.5,437.9z M24.7,381.3L8,371.8v67.5l16.7,9.5V381.3z M8,413l-8,13.7V453l8-13.7V413z
					 M178,427.9l-7.3-4.1v17.1l7.3,4.1V427.9z"/>
			</defs>
			<clipPath id="SVGID_36_">
				<use xlink:href="#SVGID_35_"  style="overflow:visible;"/>
			</clipPath>
			<g style="clip-path:url(#SVGID_36_);enable-background:new    ;">
				
					<image style="overflow:visible;" width="479" height="453" xlink:href="287D94EB.png"  transform="matrix(1 0 0 1 0 -1.774597e-05)">
				</image>
			</g>
		</g>
	</g>
	<g transform="translate(255.0588,448.7942)">
		<path d="M-11.2,17.2l1.8-0.2c0.2,1,0.6,1.7,1,2.2c0.5,0.4,1.1,0.7,1.8,0.7c0.8,0,1.5-0.3,2.1-0.9s0.9-1.3,0.9-2.1
			c0-0.8-0.3-1.5-0.8-2s-1.2-0.8-2-0.8c-0.3,0-0.7,0.1-1.2,0.2l0.2-1.5c0.1,0,0.2,0,0.3,0c0.8,0,1.4-0.2,2-0.6
			c0.6-0.4,0.9-1,0.9-1.8c0-0.6-0.2-1.2-0.7-1.6c-0.4-0.4-1-0.6-1.7-0.6c-0.7,0-1.2,0.2-1.7,0.6c-0.5,0.4-0.7,1.1-0.9,1.9l-1.8-0.3
			c0.2-1.2,0.7-2.1,1.5-2.7c0.8-0.6,1.7-1,2.8-1c0.8,0,1.5,0.2,2.2,0.5S-3.4,7.9-3,8.5s0.5,1.2,0.5,1.8c0,0.6-0.2,1.2-0.5,1.7
			c-0.3,0.5-0.8,0.9-1.5,1.2c0.8,0.2,1.5,0.6,2,1.2c0.5,0.6,0.7,1.4,0.7,2.3c0,1.3-0.5,2.3-1.4,3.2c-0.9,0.9-2.1,1.3-3.5,1.3
			c-1.3,0-2.3-0.4-3.1-1.1C-10.6,19.4-11,18.4-11.2,17.2z"/>
	</g>
	<g transform="matrix(0.4998,0,0,0.4994,319.872,408.6329)">
		<g>
			<defs>
				<path id="SVGID_37_" d="M48.8,65.9l8-13.7L37.9,41.5l-8,13.7v26.4l18.9,10.8V65.9z M29.9,0l-8,13.7L0,1.2v81.6l21.9,12.4l8-13.7
					V0z M246.6,80l8-13.7l-6.3-3.6l-8,13.7V92V77.2l-6.6-3.8v14.8V63.4l-6.9-3.9v24.9l6.9,3.9l6.6,3.8l6.3,3.6V80z M96.5,63.6
					l-8,13.7l-14.9-8.5l-8,13.7l-16.7-9.5v19.4V30.2l-8,13.7V106l8-13.7l16.7,9.5l8-13.7l14.9,8.5l8-13.7V63.6z M260.6,57.4l-8,13.7
					v28l8-13.7V57.4z M258.4,91.4l8-13.7l-5.8-3.3l-8,13.7L258.4,91.4z M110,75.9l-8,13.7v14.8l8-13.7V75.9z M264,82.9l8-13.7
					l-5.6-3.2l-8,13.7L264,82.9z"/>
			</defs>
			<clipPath id="SVGID_38_">
				<use xlink:href="#SVGID_37_"  style="overflow:visible;"/>
			</clipPath>
			<g style="clip-path:url(#SVGID_38_);enable-background:new    ;">
				
					<image style="overflow:visible;" width="272" height="106" xlink:href="287D94E9.png"  transform="matrix(1 0 0 1 0 -1.721657e-05)">
				</image>
			</g>
		</g>
	</g>
	<g>
		<line class="st1" x1="534.1" y1="455.8" x2="541.4" y2="459.9"/>
		<line class="st1" x1="299.2" y1="455.9" x2="297.1" y2="459.5"/>
		<line class="st1" x1="299.2" y1="455.9" x2="295" y2="463.1"/>
	</g>
	<g transform="matrix(0.4991,0,0,0.4946,330.7983,425.1565)">
		<g>
			<defs>
				<path id="SVGID_39_" d="M255.9,34.9l-8,13.8l-5.4-3.1v27.5V50.3l-5.6-3.2v22.7v-11l-5.8-3.3v11V38.3l-6-3.5v28.2l6,3.5l5.8,3.3
					l5.6,3.2l5.4,3.1l8-13.8V34.9z M19,10.9L0,0v62.8l19,10.9V10.9z M66.7,53.2l-8,13.8l-15-8.6v11V50.6l-8,13.8L19,54.8v18.8
					l16.7,9.6l8-13.8l15,8.6l8-13.8V53.2z M66.7,49.3v14.9L80.2,72V57.1l8-13.8l-13.5-7.8L66.7,49.3z M261,52.8l-8,13.8l-5.2-3v12.6
					l5.2,3l8-13.8V52.8z M266,58l-8,13.8V82l8-13.8V58z M270.8,64.7l-8,13.8v6.3l8-13.8V64.7z M112,58.5l-8,13.8v13.3l8-13.8V58.5z
					 M72.2,77.9l8-13.8l-13.5-7.8l-8,13.8L72.2,77.9z M66.7,44.6l8-13.8l-15-8.6l-8,13.8L66.7,44.6z M267.5,85.1l8-13.8l-4.7-2.7
					l-8,13.8L267.5,85.1z M280,69.1l-8,13.8V90l8-13.8V69.1z"/>
			</defs>
			<clipPath id="SVGID_40_">
				<use xlink:href="#SVGID_39_"  style="overflow:visible;"/>
			</clipPath>
			<g style="clip-path:url(#SVGID_40_);enable-background:new    ;">
				
					<image style="overflow:visible;" width="280" height="90" xlink:href="287D9502.png"  transform="matrix(1 0 0 1 0 -1.720595e-05)">
				</image>
			</g>
		</g>
	</g>
	<g>
		<line class="st1" x1="312.1" y1="463.2" x2="310" y2="466.8"/>
	</g>
	<g transform="translate(547.7276,463.506)">
		<path d="M10.1,19.3V21H0.6c0-0.4,0.1-0.8,0.2-1.2c0.2-0.6,0.6-1.3,1.2-1.9c0.5-0.6,1.3-1.3,2.3-2.2c1.6-1.3,2.6-2.3,3.2-3
			c0.5-0.7,0.8-1.5,0.8-2.1c0-0.7-0.3-1.3-0.8-1.8C7,8.3,6.3,8.1,5.5,8.1c-0.8,0-1.5,0.3-2,0.8C3,9.4,2.8,10.1,2.8,11l-1.8-0.2
			c0.1-1.3,0.6-2.4,1.4-3.1C3.1,7,4.2,6.6,5.6,6.6C7,6.6,8,7,8.8,7.8C9.6,8.5,10,9.5,10,10.6c0,0.6-0.1,1.1-0.4,1.7
			c-0.2,0.6-0.6,1.1-1.2,1.8c-0.5,0.6-1.4,1.5-2.7,2.5c-1.1,0.9-1.7,1.5-2,1.8c-0.3,0.3-0.5,0.6-0.7,1H10.1z M12,17.2l1.8-0.2
			c0.2,1,0.6,1.7,1,2.2c0.5,0.4,1.1,0.7,1.8,0.7c0.8,0,1.5-0.3,2.1-0.9c0.6-0.6,0.9-1.3,0.9-2.1c0-0.8-0.3-1.5-0.8-2
			c-0.5-0.5-1.2-0.8-2-0.8c-0.3,0-0.7,0.1-1.2,0.2l0.2-1.5c0.1,0,0.2,0,0.3,0c0.8,0,1.4-0.2,2-0.6c0.6-0.4,0.9-1,0.9-1.8
			c0-0.6-0.2-1.2-0.7-1.6c-0.4-0.4-1-0.6-1.7-0.6c-0.7,0-1.2,0.2-1.7,0.6c-0.5,0.4-0.8,1.1-0.9,1.9l-1.8-0.3
			c0.2-1.2,0.7-2.1,1.5-2.7c0.8-0.6,1.7-1,2.8-1c0.8,0,1.5,0.2,2.2,0.5c0.7,0.3,1.2,0.8,1.5,1.4c0.3,0.6,0.5,1.2,0.5,1.8
			c0,0.6-0.2,1.2-0.5,1.7c-0.3,0.5-0.8,0.9-1.5,1.2c0.8,0.2,1.5,0.6,2,1.2c0.5,0.6,0.7,1.4,0.7,2.3c0,1.3-0.5,2.3-1.4,3.2
			c-0.9,0.9-2.1,1.3-3.5,1.3c-1.3,0-2.3-0.4-3.1-1.1C12.6,19.4,12.1,18.4,12,17.2z M32.3,19.3V21h-9.5c0-0.4,0.1-0.8,0.2-1.2
			c0.2-0.6,0.6-1.3,1.2-1.9c0.5-0.6,1.3-1.3,2.3-2.2c1.6-1.3,2.6-2.3,3.2-3c0.5-0.7,0.8-1.5,0.8-2.1c0-0.7-0.3-1.3-0.8-1.8
			c-0.5-0.5-1.2-0.7-2-0.7c-0.8,0-1.5,0.3-2,0.8C25.3,9.4,25,10.1,25,11l-1.8-0.2c0.1-1.3,0.6-2.4,1.4-3.1c0.8-0.7,1.9-1.1,3.3-1.1
			c1.4,0,2.4,0.4,3.3,1.1c0.8,0.8,1.2,1.7,1.2,2.8c0,0.6-0.1,1.1-0.4,1.7c-0.2,0.6-0.6,1.1-1.2,1.8c-0.5,0.6-1.4,1.5-2.7,2.5
			c-1.1,0.9-1.7,1.5-2,1.8c-0.3,0.3-0.5,0.6-0.7,1H32.3z"/>
	</g>
	<g transform="matrix(0.4999,0,0,0.4993,348.6117,274.8007)">
		<g>
			<defs>
				<path id="SVGID_41_" d="M36.5,378.3l-13.5-7.7v7.8l13.5,7.7V378.3z M56.8,326.6l-8,13.7l-12.3-7v52.8l12.3,7l8-13.7V326.6z
					 M68.1,372.7l8-13.7l-11.3-6.5l-8,13.7v13.2l11.3,6.5V372.7z M221.9,372.2l-5-2.8v10.1l5,2.8V372.2z M252.5,380.7l-8,13.7v0.8
					l8-13.7V380.7z M226.7,378.9l-4.8-2.7v6.2l4.8,2.7V378.9z M14.9,389L0,380.5v3.1l14.9,8.5V389z M231.4,385.4l-4.6-2.6v2.3
					l4.6,2.6V385.4z M68.1,362.6l-8,13.7v23.3l8-13.7V362.6z M28.5,396.7l8-13.7l-13.5-7.7l-8,13.7L28.5,396.7z M401,17l8-13.7
					L403.2,0l-8,13.7L401,17z M235.9,383.3l-4.5-2.6v7l4.5,2.6V383.3z M264.5,387.6l-8,13.7v0.8l8-13.7V387.6z"/>
			</defs>
			<clipPath id="SVGID_42_">
				<use xlink:href="#SVGID_41_"  style="overflow:visible;"/>
			</clipPath>
			<g style="clip-path:url(#SVGID_42_);enable-background:new    ;">
				
					<image style="overflow:visible;" width="409" height="402" xlink:href="287D9502.png"  transform="matrix(1 0 0 1 0 -1.793195e-05)">
				</image>
			</g>
		</g>
	</g>
	<g transform="translate(291.2665,469.3811)">
		<path d="M-11.2,17.2l1.8-0.2c0.1,0.9,0.5,1.6,1,2s1.1,0.7,1.8,0.7c0.8,0,1.6-0.3,2.1-1c0.6-0.6,0.9-1.5,0.9-2.5
			c0-1-0.3-1.8-0.8-2.4c-0.6-0.6-1.3-0.9-2.2-0.9c-0.6,0-1.1,0.1-1.5,0.4c-0.5,0.3-0.8,0.6-1.1,1l-1.7-0.2l1.4-7.4h7.1v1.7h-5.7
			l-0.8,3.8c0.9-0.6,1.8-0.9,2.7-0.9c1.3,0,2.3,0.4,3.2,1.3c0.9,0.9,1.3,2,1.3,3.3c0,1.3-0.4,2.4-1.1,3.4c-0.9,1.2-2.2,1.8-3.8,1.8
			c-1.3,0-2.4-0.4-3.2-1.1C-10.6,19.4-11.1,18.5-11.2,17.2z"/>
	</g>
	<g>
		<line class="st1" x1="323" y1="469.4" x2="320.9" y2="473"/>
	</g>
	<g transform="matrix(0.4989,0,0,0.4891,356.0797,458.8379)">
		<g>
			<defs>
				<path id="SVGID_43_" d="M55.8,20.3l8-14L53.3,0.2l-8,14L55.8,20.3z M13.5,28.7L0,20.8V24l13.5,7.9V28.7z M230,26.3l-4.2-2.5v0.8
					l4.2,2.5V26.3z M45.3,7.8L33.9,1.3V25l11.4,6.6V7.8z M33.9,13.1l-8,14V39l8-14V13.1z M65.6,19.6l8-14L63.8,0l-8,14L65.6,19.6z"
					/>
			</defs>
			<clipPath id="SVGID_44_">
				<use xlink:href="#SVGID_43_"  style="overflow:visible;"/>
			</clipPath>
			<g style="clip-path:url(#SVGID_44_);enable-background:new    ;">
				
					<image style="overflow:visible;" width="230" height="39" xlink:href="287D950E.png"  transform="matrix(1 0 0 1 0 -1.845367e-05)">
				</image>
			</g>
		</g>
	</g>
	<g transform="translate(347.43,549.0941) rotate(30)">
		<path d="M-86.8,45.3l-6.9-12l-4.5,2.6l-0.9-1.6l10.8-6.2l0.9,1.6l-4.5,2.6l6.9,12L-86.8,45.3z M-78.8,40.7l-5.7-9.9L-83,30
			l0.9,1.5c0-0.9,0.1-1.6,0.3-2c0.2-0.4,0.5-0.7,0.9-1c0.6-0.3,1.2-0.5,2-0.5l0.3,1.9c-0.6,0-1,0.1-1.4,0.3
			c-0.4,0.2-0.6,0.5-0.8,0.9c-0.2,0.4-0.2,0.8-0.1,1.3c0.2,0.7,0.4,1.4,0.8,2.1l3,5.2L-78.8,40.7z M-79.2,25.3l-1.1-1.9l1.7-1
			l1.1,1.9L-79.2,25.3z M-72.5,37l-5.7-9.9l1.7-1l5.7,9.9L-72.5,37z M-62.5,29.7c-0.3,0.9-0.7,1.6-1.1,2.1c-0.4,0.6-1,1-1.7,1.4
			c-1.1,0.6-2.1,0.8-3,0.6c-0.9-0.2-1.6-0.7-2.1-1.5c-0.3-0.5-0.4-1-0.4-1.5c0-0.5,0.1-1,0.3-1.5c0.2-0.4,0.5-0.9,0.9-1.2
			c0.3-0.3,0.7-0.7,1.3-1.1c1.3-0.9,2.1-1.7,2.7-2.3c-0.1-0.2-0.2-0.4-0.2-0.5c-0.4-0.7-0.8-1.1-1.3-1.2c-0.7-0.1-1.4,0-2.2,0.5
			c-0.8,0.5-1.3,0.9-1.5,1.4c-0.2,0.5-0.2,1.1,0,1.9l-1.8,0.7c-0.3-0.8-0.3-1.5-0.2-2.1c0.1-0.6,0.4-1.2,0.9-1.8
			c0.5-0.6,1.2-1.2,2-1.7c0.8-0.5,1.6-0.8,2.2-0.9c0.6-0.1,1.2-0.1,1.6,0.1c0.4,0.2,0.8,0.4,1.2,0.8c0.2,0.3,0.5,0.8,1,1.5l1.3,2.2
			c0.9,1.6,1.5,2.5,1.8,2.9c0.3,0.4,0.7,0.7,1.1,0.9l-1.7,1C-61.8,30.4-62.2,30.1-62.5,29.7z M-64.8,26c-0.5,0.6-1.3,1.3-2.4,2.2
			c-0.6,0.5-1.1,0.9-1.3,1.2c-0.2,0.3-0.3,0.6-0.3,0.9c0,0.3,0.1,0.6,0.2,0.9c0.3,0.5,0.6,0.7,1.2,0.8c0.5,0.1,1.1,0,1.7-0.4
			c0.6-0.4,1.1-0.8,1.5-1.4c0.3-0.6,0.5-1.2,0.4-1.8c0-0.5-0.3-1.1-0.7-1.8L-64.8,26z M-57.7,28.5l-7.9-13.6l1.7-1l7.9,13.6
			L-57.7,28.5z M-43.8,15.6l1.8-0.8c0.5,1.2,0.5,2.4,0.2,3.5c-0.4,1.1-1.1,1.9-2.2,2.5c-1.4,0.8-2.7,1-4,0.6
			c-1.3-0.4-2.5-1.4-3.4-3.1c-0.6-1.1-1-2.1-1.1-3.1c-0.1-1,0.1-1.9,0.6-2.7c0.5-0.8,1.2-1.5,2-2c1.1-0.6,2.1-0.9,3.1-0.7
			c1,0.2,1.9,0.7,2.6,1.6l-1.5,1.2c-0.5-0.6-1.1-0.9-1.7-1c-0.6-0.1-1.2,0-1.7,0.3c-0.8,0.5-1.4,1.2-1.5,2.1c-0.2,0.9,0.1,2,0.9,3.3
			c0.8,1.3,1.6,2.1,2.4,2.5c0.9,0.3,1.7,0.2,2.5-0.2c0.7-0.4,1.1-0.9,1.3-1.6C-43.3,17.3-43.4,16.5-43.8,15.6z M-42.1,12.9
			c-1.1-1.8-1.3-3.5-0.8-5c0.4-1.2,1.2-2.2,2.5-2.9c1.4-0.8,2.7-1,4.1-0.6c1.4,0.4,2.5,1.4,3.4,2.9c0.7,1.3,1.1,2.4,1.2,3.3
			s-0.2,1.8-0.7,2.7c-0.5,0.8-1.2,1.5-2,2c-1.4,0.8-2.8,1-4.1,0.6C-39.9,15.6-41.1,14.6-42.1,12.9z M-40.4,11.9
			c0.7,1.3,1.6,2.1,2.5,2.4c0.9,0.3,1.8,0.2,2.6-0.3c0.8-0.5,1.3-1.2,1.5-2.2c0.2-1-0.1-2.1-0.8-3.4c-0.7-1.2-1.5-2-2.4-2.3
			c-0.9-0.3-1.8-0.2-2.6,0.3c-0.8,0.5-1.4,1.2-1.5,2.1C-41.4,9.5-41.1,10.6-40.4,11.9z M-21.5,7.6l-0.8-1.4
			c-0.1,1.6-0.8,2.7-2.2,3.5c-0.6,0.3-1.2,0.5-1.8,0.6c-0.6,0.1-1.2,0-1.6-0.2c-0.4-0.2-0.8-0.5-1.2-0.9c-0.3-0.3-0.6-0.8-1-1.5
			l-3.5-6.1l1.7-1l3.2,5.5c0.5,0.9,0.9,1.4,1.1,1.7c0.4,0.4,0.8,0.6,1.3,0.7c0.5,0.1,1-0.1,1.5-0.3c0.5-0.3,0.9-0.7,1.2-1.2
			c0.3-0.5,0.4-1,0.3-1.6c-0.1-0.5-0.4-1.2-0.8-2.1l-3.1-5.3l1.7-1l5.7,9.9L-21.5,7.6z M-17.4,5.2l-5.7-9.9l1.5-0.9l0.8,1.4
			c0.1-1.5,0.8-2.7,2.2-3.5c0.6-0.3,1.2-0.6,1.8-0.6c0.6-0.1,1.2,0,1.6,0.2c0.4,0.2,0.9,0.5,1.2,0.9c0.2,0.3,0.6,0.8,1,1.6l3.5,6.1
			l-1.7,1l-3.5-6c-0.4-0.7-0.8-1.2-1.1-1.4c-0.3-0.3-0.7-0.4-1.2-0.4c-0.4,0-0.9,0.1-1.3,0.4c-0.7,0.4-1.2,1-1.4,1.7
			c-0.3,0.7,0,1.8,0.7,3l3.1,5.4L-17.4,5.2z M-4-4.5l1.1,1.3c-0.4,0.4-0.8,0.7-1.2,0.9c-0.6,0.3-1.1,0.5-1.6,0.5
			c-0.4,0-0.8-0.1-1.1-0.4C-7.1-2.3-7.6-2.9-8.2-4l-3.3-5.7l-1.2,0.7l-0.8-1.3l1.2-0.7l-1.4-2.4l1.1-2l2,3.5l1.7-1l0.8,1.3l-1.7,1
			l3.3,5.8C-6.2-4.3-6-4.1-5.8-4c0.1,0.1,0.3,0.2,0.5,0.2C-5.2-3.8-5-3.9-4.7-4C-4.5-4.1-4.3-4.3-4-4.5z"/>
	</g>
	<g transform="matrix(0.5,0,0,0.4854,362.8354,465.7799)">
		<g>
			<defs>
				<path id="SVGID_45_" d="M42.2,6.2L31.7,0v17.6l10.5,6.2V6.2z M12.3,13L0,5.8v12L12.3,25V13z M228,19.3l-3.9-2.3v0.8l3.9,2.3
					V19.3z"/>
			</defs>
			<clipPath id="SVGID_46_">
				<use xlink:href="#SVGID_45_"  style="overflow:visible;"/>
			</clipPath>
			<g style="clip-path:url(#SVGID_46_);enable-background:new    ;">
				
					<image style="overflow:visible;" width="228" height="25" xlink:href="287D950E.png"  transform="matrix(1 0 0 1 0 -1.735502e-05)">
				</image>
			</g>
		</g>
	</g>
	<g>
		<line class="st1" x1="332.5" y1="474.8" x2="330.4" y2="478.4"/>
	</g>
	<g transform="matrix(0.4993,0,0,0.4985,379.9292,388.5714)">
		<g>
			<defs>
				<path id="SVGID_47_" d="M35,137l-8,13.7v38.1l8-13.7V137z M182.1,166.8l8-13.7l-4.2-2.4l-8,13.7L182.1,166.8z M221.9,188.7
					l8-13.7l-3.2-1.8l-8,13.7L221.9,188.7z M17.8,160.2L8,154.6V178l9.8,5.6V160.2z M8,156.2l-8,13.7v21.8L8,178V156.2z M233,174.4
					l-8,13.7v3.9l8-13.7V174.4z M35.6,164.9l8-13.7l-8.6-4.9L27,160L35.6,164.9z M341,15.3l8-13.7L346.1,0l-8,13.7L341,15.3z"/>
			</defs>
			<clipPath id="SVGID_48_">
				<use xlink:href="#SVGID_47_"  style="overflow:visible;"/>
			</clipPath>
			<g style="clip-path:url(#SVGID_48_);enable-background:new    ;">
				
					<image style="overflow:visible;" width="349" height="192" xlink:href="287D9502.png"  transform="matrix(1 0 0 1 0 -1.708701e-05)">
				</image>
			</g>
		</g>
	</g>
	<g>
		<line class="st1" x1="340.9" y1="479.5" x2="338.7" y2="483.1"/>
	</g>
	<g transform="matrix(0.4982,0,0,0.4923,374.6763,458.104)">
		<g>
			<defs>
				<path id="SVGID_49_" d="M205,34.6l8-13.9l-3.9-2.2l-8,13.9L205,34.6z M37.6,11.3L28.4,6v38.6l9.2,5.3V11.3z M62.4,0l-8,13.9
					v45.7l8-13.9V0z M10.5,30.8L0,24.7v22.1l10.5,6.1V30.8z M232.9,49.8l-3.2-1.8v1.6l3.2,1.8V49.8z M46.2,25.7l-8.6-5v29.2l8.6,5
					V25.7z M70.1,35.2L62,49v15l8-13.9V35.2z M236,49.3l-3.1-1.8v3.9l3.1,1.8V49.3z"/>
			</defs>
			<clipPath id="SVGID_50_">
				<use xlink:href="#SVGID_49_"  style="overflow:visible;"/>
			</clipPath>
			<g style="clip-path:url(#SVGID_50_);enable-background:new    ;">
				
					<image style="overflow:visible;" width="236" height="64" xlink:href="287D9502.png"  transform="matrix(1 0 0 1 0 -1.776242e-05)">
				</image>
			</g>
		</g>
	</g>
	<g>
		<line class="st1" x1="348.3" y1="483.8" x2="344.1" y2="491"/>
		<line class="st1" x1="348.3" y1="483.8" x2="346.2" y2="487.4"/>
	</g>
	<g transform="matrix(0.4989,0,0,0.4995,397.6924,283.4058)">
		<g>
			<defs>
				<path id="SVGID_51_" d="M23.1,405.3l8-13.7l-7.3-4.1l-8,13.7v11.7v-14.8l-7.7-4.4v14.8v-45L0,358.8v45l8.1,4.6l7.7,4.4l7.3,4.1
					V405.3z M30,395.3l8-13.7l-6.9-3.9l-8,13.7V417l6.9,3.9V395.3z M36.6,397.5l8-13.7l-6.6-3.8l-8,13.7v27.2l6.6,3.8V397.5z
					 M334,16.3l8-13.7L337.3,0l-8,13.7L334,16.3z M51,386.6l-8,13.7l-6.3-3.6v28l6.3,3.6l8-13.7V386.6z M57,394.7l-8,13.7l-6-3.4
					v23.3l6,3.4l8-13.7V394.7z M62.8,416.7l-8,13.7v4.7l8-13.7V416.7z"/>
			</defs>
			<clipPath id="SVGID_52_">
				<use xlink:href="#SVGID_51_"  style="overflow:visible;"/>
			</clipPath>
			<g style="clip-path:url(#SVGID_52_);enable-background:new    ;">
				
					<image style="overflow:visible;" width="342" height="435" xlink:href="287D9506.png"  transform="matrix(1 0 0 1 0 -1.684556e-05)">
				</image>
			</g>
		</g>
	</g>
	<g transform="translate(340.3974,497.3159)">
		<path d="M-15.5,21h-1.8V9.8c-0.4,0.4-1,0.8-1.7,1.2c-0.7,0.4-1.3,0.7-1.9,0.9v-1.7c1-0.5,1.9-1,2.6-1.7c0.7-0.7,1.3-1.3,1.6-1.9
			h1.1V21z M-11,13.9c0-1.7,0.2-3,0.5-4.1c0.3-1,0.9-1.8,1.6-2.4c0.7-0.6,1.6-0.8,2.6-0.8c0.8,0,1.4,0.2,2,0.5
			c0.6,0.3,1.1,0.8,1.4,1.3s0.7,1.3,0.9,2.1c0.2,0.8,0.3,2,0.3,3.4c0,1.7-0.2,3-0.5,4.1c-0.3,1-0.9,1.8-1.5,2.4
			c-0.7,0.6-1.5,0.9-2.6,0.9c-1.4,0-2.5-0.5-3.3-1.5C-10.6,18.6-11,16.6-11,13.9z M-9.2,13.9c0,2.4,0.3,3.9,0.8,4.7
			c0.5,0.8,1.2,1.2,2,1.2c0.8,0,1.5-0.4,2-1.2s0.8-2.3,0.8-4.7c0-2.4-0.3-3.9-0.8-4.7c-0.6-0.8-1.2-1.2-2-1.2c-0.8,0-1.5,0.3-1.9,1
			C-8.9,10-9.2,11.6-9.2,13.9z"/>
	</g>
	<g transform="matrix(1,0,0,1,0,-0)">
		<path class="st2" d="M433.1,505.2v-2.3l4-6.8v2.3L433.1,505.2z"/>
	</g>
	<g>
		<line class="st1" x1="509.1" y1="498.4" x2="516.3" y2="502.5"/>
	</g>
	<g transform="matrix(0.4921,0,0,0.4943,422.135,494.5582)">
		<g>
			<defs>
				<path id="SVGID_53_" d="M5.9,7.7L0,4.3V9l5.9,3.3V7.7z M35.4,6.7l-8.1,13.8l-5.1-2.9v3.9v-4.7l-5.2-3l-5.4-3.1v4.7l5.4,3.1
					l5.2,3l5.1,2.9l8.1-13.8V6.7z M54,0l-8.1,13.8V35L54,21.2V0z"/>
			</defs>
			<clipPath id="SVGID_54_">
				<use xlink:href="#SVGID_53_"  style="overflow:visible;"/>
			</clipPath>
			<g style="clip-path:url(#SVGID_54_);enable-background:new    ;">
				
					<image style="overflow:visible;" width="54" height="35" xlink:href="287D9506.png"  transform="matrix(1 0 0 1 0 -1.745742e-05)">
				</image>
			</g>
		</g>
	</g>
	<g transform="translate(522.7197,506.1629)">
		<path d="M7.5,21H5.7V9.8c-0.4,0.4-1,0.8-1.7,1.2c-0.7,0.4-1.3,0.7-1.9,0.9v-1.7c1-0.5,1.9-1,2.6-1.7C5.5,7.9,6,7.2,6.3,6.6h1.1V21
			z M21.1,10.2l-1.8,0.1c-0.2-0.7-0.4-1.2-0.7-1.5c-0.5-0.5-1.1-0.8-1.8-0.8c-0.6,0-1.1,0.2-1.5,0.5c-0.6,0.4-1,1-1.3,1.8
			c-0.3,0.8-0.5,1.9-0.5,3.3c0.4-0.6,0.9-1.1,1.6-1.4c0.6-0.3,1.3-0.5,1.9-0.5c1.2,0,2.2,0.4,3,1.3c0.8,0.9,1.2,2,1.2,3.3
			c0,0.9-0.2,1.7-0.6,2.5c-0.4,0.8-0.9,1.4-1.6,1.8c-0.7,0.4-1.4,0.6-2.3,0.6c-1.5,0-2.7-0.5-3.6-1.6c-0.9-1.1-1.4-2.9-1.4-5.3
			c0-2.8,0.5-4.8,1.5-6c0.9-1.1,2.1-1.6,3.6-1.6c1.1,0,2,0.3,2.8,0.9S20.9,9.1,21.1,10.2z M13.9,16.4c0,0.6,0.1,1.2,0.4,1.7
			c0.3,0.6,0.6,1,1.1,1.3c0.5,0.3,0.9,0.4,1.4,0.4c0.8,0,1.4-0.3,1.9-0.9c0.5-0.6,0.8-1.4,0.8-2.4c0-1-0.3-1.8-0.8-2.3
			c-0.5-0.6-1.2-0.9-2-0.9c-0.8,0-1.5,0.3-2,0.9C14.2,14.7,13.9,15.4,13.9,16.4z M29.7,21h-1.8V9.8c-0.4,0.4-1,0.8-1.7,1.2
			c-0.7,0.4-1.3,0.7-1.9,0.9v-1.7c1-0.5,1.9-1,2.6-1.7c0.7-0.7,1.3-1.3,1.6-1.9h1.1V21z"/>
	</g>
	<g transform="matrix(0.4991,0,0,0.499,348.6117,327.7333)">
		<g>
			<defs>
				<path id="SVGID_55_" d="M393,16.2l8-13.7L396.6,0l-8,13.7L393,16.2z M15,283.1l8-13.7L8,261l-8,13.7L15,283.1z M192.5,348
					l-4.4-2.5v21l4.4,2.5V348z"/>
			</defs>
			<clipPath id="SVGID_56_">
				<use xlink:href="#SVGID_55_"  style="overflow:visible;"/>
			</clipPath>
			<g style="clip-path:url(#SVGID_56_);enable-background:new    ;">
				
					<image style="overflow:visible;" width="401" height="369" xlink:href="287D9502.png"  transform="matrix(1 0 0 1 0 -1.756698e-05)">
				</image>
			</g>
		</g>
	</g>
	<g>
		<line class="st1" x1="397.5" y1="511.7" x2="395.3" y2="515.3"/>
		<line class="st1" x1="397.5" y1="511.7" x2="393.2" y2="518.9"/>
	</g>
	<g transform="matrix(1,0,0,1,0,-0)">
		<path class="st3" d="M537.1,322l2.5,1.4l-4,6.8l-2.5-1.4L537.1,322z"/>
	</g>
	<g transform="translate(389.5283,525.2507)">
		<path d="M-12.9,19.3V21h-9.5c0-0.4,0.1-0.8,0.2-1.2c0.2-0.6,0.6-1.3,1.2-1.9c0.5-0.6,1.3-1.3,2.3-2.2c1.6-1.3,2.6-2.3,3.2-3
			c0.5-0.7,0.8-1.5,0.8-2.1c0-0.7-0.3-1.3-0.8-1.8c-0.5-0.5-1.2-0.7-2-0.7c-0.8,0-1.5,0.3-2,0.8c-0.5,0.5-0.8,1.2-0.8,2.1l-1.8-0.2
			c0.1-1.3,0.6-2.4,1.4-3.1c0.8-0.7,1.9-1.1,3.3-1.1c1.4,0,2.4,0.4,3.3,1.1c0.8,0.8,1.2,1.7,1.2,2.8c0,0.6-0.1,1.1-0.4,1.7
			c-0.2,0.6-0.6,1.1-1.2,1.8c-0.5,0.6-1.4,1.5-2.7,2.5c-1.1,0.9-1.7,1.5-2,1.8c-0.3,0.3-0.5,0.6-0.7,1H-12.9z M-11,13.9
			c0-1.7,0.2-3,0.5-4.1c0.3-1,0.9-1.8,1.6-2.4c0.7-0.6,1.6-0.8,2.6-0.8c0.8,0,1.4,0.2,2,0.5c0.6,0.3,1.1,0.8,1.4,1.3
			s0.7,1.3,0.9,2.1s0.3,2,0.3,3.4c0,1.7-0.2,3-0.5,4.1c-0.3,1-0.9,1.8-1.5,2.4c-0.7,0.6-1.5,0.9-2.6,0.9c-1.4,0-2.5-0.5-3.3-1.5
			C-10.6,18.6-11,16.6-11,13.9z M-9.2,13.9c0,2.4,0.3,3.9,0.8,4.7c0.5,0.8,1.2,1.2,2,1.2c0.8,0,1.5-0.4,2-1.2s0.8-2.3,0.8-4.7
			c0-2.4-0.3-3.9-0.8-4.7c-0.6-0.8-1.2-1.2-2-1.2c-0.8,0-1.5,0.3-1.9,1C-8.9,10-9.2,11.6-9.2,13.9z"/>
	</g>
	<g transform="matrix(1,0,0,1,0,-0)">
		<path class="st3" d="M507.8,360.7l2.7,1.5l-4,6.8l-2.7-1.5L507.8,360.7z"/>
	</g>
	<g>
		<line class="st1" x1="426.2" y1="528.1" x2="424.1" y2="531.7"/>
		<line class="st1" x1="426.2" y1="528.1" x2="422" y2="535.3"/>
	</g>
	<g transform="matrix(0.4906,0,0,0.4989,490.6989,307.2398)">
		<g>
			<defs>
				<path id="SVGID_57_" d="M44.8,17.6L53,3.9L46,0l-8.2,13.7L44.8,17.6z M3.2,351l8.2-13.7l-3.2-1.8L0,349.2L3.2,351z"/>
			</defs>
			<clipPath id="SVGID_58_">
				<use xlink:href="#SVGID_57_"  style="overflow:visible;"/>
			</clipPath>
			<g style="clip-path:url(#SVGID_58_);enable-background:new    ;">
				
					<image style="overflow:visible;" width="53" height="351" xlink:href="287D9502.png"  transform="matrix(1 0 0 1 0 -1.708114e-05)">
				</image>
			</g>
		</g>
	</g>
	<g>
		<line class="st1" x1="446.6" y1="539.7" x2="444.5" y2="543.3"/>
	</g>
	<g transform="matrix(1,0,0,1,0,-0)">
		<path class="st3" d="M521.1,424.4l1.6,0.9l-4,6.8l-1.6-0.9L521.1,424.4z"/>
	</g>
	<g transform="translate(418.268,541.5915)">
		<path d="M-22.2,17.2l1.8-0.2c0.2,1,0.6,1.7,1,2.2c0.5,0.4,1.1,0.7,1.8,0.7c0.8,0,1.5-0.3,2.1-0.9s0.9-1.3,0.9-2.1
			c0-0.8-0.3-1.5-0.8-2c-0.5-0.5-1.2-0.8-2-0.8c-0.3,0-0.7,0.1-1.2,0.2l0.2-1.5c0.1,0,0.2,0,0.3,0c0.8,0,1.4-0.2,2-0.6
			c0.6-0.4,0.9-1,0.9-1.8c0-0.6-0.2-1.2-0.7-1.6c-0.4-0.4-1-0.6-1.7-0.6c-0.7,0-1.2,0.2-1.7,0.6c-0.5,0.4-0.7,1.1-0.9,1.9l-1.8-0.3
			c0.2-1.2,0.7-2.1,1.5-2.7c0.8-0.6,1.7-1,2.8-1c0.8,0,1.5,0.2,2.2,0.5c0.7,0.3,1.2,0.8,1.5,1.4c0.3,0.6,0.5,1.2,0.5,1.8
			c0,0.6-0.2,1.2-0.5,1.7c-0.3,0.5-0.8,0.9-1.5,1.2c0.8,0.2,1.5,0.6,2,1.2c0.5,0.6,0.7,1.4,0.7,2.3c0,1.3-0.5,2.3-1.4,3.2
			c-0.9,0.9-2.1,1.3-3.5,1.3c-1.3,0-2.3-0.4-3.1-1.1S-22,18.4-22.2,17.2z M-11,13.9c0-1.7,0.2-3,0.5-4.1c0.3-1,0.9-1.8,1.6-2.4
			c0.7-0.6,1.6-0.8,2.6-0.8c0.8,0,1.4,0.2,2,0.5c0.6,0.3,1.1,0.8,1.4,1.3C-2.5,9-2.3,9.7-2,10.6c0.2,0.8,0.3,2,0.3,3.4
			c0,1.7-0.2,3-0.5,4.1c-0.3,1-0.9,1.8-1.5,2.4c-0.7,0.6-1.5,0.9-2.6,0.9c-1.4,0-2.5-0.5-3.3-1.5C-10.6,18.6-11,16.6-11,13.9z
			 M-9.2,13.9c0,2.4,0.3,3.9,0.8,4.7c0.5,0.8,1.2,1.2,2,1.2c0.8,0,1.5-0.4,2-1.2s0.8-2.3,0.8-4.7c0-2.4-0.3-3.9-0.8-4.7
			c-0.6-0.8-1.2-1.2-2-1.2c-0.8,0-1.5,0.3-1.9,1C-8.9,10-9.2,11.6-9.2,13.9z"/>
	</g>
	<g transform="matrix(1,0,0,1,0,-0)">
		<path d="M473.7,349.6l4.1,2.3l-4,6.8l-4.1-2.3L473.7,349.6z"/>
	</g>
	<g>
		<line class="st4" x1="462.4" y1="548.7" x2="460.3" y2="552.3"/>
	</g>
	<g transform="translate(497.7117,548.8199)">
		<path d="M7.5,21H5.7V9.8c-0.4,0.4-1,0.8-1.7,1.2c-0.7,0.4-1.3,0.7-1.9,0.9v-1.7c1-0.5,1.9-1,2.6-1.7C5.5,7.9,6,7.2,6.3,6.6h1.1V21
			z M18.6,21h-1.8V9.8c-0.4,0.4-1,0.8-1.7,1.2c-0.7,0.4-1.3,0.7-1.9,0.9v-1.7c1-0.5,1.9-1,2.6-1.7c0.7-0.7,1.3-1.3,1.6-1.9h1.1V21z
			 M32.3,19.3V21h-9.5c0-0.4,0.1-0.8,0.2-1.2c0.2-0.6,0.6-1.3,1.2-1.9c0.5-0.6,1.3-1.3,2.3-2.2c1.6-1.3,2.6-2.3,3.2-3
			c0.5-0.7,0.8-1.5,0.8-2.1c0-0.7-0.3-1.3-0.8-1.8c-0.5-0.5-1.2-0.7-2-0.7c-0.8,0-1.5,0.3-2,0.8C25.3,9.4,25,10.1,25,11l-1.8-0.2
			c0.1-1.3,0.6-2.4,1.4-3.1c0.8-0.7,1.9-1.1,3.3-1.1c1.4,0,2.4,0.4,3.3,1.1c0.8,0.8,1.2,1.7,1.2,2.8c0,0.6-0.1,1.1-0.4,1.7
			c-0.2,0.6-0.6,1.1-1.2,1.8c-0.5,0.6-1.4,1.5-2.7,2.5c-1.1,0.9-1.7,1.5-2,1.8c-0.3,0.3-0.5,0.6-0.7,1H32.3z"/>
	</g>
	<g transform="matrix(0.4989,0,0,0.4998,322.7576,319.5097)">
		<g>
			<defs>
				<path id="SVGID_59_" d="M383,219l8-13.7l-3.4-1.9l-8,13.7L383,219z M40.9,36.9l8-13.7L8,0L0,13.7L40.9,36.9z M276.5,175.2
					l8-13.7l-6.9-3.9l-8,13.7L276.5,175.2z"/>
			</defs>
			<clipPath id="SVGID_60_">
				<use xlink:href="#SVGID_59_"  style="overflow:visible;"/>
			</clipPath>
			<g style="clip-path:url(#SVGID_60_);enable-background:new    ;">
				
					<image style="overflow:visible;" width="391" height="219" xlink:href="287D9525.png"  transform="matrix(1 0 0 1 0 -1.812894e-05)">
				</image>
			</g>
		</g>
	</g>
	<g transform="matrix(0.4985,0,0,0.4994,433.0613,455.7708)">
		<g>
			<defs>
				<path id="SVGID_61_" d="M58,16.4l8-13.7L61.2,0l-8,13.7L58,16.4z M5,98l8-13.7l-5-2.8L0,95.2L5,98z"/>
			</defs>
			<clipPath id="SVGID_62_">
				<use xlink:href="#SVGID_61_"  style="overflow:visible;"/>
			</clipPath>
			<g style="clip-path:url(#SVGID_62_);enable-background:new    ;">
				
					<image style="overflow:visible;" width="66" height="98" xlink:href="287D9523.png"  transform="matrix(1 0 0 1 0 -1.734563e-05)">
				</image>
			</g>
		</g>
	</g>
	<g transform="translate(454.4758,562.1785)">
		<path d="M-22.2,17.2l1.8-0.2c0.1,0.9,0.5,1.6,1,2s1.1,0.7,1.8,0.7c0.8,0,1.6-0.3,2.1-1c0.6-0.6,0.9-1.5,0.9-2.5
			c0-1-0.3-1.8-0.8-2.4c-0.6-0.6-1.3-0.9-2.2-0.9c-0.6,0-1.1,0.1-1.5,0.4c-0.5,0.3-0.8,0.6-1.1,1l-1.7-0.2l1.4-7.4h7.1v1.7h-5.7
			l-0.8,3.8c0.9-0.6,1.8-0.9,2.7-0.9c1.3,0,2.3,0.4,3.2,1.3c0.9,0.9,1.3,2,1.3,3.3c0,1.3-0.4,2.4-1.1,3.4c-0.9,1.2-2.2,1.8-3.8,1.8
			c-1.3,0-2.4-0.4-3.2-1.1C-21.6,19.4-22.1,18.5-22.2,17.2z M-11,13.9c0-1.7,0.2-3,0.5-4.1c0.3-1,0.9-1.8,1.6-2.4
			c0.7-0.6,1.6-0.8,2.6-0.8c0.8,0,1.4,0.2,2,0.5c0.6,0.3,1.1,0.8,1.4,1.3s0.7,1.3,0.9,2.1s0.3,2,0.3,3.4c0,1.7-0.2,3-0.5,4.1
			c-0.3,1-0.9,1.8-1.5,2.4c-0.7,0.6-1.5,0.9-2.6,0.9c-1.4,0-2.5-0.5-3.2-1.5C-10.6,18.6-11,16.6-11,13.9z M-9.2,13.9
			c0,2.4,0.3,3.9,0.8,4.7c0.5,0.8,1.2,1.2,2,1.2c0.8,0,1.5-0.4,2-1.2s0.8-2.3,0.8-4.7c0-2.4-0.3-3.9-0.8-4.7c-0.6-0.8-1.2-1.2-2-1.2
			c-0.8,0-1.5,0.3-1.9,1C-8.9,10-9.2,11.6-9.2,13.9z"/>
	</g>
	<g transform="matrix(0.4997,0,0,0.4999,242.0014,178.9408)">
		<g>
			<defs>
				<path id="SVGID_63_" d="M366.2,638.9l8-13.7l-5.8-3.3l-8,13.7L366.2,638.9z M532.2,154.2l8-13.7l-10.5-6l-8,13.7L532.2,154.2z
					 M210.4,302.8l8-13.7L177.6,266l-8,13.7L210.4,302.8z M385.2,631.4l-5.4-3l-8,13.7l5.4,3l5.2,2.9l8-13.7L385.2,631.4z
					 M548.9,389.1l8-13.7l-4.7-2.6l-8,13.7L548.9,389.1z M449.3,574.5l8-13.7l-4.5-2.6l-8,13.7L449.3,574.5z M479.4,348.1l8-13.7
					l-7.7-4.4l-8,13.7L479.4,348.1z M550.5,502.3l8-13.7l-3.3-1.9l-8,13.7L550.5,502.3z M615.8,71.2l7.5-12.8l-8.6-4.9l-7.5,12.8
					L615.8,71.2z M346.1,137.1l8-13.7l-31.6-18l-8,13.7L346.1,137.1z M544.2,384.9l8-13.7l-4.8-2.7l-8,13.7L544.2,384.9z
					 M670.5,102.3l7.5-12.8l-5.8-3.3L664.7,99L670.5,102.3z M250.4,230.7l8-13.7l-40.8-23.2l-8,13.7L250.4,230.7z M476.2,250.5
					l8-13.7l-10.5-6l-8,13.7L476.2,250.5z M557.7,391.8l8-13.7l-4.4-2.5l-8,13.7L557.7,391.8z M435.3,563.5l8-13.7l-5-2.8l-8,13.7
					L435.3,563.5z M582.5,292.7l8-13.7l-5.2-2.9l-8,13.7L582.5,292.7z M523.9,371l8-13.7l-5.6-3.2l-8,13.7L523.9,371z M236.3,558.8
					l8-13.7l-14.9-8.5l-8,13.7L236.3,558.8z M450.5,459l8-13.7l-6.3-3.6l-8,13.7L450.5,459z M447.1,343.2l8-13.7l-9.2-5.2l-8,13.7
					L447.1,343.2z M254.1,586.4l8-13.7l-12.3-7l-8,13.7L254.1,586.4z M430.4,558.3l8-13.7l-5.2-2.9l-8,13.7L430.4,558.3z
					 M495.1,256.6l8-13.7l-9.2-5.2l-8,13.7L495.1,256.6z M521.7,140.4l8-13.7l-11.4-6.5l-8,13.7L521.7,140.4z M539.4,375.9l8-13.7
					l-5-2.8l-8,13.7L539.4,375.9z M638.8,77.3l7.5-12.8l-7.3-4.1l-7.5,12.8L638.8,77.3z M307.9,257.9l8-13.7l-25.9-14.7l-8,13.7
					L307.9,257.9z M511.8,264.6l8-13.7l-8.1-4.6l-8,13.7L511.8,264.6z M327.3,606.7l8-13.7l-7.7-4.4l-8,13.7L327.3,606.7z
					 M601.4,298.1l8-13.7l-4.5-2.6l-8,13.7L601.4,298.1z M549.7,248.1l8-13.7l-6.9-3.9l-8,13.7L549.7,248.1z M445.6,431l8-13.7
					l-6.9-3.9l-8,13.7L445.6,431z M540.5,486.5l8-13.7l-3.5-2l-8,13.7L540.5,486.5z M430.7,440.8l8-13.7l-7.3-4.1l-8,13.7
					L430.7,440.8z M658.1,217.2l8-13.7l-4.2-2.4l-8,13.7L658.1,217.2z M471.8,332.8l8-13.7l-8.1-4.6l-8,13.7L471.8,332.8z
					 M377.6,390.1l8-13.7l-11.4-6.5l-8,13.7L377.6,390.1z M559.7,159l8-13.7l-8.6-4.9l-8,13.7L559.7,159z M213.3,556.2l8-13.7
					l-16.7-9.5l-8,13.7L213.3,556.2z M407.6,426.1l8-13.7l-8.6-4.9l-8,13.7L407.6,426.1z M221.3,541.8l8-13.7l-16.7-9.5l-8,13.7
					L221.3,541.8z M607.2,54.6l7.5-12.8l-9.2-5.2L598,49.4L607.2,54.6z M658.7,83.9l7.5-12.8l-6.3-3.6l-7.5,12.8L658.7,83.9z
					 M492.2,361.1l8-13.7l-6.6-3.8l-8,13.7L492.2,361.1z M636.6,314.2l8-13.7l-3.5-2l-8,13.7L636.6,314.2z M506.5,350.3l8-13.7
					l-6.3-3.6l-8,13.7L506.5,350.3z M470.3,441.2l8-13.7l-5.8-3.3l-8,13.7L470.3,441.2z M585,395.6l8-13.7l-3.6-2l-8,13.7L585,395.6
					z M598,46.3l7.5-12.8l-9.8-5.6l-7.5,12.8L598,46.3z M570.1,386.4l8-13.7l-4-2.3l-8,13.7L570.1,386.4z M568.6,497.9l8-13.7
					l-2.9-1.6l-8,13.7L568.6,497.9z M588.3,40l7.5-12.8l-10.5-6L577.7,34L588.3,40z M276,588.7l8-13.7l-10.5-6l-8,13.7L276,588.7z
					 M506,104l8-13.7l-13.5-7.7l-8,13.7L506,104z M577.3,276.6l8-13.7l-5.4-3l-8,13.7L577.3,276.6z M273.5,567.5l8-13.7l-11.4-6.5
					l-8,13.7L273.5,567.5z M405.6,644.9l8-13.7l-4.4-2.5l-8,13.7L405.6,644.9z M389.6,522.7l8-13.7l-6.9-3.9l-8,13.7L389.6,522.7z
					 M500.2,343.6l8-13.7l-6.6-3.8l-8,13.7L500.2,343.6z M519.7,223.3l8-13.7l-8.6-4.9l-8,13.7L519.7,223.3z M375.4,513.9l8-13.7
					l-7.7-4.4l-8,13.7L375.4,513.9z M646.6,316l8-13.7l-3.3-1.9l-8,13.7L646.6,316z M360.5,617l8-13.7l-6-3.4l-8,13.7L360.5,617z
					 M566.4,268.1l8-13.7l-5.8-3.3l-8,13.7L566.4,268.1z M356,162.8l8-13.7l-25.9-14.7l-8,13.7L356,162.8z M425.2,540.7l8-13.7
					l-5.4-3l-8,13.7L425.2,540.7z M284.3,457.5l8-13.7l-14.9-8.5l-8,13.7L284.3,457.5z M408.5,530.4l8-13.7l-6-3.4l-8,13.7
					L408.5,530.4z M318.2,458.5l8-13.7l-12.3-7l-8,13.7L318.2,458.5z M389.9,406.7l8-13.7l-9.8-5.6l-8,13.7L389.9,406.7z
					 M496.2,448.2l8-13.7l-4.8-2.7l-8,13.7L496.2,448.2z M354.4,608.9l8-13.7l-6.3-3.6l-8,13.7L354.4,608.9z M566.4,19.8L573.9,7
					l-12.3-7l-7.5,12.8L566.4,19.8z M423.7,405.4l8-13.7l-8.1-4.6l-8,13.7L423.7,405.4z M484.5,103l8-13.7l-14.9-8.5l-8,13.7
					L484.5,103z M292.3,440.7l8-13.7l-14.9-8.5l-8,13.7L292.3,440.7z M462.3,202.7l-12.3-7l-8,13.7l12.3,7l11.4,6.5l8-13.7
					L462.3,202.7z M57.5,452.1l8-13.7L8,405.8l-8,13.7L57.5,452.1z M631.6,56.9l7.5-12.8l-7.7-4.4l-7.5,12.8L631.6,56.9z
					 M348.8,265.6l8-13.7l-18.9-10.8l-8,13.7L348.8,265.6z M492.5,87l8-13.7l-14.9-8.5l-8,13.7L492.5,87z M359.6,496.4l8-13.7
					l-8.6-4.9l-8,13.7L359.6,496.4z M608.7,172.8l8-13.7l-6-3.4l-8,13.7L608.7,172.8z M460.8,66.7l8-13.7l-18.9-10.8l-8,13.7
					L460.8,66.7z"/>
			</defs>
			<clipPath id="SVGID_64_">
				<use xlink:href="#SVGID_63_"  style="overflow:visible;"/>
			</clipPath>
			<g style="clip-path:url(#SVGID_64_);enable-background:new    ;">
				
					<image style="overflow:visible;" width="678" height="648" xlink:href="287D951D.png"  transform="matrix(1 0 0 1 0 -1.750800e-05)">
				</image>
			</g>
		</g>
	</g>
	<g>
		<line class="st1" x1="185.1" y1="371.6" x2="177.9" y2="367.5"/>
	</g>
	<g transform="matrix(0.4997,0,0,0.4998,366.8367,103.0578)">
		<g>
			<defs>
				<path id="SVGID_65_" d="M376,446l8-13.7l-3.8-2.2l-8,13.7L376,446z M188.1,464.3l8-13.7l-9.8-5.6l-8,13.7L188.1,464.3z
					 M339.9,308.5l8-13.7l-6.9-3.9l-8,13.7L339.9,308.5z M348.7,539l8-13.7l-3.3-1.9l-8,13.7L348.7,539z M236.6,585.2l8-13.7
					l-5.2-2.9l-8,13.7L236.6,585.2z M53.1,721.5l8-13.7l-9.2-5.2l-8,13.7L53.1,721.5z M82.6,512.7l8-13.7l-14.9-8.5l-8,13.7
					L82.6,512.7z M259.9,597.7l8-13.7l-4.4-2.5l-8,13.7L259.9,597.7z M101.2,634.1l8-13.7l-9.2-5.2l-8,13.7L101.2,634.1z
					 M276.1,604.6l8-13.7l-3.9-2.2l-8,13.7L276.1,604.6z M82.2,621.8l8-13.7l-10.5-6l-8,13.7L82.2,621.8z M364,542.2l8-13.7
					l-2.9-1.7l-8,13.7L364,542.2z M208.2,319.2l8-13.7l-13.5-7.7l-8,13.7L208.2,319.2z M69.8,724l8-13.7l-8.1-4.6l-8,13.7L69.8,724z
					 M178.3,448.6l8-13.7l-10.5-6l-8,13.7L178.3,448.6z M231.9,329.5l8-13.7l-11.4-6.5l-8,13.7L231.9,329.5z M19.6,576.1l8-13.7
					l-16.7-9.5l-8,13.7L19.6,576.1z M12.3,683.5l8-13.7l-12.3-7l-8,13.7L12.3,683.5z M112,46.3l8-13.7L62.5,0l-8,13.7L112,46.3z
					 M130.6,414.5l8-13.7l-14.9-8.5l-8,13.7L130.6,414.5z"/>
			</defs>
			<clipPath id="SVGID_66_">
				<use xlink:href="#SVGID_65_"  style="overflow:visible;"/>
			</clipPath>
			<g style="clip-path:url(#SVGID_66_);enable-background:new    ;">
				
					<image style="overflow:visible;" width="384" height="724" xlink:href="287D951F.png"  transform="matrix(1 0 0 1 0 -1.672213e-05)">
				</image>
			</g>
		</g>
	</g>
	<g transform="translate(130.4387,361.897) rotate(-90)">
		<path d="M-64.8-5v-15.8h2.1l8.3,12.4v-12.4h2V-5h-2.1l-8.3-12.4V-5H-64.8z M-41.3-8.7l2,0.3c-0.3,1.2-0.9,2.1-1.8,2.7
			c-0.8,0.6-1.9,1-3.3,1c-1.7,0-3-0.5-4-1.5c-1-1-1.5-2.5-1.5-4.3c0-1.9,0.5-3.4,1.5-4.5c1-1.1,2.3-1.6,3.9-1.6
			c1.5,0,2.8,0.5,3.7,1.6c1,1,1.5,2.5,1.5,4.4c0,0.1,0,0.3,0,0.5h-8.5c0.1,1.3,0.4,2.2,1.1,2.9c0.6,0.7,1.4,1,2.4,1
			c0.7,0,1.3-0.2,1.8-0.6S-41.6-7.9-41.3-8.7z M-47.7-11.8h6.4c-0.1-1-0.3-1.7-0.7-2.2c-0.6-0.7-1.4-1.1-2.4-1.1
			c-0.9,0-1.6,0.3-2.2,0.9C-47.3-13.6-47.6-12.8-47.7-11.8z M-29.5-5v-1.7c-0.9,1.3-2.1,1.9-3.6,1.9c-0.7,0-1.3-0.1-1.9-0.4
			s-1-0.6-1.3-1c-0.3-0.4-0.5-0.9-0.6-1.4c-0.1-0.4-0.1-1-0.1-1.8v-7.1h1.9v6.3c0,1,0,1.7,0.1,2c0.1,0.5,0.4,0.9,0.8,1.2
			c0.4,0.3,0.9,0.4,1.5,0.4c0.6,0,1.1-0.1,1.6-0.4c0.5-0.3,0.9-0.7,1.1-1.2c0.2-0.5,0.3-1.3,0.3-2.2v-6.1h1.9V-5H-29.5z M-24.7-5
			v-11.4h1.8v1.7c0.4-0.8,0.8-1.3,1.2-1.6c0.4-0.3,0.8-0.4,1.2-0.4c0.7,0,1.3,0.2,2,0.6l-0.7,1.8c-0.5-0.3-1-0.4-1.4-0.4
			c-0.4,0-0.8,0.1-1.1,0.4c-0.3,0.3-0.6,0.6-0.7,1.1c-0.2,0.7-0.3,1.4-0.3,2.3v6H-24.7z M-18.1-10.7c0-2.1,0.6-3.7,1.8-4.7
			c1-0.8,2.2-1.3,3.6-1.3c1.6,0,2.9,0.5,3.9,1.5c1,1,1.5,2.5,1.5,4.3c0,1.5-0.2,2.6-0.7,3.5c-0.4,0.8-1.1,1.5-1.9,2
			c-0.8,0.5-1.8,0.7-2.8,0.7c-1.6,0-2.9-0.5-3.9-1.5C-17.6-7.3-18.1-8.8-18.1-10.7z M-16.1-10.7c0,1.5,0.3,2.6,1,3.3
			c0.6,0.7,1.4,1.1,2.4,1.1c1,0,1.8-0.4,2.4-1.1c0.6-0.7,1-1.8,1-3.3c0-1.4-0.3-2.5-1-3.2c-0.6-0.7-1.4-1.1-2.4-1.1
			c-1,0-1.8,0.4-2.4,1.1C-15.8-13.3-16.1-12.2-16.1-10.7z M-5.1-5v-11.4h1.7v1.6c0.8-1.3,2.1-1.9,3.6-1.9c0.7,0,1.3,0.1,1.9,0.4
			c0.6,0.3,1,0.6,1.3,1c0.3,0.4,0.5,0.9,0.6,1.4c0.1,0.4,0.1,1,0.1,1.9v7H2.2v-6.9c0-0.8-0.1-1.4-0.2-1.8c-0.1-0.4-0.4-0.7-0.8-0.9
			C0.8-14.9,0.3-15-0.2-15c-0.8,0-1.5,0.3-2.1,0.8c-0.6,0.5-0.9,1.5-0.9,3V-5H-5.1z M20.7-9.2l1.9,0.2c-0.2,1.3-0.7,2.3-1.6,3.1
			c-0.9,0.7-1.9,1.1-3.2,1.1c-1.6,0-2.8-0.5-3.8-1.5c-0.9-1-1.4-2.5-1.4-4.4c0-1.2,0.2-2.3,0.6-3.2c0.4-0.9,1-1.6,1.9-2.1
			c0.8-0.5,1.7-0.7,2.7-0.7c1.2,0,2.3,0.3,3,0.9c0.8,0.6,1.3,1.5,1.5,2.7l-1.9,0.3c-0.2-0.8-0.5-1.3-1-1.7c-0.5-0.4-1-0.6-1.6-0.6
			c-1,0-1.8,0.3-2.4,1c-0.6,0.7-0.9,1.8-0.9,3.3c0,1.5,0.3,2.6,0.9,3.3c0.6,0.7,1.4,1,2.3,1c0.8,0,1.4-0.2,1.9-0.7
			C20.2-7.5,20.5-8.2,20.7-9.2z M23.5-10.7c0-2.1,0.6-3.7,1.8-4.7c1-0.8,2.2-1.3,3.6-1.3c1.6,0,2.9,0.5,3.9,1.5c1,1,1.5,2.5,1.5,4.3
			c0,1.5-0.2,2.6-0.7,3.5c-0.4,0.8-1.1,1.5-1.9,2c-0.8,0.5-1.8,0.7-2.8,0.7c-1.6,0-2.9-0.5-3.9-1.5C24-7.3,23.5-8.8,23.5-10.7z
			 M25.5-10.7c0,1.5,0.3,2.6,1,3.3c0.6,0.7,1.4,1.1,2.4,1.1c1,0,1.8-0.4,2.4-1.1c0.6-0.7,1-1.8,1-3.3c0-1.4-0.3-2.5-1-3.2
			c-0.6-0.7-1.4-1.1-2.4-1.1c-1,0-1.8,0.4-2.4,1.1C25.8-13.3,25.5-12.2,25.5-10.7z M43.9-5v-1.7c-0.9,1.3-2.1,1.9-3.6,1.9
			c-0.7,0-1.3-0.1-1.9-0.4c-0.6-0.3-1-0.6-1.3-1c-0.3-0.4-0.5-0.9-0.6-1.4c-0.1-0.4-0.1-1-0.1-1.8v-7.1h1.9v6.3c0,1,0,1.7,0.1,2
			c0.1,0.5,0.4,0.9,0.8,1.2c0.4,0.3,0.9,0.4,1.5,0.4c0.6,0,1.1-0.1,1.6-0.4c0.5-0.3,0.9-0.7,1.1-1.2c0.2-0.5,0.3-1.3,0.3-2.2v-6.1
			h1.9V-5H43.9z M48.7-5v-11.4h1.7v1.6c0.8-1.3,2.1-1.9,3.6-1.9c0.7,0,1.3,0.1,1.9,0.4c0.6,0.3,1,0.6,1.3,1c0.3,0.4,0.5,0.9,0.6,1.4
			c0.1,0.4,0.1,1,0.1,1.9v7H56v-6.9c0-0.8-0.1-1.4-0.2-1.8c-0.1-0.4-0.4-0.7-0.8-0.9c-0.4-0.2-0.8-0.3-1.4-0.3
			c-0.8,0-1.5,0.3-2.1,0.8c-0.6,0.5-0.9,1.5-0.9,3V-5H48.7z M65.1-6.7L65.4-5c-0.5,0.1-1,0.2-1.5,0.2c-0.7,0-1.2-0.1-1.6-0.3
			s-0.7-0.5-0.8-0.9s-0.2-1.1-0.2-2.3v-6.6h-1.4v-1.5h1.4v-2.8l1.9-1.2v4h1.9v1.5h-1.9v6.7c0,0.6,0,0.9,0.1,1.1
			c0.1,0.2,0.2,0.3,0.3,0.4c0.2,0.1,0.4,0.1,0.7,0.1C64.5-6.7,64.8-6.7,65.1-6.7z"/>
	</g>
	<g transform="matrix(0.4989,0,0,0.5,298.75,138.0459)">
		<g>
			<defs>
				<path id="SVGID_67_" d="M283.7,240.6l8-13.7l-19-10.8l-8,13.7L283.7,240.6z M320.9,130.4l8-13.7L307,104.4l-8,13.7L320.9,130.4z
					 M245.1,439.4l8-13.7l-12.4-7l-8,13.7L245.1,439.4z M377,27.9l7.5-12.8L362.6,2.7l-7.5,12.8L377,27.9z M388,53.1l8-13.7
					l-19-10.8l-8,13.7L388,53.1z M168.5,393.7l8-13.7l-21.9-12.4l-8,13.7L168.5,393.7z M120.4,477.9l8-13.7l-21.9-12.4l-8,13.7
					L120.4,477.9z M347.1,28.3l8-13.7L329.2,0l-8,13.7L347.1,28.3z M83.2,585l8-13.7l-19-10.8l-8,13.7L83.2,585z M116,561.8l8-13.7
					l-16.7-9.5l-8,13.7L116,561.8z M72.6,442.3l8-13.7l-31.7-18l-8,13.7L72.6,442.3z M40.9,423.5l8-13.7L8,386.6l-8,13.7L40.9,423.5
					z M106.5,437.9l8-13.7l-25.9-14.7l-8,13.7L106.5,437.9z M273.1,84.7l8-13.7l-31.7-18l-8,13.7L273.1,84.7z M80.6,422.4l8-13.7
					l-31.7-18l-8,13.7L80.6,422.4z M315.4,240.8l8-13.7l-15-8.5l-8,13.7L315.4,240.8z"/>
			</defs>
			<clipPath id="SVGID_68_">
				<use xlink:href="#SVGID_67_"  style="overflow:visible;"/>
			</clipPath>
			<g style="clip-path:url(#SVGID_68_);enable-background:new    ;">
				
					<image style="overflow:visible;" width="396" height="585" xlink:href="287D951D.png"  transform="matrix(1 0 0 1 0 -1.642638e-05)">
				</image>
			</g>
		</g>
	</g>
	<g>
		<line class="st1" x1="185.1" y1="352.2" x2="177.9" y2="348.1"/>
	</g>
	<g transform="matrix(0.4999,0,0,0.4996,306.9489,100.1981)">
		<g>
			<defs>
				<path id="SVGID_69_" d="M280.5,36l7.5-12.8L247.2,0l-7.5,12.8L280.5,36z M47.7,631l8-13.7l-21.9-12.4l-8,13.7L47.7,631z
					 M25.9,599.9l8-13.7L8,571.6l-8,13.7L25.9,599.9z M290,134.4l8-13.7L272.1,106l-8,13.7L290,134.4z"/>
			</defs>
			<clipPath id="SVGID_70_">
				<use xlink:href="#SVGID_69_"  style="overflow:visible;"/>
			</clipPath>
			<g style="clip-path:url(#SVGID_70_);enable-background:new    ;">
				
					<image style="overflow:visible;" width="298" height="631" xlink:href="287D9563.png"  transform="matrix(1 0 0 1 0 -1.685685e-05)">
				</image>
			</g>
		</g>
	</g>
	<g transform="translate(171.4879,325.0518)">
		<path d="M-26.5,8h-1.8V-3.2c-0.4,0.4-1,0.8-1.7,1.2c-0.7,0.4-1.3,0.7-1.9,0.9v-1.7c1-0.5,1.9-1,2.6-1.7c0.7-0.7,1.3-1.3,1.6-1.9
			h1.1V8z M-22,4.2l1.8-0.2c0.1,0.9,0.5,1.6,1,2c0.5,0.5,1.1,0.7,1.8,0.7c0.8,0,1.6-0.3,2.1-1c0.6-0.6,0.9-1.5,0.9-2.5
			c0-1-0.3-1.8-0.8-2.4c-0.6-0.6-1.3-0.9-2.2-0.9c-0.6,0-1.1,0.1-1.5,0.4s-0.8,0.6-1.1,1l-1.7-0.2l1.4-7.4h7.1v1.7h-5.7l-0.8,3.8
			c0.9-0.6,1.8-0.9,2.7-0.9c1.3,0,2.3,0.4,3.2,1.3s1.3,2,1.3,3.3c0,1.3-0.4,2.4-1.1,3.4c-0.9,1.2-2.2,1.7-3.8,1.7
			c-1.3,0-2.4-0.4-3.2-1.1C-21.5,6.4-21.9,5.5-22,4.2z M-10.9,0.9c0-1.7,0.2-3,0.5-4.1c0.3-1,0.9-1.8,1.6-2.4
			c0.7-0.6,1.6-0.8,2.6-0.8c0.8,0,1.4,0.2,2,0.5c0.6,0.3,1.1,0.8,1.4,1.3s0.7,1.3,0.9,2.1c0.2,0.8,0.3,2,0.3,3.4
			c0,1.7-0.2,3-0.5,4.1C-2.5,6-3,6.8-3.7,7.4C-4.3,8-5.2,8.2-6.3,8.2c-1.4,0-2.5-0.5-3.2-1.5C-10.5,5.6-10.9,3.6-10.9,0.9z
			 M-9.1,0.9c0,2.4,0.3,3.9,0.8,4.7c0.5,0.8,1.2,1.2,2,1.2c0.8,0,1.5-0.4,2-1.2c0.6-0.8,0.8-2.3,0.8-4.7c0-2.4-0.3-3.9-0.8-4.7
			c-0.6-0.8-1.2-1.2-2-1.2c-0.8,0-1.5,0.3-1.9,1C-8.8-3-9.1-1.4-9.1,0.9z"/>
	</g>
	<g>
		<line class="st1" x1="185.1" y1="332.8" x2="177.9" y2="328.7"/>
	</g>
</g>
</svg>
